
<svg width="363px" height="189px" viewBox="0 0 363 189" version="1.1" xmlns="http://www.w3.org/2000/svg" xmlns:xlink="http://www.w3.org/1999/xlink">
    <!-- Generator: Sketch 46.2 (44496) - http://www.bohemiancoding.com/sketch -->
    <desc>Created with Sketch.</desc>
    <defs>
        <linearGradient x1="97.3239529%" y1="-50.6873816%" x2="17.0793779%" y2="117.687149%" id="linearGradient-1">
            <stop stop-color="#7B98CA" offset="0%"></stop>
            <stop stop-color="#313A4B" offset="100%"></stop>
        </linearGradient>
        <rect id="path-2" x="0" y="0.94768186" width="335" height="160.288371" rx="3"></rect>
        <filter x="-8.1%" y="-9.4%" width="116.1%" height="133.7%" filterUnits="objectBoundingBox" id="filter-4">
            <feOffset dx="0" dy="12" in="SourceAlpha" result="shadowOffsetOuter1"></feOffset>
            <feGaussianBlur stdDeviation="7" in="shadowOffsetOuter1" result="shadowBlurOuter1"></feGaussianBlur>
            <feColorMatrix values="0 0 0 0 0   0 0 0 0 0   0 0 0 0 0  0 0 0 0.14770154 0" type="matrix" in="shadowBlurOuter1"></feColorMatrix>
        </filter>
        <rect id="path-5" x="0" y="0" width="136.453574" height="40" rx="20"></rect>
        <filter x="-14.7%" y="-32.5%" width="129.3%" height="200.0%" filterUnits="objectBoundingBox" id="filter-6">
            <feOffset dx="0" dy="7" in="SourceAlpha" result="shadowOffsetOuter1"></feOffset>
            <feGaussianBlur stdDeviation="5.5" in="shadowOffsetOuter1" result="shadowBlurOuter1"></feGaussianBlur>
            <feColorMatrix values="0 0 0 0 0   0 0 0 0 0   0 0 0 0 0  0 0 0 0.140455163 0" type="matrix" in="shadowBlurOuter1"></feColorMatrix>
        </filter>
    </defs>
    <g id="App" stroke="none" stroke-width="1" fill="none" fill-rule="evenodd">
        <g id="Главный-экран-автосервиса" transform="translate(-6.000000, -190.000000)">
            <g id="Group-9" transform="translate(20.000000, 191.000000)">
                <g id="Rectangle-9-Copy-3" transform="translate(0.000000, 0.458228)">
                    <mask id="mask-3" fill="white">
                        <use xlink:href="#path-2"></use>
                    </mask>
                    <g id="Mask">
                        <use fill="black" fill-opacity="1" filter="url(#filter-4)" xlink:href="#path-2"></use>
                        <use fill="url(#linearGradient-1)" fill-rule="evenodd" xlink:href="#path-2"></use>
                    </g>
                    <g id="carma-362" mask="url(#mask-3)" stroke="#5D7195" stroke-width="1.5" fill="#FFFFFF" fill-rule="nonzero">
                        <g transform="translate(284.692730, 131.970955) scale(-1, 1) translate(-284.692730, -131.970955) translate(241.089555, 91.470955)" id="Shape">
                            <path d="M8.67070533,59.3059572 C9.89408383,61.3419883 11.9346586,62.8317006 14.3355961,63.4415848 C15.1328604,63.6443212 15.9550954,63.747222 16.7809993,63.7476212 C18.4119797,63.7463066 20.0138431,63.3412221 21.425506,62.573103 L25.9644558,60.0917264 L31.4006398,75.1784959 C32.4986805,78.2258215 35.322678,80.4358242 38.7089854,80.8978576 C42.0952927,81.3598911 45.4708413,79.9957649 47.444714,77.3675763 C49.4185867,74.7393878 49.6567427,71.2919081 48.0610484,68.4456942 L39.3174126,52.8626494 L42.8359783,50.9519894 L69.0492928,52.2257627 C69.7075825,52.2661037 70.3503601,52.0264344 70.8003545,51.5728528 C71.250349,51.1192712 71.4600213,50.4996954 71.3715462,49.8849975 C68.5218463,31.1037919 58.1001176,14.0723229 42.2642114,2.31700882 C41.7479216,1.93171906 41.0750611,1.78450142 40.4309133,1.91589474 C39.7867656,2.04728806 39.239262,2.44343568 38.9391668,2.99525175 L26.9408578,24.9637056 L5.53038544,36.5434629 C1.05656532,38.9689614 -0.482567174,44.3433815 2.09098746,48.5533254 L8.67070533,59.3059572 Z M27.7941099,29.2730295 L39.3174126,48.0901351 L32.2275027,51.9279975 L20.6690144,33.1108919 L27.7941099,29.2730295 Z M44.1818297,70.3646254 C44.9414394,71.8258281 44.7855588,73.5613424 43.7760827,74.8820555 C42.7666066,76.2027686 41.0668921,76.8949579 39.3518372,76.683779 C37.6367822,76.4726 36.1839231,75.3922266 35.5701402,73.8716376 L29.8612673,57.9825563 L35.5085653,54.9221919 L44.1818297,70.3646254 Z M41.6132768,7.16396437 C54.7163943,17.6311204 63.544178,32.0543712 66.5862969,47.9660663 L43.6276556,46.8494468 L31.1103581,26.3946327 L41.6132768,7.16396437 Z M7.72069259,40.1414589 L16.8865563,35.1787057 L28.4098589,54.0206251 L19.2439953,58.9833782 C18.1037152,59.5976443 16.7502547,59.7597208 15.4826369,59.4337999 C14.215019,59.1078791 13.1375758,58.3207859 12.4883491,57.2464146 L5.90863125,46.4937829 C4.54737616,44.2686461 5.35788872,41.4273303 7.72069259,40.1414589 Z M66.5950933,18.4542277 L77.0980119,12.7718754 C78.1428249,12.2645272 79.4272304,12.6198189 80.0134309,13.5783374 C80.5996314,14.5368559 80.280179,15.7593952 79.2883191,16.3533289 L68.7854004,22.0025962 C67.7651689,22.4078949 66.5835903,22.0365247 66.0276131,21.1358237 C65.4716359,20.2351227 65.7147737,19.0861883 66.5950933,18.4542277 L66.5950933,18.4542277 Z M59.4348121,10.9273855 L66.2696259,1.48161204 C66.9570507,0.531449717 68.3334826,0.285189105 69.3439727,0.931573573 C70.3544628,1.57795804 70.616359,2.87221494 69.9289343,3.82237727 L63.0589347,13.2267944 C62.6158202,13.8370092 61.8601503,14.1785854 61.0765785,14.1228547 C60.2930067,14.067124 59.6005762,13.6225531 59.2601189,12.9566077 C58.9196616,12.2906622 58.9829011,11.5045152 59.4260156,10.8943005 L59.4348121,10.9273855 Z M71.749792,27.5195234 L83.8360652,26.6923979 C85.0505966,26.6078883 86.1080271,27.4651715 86.1979024,28.6071935 C86.2877777,29.7492155 85.3760639,30.7435158 84.1615326,30.8280255 L72.0752594,31.655151 L71.9081275,31.655151 C71.1224634,31.6817463 70.3813907,31.3121983 69.9640641,30.6857122 C69.5467375,30.059226 69.5165589,29.2709799 69.8848963,28.6178984 C70.2532338,27.9648169 70.964128,27.5461187 71.749792,27.5195234 Z"></path>
                        </g>
                    </g>
                </g>
                <text id="Хотите-больше-заказо" font-family=".SFNSDisplay-Regular, .SF NS Display" font-size="21" font-weight="normal" fill="#FFFFFF">
                    <tspan x="19.2761194" y="40.5500952">Хотите больше заказов?</tspan>
                    <tspan x="19.2761194" y="64.5500952" font-family=".AppleSystemUIFont" font-size="16" line-spacing="23">Добавьте информацию об услугах</tspan>
                </text>
                <g id="Group-7" transform="translate(18.371122, 101.458228)">
                    <g id="Rectangle-5">
                        <use fill="black" fill-opacity="1" filter="url(#filter-6)" xlink:href="#path-5"></use>
                        <use fill="#06AE8F" fill-rule="evenodd" xlink:href="#path-5"></use>
                    </g>
                    <text id="Добавить" font-family="OpenSans, Open Sans" font-size="15" font-weight="normal" letter-spacing="0.535714209" fill="#FFFFFF">
                        <tspan x="24.9179104" y="24.6733398">Добавить</tspan>
                    </text>
                </g>
            </g>
        </g>
    </g>
</svg>