
<svg width="326px" height="281px" viewBox="0 0 326 281" version="1.1" xmlns="http://www.w3.org/2000/svg" xmlns:xlink="http://www.w3.org/1999/xlink">
    <!-- Generator: Sketch 46.2 (44496) - http://www.bohemiancoding.com/sketch -->
    <desc>Created with Sketch.</desc>
    <defs></defs>
    <g id="App" stroke="none" stroke-width="1" fill="none" fill-rule="evenodd" opacity="0.100000001">
        <g id="Экран-входа" transform="translate(-27.000000, -144.000000)" stroke="#FFFFFF" stroke-width="5">
            <g id="large-icons/done" transform="translate(21.000000, 113.000000)">
                <g id="Group-10" transform="translate(66.943426, 143.658517)">
                    <path d="M64.9697691,109.264974 L46.5503376,109.264974 C41.6763506,109.264974 37.7252034,105.313826 37.7252034,100.439839 L37.7252034,95.5819674 C37.7037337,92.8383815 38.9624341,90.2415942 41.1294376,88.5587929 C43.2964412,86.8759916 46.1240422,86.2995339 48.7768623,86.9997268 L67.1962938,91.8373577 C71.6306617,92.8425268 74.5755318,97.0523316 73.999315,101.562538 C73.4230982,106.072743 69.5144172,109.406949 64.9697691,109.264974 Z M44.5869477,58.399005 C49.3638552,46.2543249 55.4564364,32.5510775 58.2699539,28.4826097 C59.8487623,26.2358438 62.1562516,24.4343829 68.3905207,23.4223263 C78.663914,21.864205 89.0516874,21.187036 99.4404196,21.3982129 C109.829189,21.1853527 120.217106,21.8625311 130.490318,23.4223263 C136.663864,24.4951063 138.971353,26.2156027 140.610885,28.4623685 C143.444644,32.5105952 149.516984,46.3352894 154.293891,58.3787639 C135.995907,60.1734778 117.691175,61.0708347 99.3796962,61.0708347 C81.0682174,61.0708347 62.8039678,60.1802248 44.5869477,58.399005 Z M160.973466,100.399357 C160.984234,102.746935 160.059202,105.002056 158.403,106.665855 C156.746798,108.329655 154.495933,109.264998 152.148331,109.264974 L133.789623,109.264974 C129.342518,109.27935 125.57947,105.982537 125.008897,101.572163 C124.438324,97.1617884 127.238503,93.0158863 131.542857,91.8980811 L149.98253,86.9997268 C152.631242,86.293944 155.457564,86.8620082 157.627889,88.5363721 C159.798214,90.2107359 161.064931,92.8003734 161.05443,95.5414851 L160.973466,100.399357 Z" id="Shape" fill-rule="nonzero"></path>
                    <path d="M188.440581,45.9414096 C187.172137,45.9414096 185.896945,42.9550201 184.615007,42.9550201 C180.25218,43.1681422 176.12798,45.0099476 173.05732,48.1165092 C168.199448,35.7896589 161.904455,21.863759 158.078881,16.2772061 C151.176654,6.35905069 141.116811,3.58601539 134.153861,2.37154738 C122.649904,0.612127714 111.014311,-0.139648066 99.3795934,0.124781551 C87.7651176,-0.136010005 76.1500058,0.615755243 64.6660494,2.37154738 C57.7030994,3.58601539 47.6432561,6.41977409 40.7410295,16.2772061 C36.8547319,21.863759 30.6204628,35.7896589 25.7221084,48.0557858 C22.6514478,44.9492242 18.5272483,43.1074188 14.1644212,42.8942967 C12.8824827,42.8942967 11.6072913,42.8942967 10.3388469,42.8942967 C4.77679914,42.959868 0.283851382,47.4528157 0.218280161,53.0148635 C0.218280161,55.1806648 0.218280161,57.5083952 0.218280161,60.3421539 C0.326094716,66.0763774 4.94872267,70.6990054 10.6829462,70.8068199 L15.1562367,70.8068199 C10.0065201,88.818322 7.08438105,107.607403 7.08002443,126.510419 L7.08002443,155.434999 C7.08001351,161.139506 11.6985065,165.767055 17.4030025,165.778219 L30.7823918,165.778219 C36.4947941,165.778219 41.1256111,161.147402 41.1256111,155.434999 L41.1256111,144.180929 C60.5031229,146.070102 79.921117,147.014688 99.3795934,147.014688 C118.83807,147.014688 138.256064,146.070102 157.633576,144.180929 L157.633576,155.434999 C157.633576,161.147402 162.264393,165.778219 167.976795,165.778219 L181.356184,165.778219 C187.068587,165.778219 191.699404,161.147402 191.699404,155.434999 L191.699404,126.510419 C191.688502,107.606349 188.759532,88.8172432 183.015957,70.8068199 L187.995276,70.8068199 C193.741578,70.7435283 198.409123,66.147516 198.561148,60.4028773 C198.561148,57.5691186 198.561148,55.2413882 198.561148,53.0755869 C198.495577,47.5135391 194.002629,46.0069808 188.440581,45.9414096 Z" id="Path"></path>
                </g>
                <g id="Group-12" transform="translate(17.042666, 132.911390) rotate(-315.000000) translate(-17.042666, -132.911390) translate(5.042666, 120.911390)" stroke-linecap="round">
                    <path d="M12.5,0.537085264 L12.5,23.5147021" id="Path-14"></path>
                    <path d="M23.3709491,12 L0.393332341,12" id="Path-14-Copy"></path>
                </g>
                <g id="Group-12-Copy-2" transform="translate(299.078736, 223.132640) rotate(-315.000000) translate(-299.078736, -223.132640) translate(287.078736, 211.132640)" stroke-linecap="round">
                    <path d="M12.5,0.537085264 L12.5,23.5147021" id="Path-14"></path>
                    <path d="M23.3709491,12 L0.393332341,12" id="Path-14-Copy"></path>
                </g>
                <g id="Group-12-Copy" transform="translate(268.403136, 45.257947) rotate(-315.000000) translate(-268.403136, -45.257947) translate(252.403136, 29.757947)" stroke-linecap="round">
                    <path d="M15.5,0.0959067948 L15.5,30.9922647" id="Path-14"></path>
                    <path d="M31.7698723,15 L0.873514346,15" id="Path-14-Copy"></path>
                </g>
                <circle id="Oval-7-Copy" cx="68.736573" cy="72.7841405" r="17.8175601"></circle>
                <circle id="Oval-7-Copy-2" cx="29.7694941" cy="217.655586" r="11.0675667"></circle>
                <circle id="Oval-7-Copy-3" cx="318.192633" cy="119.274491" r="11.0675667"></circle>
            </g>
        </g>
    </g>
</svg>