<svg xmlns="http://www.w3.org/2000/svg" style="display: none;">
    <symbol id="icon_arrow" viewBox="0 0 25.2 17.7">
      <defs><clipPath id="a"><path d="M0 0h25.9v18H0z"/></clipPath></defs><g clip-path="url(#a)"><path d="M17 .3a.92.92 0 0 0-1.3 1.3L22.1 8H.9a.9.9 0 0 0-.9.9.9.9 0 0 0 .9.9h21.2l-6.4 6.4a.9.9 0 0 0 0 1.3.9.9 0 0 0 1.3 0l8-8a.9.9 0 0 0 0-1.3zm0 0"/></g>
    </symbol>
    <symbol id="icon_more" viewBox="0 0 12 5">
      <path class="cls-1" d="M0 3h9v2h1V4h1V3h1V2h-1V1h-1V0H9v2H0v1z"/>
    </symbol></svg>