
<svg width="129px" height="96px" viewBox="0 0 129 96" version="1.1" xmlns="http://www.w3.org/2000/svg" xmlns:xlink="http://www.w3.org/1999/xlink">
    <!-- Generator: Sketch 46.2 (44496) - http://www.bohemiancoding.com/sketch -->
    <desc>Created with Sketch.</desc>
    <defs>
        <polygon id="path-1" points="72.9206084 0.107306129 0.401536884 0.107306129 0.401536884 59.9584255 72.9206084 59.9584255 72.9206084 0.107306129"></polygon>
    </defs>
    <g id="App" stroke="none" stroke-width="1" fill="none" fill-rule="evenodd">
        <g id="Экран-входа" transform="translate(-123.000000, -133.000000)">
            <g id="LOGO" transform="translate(123.000000, 133.000000)">
                <g id="Page-1" transform="translate(0.000000, 0.076521)">
                    <path d="M59.9239816,76.1936188 L59.9239816,82.0464395 C61.399772,81.9457572 62.8185975,81.986825 64.1844323,81.7205468 C65.5211222,81.4595677 66.1596599,80.2103124 66.0232089,78.6669589 C65.9066294,77.3143717 65.0521547,76.2969507 63.7817031,76.209516 C62.5165506,76.1207566 61.2421247,76.1936188 59.9239816,76.1936188 M69.4252106,85.762411 C70.6016037,87.4263184 71.7594501,88.9908683 72.8364857,90.6137079 C73.9545891,92.2974867 73.7624979,94.0369058 72.4364061,95.0940699 C70.975188,96.2638392 68.8436379,95.9803391 67.7109621,94.3760462 C66.3146577,92.3862461 64.9859163,90.3593526 63.6730722,88.3152371 C63.3153851,87.7522111 62.9100064,87.5495217 62.2701439,87.5945638 C61.5084029,87.6409307 60.7466619,87.6038372 59.8524441,87.6038372 C59.8524441,89.299539 59.8577432,90.919729 59.8497946,92.5359448 C59.8352222,94.2250228 58.7290417,95.5325678 57.1472699,95.7538039 C55.3932783,95.9949115 53.9068897,95.0794975 53.4498451,93.4407607 C53.3557867,93.1108937 53.3398895,92.745258 53.3398895,92.3968443 C53.3306161,86.1942851 53.3306161,79.9890763 53.3372399,73.7838676 C53.3372399,71.7357778 54.6394859,70.4454547 56.6955243,70.4414804 C59.0615582,70.4335318 61.4302417,70.3712678 63.793626,70.4547281 C66.5027746,70.5527608 68.945645,71.4019365 70.7645501,73.520239 C73.7770703,77.0242477 73.3398972,82.3802808 69.8252903,85.3861772 C69.7020869,85.4908338 69.5947808,85.603439 69.4252106,85.762411" id="Fill-1" fill="#282322"></path>
                    <path d="M13.2311106,70.0044398 C17.2835729,70.1051221 20.5689952,71.2669427 23.1019497,74.1218157 C24.8493174,76.0851204 24.2359503,78.6737152 21.9043603,79.3413977 C20.5915162,79.714982 19.5303778,79.2168696 18.6229124,78.2908575 C17.4756642,77.1078405 16.1349999,76.3381509 14.4657935,76.1208891 C9.77479347,75.5154706 6.1621538,79.0234537 6.76359803,83.9383393 C7.08684118,86.5507799 8.45135121,88.4928883 11.0081516,89.3513374 C13.706702,90.2614523 16.1376495,89.7593656 18.2877464,87.8119581 C18.9488051,87.2118386 19.779434,86.6501374 20.6259601,86.4289013 C21.7745332,86.1268544 22.8422954,86.6289411 23.5404476,87.6410631 C24.2359503,88.6439118 24.2385998,89.751417 23.6437794,90.8085811 C22.6687509,92.5519745 21.0962524,93.640933 19.3462352,94.4914334 C11.9301894,98.1133464 2.72305861,94.1708398 0.501424318,86.4381747 C-1.63807442,79.0049069 3.30065703,71.3570269 10.9710581,70.2481969 C11.8215585,70.1276431 12.6839818,70.0667038 13.2311106,70.0044398" id="Fill-3" fill="#282322"></path>
                    <path d="M40.7057188,86.9158857 C39.8750899,84.5458775 39.0855288,82.2792011 38.2164816,79.7806905 C37.3474344,82.2805259 36.5499247,84.5630994 35.7298939,86.9158857 L40.7057188,86.9158857 Z M46.2776889,95.7693037 C44.6760456,95.7904999 43.6705474,94.8909831 43.2201267,93.4893796 C42.854491,92.3699515 42.2755678,92.0652551 41.1534901,92.116921 C38.9543768,92.2149538 36.7446654,92.1606383 34.5389284,92.1328182 C33.9759024,92.1195705 33.6553088,92.2692692 33.5109092,92.838919 C33.4155259,93.2045547 33.227409,93.5489941 33.0551893,93.8868097 C32.1901164,95.597084 30.5195852,96.2356217 28.792089,95.5374694 C27.2235649,94.9002565 26.4909687,93.2389987 27.1758733,91.4638109 C28.3310701,88.4632136 29.5975474,85.503684 30.8242816,82.5322316 C32.2311842,79.1222813 33.6553088,75.71763 35.0449894,72.2944321 C35.6239125,70.8809056 36.5750953,70.0767721 38.1475937,70.0463024 C39.7704333,70.014508 40.7891792,70.8252654 41.3787005,72.2560138 C43.96862,78.5195123 46.5651634,84.7843355 49.1219637,91.0677055 C50.1645554,93.6284802 48.8437627,95.7679789 46.2776889,95.7693037 L46.2776889,95.7693037 Z" id="Fill-5" fill="#282322"></path>
                    <path d="M98.6241356,76.7512133 C96.5720715,79.9452266 94.5186826,83.1392398 92.4652937,86.3292788 C92.3049969,86.5743607 92.1619221,86.8181179 91.9989757,87.0579007 C90.9007439,88.699287 89.6634115,88.6886889 88.5824016,87.0168329 C86.5396108,83.8532893 84.508743,80.681797 82.4659522,77.5169286 C82.3003564,77.2559495 82.114889,77.0055685 81.762501,76.5008323 L81.762501,77.7699591 C81.7572019,83.2041534 81.762501,88.6409973 81.7572019,94.0725421 C81.7572019,95.2701315 81.0073837,95.9841809 79.9912874,95.7443981 C79.2494179,95.5721783 78.8612612,95.0594935 78.8612612,94.2845048 C78.8612612,86.675043 78.8466887,79.0655813 78.902329,71.4534699 C78.902329,71.0003996 79.3527497,70.3751096 79.7700513,70.1446001 C80.3529488,69.8240065 81.0312296,70.0717379 81.4485312,70.657285 C82.0049333,71.4428718 82.5268915,72.2443559 83.0409011,73.0498142 C85.4374047,76.7445894 87.8246348,80.448638 90.286052,84.2626423 C90.7868139,83.4982517 91.2531319,82.7987747 91.7035527,82.1006225 C93.9689043,78.5846908 96.2236578,75.0674344 98.4929837,71.5541522 C98.7380656,71.1765936 98.9473788,70.6851051 99.3037411,70.5115606 C99.799204,70.2625044 100.477485,70.0704132 100.954401,70.2240861 C101.308114,70.3433152 101.52935,71.0295445 101.694946,71.5011616 C101.804901,71.8151313 101.720116,72.1993138 101.720116,72.5530266 C101.720116,79.7147171 101.720116,86.8777324 101.716142,94.0394229 C101.716142,95.2423114 101.195508,95.8172602 100.188685,95.7655943 C99.3130145,95.7179027 98.8202011,95.1071851 98.8202011,94.0394229 C98.8188764,88.6343734 98.8202011,83.2306488 98.8202011,77.8255993 L98.8202011,76.7962553 C98.7566123,76.7803581 98.6916987,76.7684352 98.6241356,76.7512133" id="Fill-7" fill="#282322"></path>
                    <path d="M117.725951,74.5583264 C115.903072,79.0625343 114.1769,83.3349079 112.432182,87.6351017 L122.876645,87.6351017 C121.159747,83.2752934 119.481268,79.0161674 117.725951,74.5583264 M107.645799,95.7625474 C106.914528,95.753274 106.249495,94.8153389 106.650899,93.751551 C107.257642,92.1419591 107.949171,90.5641616 108.626127,88.9837145 C111.103441,83.1852093 113.592678,77.3893535 116.076616,71.586874 C116.115035,71.4994394 116.150803,71.4093552 116.187897,71.3245701 C116.489944,70.6237684 116.856904,70.0236489 117.770993,70.0448452 C118.641365,70.0660414 118.975207,70.6529132 119.260031,71.319271 C120.139677,73.3673609 121.011374,75.4220745 121.891019,77.4688396 C124.10073,82.6248328 126.306467,87.775527 128.514854,92.9288707 C128.656604,93.2494643 128.823525,93.5713827 128.90566,93.905224 C129.079205,94.6364954 128.85002,95.2498625 128.163791,95.6022506 C127.494783,95.9480147 126.817827,95.8658792 126.379329,95.2339653 C125.980575,94.6643155 125.714296,94.0072311 125.41225,93.3792915 C124.941957,92.4069125 124.733969,91.0503511 123.965604,90.5482644 C123.190615,90.0488272 121.863199,90.380019 120.784838,90.3773694 C117.939239,90.3667713 115.089665,90.3959162 112.250689,90.3521988 C111.53664,90.3416007 111.157756,90.5336919 110.902076,91.2185965 C110.456955,92.4122116 109.911151,93.5660836 109.418337,94.7398272 C109.142786,95.3929374 108.702963,95.7850684 107.645799,95.7625474" id="Fill-9" fill="#282322"></path>
                    <g id="Group-13" transform="translate(27.820107, 0.466094)">
                        <mask id="mask-2" fill="white">
                            <use xlink:href="#path-1"></use>
                        </mask>
                        <g id="Clip-12"></g>
                        <path d="M72.9206084,29.6490808 C72.9206084,29.4622887 72.8901388,29.0158422 72.8901388,29.0092183 C72.8411224,27.4764629 72.5907414,26.2060113 72.5907414,26.2060113 C70.9665771,17.2028946 63.1292554,10.4704286 53.7419562,10.4704286 C53.311407,10.4704286 52.8795329,10.4850011 52.4489836,10.5141459 C46.8650906,3.96979686 38.5627757,0.106776222 29.9411919,0.106776222 C13.8611698,0.106776222 0.902298818,12.7106097 0.438630361,28.811828 L0.425382691,29.119174 C0.41213502,29.2940432 0.401536884,29.4689125 0.401536884,29.6490808 L0.404186418,29.8517702 L0.406835952,30.1114245 L0.401536884,30.4108218 C0.401536884,30.5274013 0.414784554,30.6929972 0.414784554,30.7247916 C0.475723837,32.4867318 0.730079106,33.8552161 0.730079106,33.8552161 C2.35291871,42.8609823 10.1942147,49.5921235 19.5828386,49.5921235 C20.0133879,49.5921235 20.4452619,49.5762263 20.8744864,49.5484062 C26.4544051,56.0927553 34.7553953,59.9584255 43.3783038,59.9584255 C59.6676391,59.9584255 72.9206084,46.7014819 72.9206084,30.4108218 L72.9100103,30.0544595 L72.9206084,29.6490808 Z" id="Fill-11" fill="#FEFEFE" mask="url(#mask-2)"></path>
                    </g>
                    <path d="M91.8593453,29.3454852 C91.2989688,25.7898105 88.2374322,23.0528419 84.5254351,23.0528419 C80.8174122,23.0528419 77.7572003,25.7898105 77.202123,29.3454852 L51.2989534,29.3454852 C51.3585679,29.7230438 51.4168576,30.1006024 51.4168576,30.4980325 C51.4168576,34.6034855 48.0718209,37.9432232 43.9690174,37.9432232 C39.8595901,37.9432232 36.5198525,34.6034855 36.5198525,30.4980325 C36.5198525,30.1006024 36.5781422,29.7230438 36.636432,29.3454852 L33.2105845,29.3454852 C33.6186127,16.15478 44.4737537,5.54604566 57.7611669,5.54604566 C65.6170354,5.54604566 73.0582517,9.34945178 77.6724152,15.7215812 L78.1056141,16.3177263 L78.8276121,16.1759762 C79.7297784,16.001107 80.6451924,15.9096981 81.5619312,15.9096981 C89.1329748,15.9096981 95.340833,21.8671754 95.7462117,29.3454852 L91.8593453,29.3454852 Z M84.5254351,35.714965 C81.6493658,35.714965 79.3071778,33.3741017 79.3071778,30.4980325 C79.3071778,27.6193138 81.6493658,25.2784505 84.5254351,25.2784505 C87.4054786,25.2784505 89.7476666,27.6193138 89.7476666,30.4980325 C89.7476666,33.3741017 87.4054786,35.714965 84.5254351,35.714965 L84.5254351,35.714965 Z M98.0605797,30.4423923 L98.0605797,30.4172217 C98.0658788,30.3152147 98.0685283,30.2158571 98.0685283,30.1151748 C98.0685283,29.9204341 98.0460073,29.7283429 98.0380587,29.5349269 L98.0327596,29.3454852 L98.0274605,29.3454852 C97.6220818,20.5993733 90.4087254,13.6085778 81.5619312,13.6085778 C80.7405757,13.6085778 79.9231944,13.669517 79.1071379,13.7927204 C74.034605,7.17285957 66.1098487,3.24360058 57.7611669,3.24360058 C43.2046269,3.24360058 31.3453125,14.8856532 30.9319852,29.3454852 L30.9306604,29.3454852 L30.9266861,29.5190297 C30.9200623,29.7203943 30.8935669,29.915135 30.8935669,30.1151748 C30.8935669,30.2092333 30.9001908,30.5642709 30.9001908,30.5642709 C30.8975412,30.6702522 30.8935669,30.7735841 30.8935669,30.8769159 C30.8935669,30.9683248 30.9068146,31.0557594 30.9068146,31.1458436 L30.916088,31.6479303 L30.9319852,31.6479303 C31.3386887,40.3927174 38.5626432,47.3848377 47.4028136,47.3848377 C48.2175453,47.3848377 49.0415504,47.3252232 49.8562821,47.2020199 C54.923516,53.8205559 62.8469475,57.7511397 71.1982788,57.7511397 C86.0157979,57.7511397 98.0685283,45.6970846 98.0685283,30.8769159 C98.0685283,30.7444392 98.0658788,30.6079882 98.0605797,30.4728619 L98.0605797,30.4423923 Z" id="Fill-14" fill="#282322"></path>
                    <path d="M49.0501614,29.3454852 L49.0501614,29.3454852 C48.5255536,27.0218439 46.4496437,25.2784505 43.9683551,25.2784505 C41.4857417,25.2784505 39.413806,27.0218439 38.885224,29.3454852 L38.885224,29.3507843 C38.8004389,29.7203943 38.748773,30.1006024 38.748773,30.4980325 C38.748773,33.3741017 41.0896363,35.7189393 43.9683551,35.7189393 C46.8430995,35.7189393 49.1866124,33.3741017 49.1866124,30.4980325 C49.1866124,30.1006024 49.1349465,29.7203943 49.0501614,29.3534338 L49.0501614,29.3454852 Z" id="Fill-16" fill="#282322"></path>
                </g>
            </g>
        </g>
    </g>
</svg>