<svg width="12" height="12" viewBox="0 0 12 12" fill="none" xmlns="http://www.w3.org/2000/svg">
<mask id="path-1-inside-1" fill="white">
<path d="M4.60951 7.80008V10.2C4.60951 10.6774 4.79914 11.1352 5.1367 11.4728C5.47426 11.8104 5.93209 12 6.40947 12L8.80943 6.6001V0.000216893H2.04155C1.75216 -0.00305469 1.47134 0.0983719 1.25082 0.285808C1.03031 0.473244 0.884966 0.73406 0.841573 1.0202L0.0135883 6.4201C-0.0125158 6.59208 -0.000915949 6.76769 0.0475839 6.93474C0.0960838 7.1018 0.180324 7.25631 0.294468 7.38757C0.408612 7.51884 0.549931 7.62372 0.708633 7.69495C0.867335 7.76617 1.03963 7.80205 1.21357 7.80008H4.60951ZM8.80943 0.000216893H10.4114C10.751 -0.00578849 11.0809 0.113096 11.3386 0.334302C11.5963 0.555508 11.7639 0.863637 11.8094 1.2002V5.40012C11.7639 5.73668 11.5963 6.04481 11.3386 6.26601C11.0809 6.48722 10.751 6.6061 10.4114 6.6001H8.80943"/>
</mask>
<path d="M4.60951 7.80008H5.60951C5.60951 7.24779 5.16179 6.80008 4.60951 6.80008V7.80008ZM6.40947 12V13C6.80466 13 7.16278 12.7673 7.32328 12.4061L6.40947 12ZM8.80943 6.6001L9.72324 7.00624C9.78007 6.87838 9.80943 6.74002 9.80943 6.6001H8.80943ZM8.80943 0.000216893H9.80943C9.80943 -0.552068 9.36171 -0.999783 8.80943 -0.999783V0.000216893ZM2.04155 0.000216893L2.03025 1.00022H2.04155V0.000216893ZM0.841573 1.0202L1.83002 1.17176L1.83027 1.17013L0.841573 1.0202ZM0.0135883 6.4201L-0.974861 6.26854L-0.975088 6.27004L0.0135883 6.4201ZM1.21357 7.80008V6.80001L1.20224 6.80014L1.21357 7.80008ZM8.80943 -0.999783C8.25714 -0.999783 7.80943 -0.552068 7.80943 0.000216893C7.80943 0.552502 8.25714 1.00022 8.80943 1.00022V-0.999783ZM10.4114 0.000216893V1.00022C10.4173 1.00022 10.4232 1.00016 10.4291 1.00006L10.4114 0.000216893ZM11.8094 1.2002H12.8094C12.8094 1.15536 12.8064 1.11058 12.8004 1.06615L11.8094 1.2002ZM11.8094 5.40012L12.8004 5.53416C12.8064 5.48973 12.8094 5.44495 12.8094 5.40012H11.8094ZM10.4114 6.6001L10.4291 5.60025C10.4232 5.60015 10.4173 5.6001 10.4114 5.6001V6.6001ZM8.80943 5.6001C8.25714 5.6001 7.80943 6.04781 7.80943 6.6001C7.80943 7.15238 8.25714 7.6001 8.80943 7.6001V5.6001ZM3.6095 7.80008V10.2H5.60951V7.80008H3.6095ZM3.6095 10.2C3.6095 10.9426 3.9045 11.6548 4.4296 12.1799L5.84381 10.7657C5.69379 10.6157 5.60951 10.4122 5.60951 10.2H3.6095ZM4.4296 12.1799C4.95469 12.705 5.66688 13 6.40947 13V11C6.19731 11 5.99383 10.9157 5.84381 10.7657L4.4296 12.1799ZM7.32328 12.4061L9.72324 7.00624L7.89562 6.19396L5.49566 11.5939L7.32328 12.4061ZM9.80943 6.6001V0.000216893H7.80943V6.6001H9.80943ZM8.80943 -0.999783H2.04155V1.00022H8.80943V-0.999783ZM2.05286 -0.999719C1.5223 -1.00572 1.00745 -0.819767 0.603174 -0.476131L1.89847 1.04775C1.93522 1.01651 1.98202 0.999608 2.03025 1.00015L2.05286 -0.999719ZM0.603174 -0.476131C0.198897 -0.132496 -0.0675679 0.345671 -0.147122 0.870262L1.83027 1.17013C1.8375 1.12245 1.86172 1.07898 1.89847 1.04775L0.603174 -0.476131ZM-0.146874 0.868636L-0.974859 6.26854L1.00204 6.57166L1.83002 1.17176L-0.146874 0.868636ZM-0.975088 6.27004C-1.02295 6.58534 -1.00168 6.90728 -0.912762 7.21355L1.00793 6.65593C0.999847 6.62809 0.997914 6.59882 1.00226 6.57016L-0.975088 6.27004ZM-0.912762 7.21355C-0.823845 7.51982 -0.669404 7.8031 -0.460137 8.04375L1.04907 6.7314C1.03005 6.70952 1.01601 6.68377 1.00793 6.65593L-0.912762 7.21355ZM-0.460137 8.04375C-0.250871 8.28441 0.00821505 8.47669 0.299171 8.60727L1.11809 6.78262C1.09165 6.77075 1.0681 6.75327 1.04907 6.7314L-0.460137 8.04375ZM0.299171 8.60727C0.590126 8.73786 0.905995 8.80362 1.22489 8.80001L1.20224 6.80014C1.17326 6.80047 1.14454 6.79449 1.11809 6.78262L0.299171 8.60727ZM1.21357 8.80008H4.60951V6.80008H1.21357V8.80008ZM8.80943 1.00022H10.4114V-0.999783H8.80943V1.00022ZM10.4291 1.00006C10.5236 0.998388 10.6155 1.0315 10.6873 1.0931L11.99 -0.424495C11.5463 -0.805304 10.9783 -1.00997 10.3937 -0.999627L10.4291 1.00006ZM10.6873 1.0931C10.7591 1.1547 10.8057 1.24051 10.8184 1.33424L12.8004 1.06615C12.722 0.486763 12.4336 -0.0436848 11.99 -0.424495L10.6873 1.0931ZM10.8094 1.2002V5.40012H12.8094V1.2002H10.8094ZM10.8184 5.26608C10.8057 5.3598 10.7591 5.44561 10.6873 5.50722L11.99 7.02481C12.4336 6.644 12.722 6.11355 12.8004 5.53416L10.8184 5.26608ZM10.6873 5.50722C10.6155 5.56882 10.5236 5.60193 10.4291 5.60025L10.3937 7.59994C10.9783 7.61028 11.5463 7.40562 11.99 7.02481L10.6873 5.50722ZM10.4114 5.6001H8.80943V7.6001H10.4114V5.6001Z" fill="#00497B" mask="url(#path-1-inside-1)"/>
</svg>
