<svg width="30" height="30" viewBox="0 0 30 30" fill="none" xmlns="http://www.w3.org/2000/svg">
<path fill-rule="evenodd" clip-rule="evenodd" d="M11.1249 20.8334C11.24 20.8334 11.3333 20.7401 11.3333 20.625C11.3333 20.51 11.24 20.4167 11.1249 20.4167C11.0099 20.4167 10.9166 20.51 10.9166 20.625C10.9166 20.7401 11.0099 20.8334 11.1249 20.8334ZM9.33325 20.625C9.33325 19.6355 10.1354 18.8334 11.1249 18.8334C12.1144 18.8334 12.9166 19.6355 12.9166 20.625C12.9166 21.6146 12.1144 22.4167 11.1249 22.4167C10.1354 22.4167 9.33325 21.6146 9.33325 20.625Z" fill="#00497B"/>
<path fill-rule="evenodd" clip-rule="evenodd" d="M19.8334 20.8334C19.9485 20.8334 20.0417 20.7401 20.0417 20.625C20.0417 20.51 19.9485 20.4167 19.8334 20.4167C19.7184 20.4167 19.6251 20.51 19.6251 20.625C19.6251 20.7401 19.7184 20.8334 19.8334 20.8334ZM18.0417 20.625C18.0417 19.6355 18.8439 18.8334 19.8334 18.8334C20.8229 18.8334 21.6251 19.6355 21.6251 20.625C21.6251 21.6146 20.8229 22.4167 19.8334 22.4167C18.8439 22.4167 18.0417 21.6146 18.0417 20.625Z" fill="#00497B"/>
<path fill-rule="evenodd" clip-rule="evenodd" d="M3.79175 4.79163C3.79175 4.23934 4.23946 3.79163 4.79175 3.79163H7.95841C8.43504 3.79163 8.84543 4.12801 8.93897 4.59537L9.57036 7.74996H22.2084C22.5064 7.74996 22.7889 7.88289 22.9789 8.11251C23.1689 8.34214 23.2465 8.64454 23.1907 8.93729L21.9226 15.5869C21.8045 16.1815 21.481 16.7157 21.0087 17.0959C20.5392 17.4739 19.9524 17.6757 19.35 17.6666H11.6719C11.0694 17.6757 10.4827 17.4739 10.0132 17.0959C9.54115 16.7159 9.21773 16.1822 9.09945 15.5879C9.09938 15.5875 9.09931 15.5872 9.09924 15.5869L7.778 8.98557C7.77189 8.96031 7.76675 8.93467 7.76261 8.90869L7.13873 5.79163H4.79175C4.23946 5.79163 3.79175 5.34391 3.79175 4.79163ZM9.97065 9.74996L11.0609 15.1972C11.0876 15.3315 11.1606 15.4521 11.2673 15.538C11.3739 15.6238 11.5074 15.6694 11.6443 15.6668L11.6634 15.6666H19.3584L19.3776 15.6668C19.5145 15.6694 19.6479 15.6238 19.7545 15.538C19.8604 15.4527 19.9332 15.3332 19.9603 15.2C19.9605 15.1991 19.9607 15.1982 19.9609 15.1972L20.9997 9.74996H9.97065Z" fill="#00497B"/>
</svg>
