<svg width="30" height="30" viewBox="0 0 30 30" fill="none" xmlns="http://www.w3.org/2000/svg">
<path fill-rule="evenodd" clip-rule="evenodd" d="M16.7934 7.39828C17.4258 7.13536 18.1039 7 18.7887 7C19.4735 7 20.1516 7.13536 20.7841 7.39828C21.4164 7.66112 21.9907 8.04627 22.4743 8.53156C22.9582 9.01677 23.3419 9.5927 23.6036 10.2264C23.8653 10.86 24 11.5391 24 12.2248C24 12.9105 23.8653 13.5896 23.6036 14.2232C23.3419 14.8568 22.9583 15.4327 22.4745 15.9178C22.4744 15.9179 22.4745 15.9178 22.4745 15.9178L15.708 22.706C15.5204 22.8942 15.2656 23 14.9998 23C14.734 23 14.4792 22.8942 14.2916 22.706L7.5251 15.9178C6.54823 14.9378 6 13.6093 6 12.2248C6 10.8402 6.54823 9.51173 7.5251 8.53173C8.50209 7.55161 9.82784 7.00041 11.2109 7.00041C12.5939 7.00041 13.9197 7.55161 14.8967 8.53173L14.9998 8.63518L15.1028 8.53189C15.1028 8.53184 15.1027 8.53195 15.1028 8.53189C15.5864 8.04652 16.1609 7.66115 16.7934 7.39828ZM21.0578 9.94351C20.7596 9.64418 20.4057 9.4069 20.0164 9.24508C19.6271 9.08325 19.2099 9 18.7887 9C18.3675 9 17.9503 9.08325 17.561 9.24508C17.1717 9.4069 16.8178 9.64418 16.5196 9.94351L15.708 10.7576C15.5204 10.9459 15.2656 11.0517 14.9998 11.0517C14.734 11.0517 14.4792 10.9459 14.2916 10.7576L13.4802 9.94368C12.8778 9.33934 12.0614 9.00041 11.2109 9.00041C10.3603 9.00041 9.54398 9.33934 8.94158 9.94368C8.33906 10.5481 8 11.3686 8 12.2248C8 13.081 8.33906 13.9015 8.94158 14.5059L14.9998 20.5835L21.058 14.5059C21.3564 14.2067 21.5934 13.8511 21.7551 13.4597C21.9167 13.0683 22 12.6487 22 12.2248C22 11.8009 21.9167 11.3813 21.7551 10.9899C21.5934 10.5984 21.3562 10.2427 21.0578 9.94351Z" fill="#00497B"/>
</svg>
