<svg width="12" height="12" viewBox="0 0 12 12" fill="none" xmlns="http://www.w3.org/2000/svg">
<path d="M7.46906 3C7.95743 3.09528 8.40625 3.33413 8.75809 3.68597C9.10993 4.03781 9.34878 4.48663 9.44406 4.975L7.46906 3ZM7.46906 1C8.4837 1.11272 9.42985 1.56709 10.1522 2.2885C10.8745 3.00992 11.3301 3.9555 11.4441 4.97L7.46906 1ZM10.9441 8.96V10.46C10.9446 10.5993 10.9161 10.7371 10.8603 10.8647C10.8045 10.9923 10.7227 11.1068 10.6201 11.2009C10.5175 11.2951 10.3963 11.3667 10.2644 11.4114C10.1325 11.456 9.99274 11.4725 9.85406 11.46C8.31548 11.2928 6.83756 10.7671 5.53906 9.925C4.33097 9.15733 3.30673 8.13309 2.53906 6.925C1.69405 5.6206 1.16818 4.1355 1.00406 2.59C0.991564 2.45173 1.008 2.31238 1.05231 2.18081C1.09662 2.04924 1.16784 1.92834 1.26144 1.82581C1.35504 1.72328 1.46896 1.64135 1.59595 1.58526C1.72295 1.52917 1.86023 1.50013 1.99906 1.5H3.49906C3.74171 1.49761 3.97695 1.58354 4.16094 1.74177C4.34492 1.89999 4.4651 2.11972 4.49906 2.36C4.56237 2.84003 4.67978 3.31136 4.84906 3.765C4.91633 3.94396 4.93089 4.13846 4.89101 4.32544C4.85113 4.51242 4.75849 4.68406 4.62406 4.82L3.98906 5.455C4.70084 6.70677 5.73729 7.74322 6.98906 8.455L7.62406 7.82C7.76 7.68557 7.93164 7.59292 8.11862 7.55305C8.3056 7.51317 8.5001 7.52773 8.67906 7.595C9.13269 7.76428 9.60403 7.88169 10.0841 7.945C10.3269 7.97926 10.5488 8.1016 10.7073 8.28875C10.8659 8.47589 10.9501 8.71479 10.9441 8.96Z" stroke="#00497B" stroke-linecap="round" stroke-linejoin="round"/>
</svg>
