<svg width="30" height="30" viewBox="0 0 30 30" fill="none" xmlns="http://www.w3.org/2000/svg">
<path fill-rule="evenodd" clip-rule="evenodd" d="M21 10C21.5523 10 22 10.4477 22 11V21C22 21.5523 21.5523 22 21 22C20.4477 22 20 21.5523 20 21V11C20 10.4477 20.4477 10 21 10Z" fill="#00497B"/>
<path fill-rule="evenodd" clip-rule="evenodd" d="M15 4C15.5523 4 16 4.44772 16 5V21C16 21.5523 15.5523 22 15 22C14.4477 22 14 21.5523 14 21V5C14 4.44772 14.4477 4 15 4Z" fill="#00497B"/>
<path fill-rule="evenodd" clip-rule="evenodd" d="M9 14C9.55228 14 10 14.4477 10 15V21C10 21.5523 9.55228 22 9 22C8.44772 22 8 21.5523 8 21V15C8 14.4477 8.44772 14 9 14Z" fill="#00497B"/>
</svg>
