<svg width="30" height="30" viewBox="0 0 30 30" fill="none" xmlns="http://www.w3.org/2000/svg">
<path fill-rule="evenodd" clip-rule="evenodd" d="M9.25526 17.2617C10.059 16.4538 11.1491 16 12.2857 16H18.7143C19.8509 16 20.941 16.4538 21.7447 17.2617C22.5485 18.0695 23 19.1652 23 20.3077V21.9231C23 22.5178 22.5203 23 21.9286 23C21.3368 23 20.8571 22.5178 20.8571 21.9231V20.3077C20.8571 19.7365 20.6314 19.1886 20.2295 18.7847C19.8276 18.3808 19.2826 18.1538 18.7143 18.1538H12.2857C11.7174 18.1538 11.1723 18.3808 10.7705 18.7847C10.3686 19.1886 10.1429 19.7365 10.1429 20.3077V21.9231C10.1429 22.5178 9.66316 23 9.07143 23C8.47969 23 8 22.5178 8 21.9231V20.3077C8 19.1652 8.45153 18.0695 9.25526 17.2617Z" fill="#00497B"/>
<path fill-rule="evenodd" clip-rule="evenodd" d="M15.5 8.25C14.2574 8.25 13.25 9.25736 13.25 10.5C13.25 11.7426 14.2574 12.75 15.5 12.75C16.7426 12.75 17.75 11.7426 17.75 10.5C17.75 9.25736 16.7426 8.25 15.5 8.25ZM11 10.5C11 8.01472 13.0147 6 15.5 6C17.9853 6 20 8.01472 20 10.5C20 12.9853 17.9853 15 15.5 15C13.0147 15 11 12.9853 11 10.5Z" fill="#00497B"/>
</svg>
