<svg width="30" height="30" viewBox="0 0 30 30" fill="none" xmlns="http://www.w3.org/2000/svg">
<path fill-rule="evenodd" clip-rule="evenodd" d="M10 9C10 8.44772 10.4477 8 11 8H24C24.5523 8 25 8.44772 25 9C25 9.55228 24.5523 10 24 10H11C10.4477 10 10 9.55228 10 9Z" fill="#00497B"/>
<path fill-rule="evenodd" clip-rule="evenodd" d="M10 15C10 14.4477 10.4477 14 11 14H24C24.5523 14 25 14.4477 25 15C25 15.5523 24.5523 16 24 16H11C10.4477 16 10 15.5523 10 15Z" fill="#00497B"/>
<path fill-rule="evenodd" clip-rule="evenodd" d="M10 21C10 20.4477 10.4477 20 11 20H24C24.5523 20 25 20.4477 25 21C25 21.5523 24.5523 22 24 22H11C10.4477 22 10 21.5523 10 21Z" fill="#00497B"/>
<path fill-rule="evenodd" clip-rule="evenodd" d="M5 9C5 8.44772 5.44772 8 6 8H6.01C6.56228 8 7.01 8.44772 7.01 9C7.01 9.55228 6.56228 10 6.01 10H6C5.44772 10 5 9.55228 5 9Z" fill="#00497B"/>
<path fill-rule="evenodd" clip-rule="evenodd" d="M5 15C5 14.4477 5.44772 14 6 14H6.01C6.56228 14 7.01 14.4477 7.01 15C7.01 15.5523 6.56228 16 6.01 16H6C5.44772 16 5 15.5523 5 15Z" fill="#00497B"/>
<path fill-rule="evenodd" clip-rule="evenodd" d="M5 21C5 20.4477 5.44772 20 6 20H6.01C6.56228 20 7.01 20.4477 7.01 21C7.01 21.5523 6.56228 22 6.01 22H6C5.44772 22 5 21.5523 5 21Z" fill="#00497B"/>
</svg>
