<svg width="12" height="12" viewBox="0 0 12 12" fill="none" xmlns="http://www.w3.org/2000/svg">
<mask id="path-1-inside-1" fill="white">
<path d="M7.19995 4.19997V1.79999C7.19995 1.3226 7.01031 0.864768 6.67275 0.527204C6.33519 0.189641 5.87735 0 5.39997 0L2.99998 5.39997V11.9999H9.76794C10.0573 12.0032 10.3382 11.9018 10.5587 11.7143C10.7792 11.5269 10.9245 11.2661 10.9679 10.9799L11.7959 5.57996C11.822 5.40798 11.8104 5.23238 11.7619 5.06532C11.7134 4.89826 11.6292 4.74375 11.515 4.61248C11.4009 4.48121 11.2596 4.37633 11.1009 4.3051C10.9422 4.23388 10.7699 4.198 10.5959 4.19997H7.19995ZM2.99998 11.9999H1.19999C0.881735 11.9999 0.576512 11.8735 0.35147 11.6485C0.126427 11.4234 0 11.1182 0 10.7999V6.59996C0 6.2817 0.126427 5.97648 0.35147 5.75144C0.576512 5.52639 0.881735 5.39997 1.19999 5.39997H2.99998"/>
</mask>
<path d="M7.19995 4.19997H6.19995C6.19995 4.75226 6.64767 5.19997 7.19995 5.19997V4.19997ZM7.19995 1.79999L8.19995 1.79999L7.19995 1.79999ZM5.39997 0V-1C5.00478 -1 4.64666 -0.767266 4.48615 -0.406138L5.39997 0ZM2.99998 5.39997L2.08617 4.99383C2.02934 5.12169 1.99998 5.26005 1.99998 5.39997H2.99998ZM2.99998 11.9999H1.99998C1.99998 12.5522 2.4477 12.9999 2.99998 12.9999V11.9999ZM9.76794 11.9999L9.77924 10.9999H9.76794V11.9999ZM10.9679 10.9799L9.97948 10.8284L9.97923 10.83L10.9679 10.9799ZM11.7959 5.57996L12.7844 5.73153L12.7846 5.73003L11.7959 5.57996ZM10.5959 4.19997V5.20004L10.6073 5.19991L10.5959 4.19997ZM2.99998 12.9999C3.55227 12.9999 3.99998 12.5522 3.99998 11.9999C3.99998 11.4476 3.55227 10.9999 2.99998 10.9999V12.9999ZM0 10.7999H-1H0ZM1.19999 5.39997V6.39997V5.39997ZM2.99998 6.39997C3.55227 6.39997 3.99998 5.95225 3.99998 5.39997C3.99998 4.84768 3.55227 4.39997 2.99998 4.39997V6.39997ZM8.19995 4.19997V1.79999H6.19995V4.19997H8.19995ZM8.19995 1.79999C8.19995 1.05739 7.90496 0.345198 7.37986 -0.179902L5.96564 1.23431C6.11567 1.38434 6.19995 1.58782 6.19995 1.79999L8.19995 1.79999ZM7.37986 -0.179902C6.85476 -0.705002 6.14257 -1 5.39997 -1V1C5.61214 1 5.81562 1.08428 5.96564 1.23431L7.37986 -0.179902ZM4.48615 -0.406138L2.08617 4.99383L3.91379 5.8061L6.31378 0.406138L4.48615 -0.406138ZM1.99998 5.39997V11.9999H3.99998V5.39997H1.99998ZM2.99998 12.9999H9.76794V10.9999H2.99998V12.9999ZM9.75663 12.9999C10.2872 13.0059 10.802 12.8199 11.2063 12.4763L9.91103 10.9524C9.87428 10.9836 9.82747 11.0005 9.77924 11L9.75663 12.9999ZM11.2063 12.4763C11.6106 12.1326 11.8771 11.6545 11.9566 11.1299L9.97923 10.83C9.972 10.8777 9.94778 10.9212 9.91103 10.9524L11.2063 12.4763ZM11.9564 11.1315L12.7844 5.73153L10.8075 5.4284L9.97948 10.8284L11.9564 11.1315ZM12.7846 5.73003C12.8325 5.41472 12.8112 5.09278 12.7223 4.78651L10.8016 5.34413C10.8097 5.37197 10.8116 5.40124 10.8072 5.4299L12.7846 5.73003ZM12.7223 4.78651C12.6334 4.48024 12.4789 4.19696 12.2696 3.9563L10.7604 5.26866C10.7795 5.29054 10.7935 5.31629 10.8016 5.34413L12.7223 4.78651ZM12.2696 3.9563C12.0604 3.71564 11.8013 3.52336 11.5103 3.39278L10.6914 5.21743C10.7179 5.2293 10.7414 5.24678 10.7604 5.26866L12.2696 3.9563ZM11.5103 3.39278C11.2194 3.26219 10.9035 3.19643 10.5846 3.20004L10.6073 5.19991C10.6362 5.19958 10.665 5.20556 10.6914 5.21743L11.5103 3.39278ZM10.5959 3.19997H7.19995V5.19997H10.5959V3.19997ZM2.99998 10.9999H1.19999V12.9999H2.99998V10.9999ZM1.19999 10.9999C1.14695 10.9999 1.09608 10.9789 1.05858 10.9413L-0.355637 12.3556C0.056941 12.7681 0.616518 12.9999 1.19999 12.9999V10.9999ZM1.05858 10.9413C1.02107 10.9038 1 10.853 1 10.7999H-1C-1 11.3834 -0.768216 11.943 -0.355637 12.3556L1.05858 10.9413ZM1 10.7999V6.59996H-1V10.7999H1ZM1 6.59996C1 6.54692 1.02107 6.49605 1.05858 6.45854L-0.355637 5.04433C-0.768216 5.45691 -1 6.01648 -1 6.59996H1ZM1.05858 6.45854C1.09608 6.42104 1.14695 6.39997 1.19999 6.39997V4.39997C0.616518 4.39997 0.056941 4.63175 -0.355637 5.04433L1.05858 6.45854ZM1.19999 6.39997H2.99998V4.39997H1.19999V6.39997Z" fill="#00497B" mask="url(#path-1-inside-1)"/>
</svg>
