<svg width="24" height="24" viewBox="0 0 24 24" fill="none" xmlns="http://www.w3.org/2000/svg">
<path fill-rule="evenodd" clip-rule="evenodd" d="M15.7304 7.15834C15.1446 7.15834 14.6698 7.61818 14.6698 8.18542C14.6698 8.36148 14.7156 8.52718 14.7962 8.67201C14.8026 8.68177 14.809 8.69172 14.8151 8.70185C14.8211 8.71193 14.8269 8.72209 14.8325 8.73232C15.0203 9.02083 15.3522 9.21251 15.7304 9.21251C16.3161 9.21251 16.791 8.75267 16.791 8.18542C16.791 7.61818 16.3161 7.15834 15.7304 7.15834ZM13.9367 10.1004C14.4106 10.517 15.0399 10.7708 15.7304 10.7708C17.2048 10.7708 18.4001 9.61331 18.4001 8.18542C18.4001 6.75754 17.2048 5.60001 15.7304 5.60001C14.2559 5.60001 13.0607 6.75754 13.0607 8.18542C13.0607 8.38096 13.0831 8.57142 13.1256 8.75453L10.0635 10.485C9.58957 10.0684 8.9603 9.81459 8.26981 9.81459C6.79537 9.81459 5.6001 10.9721 5.6001 12.4C5.6001 13.8279 6.79537 14.9854 8.26981 14.9854C8.96046 14.9854 9.58986 14.7314 10.0638 14.3147L13.1262 16.0428C13.0833 16.2268 13.0607 16.4181 13.0607 16.6146C13.0607 18.0425 14.2559 19.2 15.7304 19.2C17.2048 19.2 18.4001 18.0425 18.4001 16.6146C18.4001 15.1867 17.2048 14.0292 15.7304 14.0292C15.0409 14.0292 14.4125 14.2823 13.9388 14.6978L10.8747 12.9687C10.9171 12.7857 10.9395 12.5954 10.9395 12.4C10.9395 12.2045 10.9171 12.014 10.8746 11.8309L13.9367 10.1004ZM9.16786 11.8534C9.17337 11.8635 9.17914 11.8736 9.18517 11.8836C9.19123 11.8936 9.19748 11.9035 9.20391 11.9132C9.28459 12.0581 9.33038 12.2239 9.33038 12.4C9.33038 12.5762 9.28459 12.742 9.20391 12.8868C9.19738 12.8967 9.19105 12.9067 9.18491 12.9169C9.17899 12.9267 9.17332 12.9366 9.16789 12.9466C8.98016 13.2353 8.64812 13.4271 8.26981 13.4271C7.68407 13.4271 7.20924 12.9672 7.20924 12.4C7.20924 11.8328 7.68407 11.3729 8.26981 11.3729C8.64809 11.3729 8.98011 11.5647 9.16786 11.8534ZM14.6698 16.6146C14.6698 16.4528 14.7085 16.2997 14.7773 16.1635C14.793 16.1425 14.8078 16.1206 14.8215 16.0977C14.8346 16.076 14.8465 16.0539 14.8572 16.0315C15.0485 15.7633 15.3683 15.5875 15.7304 15.5875C16.3161 15.5875 16.791 16.0473 16.791 16.6146C16.791 17.1818 16.3161 17.6417 15.7304 17.6417C15.1446 17.6417 14.6698 17.1818 14.6698 16.6146Z" fill="#00497B"/>
</svg>
