<svg width="24" height="24" viewBox="0 0 24 24" fill="none" xmlns="http://www.w3.org/2000/svg">
<path fill-rule="evenodd" clip-rule="evenodd" d="M13.4345 5.91863C13.9405 5.7083 14.4829 5.60001 15.0308 5.60001C15.5786 5.60001 16.1211 5.7083 16.627 5.91863C17.1329 6.12891 17.5924 6.43702 17.9793 6.82525C18.3664 7.21342 18.6733 7.67417 18.8827 8.18109C19.0921 8.68802 19.1998 9.23127 19.1998 9.77983C19.1998 10.3284 19.0921 10.8717 18.8827 11.3786C18.6733 11.8854 18.3664 12.3461 17.9794 12.7343C17.9794 12.7343 17.9794 12.7342 17.9794 12.7343L12.5662 18.1648C12.4161 18.3154 12.2123 18.4 11.9996 18.4C11.787 18.4 11.5832 18.3154 11.4331 18.1648L6.01989 12.7343C5.23839 11.9503 4.7998 10.8875 4.7998 9.77983C4.7998 8.67219 5.23839 7.60939 6.01989 6.82539C6.80147 6.0413 7.86208 5.60033 8.96851 5.60033C10.075 5.60033 11.1356 6.0413 11.9171 6.82539L11.9996 6.90815L12.082 6.82552C12.0821 6.82548 12.082 6.82556 12.082 6.82552C12.4689 6.43723 12.9286 6.12893 13.4345 5.91863ZM16.8461 7.95481C16.6075 7.71535 16.3244 7.52553 16.0129 7.39607C15.7015 7.26661 15.3677 7.20001 15.0308 7.20001C14.6938 7.20001 14.3601 7.26661 14.0486 7.39607C13.7372 7.52553 13.454 7.71535 13.2155 7.95481L12.5662 8.60612C12.4161 8.7567 12.2123 8.84134 11.9996 8.84134C11.787 8.84134 11.5832 8.7567 11.4331 8.60612L10.784 7.95495C10.302 7.47148 9.64895 7.20033 8.96851 7.20033C8.28808 7.20033 7.63499 7.47148 7.15307 7.95495C6.67106 8.4385 6.3998 9.09488 6.3998 9.77983C6.3998 10.4648 6.67106 11.1212 7.15307 11.6047L11.9996 16.4668L16.8462 11.6047C17.0849 11.3654 17.2745 11.0809 17.4039 10.7678C17.5332 10.4546 17.5998 10.1189 17.5998 9.77983C17.5998 9.44074 17.5332 9.10502 17.4039 8.79189C17.2745 8.47876 17.0848 8.19417 16.8461 7.95481Z" fill="#00497B"/>
</svg>
