<svg width="24" height="24" viewBox="0 0 24 24" fill="none" xmlns="http://www.w3.org/2000/svg">
<path fill-rule="evenodd" clip-rule="evenodd" d="M8 7.19999C8 6.75817 8.35817 6.39999 8.8 6.39999H19.2C19.6418 6.39999 20 6.75817 20 7.19999C20 7.64182 19.6418 7.99999 19.2 7.99999H8.8C8.35817 7.99999 8 7.64182 8 7.19999Z" fill="#00497B"/>
<path fill-rule="evenodd" clip-rule="evenodd" d="M8 12C8 11.5582 8.35817 11.2 8.8 11.2H19.2C19.6418 11.2 20 11.5582 20 12C20 12.4418 19.6418 12.8 19.2 12.8H8.8C8.35817 12.8 8 12.4418 8 12Z" fill="#00497B"/>
<path fill-rule="evenodd" clip-rule="evenodd" d="M8 16.8C8 16.3582 8.35817 16 8.8 16H19.2C19.6418 16 20 16.3582 20 16.8C20 17.2418 19.6418 17.6 19.2 17.6H8.8C8.35817 17.6 8 17.2418 8 16.8Z" fill="#00497B"/>
<path fill-rule="evenodd" clip-rule="evenodd" d="M4 7.19999C4 6.75817 4.35817 6.39999 4.8 6.39999H4.808C5.24983 6.39999 5.608 6.75817 5.608 7.19999C5.608 7.64182 5.24983 7.99999 4.808 7.99999H4.8C4.35817 7.99999 4 7.64182 4 7.19999Z" fill="#00497B"/>
<path fill-rule="evenodd" clip-rule="evenodd" d="M4 12C4 11.5582 4.35817 11.2 4.8 11.2H4.808C5.24983 11.2 5.608 11.5582 5.608 12C5.608 12.4418 5.24983 12.8 4.808 12.8H4.8C4.35817 12.8 4 12.4418 4 12Z" fill="#00497B"/>
<path fill-rule="evenodd" clip-rule="evenodd" d="M4 16.8C4 16.3582 4.35817 16 4.8 16H4.808C5.24983 16 5.608 16.3582 5.608 16.8C5.608 17.2418 5.24983 17.6 4.808 17.6H4.8C4.35817 17.6 4 17.2418 4 16.8Z" fill="#00497B"/>
</svg>
