<svg width="24" height="24" viewBox="0 0 24 24" fill="none" xmlns="http://www.w3.org/2000/svg">
<path fill-rule="evenodd" clip-rule="evenodd" d="M16.8 8C17.2418 8 17.6 8.35817 17.6 8.8V16.8C17.6 17.2418 17.2418 17.6 16.8 17.6C16.3582 17.6 16 17.2418 16 16.8V8.8C16 8.35817 16.3582 8 16.8 8Z" fill="#00497B"/>
<path fill-rule="evenodd" clip-rule="evenodd" d="M12.0002 3.20001C12.442 3.20001 12.8002 3.55818 12.8002 4.00001V16.8C12.8002 17.2418 12.442 17.6 12.0002 17.6C11.5584 17.6 11.2002 17.2418 11.2002 16.8V4.00001C11.2002 3.55818 11.5584 3.20001 12.0002 3.20001Z" fill="#00497B"/>
<path fill-rule="evenodd" clip-rule="evenodd" d="M7.1999 11.2C7.64173 11.2 7.9999 11.5582 7.9999 12V16.8C7.9999 17.2418 7.64173 17.6 7.1999 17.6C6.75807 17.6 6.3999 17.2418 6.3999 16.8V12C6.3999 11.5582 6.75807 11.2 7.1999 11.2Z" fill="#00497B"/>
</svg>
