<svg width="295" height="30" viewBox="0 0 295 30" fill="none" xmlns="http://www.w3.org/2000/svg">
<path fill-rule="evenodd" clip-rule="evenodd" d="M279.167 8.5C276.037 8.5 273.5 11.0371 273.5 14.1667C273.5 17.2963 276.037 19.8333 279.167 19.8333C282.296 19.8333 284.833 17.2963 284.833 14.1667C284.833 11.0371 282.296 8.5 279.167 8.5ZM271.5 14.1667C271.5 9.93248 274.932 6.5 279.167 6.5C283.401 6.5 286.833 9.93248 286.833 14.1667C286.833 18.4009 283.401 21.8333 279.167 21.8333C274.932 21.8333 271.5 18.4009 271.5 14.1667Z" fill="#00497B"/>
<path fill-rule="evenodd" clip-rule="evenodd" d="M283.168 18.1679C283.558 17.7774 284.192 17.7774 284.582 18.1679L288.207 21.7929C288.598 22.1834 288.598 22.8166 288.207 23.2071C287.817 23.5976 287.183 23.5976 286.793 23.2071L283.168 19.5821C282.777 19.1916 282.777 18.5584 283.168 18.1679Z" fill="#00497B"/>
</svg>
