<svg width="90" height="63" viewBox="0 0 90 63" fill="none" xmlns="http://www.w3.org/2000/svg">
<path d="M73.0787 23.437L73.529 24H74.25H76.5C83.1275 24 88.5 29.3725 88.5 36V47.25C88.5 47.6647 88.1647 48 87.75 48H81H79.5V49.5C79.5 56.1275 74.1275 61.5 67.5 61.5C60.8725 61.5 55.5 56.1275 55.5 49.5V48H54H36H34.5V49.5C34.5 56.1275 29.1275 61.5 22.5 61.5C15.8725 61.5 10.5 56.1275 10.5 49.5V48H9H2.25C1.8353 48 1.5 47.6647 1.5 47.25V31.5C1.5 28.0205 3.88655 25.1092 7.12619 24.2699L7.86669 24.078L8.14625 23.366L14.8817 6.21028C16.0218 3.36492 18.778 1.5 21.8433 1.5H51.9242C51.9242 1.5 51.9243 1.5 51.9244 1.5C53.0492 1.50017 54.1597 1.75324 55.1735 2.24049C56.1873 2.72772 57.0786 3.43665 57.7815 4.31483C57.7816 4.31491 57.7816 4.31499 57.7817 4.31506L73.0787 23.437ZM32.625 24H34.125V22.5V9V7.5H32.625H21.8433H20.8277L20.4506 8.44291L15.0506 21.9429L14.2277 24H16.4433H32.625ZM37.875 22.5V24H39.375H62.7244H65.8453L63.8957 21.563L53.0957 8.06296L52.6453 7.5H51.9244H39.375H37.875V9V22.5ZM14.25 49.5C14.25 54.0508 17.9492 57.75 22.5 57.75C27.0508 57.75 30.75 54.0508 30.75 49.5C30.75 44.9492 27.0508 41.25 22.5 41.25C17.9492 41.25 14.25 44.9492 14.25 49.5ZM59.25 49.5C59.25 54.0508 62.9492 57.75 67.5 57.75C72.0508 57.75 75.75 54.0508 75.75 49.5C75.75 44.9492 72.0508 41.25 67.5 41.25C62.9492 41.25 59.25 44.9492 59.25 49.5Z" stroke="#828282" stroke-width="3"/>
</svg>
