<svg width="90" height="79" viewBox="0 0 90 79" fill="none" xmlns="http://www.w3.org/2000/svg">
<path d="M66 22.5018V24.0018H67.5H76.4209C77.5158 24.0018 78.565 24.4363 79.3382 25.2095L87.2923 33.1636C88.0656 33.9369 88.5 34.9862 88.5 36.0791V49.125H69V47.8125C69 45.4302 67.0698 43.5 64.6875 43.5H59.0625C56.6802 43.5 54.75 45.4302 54.75 47.8125V49.125H35.25V47.8125C35.25 45.4302 33.3198 43.5 30.9375 43.5H25.3125C22.9302 43.5 21 45.4302 21 47.8125V49.125H1.5V36.0809C1.5 34.986 1.93457 33.9367 2.70773 33.1636L2.70785 33.1635L10.6609 25.2086C10.6613 25.2083 10.6616 25.208 10.6619 25.2077C11.4376 24.4337 12.4854 24 13.5791 24H22.5H24V22.5V8.4375C24 4.60597 27.106 1.5 30.9375 1.5H59.0625C62.894 1.5 66 4.60597 66 8.4375V22.5018ZM56.25 24H57.75V22.5V11.25V9.75H56.25H33.75H32.25V11.25V22.5V24H33.75H56.25ZM64.6875 63.375C67.0698 63.375 69 61.4448 69 59.0625V57.75H88.5V73.125C88.5 75.4026 86.6526 77.25 84.375 77.25H5.625C3.34737 77.25 1.5 75.4026 1.5 73.125V57.75H21V59.0625C21 61.4448 22.9302 63.375 25.3125 63.375H30.9375C33.3198 63.375 35.25 61.4448 35.25 59.0625V57.75H54.75V59.0625C54.75 61.4448 56.6802 63.375 59.0625 63.375H64.6875Z" stroke="#828282" stroke-width="3"/>
</svg>
