<svg width="90" height="72" viewBox="0 0 90 72" fill="none" xmlns="http://www.w3.org/2000/svg">
<path d="M84 51H85.5H87.75C88.1591 51 88.5 51.3409 88.5 51.75V56.25C88.5 56.6591 88.1591 57 87.75 57H81H79.5V58.5C79.5 65.1247 74.1247 70.5 67.5 70.5C60.8753 70.5 55.5 65.1247 55.5 58.5V57H54H36H34.5V58.5C34.5 65.1247 29.1247 70.5 22.5 70.5C15.8753 70.5 10.5 65.1247 10.5 58.5V57H9H6.75C3.85186 57 1.5 54.6481 1.5 51.75V6.75C1.5 3.85186 3.85186 1.5 6.75 1.5H51.75C54.6481 1.5 57 3.85186 57 6.75V13.5V15H58.5H64.7016C66.0855 15 67.4208 15.5562 68.4081 16.5435L82.4565 30.5919C83.4438 31.5792 84 32.9145 84 34.2984V49.5V51ZM78.75 37.5H80.25V36V34.2984V33.6771L79.8107 33.2378L65.7622 19.1893L65.3229 18.75H64.7016H58.5H57V20.25V36V37.5H58.5H78.75ZM14.25 58.5C14.25 63.055 17.945 66.75 22.5 66.75C27.055 66.75 30.75 63.055 30.75 58.5C30.75 53.945 27.055 50.25 22.5 50.25C17.945 50.25 14.25 53.945 14.25 58.5ZM59.25 58.5C59.25 63.055 62.945 66.75 67.5 66.75C72.055 66.75 75.75 63.055 75.75 58.5C75.75 53.945 72.055 50.25 67.5 50.25C62.945 50.25 59.25 53.945 59.25 58.5Z" stroke="#828282" stroke-width="3"/>
</svg>
