<svg width="91" height="91" viewBox="0 0 91 91" fill="none" xmlns="http://www.w3.org/2000/svg">
<path d="M51.4364 47.59L52.1963 48.3498L53.1601 47.8748C57.4961 45.738 62.8617 46.4469 66.4481 50.0333L87.0321 70.6173C88.9925 72.5777 88.9984 75.7776 87.0305 77.7612C87.0298 77.7619 87.0292 77.7626 87.0285 77.7633L77.7684 87.0233L77.7648 87.027C75.8046 89.0007 72.6087 89.006 70.6261 87.0233L50.0421 66.4393C46.4584 62.8556 45.7615 57.4891 47.8855 53.1474L48.3563 52.1851L47.5987 51.4276L28.8605 32.6893L28.4211 32.25H27.7998H17.6338L1.98935 11.3908L11.3995 1.98057L32.2588 17.625V27.791V28.4123L32.6981 28.8517L51.4364 47.59ZM87.7958 19.5515L87.7974 19.5577C89.7497 27.4002 87.6642 36.0299 81.5302 42.1639C79.6457 44.0484 77.4981 45.5059 75.2139 46.6112L72.5421 43.9393C68.7446 40.1419 63.6871 38.0508 58.3154 38.0508C57.0337 38.0508 55.7313 38.1789 54.4582 38.4238L41.0378 25.0034C41.0705 18.9885 43.2956 13.0279 47.8448 8.47863C53.9594 2.36411 62.5874 0.276545 70.4314 2.21091C70.9251 2.33799 71.055 2.92812 70.7372 3.24598L57.6591 16.3241L57.1134 16.8698L57.2401 17.631L59.2264 29.5666L59.4024 30.624L60.4598 30.8L72.3954 32.7863L73.1566 32.913L73.7023 32.3673L86.7804 19.2892C87.1295 18.9401 87.6921 19.1272 87.7958 19.5515ZM4.35656 71.8653L4.35691 71.865L30.0853 46.1197L38.418 54.4525C37.7804 57.8907 38.1231 61.3668 39.1989 64.5968L18.1434 85.6522C14.3347 89.461 8.1653 89.461 4.35656 85.6522C0.547814 81.8435 0.547814 75.6741 4.35656 71.8653ZM5.54004 78.75C5.54004 81.8987 8.11005 84.4688 11.2588 84.4688C14.4292 84.4688 16.9775 81.8947 16.9775 78.75C16.9775 75.5837 14.4251 73.0312 11.2588 73.0312C8.09247 73.0312 5.54004 75.5837 5.54004 78.75Z" stroke="#828282" stroke-width="3"/>
</svg>
