<svg width="90" height="63" viewBox="0 0 90 63" fill="none" xmlns="http://www.w3.org/2000/svg">
<path d="M21 18C21 22.1356 17.6356 25.5 13.5 25.5C9.36436 25.5 6 22.1356 6 18C6 13.8644 9.36436 10.5 13.5 10.5C17.6356 10.5 21 13.8644 21 18ZM84 18C84 22.1356 80.6356 25.5 76.5 25.5C72.3644 25.5 69 22.1356 69 18C69 13.8644 72.3644 10.5 76.5 10.5C80.6356 10.5 84 13.8644 84 18ZM77.4957 48C76.379 42.1816 73.0012 37.2123 68.2941 33.979C69.388 33.3551 70.6511 33 72 33H81C85.1356 33 88.5 36.3644 88.5 40.5V45C88.5 46.6606 87.1606 48 85.5 48H77.4957ZM59.25 15.75C59.25 23.6263 52.8763 30 45 30C37.1237 30 30.75 23.6263 30.75 15.75C30.75 7.87374 37.1237 1.5 45 1.5C52.8763 1.5 59.25 7.87374 59.25 15.75ZM45 39.75C48.5834 39.75 51.9442 38.9047 54.9693 37.5H55.8C63.9153 37.5 70.5 44.0847 70.5 52.2V56.25C70.5 59.1481 68.1481 61.5 65.25 61.5H24.75C21.8519 61.5 19.5 59.1481 19.5 56.25V52.2C19.5 44.0847 26.0847 37.5 34.2 37.5H35.032C38.0667 38.9036 41.4144 39.75 45 39.75ZM18 33C19.3489 33 20.612 33.3551 21.7059 33.979C16.998 37.2127 13.6195 42.1823 12.4927 48H4.5C2.83936 48 1.5 46.6606 1.5 45V40.5C1.5 36.3644 4.86437 33 9 33H18Z" stroke="#828282" stroke-width="3"/>
</svg>
