<svg width="90" height="72" viewBox="0 0 90 72" fill="none" xmlns="http://www.w3.org/2000/svg">
<path d="M19.543 56.9993L19.5555 50.9989H70.5V56.9993H19.543ZM19.5562 50.624C19.5562 50.625 19.5563 50.626 19.5562 50.6271V50.624ZM19.5008 70.5L19.5133 64.4996H70.5V70.5H19.5008ZM19.5141 64.1246C19.5141 64.1257 19.5141 64.1267 19.5141 64.1277V64.1246ZM19.5711 43.4987L19.5836 37.4982H70.5V43.4987H19.5711ZM19.5844 37.1233C19.5844 37.1243 19.5844 37.1254 19.5844 37.1264V37.1233ZM47.0116 1.90189C47.012 1.90204 47.0124 1.90218 47.0127 1.90233L85.2691 17.8327C85.2699 17.8331 85.2707 17.8334 85.2716 17.8338C87.2233 18.6573 88.5 20.5629 88.5 22.6804V70.5H78V35.9982C78 32.6707 75.2511 29.998 71.9156 29.998H18.0844C14.7489 29.998 12 32.6707 12 35.9982V70.5H1.5V22.6804C1.5 20.563 2.7766 18.6574 4.72825 17.8338C4.72913 17.8335 4.73001 17.8331 4.73089 17.8327L42.9732 1.90233C42.9733 1.90229 42.9735 1.90224 42.9736 1.90219C43.6137 1.63667 44.2999 1.5 44.993 1.5C45.6857 1.5 46.3717 1.63657 47.0116 1.90189Z" stroke="#828282" stroke-width="3"/>
</svg>
