<svg width="90" height="80" viewBox="0 0 90 80" fill="none" xmlns="http://www.w3.org/2000/svg">
<path d="M81.5141 35.6041L81.9083 36.5H82.8871H87.4965C88.0431 36.5 88.4965 36.9534 88.4965 37.5V57.5C88.4965 58.0466 88.0431 58.5 87.4965 58.5H79.8871H79.1409L78.6907 59.0952C77.3674 60.8449 75.8251 62.3868 74.0932 63.6931L73.4965 64.1432V64.8906V77.5C73.4965 78.0466 73.043 78.5 72.4965 78.5H62.4965C61.9499 78.5 61.4965 78.0466 61.4965 77.5V70V68.5H59.9965H39.9965H38.4965V70V77.5C38.4965 78.0466 38.0431 78.5 37.4965 78.5H27.4965C26.9499 78.5 26.4965 78.0466 26.4965 77.5V64.8906V64.1445L25.9014 63.6944C20.218 59.395 16.4965 52.6535 16.4965 45V43.5H14.9965H8.74648C4.4358 43.5 0.991768 39.7201 1.56234 35.2852L1.56253 35.2837C1.99729 31.878 4.96582 29.2724 8.49648 29.0201V31.0151C6.20887 31.1855 4.07252 32.7822 3.6022 35.2136C2.95002 38.5467 5.50763 41.5 8.74648 41.5H15.4965H16.7212L16.9662 40.3C19.155 29.5763 28.6315 21.5 39.9965 21.5H59.9965C61.0137 21.5 61.9872 21.6418 63.0941 21.803C63.1869 21.8165 63.2806 21.8302 63.3754 21.8439L64.1982 21.963L64.7353 21.3283C67.2228 18.3885 70.8776 16.5 74.9965 16.5H78.0747L75.5882 26.4326L75.374 27.2885L76.0179 27.8916C78.3457 30.0721 80.2243 32.6727 81.5141 35.6041ZM63.4965 42.5C63.4965 44.7034 65.293 46.5 67.4965 46.5C69.6999 46.5 71.4965 44.7034 71.4965 42.5C71.4965 40.2966 69.6999 38.5 67.4965 38.5C65.293 38.5 63.4965 40.2966 63.4965 42.5ZM59.9965 13.5H39.9965C37.9424 13.5 35.9515 13.7189 34.0258 14.1031C34.4878 7.06802 40.345 1.5 47.4965 1.5C54.4494 1.5 60.1789 6.76313 60.9163 13.5206C60.6141 13.5078 60.3068 13.5 59.9965 13.5Z" stroke="#828282" stroke-width="3"/>
</svg>
