<svg width="90" height="71" viewBox="0 0 90 71" fill="none" xmlns="http://www.w3.org/2000/svg">
<path d="M67.5 14.1605H69V12.6605V4.22296C69 1.80696 71.9344 0.593631 73.6413 2.30047L87.7037 16.3629C87.7037 16.3629 87.7038 16.3629 87.7038 16.3629C88.7655 17.4248 88.7654 19.1462 87.7038 20.2078L73.6414 34.2702C73.6413 34.2702 73.6413 34.2703 73.6413 34.2703C71.936 35.975 69 34.7678 69 32.348V23.9105V22.4105H67.5H4.21875C2.7172 22.4105 1.5 21.1933 1.5 19.6917V16.8792C1.5 15.3777 2.7172 14.1605 4.21875 14.1605H67.5ZM21 46.4105V47.9105H22.5H85.7812C87.2828 47.9105 88.5 49.1277 88.5 50.6292V53.4417C88.5 54.9433 87.2828 56.1605 85.7812 56.1605H22.5H21V57.6605V66.098C21 68.5173 18.0642 69.7257 16.3587 68.0203L2.29623 53.9578C1.23464 52.8962 1.23454 51.1748 2.29623 50.1129C2.29625 50.1129 2.29626 50.1129 2.29628 50.1129L16.3587 36.0504C18.0671 34.342 21 35.5591 21 37.973V46.4105Z" stroke="#828282" stroke-width="3"/>
</svg>
