<svg width="18" height="20" viewBox="0 0 18 20" fill="none" xmlns="http://www.w3.org/2000/svg">
<path fill-rule="evenodd" clip-rule="evenodd" d="M6.6756 2.22992C6.82246 2.08124 7.019 2 7.2213 2H10.777C10.9793 2 11.1759 2.08124 11.3227 2.22992C11.47 2.37902 11.5549 2.58384 11.5549 2.79995V3.5999H6.44342V2.79995C6.44342 2.58384 6.52833 2.37902 6.6756 2.22992ZM13.5549 2.79995V3.5999H15.2217C15.2334 3.5999 15.245 3.6001 15.2566 3.60049H17.0009C17.5532 3.60049 18.0009 4.04821 18.0009 4.60049C18.0009 5.15278 17.5532 5.60049 17.0009 5.60049H16.2217V17.1995C16.2217 17.9382 15.932 18.649 15.4125 19.175C14.8925 19.7015 14.1846 19.9995 13.4439 19.9995H4.55448C3.81373 19.9995 3.10585 19.7015 2.58588 19.175C2.06631 18.649 1.77661 17.9382 1.77661 17.1995V5.60049H1C0.447715 5.60049 0 5.15278 0 4.60049C0 4.04821 0.447715 3.60049 1 3.60049H2.74171C2.75329 3.6001 2.76493 3.5999 2.77661 3.5999H4.44342V2.79995C4.44342 2.06131 4.73313 1.35048 5.25269 0.824462C5.77267 0.29803 6.48055 0 7.2213 0H10.777C11.5178 0 12.2257 0.29803 12.7457 0.824462C13.2652 1.35048 13.5549 2.06131 13.5549 2.79995ZM3.77661 5.60049V17.1995C3.77661 17.4156 3.86152 17.6205 4.00879 17.7696C4.15565 17.9182 4.35219 17.9995 4.55448 17.9995H13.4439C13.6462 17.9995 13.8427 17.9182 13.9896 17.7696C14.1368 17.6205 14.2217 17.4156 14.2217 17.1995V5.60049H3.77661ZM7.22191 8.10034C7.77419 8.10034 8.22191 8.54806 8.22191 9.10034V14.5002C8.22191 15.0525 7.77419 15.5002 7.22191 15.5002C6.66962 15.5002 6.22191 15.0525 6.22191 14.5002V9.10034C6.22191 8.54806 6.66962 8.10034 7.22191 8.10034ZM11.7784 9.10034C11.7784 8.54806 11.3307 8.10034 10.7784 8.10034C10.2262 8.10034 9.77845 8.54806 9.77845 9.10034V14.5002C9.77845 15.0525 10.2262 15.5002 10.7784 15.5002C11.3307 15.5002 11.7784 15.0525 11.7784 14.5002V9.10034Z" fill="#828282"/>
</svg>
