<?xml version="1.0" standalone="no"?>
  <!DOCTYPE svg PUBLIC "-//W3C//DTD SVG 1.1//EN" "http://www.w3.org/Graphics/SVG/1.1/DTD/svg11.dtd" >
  <svg>
  <metadata>
  Created by font-carrier
  </metadata>
  <defs>
  <font id="Oswald-Regular" horiz-adv-x="1260" vert-adv-y="1260" >
    <font-face
      
      font-family="Oswald"
      
      font-weight="400"
      
      font-stretch="normal"
      
      units-per-em="1000"
      
      ascent="1193"
      
      descent="-289"
      
    />
      <missing-glyph />

      

      
      <glyph glyph-name="uni41" unicode="&#x41;" d="M19 0L191 810L300 810L473 0L366 0L329 204L164 204L125 0L19 0M179 285L314 285L246 650L179 285Z"  horiz-adv-x="492" vert-adv-y="1000"  />

      
      <glyph glyph-name="unic1" unicode="&#xc1;" d="M19 0L191 810L300 810L473 0L366 0L329 204L164 204L125 0L19 0M179 285L314 285L246 650L179 285M218 858L277 1056L384 1056L272 858L218 858Z"  horiz-adv-x="492" vert-adv-y="1000"  />

      
      <glyph glyph-name="uni0102" unicode="&#x0102;" d="M19 0L191 810L300 810L473 0L366 0L329 204L164 204L125 0L19 0M179 285L314 285L246 650L179 285M246 873Q174 873 144.50 912Q115 951 115 1009L177 1009Q178 973 193.50 953.50Q209 934 246 934Q284 934 299.50 954Q315 974 315 1009L378 1009Q378 951 348.50 912Q319 873 246 873Z"  horiz-adv-x="492" vert-adv-y="1000"  />

      
      <glyph glyph-name="uni1EAE" unicode="&#x1EAE;" d="M19 0L191 810L300 810L473 0L366 0L329 204L164 204L125 0L19 0M179 285L314 285L246 650L179 285M195 1039L259 1157L366 1157L259 1039L195 1039M246 854Q174 854 144.50 893Q115 932 115 990L177 990Q178 954 193.50 934.50Q209 915 246 915Q284 915 299.50 935Q315 955 315 990L378 990Q378 932 348.50 893Q319 854 246 854Z"  horiz-adv-x="492" vert-adv-y="1000"  />

      
      <glyph glyph-name="uni1EB6" unicode="&#x1EB6;" d="M19 0L191 810L300 810L473 0L366 0L329 204L164 204L125 0L19 0M179 285L314 285L246 650L179 285M192-176L192-63L300-63L300-176L192-176M246 873Q174 873 144.50 912Q115 951 115 1009L177 1009Q178 973 193.50 953.50Q209 934 246 934Q284 934 299.50 954Q315 974 315 1009L378 1009Q378 951 348.50 912Q319 873 246 873Z"  horiz-adv-x="492" vert-adv-y="1000"  />

      
      <glyph glyph-name="uni1EB0" unicode="&#x1EB0;" d="M19 0L191 810L300 810L473 0L366 0L329 204L164 204L125 0L19 0M179 285L314 285L246 650L179 285M229 1039L122 1157L229 1157L293 1039L229 1039M246 854Q174 854 144.50 893Q115 932 115 990L177 990Q178 954 193.50 934.50Q209 915 246 915Q284 915 299.50 935Q315 955 315 990L378 990Q378 932 348.50 893Q319 854 246 854Z"  horiz-adv-x="492" vert-adv-y="1000"  />

      
      <glyph glyph-name="uni1EB2" unicode="&#x1EB2;" d="M19 0L191 810L300 810L473 0L366 0L329 204L164 204L125 0L19 0M179 285L314 285L246 650L179 285M250 1010L216 1050Q238 1063 251 1076Q264 1089 264 1108Q264 1129 249.50 1138Q235 1147 215 1147Q205 1147 192.50 1145.50Q180 1144 169 1140L169 1194Q187 1199 205 1201.50Q223 1204 242 1204Q285 1204 314.50 1183Q344 1162 344 1117Q344 1077 317.50 1052Q291 1027 250 1010M246 873Q174 873 144.50 912Q115 951 115 1009L177 1009Q178 973 193.50 953.50Q209 934 246 934Q284 934 299.50 954Q315 974 315 1009L378 1009Q378 951 348.50 912Q319 873 246 873Z"  horiz-adv-x="492" vert-adv-y="1000"  />

      
      <glyph glyph-name="uni1EB4" unicode="&#x1EB4;" d="M19 0L191 810L300 810L473 0L366 0L329 204L164 204L125 0L19 0M179 285L314 285L246 650L179 285Z"  horiz-adv-x="492" vert-adv-y="1000"  />

      
      <glyph glyph-name="uni01CD" unicode="&#x01CD;" d="M19 0L191 810L300 810L473 0L366 0L329 204L164 204L125 0L19 0M179 285L314 285L246 650L179 285M193 869L106 1042L188 1042L246 925L304 1042L386 1042L298 869L193 869Z"  horiz-adv-x="492" vert-adv-y="1000"  />

      
      <glyph glyph-name="unic2" unicode="&#xc2;" d="M19 0L191 810L300 810L473 0L366 0L329 204L164 204L125 0L19 0M179 285L314 285L246 650L179 285M105 867L191 1042L300 1042L387 867L306 867L245 988L185 867L105 867Z"  horiz-adv-x="492" vert-adv-y="1000"  />

      
      <glyph glyph-name="uni1EA4" unicode="&#x1EA4;" d="M19 0L191 810L300 810L473 0L366 0L329 204L164 204L125 0L19 0M179 285L314 285L246 650L179 285M105 867L191 1022L300 1022L387 867L306 867L245 968L185 867L105 867M373 971L426 1086L519 1086L439 971L373 971Z"  horiz-adv-x="492" vert-adv-y="1000"  />

      
      <glyph glyph-name="uni1EAC" unicode="&#x1EAC;" d="M19 0L191 810L300 810L473 0L366 0L329 204L164 204L125 0L19 0M179 285L314 285L246 650L179 285M105 867L191 1022L300 1022L387 867L306 867L245 968L185 867L105 867M192-176L192-63L300-63L300-176L192-176Z"  horiz-adv-x="492" vert-adv-y="1000"  />

      
      <glyph glyph-name="uni1EA6" unicode="&#x1EA6;" d="M19 0L191 810L300 810L473 0L366 0L329 204L164 204L125 0L19 0M179 285L314 285L246 650L179 285M105 867L191 1022L300 1022L387 867L306 867L245 968L185 867L105 867M398 971L318 1086L411 1086L464 971L398 971Z"  horiz-adv-x="492" vert-adv-y="1000"  />

      
      <glyph glyph-name="uni1EA8" unicode="&#x1EA8;" d="M19 0L191 810L300 810L473 0L366 0L329 204L164 204L125 0L19 0M179 285L314 285L246 650L179 285M397 949L363 989Q385 1002 398 1015Q411 1028 411 1047Q411 1068 396.50 1077Q382 1086 362 1086Q352 1086 339.50 1084.50Q327 1083 316 1079L316 1133Q334 1138 352 1140.50Q370 1143 389 1143Q432 1143 461.50 1122Q491 1101 491 1056Q491 1012 464.50 989Q438 966 397 949M105 867L191 1022L300 1022L387 867L306 867L245 968L185 867L105 867Z"  horiz-adv-x="492" vert-adv-y="1000"  />

      
      <glyph glyph-name="uni1EAA" unicode="&#x1EAA;" d="M19 0L191 810L300 810L473 0L366 0L329 204L164 204L125 0L19 0M179 285L314 285L246 650L179 285Z"  horiz-adv-x="492" vert-adv-y="1000"  />

      
      <glyph glyph-name="uni0200" unicode="&#x0200;" d="M19 0L191 810L300 810L473 0L366 0L329 204L164 204L125 0L19 0M179 285L314 285L246 650L179 285M161 872L49 1042L157 1042L215 872L161 872M289 872L215 1042L303 1042L343 872L289 872Z"  horiz-adv-x="492" vert-adv-y="1000"  />

      
      <glyph glyph-name="unic4" unicode="&#xc4;" d="M19 0L191 810L300 810L473 0L366 0L329 204L164 204L125 0L19 0M179 285L314 285L246 650L179 285M278 931L278 1042L386 1042L386 931L278 931M106 931L106 1042L214 1042L214 931L106 931Z"  horiz-adv-x="492" vert-adv-y="1000"  />

      
      <glyph glyph-name="uni1EA0" unicode="&#x1EA0;" d="M19 0L191 810L300 810L473 0L366 0L329 204L164 204L125 0L19 0M179 285L314 285L246 650L179 285M192-176L192-63L300-63L300-176L192-176Z"  horiz-adv-x="492" vert-adv-y="1000"  />

      
      <glyph glyph-name="unic0" unicode="&#xc0;" d="M19 0L191 810L300 810L473 0L366 0L329 204L164 204L125 0L19 0M179 285L314 285L246 650L179 285M221 858L110 1056L217 1056L274 858L221 858Z"  horiz-adv-x="492" vert-adv-y="1000"  />

      
      <glyph glyph-name="uni1EA2" unicode="&#x1EA2;" d="M19 0L191 810L300 810L473 0L366 0L329 204L164 204L125 0L19 0M179 285L314 285L246 650L179 285M247 868L213 908Q242 921 260 934Q278 947 278 966Q278 987 260.50 996Q243 1005 217 1005Q205 1005 192 1003.50Q179 1002 166 998L166 1052Q205 1062 247 1062Q278 1062 303 1053Q328 1044 343 1024.50Q358 1005 358 975Q358 946 343.50 926Q329 906 304 892.50Q279 879 247 868Z"  horiz-adv-x="492" vert-adv-y="1000"  />

      
      <glyph glyph-name="uni0202" unicode="&#x0202;" d="M19 0L191 810L300 810L473 0L366 0L329 204L164 204L125 0L19 0M179 285L314 285L246 650L179 285M114 893Q115 935 125.50 968.50Q136 1002 164.50 1022Q193 1042 246 1042Q299 1042 327.50 1022Q356 1002 367 968.50Q378 935 378 893L315 893Q315 941 299.50 961Q284 981 246 981Q209 981 193.50 960.50Q178 940 177 893L114 893Z"  horiz-adv-x="492" vert-adv-y="1000"  />

      
      <glyph glyph-name="uni0100" unicode="&#x0100;" d="M19 0L191 810L300 810L473 0L366 0L329 204L164 204L125 0L19 0M179 285L314 285L246 650L179 285M150 917L150 982L342 982L342 917L150 917Z"  horiz-adv-x="492" vert-adv-y="1000"  />

      
      <glyph glyph-name="uni0104" unicode="&#x0104;" d="M19 0L191 810L300 810L473 0L366 0L329 204L164 204L125 0L19 0M179 285L314 285L246 650L179 285M432-231Q405-231 380-228Q355-225 335.50-216Q316-207 304.50-190Q293-173 293-145Q293-112 310-82Q327-52 352.50-30Q378-8 404 0L458 0Q440-16 420.50-37.50Q401-59 387.50-82.50Q374-106 374-129Q374-160 400-168.50Q426-177 454-177Q462-177 470.50-176.50Q479-176 486-175L468-228Q460-229 450-230Q440-231 432-231Z"  horiz-adv-x="492" vert-adv-y="1000"  />

      
      <glyph glyph-name="unic5" unicode="&#xc5;" d="M19 0L191 810L300 810L473 0L366 0L329 204L164 204L125 0L19 0M179 285L314 285L246 650L179 285M246 828Q196 828 165 858.50Q134 889 134 940Q134 991 165 1021Q196 1051 246 1051Q296 1051 327 1021Q358 991 358 940Q358 889 327 858.50Q296 828 246 828M246 882Q272 882 288 897.50Q304 913 304 940Q304 968 288 983Q272 998 246 998Q219 998 203.50 983Q188 968 188 940Q188 913 203.50 897.50Q219 882 246 882Z"  horiz-adv-x="492" vert-adv-y="1000"  />

      
      <glyph glyph-name="uni01FA" unicode="&#x01FA;" d="M19 0L191 810L300 810L473 0L366 0L329 204L164 204L125 0L19 0M179 285L314 285L246 650L179 285M246 828Q196 828 165 858.50Q134 889 134 940Q134 991 165 1021Q196 1051 246 1051Q296 1051 327 1021Q358 991 358 940Q358 889 327 858.50Q296 828 246 828M246 882Q272 882 288 897.50Q304 913 304 940Q304 968 288 983Q272 998 246 998Q219 998 203.50 983Q188 968 188 940Q188 913 203.50 897.50Q219 882 246 882M218 1099L277 1297L384 1297L272 1099L218 1099Z"  horiz-adv-x="492" vert-adv-y="1000"  />

      
      <glyph glyph-name="unic3" unicode="&#xc3;" d="M19 0L191 810L300 810L473 0L366 0L329 204L164 204L125 0L19 0M179 285L314 285L246 650L179 285M322 932Q294 932 272.50 944.50Q251 957 232 969Q213 981 191 981Q174 981 165.50 972Q157 963 157 940L96 940Q96 970 103.50 994.50Q111 1019 128.50 1033.50Q146 1048 176 1048Q201 1048 221.50 1036Q242 1024 262 1012Q282 1000 303 1000Q320 1000 328 1009Q336 1018 336 1042L396 1042Q396 1012 390 987Q384 962 368 947Q352 932 322 932Z"  horiz-adv-x="492" vert-adv-y="1000"  />

      
      <glyph glyph-name="unic6" unicode="&#xc6;" d="M-51 0L290 810L605 810L605 728L400 728L400 460L547 460L547 379L400 379L400 82L605 82L605 0L292 0L292 205L143 205L57 0L-51 0M173 286L292 286L292 605L173 286Z"  horiz-adv-x="635" vert-adv-y="1000"  />

      
      <glyph glyph-name="uni01FC" unicode="&#x01FC;" d="M-51 0L290 810L605 810L605 728L400 728L400 460L547 460L547 379L400 379L400 82L605 82L605 0L292 0L292 205L143 205L57 0L-51 0M173 286L292 286L292 605L173 286M318 858L377 1056L484 1056L372 858L318 858Z"  horiz-adv-x="635" vert-adv-y="1000"  />

      
      <glyph glyph-name="uni42" unicode="&#x42;" d="M63 0L63 810L249 810Q304 810 344.50 798Q385 786 412 761Q439 736 452 697.50Q465 659 465 607Q465 557 452.50 520.50Q440 484 414.50 463Q389 442 349 436Q398 425 428 398.50Q458 372 472.50 330.50Q487 289 487 231Q487 179 475 136Q463 93 437.50 63Q412 33 372.50 16.50Q333 0 279 0L63 0M176 81L252 81Q328 81 353.50 116.50Q379 152 379 231Q379 282 365.50 316.50Q352 351 322.50 368.50Q293 386 243 386L176 386L176 81M176 472L243 472Q291 472 318 485.50Q345 499 356 529Q367 559 367 607Q367 663 350 688Q333 713 297 719.50Q261 726 203 726L176 726L176 472Z"  horiz-adv-x="524" vert-adv-y="1000"  />

      
      <glyph glyph-name="uni1E02" unicode="&#x1E02;" d="M63 0L63 810L249 810Q304 810 344.50 798Q385 786 412 761Q439 736 452 697.50Q465 659 465 607Q465 557 452.50 520.50Q440 484 414.50 463Q389 442 349 436Q398 425 428 398.50Q458 372 472.50 330.50Q487 289 487 231Q487 179 475 136Q463 93 437.50 63Q412 33 372.50 16.50Q333 0 279 0L63 0M176 81L252 81Q328 81 353.50 116.50Q379 152 379 231Q379 282 365.50 316.50Q352 351 322.50 368.50Q293 386 243 386L176 386L176 81M176 472L243 472Q291 472 318 485.50Q345 499 356 529Q367 559 367 607Q367 663 350 688Q333 713 297 719.50Q261 726 203 726L176 726L176 472M208 903L208 1022L316 1022L316 903L208 903Z"  horiz-adv-x="524" vert-adv-y="1000"  />

      
      <glyph glyph-name="uni43" unicode="&#x43;" d="M266-9Q180-9 132.50 27Q85 63 66.50 124Q48 185 48 260L48 546Q48 628 66.50 689Q85 750 132.50 783.50Q180 817 266 817Q342 817 386.50 789Q431 761 450.50 709Q470 657 470 584L470 520L363 520L363 577Q363 622 358.50 656.50Q354 691 334 710Q314 729 267 729Q219 729 197 708.50Q175 688 168.50 650.50Q162 613 162 563L162 242Q162 181 172 145.50Q182 110 205 95Q228 80 267 80Q313 80 333 100.50Q353 121 358 157Q363 193 363 241L363 301L470 301L470 241Q470 167 452 110.50Q434 54 390 22.50Q346-9 266-9Z"  horiz-adv-x="515" vert-adv-y="1000"  />

      
      <glyph glyph-name="uni0106" unicode="&#x0106;" d="M266-9Q180-9 132.50 27Q85 63 66.50 124Q48 185 48 260L48 546Q48 628 66.50 689Q85 750 132.50 783.50Q180 817 266 817Q342 817 386.50 789Q431 761 450.50 709Q470 657 470 584L470 520L363 520L363 577Q363 622 358.50 656.50Q354 691 334 710Q314 729 267 729Q219 729 197 708.50Q175 688 168.50 650.50Q162 613 162 563L162 242Q162 181 172 145.50Q182 110 205 95Q228 80 267 80Q313 80 333 100.50Q353 121 358 157Q363 193 363 241L363 301L470 301L470 241Q470 167 452 110.50Q434 54 390 22.50Q346-9 266-9M230 858L289 1056L396 1056L284 858L230 858Z"  horiz-adv-x="515" vert-adv-y="1000"  />

      
      <glyph glyph-name="uni010C" unicode="&#x010C;" d="M266-9Q180-9 132.50 27Q85 63 66.50 124Q48 185 48 260L48 546Q48 628 66.50 689Q85 750 132.50 783.50Q180 817 266 817Q342 817 386.50 789Q431 761 450.50 709Q470 657 470 584L470 520L363 520L363 577Q363 622 358.50 656.50Q354 691 334 710Q314 729 267 729Q219 729 197 708.50Q175 688 168.50 650.50Q162 613 162 563L162 242Q162 181 172 145.50Q182 110 205 95Q228 80 267 80Q313 80 333 100.50Q353 121 358 157Q363 193 363 241L363 301L470 301L470 241Q470 167 452 110.50Q434 54 390 22.50Q346-9 266-9M205 869L118 1042L200 1042L258 925L316 1042L398 1042L310 869L205 869Z"  horiz-adv-x="515" vert-adv-y="1000"  />

      
      <glyph glyph-name="unic7" unicode="&#xc7;" d="M266-9Q180-9 132.50 27Q85 63 66.50 124Q48 185 48 260L48 546Q48 628 66.50 689Q85 750 132.50 783.50Q180 817 266 817Q342 817 386.50 789Q431 761 450.50 709Q470 657 470 584L470 520L363 520L363 577Q363 622 358.50 656.50Q354 691 334 710Q314 729 267 729Q219 729 197 708.50Q175 688 168.50 650.50Q162 613 162 563L162 242Q162 181 172 145.50Q182 110 205 95Q228 80 267 80Q313 80 333 100.50Q353 121 358 157Q363 193 363 241L363 301L470 301L470 241Q470 167 452 110.50Q434 54 390 22.50Q346-9 266-9M271-235Q255-235 238-232Q221-229 204-225L204-171Q217-175 230-176.50Q243-178 255-178Q281-178 298.50-169Q316-160 316-139Q316-121 306-110.50Q296-100 277-93.50Q258-87 231-83L231 0L285 0L285-56Q335-56 365.50-79Q396-102 396-142Q396-174 379.50-194.50Q363-215 334.50-225Q306-235 271-235Z"  horiz-adv-x="515" vert-adv-y="1000"  />

      
      <glyph glyph-name="uni0108" unicode="&#x0108;" d="M266-9Q180-9 132.50 27Q85 63 66.50 124Q48 185 48 260L48 546Q48 628 66.50 689Q85 750 132.50 783.50Q180 817 266 817Q342 817 386.50 789Q431 761 450.50 709Q470 657 470 584L470 520L363 520L363 577Q363 622 358.50 656.50Q354 691 334 710Q314 729 267 729Q219 729 197 708.50Q175 688 168.50 650.50Q162 613 162 563L162 242Q162 181 172 145.50Q182 110 205 95Q228 80 267 80Q313 80 333 100.50Q353 121 358 157Q363 193 363 241L363 301L470 301L470 241Q470 167 452 110.50Q434 54 390 22.50Q346-9 266-9M117 867L203 1042L312 1042L399 867L318 867L257 988L197 867L117 867Z"  horiz-adv-x="515" vert-adv-y="1000"  />

      
      <glyph glyph-name="uni010A" unicode="&#x010A;" d="M266-9Q180-9 132.50 27Q85 63 66.50 124Q48 185 48 260L48 546Q48 628 66.50 689Q85 750 132.50 783.50Q180 817 266 817Q342 817 386.50 789Q431 761 450.50 709Q470 657 470 584L470 520L363 520L363 577Q363 622 358.50 656.50Q354 691 334 710Q314 729 267 729Q219 729 197 708.50Q175 688 168.50 650.50Q162 613 162 563L162 242Q162 181 172 145.50Q182 110 205 95Q228 80 267 80Q313 80 333 100.50Q353 121 358 157Q363 193 363 241L363 301L470 301L470 241Q470 167 452 110.50Q434 54 390 22.50Q346-9 266-9M204 903L204 1022L312 1022L312 903L204 903Z"  horiz-adv-x="515" vert-adv-y="1000"  />

      
      <glyph glyph-name="uni44" unicode="&#x44;" d="M63 0L63 810L239 810Q329 810 381.50 782.50Q434 755 456.50 700Q479 645 479 563L479 265Q479 179 456.50 120Q434 61 383.50 30.50Q333 0 248 0L63 0M176 81L240 81Q302 81 328 105Q354 129 359.50 175Q365 221 365 286L365 549Q365 612 357 651Q349 690 322 708Q295 726 237 726L176 726L176 81Z"  horiz-adv-x="527" vert-adv-y="1000"  />

      
      <glyph glyph-name="uni01F1" unicode="&#x01F1;" d="M63 0L63 810L239 810Q329 810 381.50 782.50Q434 755 456.50 700Q479 645 479 563L479 265Q479 179 456.50 120Q434 61 383.50 30.50Q333 0 248 0L63 0M176 81L240 81Q302 81 328 105Q354 129 359.50 175Q365 221 365 286L365 549Q365 612 357 651Q349 690 322 708Q295 726 237 726L176 726L176 81M565 0L565 81L803 729L580 729L580 810L923 810L923 761L672 81L923 81L923 0L565 0Z"  horiz-adv-x="944" vert-adv-y="1000"  />

      
      <glyph glyph-name="uni01C4" unicode="&#x01C4;" d="M63 0L63 810L239 810Q329 810 381.50 782.50Q434 755 456.50 700Q479 645 479 563L479 265Q479 179 456.50 120Q434 61 383.50 30.50Q333 0 248 0L63 0M176 81L240 81Q302 81 328 105Q354 129 359.50 175Q365 221 365 286L365 549Q365 612 357 651Q349 690 322 708Q295 726 237 726L176 726L176 81Z"  horiz-adv-x="944" vert-adv-y="1000"  />

      
      <glyph glyph-name="unid0" unicode="&#xd0;" d="M63 0L63 388L14 388L14 453L63 453L63 810L239 810Q329 810 381.50 782.50Q434 755 456.50 700Q479 645 479 563L479 265Q479 179 456.50 120Q434 61 383.50 30.50Q333 0 248 0L63 0M176 81L240 81Q302 81 328 105Q354 129 359.50 175Q365 221 365 286L365 549Q365 612 357 651Q349 690 322 708Q295 726 237 726L176 726L176 453L237 453L237 388L176 388L176 81Z"  horiz-adv-x="518" vert-adv-y="1000"  />

      
      <glyph glyph-name="uni010E" unicode="&#x010E;" d="M63 0L63 810L239 810Q329 810 381.50 782.50Q434 755 456.50 700Q479 645 479 563L479 265Q479 179 456.50 120Q434 61 383.50 30.50Q333 0 248 0L63 0M176 81L240 81Q302 81 328 105Q354 129 359.50 175Q365 221 365 286L365 549Q365 612 357 651Q349 690 322 708Q295 726 237 726L176 726L176 81M211 869L124 1042L206 1042L264 925L322 1042L404 1042L316 869L211 869Z"  horiz-adv-x="527" vert-adv-y="1000"  />

      
      <glyph glyph-name="uni0110" unicode="&#x0110;" d="M65 0L65 388L17 388L17 453L65 453L65 810L242 810Q332 810 384 782.50Q436 755 458 700Q480 645 480 563L480 265Q480 179 458 120Q436 61 385.50 30.50Q335 0 250 0L65 0M179 81L242 81Q304 81 330 105Q356 129 361.50 175Q367 221 367 286L367 549Q367 612 359 651Q351 690 324 708Q297 726 239 726L179 726L179 453L239 453L239 388L179 388L179 81Z"  horiz-adv-x="529" vert-adv-y="1000"  />

      
      <glyph glyph-name="uni1E0A" unicode="&#x1E0A;" d="M63 0L63 810L239 810Q329 810 381.50 782.50Q434 755 456.50 700Q479 645 479 563L479 265Q479 179 456.50 120Q434 61 383.50 30.50Q333 0 248 0L63 0M176 81L240 81Q302 81 328 105Q354 129 359.50 175Q365 221 365 286L365 549Q365 612 357 651Q349 690 322 708Q295 726 237 726L176 726L176 81M210 903L210 1022L318 1022L318 903L210 903Z"  horiz-adv-x="527" vert-adv-y="1000"  />

      
      <glyph glyph-name="uni01F2" unicode="&#x01F2;" d="M63 0L63 810L239 810Q329 810 381.50 782.50Q434 755 456.50 700Q479 645 479 563L479 265Q479 179 456.50 120Q434 61 383.50 30.50Q333 0 248 0L63 0M176 81L240 81Q302 81 328 105Q354 129 359.50 175Q365 221 365 286L365 549Q365 612 357 651Q349 690 322 708Q295 726 237 726L176 726L176 81M559 0L559 72L736 498L577 498L577 578L851 578L851 520L673 81L847 81L847 0L559 0Z"  horiz-adv-x="874" vert-adv-y="1000"  />

      
      <glyph glyph-name="uni01C5" unicode="&#x01C5;" d="M63 0L63 810L239 810Q329 810 381.50 782.50Q434 755 456.50 700Q479 645 479 563L479 265Q479 179 456.50 120Q434 61 383.50 30.50Q333 0 248 0L63 0M176 81L240 81Q302 81 328 105Q354 129 359.50 175Q365 221 365 286L365 549Q365 612 357 651Q349 690 322 708Q295 726 237 726L176 726L176 81Z"  horiz-adv-x="874" vert-adv-y="1000"  />

      
      <glyph glyph-name="uni45" unicode="&#x45;" d="M63 0L63 810L377 810L377 726L176 726L176 458L339 458L339 378L176 378L176 81L379 81L379 0L63 0Z"  horiz-adv-x="407" vert-adv-y="1000"  />

      
      <glyph glyph-name="unic9" unicode="&#xc9;" d="M63 0L63 810L377 810L377 726L176 726L176 458L339 458L339 378L176 378L176 81L379 81L379 0L63 0M196 858L255 1056L362 1056L250 858L196 858Z"  horiz-adv-x="407" vert-adv-y="1000"  />

      
      <glyph glyph-name="uni0114" unicode="&#x0114;" d="M63 0L63 810L377 810L377 726L176 726L176 458L339 458L339 378L176 378L176 81L379 81L379 0L63 0M224 873Q152 873 122.50 912Q93 951 93 1009L155 1009Q156 973 171.50 953.50Q187 934 224 934Q262 934 277.50 954Q293 974 293 1009L356 1009Q356 951 326.50 912Q297 873 224 873Z"  horiz-adv-x="407" vert-adv-y="1000"  />

      
      <glyph glyph-name="uni011A" unicode="&#x011A;" d="M63 0L63 810L377 810L377 726L176 726L176 458L339 458L339 378L176 378L176 81L379 81L379 0L63 0M171 869L84 1042L166 1042L224 925L282 1042L364 1042L276 869L171 869Z"  horiz-adv-x="407" vert-adv-y="1000"  />

      
      <glyph glyph-name="unica" unicode="&#xca;" d="M63 0L63 810L377 810L377 726L176 726L176 458L339 458L339 378L176 378L176 81L379 81L379 0L63 0M83 867L169 1042L278 1042L365 867L284 867L223 988L163 867L83 867Z"  horiz-adv-x="407" vert-adv-y="1000"  />

      
      <glyph glyph-name="uni1EBE" unicode="&#x1EBE;" d="M63 0L63 810L377 810L377 726L176 726L176 458L339 458L339 378L176 378L176 81L379 81L379 0L63 0M83 867L169 1022L278 1022L365 867L284 867L223 968L163 867L83 867M351 971L404 1086L497 1086L417 971L351 971Z"  horiz-adv-x="407" vert-adv-y="1000"  />

      
      <glyph glyph-name="uni1EC6" unicode="&#x1EC6;" d="M63 0L63 810L377 810L377 726L176 726L176 458L339 458L339 378L176 378L176 81L379 81L379 0L63 0M83 867L169 1022L278 1022L365 867L284 867L223 968L163 867L83 867M150-176L150-63L258-63L258-176L150-176Z"  horiz-adv-x="407" vert-adv-y="1000"  />

      
      <glyph glyph-name="uni1EC0" unicode="&#x1EC0;" d="M63 0L63 810L377 810L377 726L176 726L176 458L339 458L339 378L176 378L176 81L379 81L379 0L63 0M83 867L169 1022L278 1022L365 867L284 867L223 968L163 867L83 867M376 971L296 1086L389 1086L442 971L376 971Z"  horiz-adv-x="407" vert-adv-y="1000"  />

      
      <glyph glyph-name="uni1EC2" unicode="&#x1EC2;" d="M63 0L63 810L377 810L377 726L176 726L176 458L339 458L339 378L176 378L176 81L379 81L379 0L63 0M375 949L341 989Q363 1002 376 1015Q389 1028 389 1047Q389 1068 374.50 1077Q360 1086 340 1086Q330 1086 317.50 1084.50Q305 1083 294 1079L294 1133Q312 1138 330 1140.50Q348 1143 367 1143Q410 1143 439.50 1122Q469 1101 469 1056Q469 1012 442.50 989Q416 966 375 949M83 867L169 1022L278 1022L365 867L284 867L223 968L163 867L83 867Z"  horiz-adv-x="407" vert-adv-y="1000"  />

      
      <glyph glyph-name="uni1EC4" unicode="&#x1EC4;" d="M63 0L63 810L377 810L377 726L176 726L176 458L339 458L339 378L176 378L176 81L379 81L379 0L63 0Z"  horiz-adv-x="407" vert-adv-y="1000"  />

      
      <glyph glyph-name="uni0204" unicode="&#x0204;" d="M63 0L63 810L377 810L377 726L176 726L176 458L339 458L339 378L176 378L176 81L379 81L379 0L63 0M139 872L27 1042L135 1042L193 872L139 872M267 872L193 1042L281 1042L321 872L267 872Z"  horiz-adv-x="407" vert-adv-y="1000"  />

      
      <glyph glyph-name="unicb" unicode="&#xcb;" d="M63 0L63 810L377 810L377 726L176 726L176 458L339 458L339 378L176 378L176 81L379 81L379 0L63 0M256 931L256 1042L364 1042L364 931L256 931M84 931L84 1042L192 1042L192 931L84 931Z"  horiz-adv-x="407" vert-adv-y="1000"  />

      
      <glyph glyph-name="uni0116" unicode="&#x0116;" d="M63 0L63 810L377 810L377 726L176 726L176 458L339 458L339 378L176 378L176 81L379 81L379 0L63 0M170 903L170 1022L278 1022L278 903L170 903Z"  horiz-adv-x="407" vert-adv-y="1000"  />

      
      <glyph glyph-name="uni1EB8" unicode="&#x1EB8;" d="M63 0L63 810L377 810L377 726L176 726L176 458L339 458L339 378L176 378L176 81L379 81L379 0L63 0M150-176L150-63L258-63L258-176L150-176Z"  horiz-adv-x="407" vert-adv-y="1000"  />

      
      <glyph glyph-name="unic8" unicode="&#xc8;" d="M63 0L63 810L377 810L377 726L176 726L176 458L339 458L339 378L176 378L176 81L379 81L379 0L63 0M199 858L88 1056L195 1056L252 858L199 858Z"  horiz-adv-x="407" vert-adv-y="1000"  />

      
      <glyph glyph-name="uni1EBA" unicode="&#x1EBA;" d="M63 0L63 810L377 810L377 726L176 726L176 458L339 458L339 378L176 378L176 81L379 81L379 0L63 0M225 868L191 908Q220 921 238 934Q256 947 256 966Q256 987 238.50 996Q221 1005 195 1005Q183 1005 170 1003.50Q157 1002 144 998L144 1052Q183 1062 225 1062Q256 1062 281 1053Q306 1044 321 1024.50Q336 1005 336 975Q336 946 321.50 926Q307 906 282 892.50Q257 879 225 868Z"  horiz-adv-x="407" vert-adv-y="1000"  />

      
      <glyph glyph-name="uni0206" unicode="&#x0206;" d="M63 0L63 810L377 810L377 726L176 726L176 458L339 458L339 378L176 378L176 81L379 81L379 0L63 0M92 893Q93 935 103.50 968.50Q114 1002 142.50 1022Q171 1042 224 1042Q277 1042 305.50 1022Q334 1002 345 968.50Q356 935 356 893L293 893Q293 941 277.50 961Q262 981 224 981Q187 981 171.50 960.50Q156 940 155 893L92 893Z"  horiz-adv-x="407" vert-adv-y="1000"  />

      
      <glyph glyph-name="uni0112" unicode="&#x0112;" d="M63 0L63 810L377 810L377 726L176 726L176 458L339 458L339 378L176 378L176 81L379 81L379 0L63 0M128 917L128 982L320 982L320 917L128 917Z"  horiz-adv-x="407" vert-adv-y="1000"  />

      
      <glyph glyph-name="uni0118" unicode="&#x0118;" d="M63 0L63 810L377 810L377 726L176 726L176 458L339 458L339 378L176 378L176 81L379 81L379 0L63 0M318-231Q291-231 266-228Q241-225 221.50-216Q202-207 190.50-190Q179-173 179-145Q179-112 196-82Q213-52 238.50-30Q264-8 290 0L344 0Q326-16 306.50-37.50Q287-59 273.50-82.50Q260-106 260-129Q260-160 286-168.50Q312-177 340-177Q348-177 356.50-176.50Q365-176 372-175L354-228Q346-229 336-230Q326-231 318-231Z"  horiz-adv-x="407" vert-adv-y="1000"  />

      
      <glyph glyph-name="uni1EBC" unicode="&#x1EBC;" d="M63 0L63 810L377 810L377 726L176 726L176 458L339 458L339 378L176 378L176 81L379 81L379 0L63 0M300 932Q272 932 250.50 944.50Q229 957 210 969Q191 981 169 981Q152 981 143.50 972Q135 963 135 940L74 940Q74 970 81.50 994.50Q89 1019 106.50 1033.50Q124 1048 154 1048Q179 1048 199.50 1036Q220 1024 240 1012Q260 1000 281 1000Q298 1000 306 1009Q314 1018 314 1042L374 1042Q374 1012 368 987Q362 962 346 947Q330 932 300 932Z"  horiz-adv-x="407" vert-adv-y="1000"  />

      
      <glyph glyph-name="uni01B7" unicode="&#x01B7;" d="M228-9Q162-9 118 16Q74 41 52 88Q30 135 30 199L30 226L136 226Q136 222 136 217.50Q136 213 136 208Q136 153 154.50 116.50Q173 80 228 80Q257 80 275 90.50Q293 101 303 121Q313 141 317 168.50Q321 196 321 229Q321 299 307.50 344Q294 389 261 411Q228 433 170 433L85 433L85 499L256 729L47 729L47 810L392 810L392 761L176 460L157 497L222 497Q302 497 347 464Q392 431 410 371Q428 311 428 229Q428 157 408 103.50Q388 50 344 20.50Q300-9 228-9Z"  horiz-adv-x="456" vert-adv-y="1000"  />

      
      <glyph glyph-name="uni01EE" unicode="&#x01EE;" d="M228-9Q162-9 118 16Q74 41 52 88Q30 135 30 199L30 226L136 226Q136 222 136 217.50Q136 213 136 208Q136 153 154.50 116.50Q173 80 228 80Q257 80 275 90.50Q293 101 303 121Q313 141 317 168.50Q321 196 321 229Q321 299 307.50 344Q294 389 261 411Q228 433 170 433L85 433L85 499L256 729L47 729L47 810L392 810L392 761L176 460L157 497L222 497Q302 497 347 464Q392 431 410 371Q428 311 428 229Q428 157 408 103.50Q388 50 344 20.50Q300-9 228-9M175 869L88 1042L170 1042L228 925L286 1042L368 1042L280 869L175 869Z"  horiz-adv-x="456" vert-adv-y="1000"  />

      
      <glyph glyph-name="uni46" unicode="&#x46;" d="M63 0L63 810L376 810L376 729L176 729L176 459L331 459L331 379L176 379L176 0L63 0Z"  horiz-adv-x="391" vert-adv-y="1000"  />

      
      <glyph glyph-name="uni1E1E" unicode="&#x1E1E;" d="M63 0L63 810L376 810L376 729L176 729L176 459L331 459L331 379L176 379L176 0L63 0M142 903L142 1022L250 1022L250 903L142 903Z"  horiz-adv-x="391" vert-adv-y="1000"  />

      
      <glyph glyph-name="uni47" unicode="&#x47;" d="M256-10Q180-10 134.50 22.50Q89 55 68.50 117Q48 179 48 266L48 537Q48 626 66.50 688.50Q85 751 132.50 784Q180 817 265 817Q341 817 387.50 791.50Q434 766 455 713.50Q476 661 476 581L476 551L370 551L370 576Q370 629 363 662.50Q356 696 334.50 712.50Q313 729 267 729Q217 729 194.50 706Q172 683 166.50 643.50Q161 604 161 554L161 254Q161 196 169.50 157Q178 118 202 99Q226 80 270 80Q314 80 338 101Q362 122 371 163Q380 204 380 265L380 321L277 321L277 401L482 401L482 0L411 0L400 93Q384 48 350 19Q316-10 256-10Z"  horiz-adv-x="535" vert-adv-y="1000"  />

      
      <glyph glyph-name="uni01F4" unicode="&#x01F4;" d="M256-10Q180-10 134.50 22.50Q89 55 68.50 117Q48 179 48 266L48 537Q48 626 66.50 688.50Q85 751 132.50 784Q180 817 265 817Q341 817 387.50 791.50Q434 766 455 713.50Q476 661 476 581L476 551L370 551L370 576Q370 629 363 662.50Q356 696 334.50 712.50Q313 729 267 729Q217 729 194.50 706Q172 683 166.50 643.50Q161 604 161 554L161 254Q161 196 169.50 157Q178 118 202 99Q226 80 270 80Q314 80 338 101Q362 122 371 163Q380 204 380 265L380 321L277 321L277 401L482 401L482 0L411 0L400 93Q384 48 350 19Q316-10 256-10M240 858L299 1056L406 1056L294 858L240 858Z"  horiz-adv-x="535" vert-adv-y="1000"  />

      
      <glyph glyph-name="uni011E" unicode="&#x011E;" d="M256-10Q180-10 134.50 22.50Q89 55 68.50 117Q48 179 48 266L48 537Q48 626 66.50 688.50Q85 751 132.50 784Q180 817 265 817Q341 817 387.50 791.50Q434 766 455 713.50Q476 661 476 581L476 551L370 551L370 576Q370 629 363 662.50Q356 696 334.50 712.50Q313 729 267 729Q217 729 194.50 706Q172 683 166.50 643.50Q161 604 161 554L161 254Q161 196 169.50 157Q178 118 202 99Q226 80 270 80Q314 80 338 101Q362 122 371 163Q380 204 380 265L380 321L277 321L277 401L482 401L482 0L411 0L400 93Q384 48 350 19Q316-10 256-10M268 873Q196 873 166.50 912Q137 951 137 1009L199 1009Q200 973 215.50 953.50Q231 934 268 934Q306 934 321.50 954Q337 974 337 1009L400 1009Q400 951 370.50 912Q341 873 268 873Z"  horiz-adv-x="535" vert-adv-y="1000"  />

      
      <glyph glyph-name="uni01E6" unicode="&#x01E6;" d="M256-10Q180-10 134.50 22.50Q89 55 68.50 117Q48 179 48 266L48 537Q48 626 66.50 688.50Q85 751 132.50 784Q180 817 265 817Q341 817 387.50 791.50Q434 766 455 713.50Q476 661 476 581L476 551L370 551L370 576Q370 629 363 662.50Q356 696 334.50 712.50Q313 729 267 729Q217 729 194.50 706Q172 683 166.50 643.50Q161 604 161 554L161 254Q161 196 169.50 157Q178 118 202 99Q226 80 270 80Q314 80 338 101Q362 122 371 163Q380 204 380 265L380 321L277 321L277 401L482 401L482 0L411 0L400 93Q384 48 350 19Q316-10 256-10M215 869L128 1042L210 1042L268 925L326 1042L408 1042L320 869L215 869Z"  horiz-adv-x="535" vert-adv-y="1000"  />

      
      <glyph glyph-name="uni011C" unicode="&#x011C;" d="M256-10Q180-10 134.50 22.50Q89 55 68.50 117Q48 179 48 266L48 537Q48 626 66.50 688.50Q85 751 132.50 784Q180 817 265 817Q341 817 387.50 791.50Q434 766 455 713.50Q476 661 476 581L476 551L370 551L370 576Q370 629 363 662.50Q356 696 334.50 712.50Q313 729 267 729Q217 729 194.50 706Q172 683 166.50 643.50Q161 604 161 554L161 254Q161 196 169.50 157Q178 118 202 99Q226 80 270 80Q314 80 338 101Q362 122 371 163Q380 204 380 265L380 321L277 321L277 401L482 401L482 0L411 0L400 93Q384 48 350 19Q316-10 256-10M127 867L213 1042L322 1042L409 867L328 867L267 988L207 867L127 867Z"  horiz-adv-x="535" vert-adv-y="1000"  />

      
      <glyph glyph-name="uni0122" unicode="&#x0122;" d="M256-10Q180-10 134.50 22.50Q89 55 68.50 117Q48 179 48 266L48 537Q48 626 66.50 688.50Q85 751 132.50 784Q180 817 265 817Q341 817 387.50 791.50Q434 766 455 713.50Q476 661 476 581L476 551L370 551L370 576Q370 629 363 662.50Q356 696 334.50 712.50Q313 729 267 729Q217 729 194.50 706Q172 683 166.50 643.50Q161 604 161 554L161 254Q161 196 169.50 157Q178 118 202 99Q226 80 270 80Q314 80 338 101Q362 122 371 163Q380 204 380 265L380 321L277 321L277 401L482 401L482 0L411 0L400 93Q384 48 350 19Q316-10 256-10M240-287L213-234Q244-232 256.50-216.50Q269-201 269-172L214-172L214-63L323-63L322-166Q321-219 306.50-252Q292-285 240-287Z"  horiz-adv-x="535" vert-adv-y="1000"  />

      
      <glyph glyph-name="uni0120" unicode="&#x0120;" d="M256-10Q180-10 134.50 22.50Q89 55 68.50 117Q48 179 48 266L48 537Q48 626 66.50 688.50Q85 751 132.50 784Q180 817 265 817Q341 817 387.50 791.50Q434 766 455 713.50Q476 661 476 581L476 551L370 551L370 576Q370 629 363 662.50Q356 696 334.50 712.50Q313 729 267 729Q217 729 194.50 706Q172 683 166.50 643.50Q161 604 161 554L161 254Q161 196 169.50 157Q178 118 202 99Q226 80 270 80Q314 80 338 101Q362 122 371 163Q380 204 380 265L380 321L277 321L277 401L482 401L482 0L411 0L400 93Q384 48 350 19Q316-10 256-10M214 903L214 1022L322 1022L322 903L214 903Z"  horiz-adv-x="535" vert-adv-y="1000"  />

      
      <glyph glyph-name="uni01E4" unicode="&#x01E4;" d="M314 208L314 273L537 273L537 208L314 208M256-10Q180-10 134.50 22.50Q89 55 68.50 117Q48 179 48 266L48 537Q48 626 66.50 688.50Q85 751 132.50 784Q180 817 265 817Q341 817 387.50 791.50Q434 766 455 713.50Q476 661 476 581L476 551L370 551L370 576Q370 629 363 662.50Q356 696 334.50 712.50Q313 729 267 729Q217 729 194.50 706Q172 683 166.50 643.50Q161 604 161 554L161 254Q161 196 169.50 157Q178 118 202 99Q226 80 270 80Q314 80 338 101Q362 122 371 163Q380 204 380 265L380 321L277 321L277 401L482 401L482 0L411 0L400 93Q384 48 350 19Q316-10 256-10Z"  horiz-adv-x="535" vert-adv-y="1000"  />

      
      <glyph glyph-name="uni48" unicode="&#x48;" d="M63 0L63 810L176 810L176 460L384 460L384 810L497 810L497 0L384 0L384 379L176 379L176 0L63 0Z"  horiz-adv-x="561" vert-adv-y="1000"  />

      
      <glyph glyph-name="uni0126" unicode="&#x0126;" d="M63 0L63 619L16 619L16 677L63 677L63 810L176 810L176 677L384 677L384 810L497 810L497 677L544 677L544 619L497 619L497 0L384 0L384 379L176 379L176 0L63 0M176 460L384 460L384 619L176 619L176 460Z"  horiz-adv-x="561" vert-adv-y="1000"  />

      
      <glyph glyph-name="uni021E" unicode="&#x021E;" d="M63 0L63 810L176 810L176 460L384 460L384 810L497 810L497 0L384 0L384 379L176 379L176 0L63 0M228 869L141 1042L223 1042L281 925L339 1042L421 1042L333 869L228 869Z"  horiz-adv-x="561" vert-adv-y="1000"  />

      
      <glyph glyph-name="uni0124" unicode="&#x0124;" d="M63 0L63 810L176 810L176 460L384 460L384 810L497 810L497 0L384 0L384 379L176 379L176 0L63 0M140 867L226 1042L335 1042L422 867L341 867L280 988L220 867L140 867Z"  horiz-adv-x="561" vert-adv-y="1000"  />

      
      <glyph glyph-name="uni49" unicode="&#x49;" d="M69 0L69 810L180 810L180 0L69 0Z"  horiz-adv-x="248" vert-adv-y="1000"  />

      
      <glyph glyph-name="uni0132" unicode="&#x0132;" d="M69 0L69 810L180 810L180 0L69 0M255-19L255 62Q292 62 315 67Q338 72 350.50 85Q363 98 368 122.50Q373 147 373 185L373 810L485 810L485 183Q485 113 470 68.50Q455 24 417 2.50Q379-19 309-19L255-19Z"  horiz-adv-x="549" vert-adv-y="1000"  />

      
      <glyph glyph-name="unicd" unicode="&#xcd;" d="M69 0L69 810L180 810L180 0L69 0M96 858L155 1056L262 1056L150 858L96 858Z"  horiz-adv-x="248" vert-adv-y="1000"  />

      
      <glyph glyph-name="uni012C" unicode="&#x012C;" d="M69 0L69 810L180 810L180 0L69 0M124 873Q52 873 22.50 912Q-7 951-7 1009L55 1009Q56 973 71.50 953.50Q87 934 124 934Q162 934 177.50 954Q193 974 193 1009L256 1009Q256 951 226.50 912Q197 873 124 873Z"  horiz-adv-x="248" vert-adv-y="1000"  />

      
      <glyph glyph-name="unice" unicode="&#xce;" d="M69 0L69 810L180 810L180 0L69 0M-17 867L69 1042L178 1042L265 867L184 867L123 988L63 867L-17 867Z"  horiz-adv-x="248" vert-adv-y="1000"  />

      
      <glyph glyph-name="uni0208" unicode="&#x0208;" d="M69 0L69 810L180 810L180 0L69 0M39 872L-73 1042L35 1042L93 872L39 872M167 872L93 1042L181 1042L221 872L167 872Z"  horiz-adv-x="248" vert-adv-y="1000"  />

      
      <glyph glyph-name="unicf" unicode="&#xcf;" d="M69 0L69 810L180 810L180 0L69 0M156 931L156 1042L264 1042L264 931L156 931M-16 931L-16 1042L92 1042L92 931L-16 931Z"  horiz-adv-x="248" vert-adv-y="1000"  />

      
      <glyph glyph-name="uni0130" unicode="&#x0130;" d="M69 0L69 810L180 810L180 0L69 0M70 903L70 1022L178 1022L178 903L70 903Z"  horiz-adv-x="248" vert-adv-y="1000"  />

      
      <glyph glyph-name="uni1ECA" unicode="&#x1ECA;" d="M69 0L69 810L180 810L180 0L69 0M70-176L70-63L178-63L178-176L70-176Z"  horiz-adv-x="248" vert-adv-y="1000"  />

      
      <glyph glyph-name="unicc" unicode="&#xcc;" d="M69 0L69 810L180 810L180 0L69 0M99 858L-12 1056L95 1056L152 858L99 858Z"  horiz-adv-x="248" vert-adv-y="1000"  />

      
      <glyph glyph-name="uni1EC8" unicode="&#x1EC8;" d="M69 0L69 810L180 810L180 0L69 0M125 868L91 908Q120 921 138 934Q156 947 156 966Q156 987 138.50 996Q121 1005 95 1005Q83 1005 70 1003.50Q57 1002 44 998L44 1052Q83 1062 125 1062Q156 1062 181 1053Q206 1044 221 1024.50Q236 1005 236 975Q236 946 221.50 926Q207 906 182 892.50Q157 879 125 868Z"  horiz-adv-x="248" vert-adv-y="1000"  />

      
      <glyph glyph-name="uni020A" unicode="&#x020A;" d="M69 0L69 810L180 810L180 0L69 0M-8 893Q-7 935 3.50 968.50Q14 1002 42.50 1022Q71 1042 124 1042Q177 1042 205.50 1022Q234 1002 245 968.50Q256 935 256 893L193 893Q193 941 177.50 961Q162 981 124 981Q87 981 71.50 960.50Q56 940 55 893L-8 893Z"  horiz-adv-x="248" vert-adv-y="1000"  />

      
      <glyph glyph-name="uni012A" unicode="&#x012A;" d="M69 0L69 810L180 810L180 0L69 0M28 917L28 982L220 982L220 917L28 917Z"  horiz-adv-x="248" vert-adv-y="1000"  />

      
      <glyph glyph-name="uni012E" unicode="&#x012E;" d="M69 0L69 810L180 810L180 0L69 0M127-231Q100-231 75-228Q50-225 30.50-216Q11-207-0.50-190Q-12-173-12-145Q-12-112 5-82Q22-52 47.50-30Q73-8 99 0L153 0Q135-16 115.50-37.50Q96-59 82.50-82.50Q69-106 69-129Q69-160 95-168.50Q121-177 149-177Q157-177 165.50-176.50Q174-176 181-175L163-228Q155-229 145-230Q135-231 127-231Z"  horiz-adv-x="248" vert-adv-y="1000"  />

      
      <glyph glyph-name="uni0128" unicode="&#x0128;" d="M69 0L69 810L180 810L180 0L69 0M200 932Q172 932 150.50 944.50Q129 957 110 969Q91 981 69 981Q52 981 43.50 972Q35 963 35 940L-26 940Q-26 970-18.50 994.50Q-11 1019 6.50 1033.50Q24 1048 54 1048Q79 1048 99.50 1036Q120 1024 140 1012Q160 1000 181 1000Q198 1000 206 1009Q214 1018 214 1042L274 1042Q274 1012 268 987Q262 962 246 947Q230 932 200 932Z"  horiz-adv-x="248" vert-adv-y="1000"  />

      
      <glyph glyph-name="uni4a" unicode="&#x4a;" d="M7-19L7 62Q44 62 67 67Q90 72 102.50 85Q115 98 120 122.50Q125 147 125 185L125 810L237 810L237 183Q237 113 222 68.50Q207 24 169 2.50Q131-19 61-19L7-19Z"  horiz-adv-x="301" vert-adv-y="1000"  />

      
      <glyph glyph-name="uni0134" unicode="&#x0134;" d="M7-19L7 62Q44 62 67 67Q90 72 102.50 85Q115 98 120 122.50Q125 147 125 185L125 810L237 810L237 183Q237 113 222 68.50Q207 24 169 2.50Q131-19 61-19L7-19M40 867L126 1042L235 1042L322 867L241 867L180 988L120 867L40 867Z"  horiz-adv-x="301" vert-adv-y="1000"  />

      
      <glyph glyph-name="uni4b" unicode="&#x4b;" d="M63 0L63 810L176 810L176 428L362 810L467 810L307 453L493 0L383 0L228 380L176 286L176 0L63 0Z"  horiz-adv-x="495" vert-adv-y="1000"  />

      
      <glyph glyph-name="uni01E8" unicode="&#x01E8;" d="M63 0L63 810L176 810L176 428L362 810L467 810L307 453L493 0L383 0L228 380L176 286L176 0L63 0M195 869L108 1042L190 1042L248 925L306 1042L388 1042L300 869L195 869Z"  horiz-adv-x="495" vert-adv-y="1000"  />

      
      <glyph glyph-name="uni0136" unicode="&#x0136;" d="M63 0L63 810L176 810L176 428L362 810L467 810L307 453L493 0L383 0L228 380L176 286L176 0L63 0M220-287L193-234Q224-232 236.50-216.50Q249-201 249-172L194-172L194-63L303-63L302-166Q301-219 286.50-252Q272-285 220-287Z"  horiz-adv-x="495" vert-adv-y="1000"  />

      
      <glyph glyph-name="uni4c" unicode="&#x4c;" d="M63 0L63 810L176 810L176 81L383 81L383 0L63 0Z"  horiz-adv-x="397" vert-adv-y="1000"  />

      
      <glyph glyph-name="uni01C7" unicode="&#x01C7;" d="M63 0L63 810L176 810L176 81L383 81L383 0L63 0M404-19L404 62Q441 62 464 67Q487 72 499.50 85Q512 98 517 122.50Q522 147 522 185L522 810L634 810L634 183Q634 113 619 68.50Q604 24 566 2.50Q528-19 458-19L404-19Z"  horiz-adv-x="698" vert-adv-y="1000"  />

      
      <glyph glyph-name="uni0139" unicode="&#x0139;" d="M63 0L63 810L176 810L176 81L383 81L383 0L63 0M92 858L151 1056L258 1056L146 858L92 858Z"  horiz-adv-x="397" vert-adv-y="1000"  />

      
      <glyph glyph-name="uni013D" unicode="&#x013D;" d="M63 0L63 810L176 810L176 81L383 81L383 0L63 0M290 564L273 610Q300 619 315.50 641.50Q331 664 331 695L274 695L274 810L384 810L384 697Q384 644 361 612.50Q338 581 290 564Z"  horiz-adv-x="397" vert-adv-y="1000"  />

      
      <glyph glyph-name="uni013B" unicode="&#x013B;" d="M63 0L63 810L176 810L176 81L383 81L383 0L63 0M195-287L168-234Q199-232 211.50-216.50Q224-201 224-172L169-172L169-63L278-63L277-166Q276-219 261.50-252Q247-285 195-287Z"  horiz-adv-x="397" vert-adv-y="1000"  />

      
      <glyph glyph-name="uni013F" unicode="&#x013F;" d="M63 0L63 810L176 810L176 81L383 81L383 0L63 0M279 381L279 491L357 491L357 381L279 381Z"  horiz-adv-x="397" vert-adv-y="1000"  />

      
      <glyph glyph-name="uni01C8" unicode="&#x01C8;" d="M63 0L63 810L176 810L176 81L383 81L383 0L63 0M433-146Q420-146 404.50-144.50Q389-143 378-139L378-62Q383-63 392-64Q401-65 406-65Q429-65 442-56Q455-47 460.50-31Q466-15 466 5L466 578L573 578L573-6Q573-74 535.50-110Q498-146 433-146M466 664L466 776L574 776L574 664L466 664Z"  horiz-adv-x="627" vert-adv-y="1000"  />

      
      <glyph glyph-name="uni0141" unicode="&#x0141;" d="M63 0L63 377L-6 339L-6 426L63 464L63 810L176 810L176 527L281 584L281 498L176 440L176 81L383 81L383 0L63 0Z"  horiz-adv-x="397" vert-adv-y="1000"  />

      
      <glyph glyph-name="uni4d" unicode="&#x4d;" d="M61 0L76 810L187 810L330 153L474 810L584 810L599 0L508 0L499 588L362 0L298 0L162 588L153 0L61 0Z"  horiz-adv-x="660" vert-adv-y="1000"  />

      
      <glyph glyph-name="uni1E40" unicode="&#x1E40;" d="M61 0L76 810L187 810L330 153L474 810L584 810L599 0L508 0L499 588L362 0L298 0L162 588L153 0L61 0M276 903L276 1022L384 1022L384 903L276 903Z"  horiz-adv-x="660" vert-adv-y="1000"  />

      
      <glyph glyph-name="uni4e" unicode="&#x4e;" d="M63 0L63 810L140 810L370 272L370 810L464 810L464 0L392 0L159 553L159 0L63 0Z"  horiz-adv-x="528" vert-adv-y="1000"  />

      
      <glyph glyph-name="uni01CA" unicode="&#x01CA;" d="M63 0L63 810L140 810L370 272L370 810L464 810L464 0L392 0L159 553L159 0L63 0M535-19L535 62Q572 62 595 67Q618 72 630.50 85Q643 98 648 122.50Q653 147 653 185L653 810L765 810L765 183Q765 113 750 68.50Q735 24 697 2.50Q659-19 589-19L535-19Z"  horiz-adv-x="829" vert-adv-y="1000"  />

      
      <glyph glyph-name="uni0143" unicode="&#x0143;" d="M63 0L63 810L140 810L370 272L370 810L464 810L464 0L392 0L159 553L159 0L63 0M236 858L295 1056L402 1056L290 858L236 858Z"  horiz-adv-x="528" vert-adv-y="1000"  />

      
      <glyph glyph-name="uni0147" unicode="&#x0147;" d="M63 0L63 810L140 810L370 272L370 810L464 810L464 0L392 0L159 553L159 0L63 0M211 869L124 1042L206 1042L264 925L322 1042L404 1042L316 869L211 869Z"  horiz-adv-x="528" vert-adv-y="1000"  />

      
      <glyph glyph-name="uni0145" unicode="&#x0145;" d="M63 0L63 810L140 810L370 272L370 810L464 810L464 0L392 0L159 553L159 0L63 0M236-287L209-234Q240-232 252.50-216.50Q265-201 265-172L210-172L210-63L319-63L318-166Q317-219 302.50-252Q288-285 236-287Z"  horiz-adv-x="528" vert-adv-y="1000"  />

      
      <glyph glyph-name="uni014A" unicode="&#x014A;" d="M267-183L267-106Q318-106 340.50-95.50Q363-85 369-59.50Q375-34 375 9L375 42L153 553L153 0L63 0L63 810L140 810L376 272L376 810L464 810L464 0Q464-60 451-100.50Q438-141 404-162Q370-183 305-183L267-183Z"  horiz-adv-x="531" vert-adv-y="1000"  />

      
      <glyph glyph-name="uni01CB" unicode="&#x01CB;" d="M63 0L63 810L140 810L370 272L370 810L464 810L464 0L392 0L159 553L159 0L63 0M564-146Q551-146 535.50-144.50Q520-143 509-139L509-62Q514-63 523-64Q532-65 537-65Q560-65 573-56Q586-47 591.50-31Q597-15 597 5L597 578L704 578L704-6Q704-74 666.50-110Q629-146 564-146M597 664L597 776L705 776L705 664L597 664Z"  horiz-adv-x="758" vert-adv-y="1000"  />

      
      <glyph glyph-name="unid1" unicode="&#xd1;" d="M63 0L63 810L140 810L370 272L370 810L464 810L464 0L392 0L159 553L159 0L63 0M340 932Q312 932 290.50 944.50Q269 957 250 969Q231 981 209 981Q192 981 183.50 972Q175 963 175 940L114 940Q114 970 121.50 994.50Q129 1019 146.50 1033.50Q164 1048 194 1048Q219 1048 239.50 1036Q260 1024 280 1012Q300 1000 321 1000Q338 1000 346 1009Q354 1018 354 1042L414 1042Q414 1012 408 987Q402 962 386 947Q370 932 340 932Z"  horiz-adv-x="528" vert-adv-y="1000"  />

      
      <glyph glyph-name="uni4f" unicode="&#x4f;" d="M270-9Q188-9 139 23Q90 55 69 114.50Q48 174 48 254L48 561Q48 641 69.50 698.50Q91 756 139.50 786.50Q188 817 270 817Q352 817 400 786Q448 755 469.50 698Q491 641 491 561L491 253Q491 174 469.50 115Q448 56 400 23.50Q352-9 270-9M270 80Q315 80 338 98.50Q361 117 369 150.50Q377 184 377 229L377 584Q377 629 369 661.50Q361 694 338 711.50Q315 729 270 729Q225 729 201.50 711.50Q178 694 170 661.50Q162 629 162 584L162 229Q162 184 170 150.50Q178 117 201.50 98.50Q225 80 270 80Z"  horiz-adv-x="539" vert-adv-y="1000"  />

      
      <glyph glyph-name="unid3" unicode="&#xd3;" d="M270-9Q188-9 139 23Q90 55 69 114.50Q48 174 48 254L48 561Q48 641 69.50 698.50Q91 756 139.50 786.50Q188 817 270 817Q352 817 400 786Q448 755 469.50 698Q491 641 491 561L491 253Q491 174 469.50 115Q448 56 400 23.50Q352-9 270-9M270 80Q315 80 338 98.50Q361 117 369 150.50Q377 184 377 229L377 584Q377 629 369 661.50Q361 694 338 711.50Q315 729 270 729Q225 729 201.50 711.50Q178 694 170 661.50Q162 629 162 584L162 229Q162 184 170 150.50Q178 117 201.50 98.50Q225 80 270 80M242 858L301 1056L408 1056L296 858L242 858Z"  horiz-adv-x="539" vert-adv-y="1000"  />

      
      <glyph glyph-name="uni014E" unicode="&#x014E;" d="M270-9Q188-9 139 23Q90 55 69 114.50Q48 174 48 254L48 561Q48 641 69.50 698.50Q91 756 139.50 786.50Q188 817 270 817Q352 817 400 786Q448 755 469.50 698Q491 641 491 561L491 253Q491 174 469.50 115Q448 56 400 23.50Q352-9 270-9M270 80Q315 80 338 98.50Q361 117 369 150.50Q377 184 377 229L377 584Q377 629 369 661.50Q361 694 338 711.50Q315 729 270 729Q225 729 201.50 711.50Q178 694 170 661.50Q162 629 162 584L162 229Q162 184 170 150.50Q178 117 201.50 98.50Q225 80 270 80M270 873Q198 873 168.50 912Q139 951 139 1009L201 1009Q202 973 217.50 953.50Q233 934 270 934Q308 934 323.50 954Q339 974 339 1009L402 1009Q402 951 372.50 912Q343 873 270 873Z"  horiz-adv-x="539" vert-adv-y="1000"  />

      
      <glyph glyph-name="unid4" unicode="&#xd4;" d="M270-9Q188-9 139 23Q90 55 69 114.50Q48 174 48 254L48 561Q48 641 69.50 698.50Q91 756 139.50 786.50Q188 817 270 817Q352 817 400 786Q448 755 469.50 698Q491 641 491 561L491 253Q491 174 469.50 115Q448 56 400 23.50Q352-9 270-9M270 80Q315 80 338 98.50Q361 117 369 150.50Q377 184 377 229L377 584Q377 629 369 661.50Q361 694 338 711.50Q315 729 270 729Q225 729 201.50 711.50Q178 694 170 661.50Q162 629 162 584L162 229Q162 184 170 150.50Q178 117 201.50 98.50Q225 80 270 80M129 867L215 1042L324 1042L411 867L330 867L269 988L209 867L129 867Z"  horiz-adv-x="539" vert-adv-y="1000"  />

      
      <glyph glyph-name="uni1ED0" unicode="&#x1ED0;" d="M270-9Q188-9 139 23Q90 55 69 114.50Q48 174 48 254L48 561Q48 641 69.50 698.50Q91 756 139.50 786.50Q188 817 270 817Q352 817 400 786Q448 755 469.50 698Q491 641 491 561L491 253Q491 174 469.50 115Q448 56 400 23.50Q352-9 270-9M270 80Q315 80 338 98.50Q361 117 369 150.50Q377 184 377 229L377 584Q377 629 369 661.50Q361 694 338 711.50Q315 729 270 729Q225 729 201.50 711.50Q178 694 170 661.50Q162 629 162 584L162 229Q162 184 170 150.50Q178 117 201.50 98.50Q225 80 270 80M129 867L215 1022L324 1022L411 867L330 867L269 968L209 867L129 867M397 971L450 1086L543 1086L463 971L397 971Z"  horiz-adv-x="539" vert-adv-y="1000"  />

      
      <glyph glyph-name="uni1ED8" unicode="&#x1ED8;" d="M270-9Q188-9 139 23Q90 55 69 114.50Q48 174 48 254L48 561Q48 641 69.50 698.50Q91 756 139.50 786.50Q188 817 270 817Q352 817 400 786Q448 755 469.50 698Q491 641 491 561L491 253Q491 174 469.50 115Q448 56 400 23.50Q352-9 270-9M270 80Q315 80 338 98.50Q361 117 369 150.50Q377 184 377 229L377 584Q377 629 369 661.50Q361 694 338 711.50Q315 729 270 729Q225 729 201.50 711.50Q178 694 170 661.50Q162 629 162 584L162 229Q162 184 170 150.50Q178 117 201.50 98.50Q225 80 270 80M129 867L215 1022L324 1022L411 867L330 867L269 968L209 867L129 867M216-176L216-63L324-63L324-176L216-176Z"  horiz-adv-x="539" vert-adv-y="1000"  />

      
      <glyph glyph-name="uni1ED2" unicode="&#x1ED2;" d="M270-9Q188-9 139 23Q90 55 69 114.50Q48 174 48 254L48 561Q48 641 69.50 698.50Q91 756 139.50 786.50Q188 817 270 817Q352 817 400 786Q448 755 469.50 698Q491 641 491 561L491 253Q491 174 469.50 115Q448 56 400 23.50Q352-9 270-9M270 80Q315 80 338 98.50Q361 117 369 150.50Q377 184 377 229L377 584Q377 629 369 661.50Q361 694 338 711.50Q315 729 270 729Q225 729 201.50 711.50Q178 694 170 661.50Q162 629 162 584L162 229Q162 184 170 150.50Q178 117 201.50 98.50Q225 80 270 80M129 867L215 1022L324 1022L411 867L330 867L269 968L209 867L129 867M422 971L342 1086L435 1086L488 971L422 971Z"  horiz-adv-x="539" vert-adv-y="1000"  />

      
      <glyph glyph-name="uni1ED4" unicode="&#x1ED4;" d="M270-9Q188-9 139 23Q90 55 69 114.50Q48 174 48 254L48 561Q48 641 69.50 698.50Q91 756 139.50 786.50Q188 817 270 817Q352 817 400 786Q448 755 469.50 698Q491 641 491 561L491 253Q491 174 469.50 115Q448 56 400 23.50Q352-9 270-9M270 80Q315 80 338 98.50Q361 117 369 150.50Q377 184 377 229L377 584Q377 629 369 661.50Q361 694 338 711.50Q315 729 270 729Q225 729 201.50 711.50Q178 694 170 661.50Q162 629 162 584L162 229Q162 184 170 150.50Q178 117 201.50 98.50Q225 80 270 80M421 949L387 989Q409 1002 422 1015Q435 1028 435 1047Q435 1068 420.50 1077Q406 1086 386 1086Q376 1086 363.50 1084.50Q351 1083 340 1079L340 1133Q358 1138 376 1140.50Q394 1143 413 1143Q456 1143 485.50 1122Q515 1101 515 1056Q515 1012 488.50 989Q462 966 421 949M129 867L215 1022L324 1022L411 867L330 867L269 968L209 867L129 867Z"  horiz-adv-x="539" vert-adv-y="1000"  />

      
      <glyph glyph-name="uni1ED6" unicode="&#x1ED6;" d="M270-9Q188-9 139 23Q90 55 69 114.50Q48 174 48 254L48 561Q48 641 69.50 698.50Q91 756 139.50 786.50Q188 817 270 817Q352 817 400 786Q448 755 469.50 698Q491 641 491 561L491 253Q491 174 469.50 115Q448 56 400 23.50Q352-9 270-9M270 80Q315 80 338 98.50Q361 117 369 150.50Q377 184 377 229L377 584Q377 629 369 661.50Q361 694 338 711.50Q315 729 270 729Q225 729 201.50 711.50Q178 694 170 661.50Q162 629 162 584L162 229Q162 184 170 150.50Q178 117 201.50 98.50Q225 80 270 80Z"  horiz-adv-x="539" vert-adv-y="1000"  />

      
      <glyph glyph-name="uni020C" unicode="&#x020C;" d="M270-9Q188-9 139 23Q90 55 69 114.50Q48 174 48 254L48 561Q48 641 69.50 698.50Q91 756 139.50 786.50Q188 817 270 817Q352 817 400 786Q448 755 469.50 698Q491 641 491 561L491 253Q491 174 469.50 115Q448 56 400 23.50Q352-9 270-9M270 80Q315 80 338 98.50Q361 117 369 150.50Q377 184 377 229L377 584Q377 629 369 661.50Q361 694 338 711.50Q315 729 270 729Q225 729 201.50 711.50Q178 694 170 661.50Q162 629 162 584L162 229Q162 184 170 150.50Q178 117 201.50 98.50Q225 80 270 80M185 872L73 1042L181 1042L239 872L185 872M313 872L239 1042L327 1042L367 872L313 872Z"  horiz-adv-x="539" vert-adv-y="1000"  />

      
      <glyph glyph-name="unid6" unicode="&#xd6;" d="M270-9Q188-9 139 23Q90 55 69 114.50Q48 174 48 254L48 561Q48 641 69.50 698.50Q91 756 139.50 786.50Q188 817 270 817Q352 817 400 786Q448 755 469.50 698Q491 641 491 561L491 253Q491 174 469.50 115Q448 56 400 23.50Q352-9 270-9M270 80Q315 80 338 98.50Q361 117 369 150.50Q377 184 377 229L377 584Q377 629 369 661.50Q361 694 338 711.50Q315 729 270 729Q225 729 201.50 711.50Q178 694 170 661.50Q162 629 162 584L162 229Q162 184 170 150.50Q178 117 201.50 98.50Q225 80 270 80M302 931L302 1042L410 1042L410 931L302 931M130 931L130 1042L238 1042L238 931L130 931Z"  horiz-adv-x="539" vert-adv-y="1000"  />

      
      <glyph glyph-name="uni022A" unicode="&#x022A;" d="M270-9Q188-9 139 23Q90 55 69 114.50Q48 174 48 254L48 561Q48 641 69.50 698.50Q91 756 139.50 786.50Q188 817 270 817Q352 817 400 786Q448 755 469.50 698Q491 641 491 561L491 253Q491 174 469.50 115Q448 56 400 23.50Q352-9 270-9M270 80Q315 80 338 98.50Q361 117 369 150.50Q377 184 377 229L377 584Q377 629 369 661.50Q361 694 338 711.50Q315 729 270 729Q225 729 201.50 711.50Q178 694 170 661.50Q162 629 162 584L162 229Q162 184 170 150.50Q178 117 201.50 98.50Q225 80 270 80M302 931L302 1042L410 1042L410 931L302 931M130 931L130 1042L238 1042L238 931L130 931M174 1149L174 1214L366 1214L366 1149L174 1149Z"  horiz-adv-x="539" vert-adv-y="1000"  />

      
      <glyph glyph-name="uni0230" unicode="&#x0230;" d="M270-9Q188-9 139 23Q90 55 69 114.50Q48 174 48 254L48 561Q48 641 69.50 698.50Q91 756 139.50 786.50Q188 817 270 817Q352 817 400 786Q448 755 469.50 698Q491 641 491 561L491 253Q491 174 469.50 115Q448 56 400 23.50Q352-9 270-9M270 80Q315 80 338 98.50Q361 117 369 150.50Q377 184 377 229L377 584Q377 629 369 661.50Q361 694 338 711.50Q315 729 270 729Q225 729 201.50 711.50Q178 694 170 661.50Q162 629 162 584L162 229Q162 184 170 150.50Q178 117 201.50 98.50Q225 80 270 80M216 903L216 1022L324 1022L324 903L216 903M174 1129L174 1194L366 1194L366 1129L174 1129Z"  horiz-adv-x="539" vert-adv-y="1000"  />

      
      <glyph glyph-name="uni1ECC" unicode="&#x1ECC;" d="M270-9Q188-9 139 23Q90 55 69 114.50Q48 174 48 254L48 561Q48 641 69.50 698.50Q91 756 139.50 786.50Q188 817 270 817Q352 817 400 786Q448 755 469.50 698Q491 641 491 561L491 253Q491 174 469.50 115Q448 56 400 23.50Q352-9 270-9M270 80Q315 80 338 98.50Q361 117 369 150.50Q377 184 377 229L377 584Q377 629 369 661.50Q361 694 338 711.50Q315 729 270 729Q225 729 201.50 711.50Q178 694 170 661.50Q162 629 162 584L162 229Q162 184 170 150.50Q178 117 201.50 98.50Q225 80 270 80M216-176L216-63L324-63L324-176L216-176Z"  horiz-adv-x="539" vert-adv-y="1000"  />

      
      <glyph glyph-name="unid2" unicode="&#xd2;" d="M270-9Q188-9 139 23Q90 55 69 114.50Q48 174 48 254L48 561Q48 641 69.50 698.50Q91 756 139.50 786.50Q188 817 270 817Q352 817 400 786Q448 755 469.50 698Q491 641 491 561L491 253Q491 174 469.50 115Q448 56 400 23.50Q352-9 270-9M270 80Q315 80 338 98.50Q361 117 369 150.50Q377 184 377 229L377 584Q377 629 369 661.50Q361 694 338 711.50Q315 729 270 729Q225 729 201.50 711.50Q178 694 170 661.50Q162 629 162 584L162 229Q162 184 170 150.50Q178 117 201.50 98.50Q225 80 270 80M245 858L134 1056L241 1056L298 858L245 858Z"  horiz-adv-x="539" vert-adv-y="1000"  />

      
      <glyph glyph-name="uni1ECE" unicode="&#x1ECE;" d="M270-9Q188-9 139 23Q90 55 69 114.50Q48 174 48 254L48 561Q48 641 69.50 698.50Q91 756 139.50 786.50Q188 817 270 817Q352 817 400 786Q448 755 469.50 698Q491 641 491 561L491 253Q491 174 469.50 115Q448 56 400 23.50Q352-9 270-9M270 80Q315 80 338 98.50Q361 117 369 150.50Q377 184 377 229L377 584Q377 629 369 661.50Q361 694 338 711.50Q315 729 270 729Q225 729 201.50 711.50Q178 694 170 661.50Q162 629 162 584L162 229Q162 184 170 150.50Q178 117 201.50 98.50Q225 80 270 80M271 868L237 908Q266 921 284 934Q302 947 302 966Q302 987 284.50 996Q267 1005 241 1005Q229 1005 216 1003.50Q203 1002 190 998L190 1052Q229 1062 271 1062Q302 1062 327 1053Q352 1044 367 1024.50Q382 1005 382 975Q382 946 367.50 926Q353 906 328 892.50Q303 879 271 868Z"  horiz-adv-x="539" vert-adv-y="1000"  />

      
      <glyph glyph-name="uni01A0" unicode="&#x01A0;" d="M270-9Q188-9 139 23Q90 55 69 114.50Q48 174 48 254L48 561Q48 641 69.50 698.50Q91 756 139.50 786.50Q188 817 270 817Q352 817 400 786Q448 755 469.50 698Q491 641 491 561L491 253Q491 174 469.50 115Q448 56 400 23.50Q352-9 270-9M270 80Q315 80 338 98.50Q361 117 369 150.50Q377 184 377 229L377 584Q377 629 369 661.50Q361 694 338 711.50Q315 729 270 729Q225 729 201.50 711.50Q178 694 170 661.50Q162 629 162 584L162 229Q162 184 170 150.50Q178 117 201.50 98.50Q225 80 270 80M314 754L314 810L334 810Q364 810 376 828.50Q388 847 388 884L471 884Q471 819 436 786.50Q401 754 336 754L314 754Z"  horiz-adv-x="539" vert-adv-y="1000"  />

      
      <glyph glyph-name="uni1EDA" unicode="&#x1EDA;" d="M270-9Q188-9 139 23Q90 55 69 114.50Q48 174 48 254L48 561Q48 641 69.50 698.50Q91 756 139.50 786.50Q188 817 270 817Q352 817 400 786Q448 755 469.50 698Q491 641 491 561L491 253Q491 174 469.50 115Q448 56 400 23.50Q352-9 270-9M270 80Q315 80 338 98.50Q361 117 369 150.50Q377 184 377 229L377 584Q377 629 369 661.50Q361 694 338 711.50Q315 729 270 729Q225 729 201.50 711.50Q178 694 170 661.50Q162 629 162 584L162 229Q162 184 170 150.50Q178 117 201.50 98.50Q225 80 270 80M314 754L314 810L334 810Q364 810 376 828.50Q388 847 388 884L471 884Q471 819 436 786.50Q401 754 336 754L314 754M242 858L301 1056L408 1056L296 858L242 858Z"  horiz-adv-x="539" vert-adv-y="1000"  />

      
      <glyph glyph-name="uni1EE2" unicode="&#x1EE2;" d="M270-9Q188-9 139 23Q90 55 69 114.50Q48 174 48 254L48 561Q48 641 69.50 698.50Q91 756 139.50 786.50Q188 817 270 817Q352 817 400 786Q448 755 469.50 698Q491 641 491 561L491 253Q491 174 469.50 115Q448 56 400 23.50Q352-9 270-9M270 80Q315 80 338 98.50Q361 117 369 150.50Q377 184 377 229L377 584Q377 629 369 661.50Q361 694 338 711.50Q315 729 270 729Q225 729 201.50 711.50Q178 694 170 661.50Q162 629 162 584L162 229Q162 184 170 150.50Q178 117 201.50 98.50Q225 80 270 80M314 754L314 810L334 810Q364 810 376 828.50Q388 847 388 884L471 884Q471 819 436 786.50Q401 754 336 754L314 754M216-176L216-63L324-63L324-176L216-176Z"  horiz-adv-x="539" vert-adv-y="1000"  />

      
      <glyph glyph-name="uni1EDC" unicode="&#x1EDC;" d="M270-9Q188-9 139 23Q90 55 69 114.50Q48 174 48 254L48 561Q48 641 69.50 698.50Q91 756 139.50 786.50Q188 817 270 817Q352 817 400 786Q448 755 469.50 698Q491 641 491 561L491 253Q491 174 469.50 115Q448 56 400 23.50Q352-9 270-9M270 80Q315 80 338 98.50Q361 117 369 150.50Q377 184 377 229L377 584Q377 629 369 661.50Q361 694 338 711.50Q315 729 270 729Q225 729 201.50 711.50Q178 694 170 661.50Q162 629 162 584L162 229Q162 184 170 150.50Q178 117 201.50 98.50Q225 80 270 80M314 754L314 810L334 810Q364 810 376 828.50Q388 847 388 884L471 884Q471 819 436 786.50Q401 754 336 754L314 754M245 858L134 1056L241 1056L298 858L245 858Z"  horiz-adv-x="539" vert-adv-y="1000"  />

      
      <glyph glyph-name="uni1EDE" unicode="&#x1EDE;" d="M270-9Q188-9 139 23Q90 55 69 114.50Q48 174 48 254L48 561Q48 641 69.50 698.50Q91 756 139.50 786.50Q188 817 270 817Q352 817 400 786Q448 755 469.50 698Q491 641 491 561L491 253Q491 174 469.50 115Q448 56 400 23.50Q352-9 270-9M270 80Q315 80 338 98.50Q361 117 369 150.50Q377 184 377 229L377 584Q377 629 369 661.50Q361 694 338 711.50Q315 729 270 729Q225 729 201.50 711.50Q178 694 170 661.50Q162 629 162 584L162 229Q162 184 170 150.50Q178 117 201.50 98.50Q225 80 270 80M314 754L314 810L334 810Q364 810 376 828.50Q388 847 388 884L471 884Q471 819 436 786.50Q401 754 336 754L314 754M271 868L237 908Q266 921 284 934Q302 947 302 966Q302 987 284.50 996Q267 1005 241 1005Q229 1005 216 1003.50Q203 1002 190 998L190 1052Q229 1062 271 1062Q302 1062 327 1053Q352 1044 367 1024.50Q382 1005 382 975Q382 946 367.50 926Q353 906 328 892.50Q303 879 271 868Z"  horiz-adv-x="539" vert-adv-y="1000"  />

      
      <glyph glyph-name="uni1EE0" unicode="&#x1EE0;" d="M270-9Q188-9 139 23Q90 55 69 114.50Q48 174 48 254L48 561Q48 641 69.50 698.50Q91 756 139.50 786.50Q188 817 270 817Q352 817 400 786Q448 755 469.50 698Q491 641 491 561L491 253Q491 174 469.50 115Q448 56 400 23.50Q352-9 270-9M270 80Q315 80 338 98.50Q361 117 369 150.50Q377 184 377 229L377 584Q377 629 369 661.50Q361 694 338 711.50Q315 729 270 729Q225 729 201.50 711.50Q178 694 170 661.50Q162 629 162 584L162 229Q162 184 170 150.50Q178 117 201.50 98.50Q225 80 270 80M314 754L314 810L334 810Q364 810 376 828.50Q388 847 388 884L471 884Q471 819 436 786.50Q401 754 336 754L314 754M346 932Q318 932 296.50 944.50Q275 957 256 969Q237 981 215 981Q198 981 189.50 972Q181 963 181 940L120 940Q120 970 127.50 994.50Q135 1019 152.50 1033.50Q170 1048 200 1048Q225 1048 245.50 1036Q266 1024 286 1012Q306 1000 327 1000Q344 1000 352 1009Q360 1018 360 1042L420 1042Q420 1012 414 987Q408 962 392 947Q376 932 346 932Z"  horiz-adv-x="539" vert-adv-y="1000"  />

      
      <glyph glyph-name="uni0150" unicode="&#x0150;" d="M270-9Q188-9 139 23Q90 55 69 114.50Q48 174 48 254L48 561Q48 641 69.50 698.50Q91 756 139.50 786.50Q188 817 270 817Q352 817 400 786Q448 755 469.50 698Q491 641 491 561L491 253Q491 174 469.50 115Q448 56 400 23.50Q352-9 270-9M270 80Q315 80 338 98.50Q361 117 369 150.50Q377 184 377 229L377 584Q377 629 369 661.50Q361 694 338 711.50Q315 729 270 729Q225 729 201.50 711.50Q178 694 170 661.50Q162 629 162 584L162 229Q162 184 170 150.50Q178 117 201.50 98.50Q225 80 270 80M310 872L368 1043L476 1043L365 872L310 872M184 872L223 1043L311 1043L238 872L184 872Z"  horiz-adv-x="539" vert-adv-y="1000"  />

      
      <glyph glyph-name="uni020E" unicode="&#x020E;" d="M270-9Q188-9 139 23Q90 55 69 114.50Q48 174 48 254L48 561Q48 641 69.50 698.50Q91 756 139.50 786.50Q188 817 270 817Q352 817 400 786Q448 755 469.50 698Q491 641 491 561L491 253Q491 174 469.50 115Q448 56 400 23.50Q352-9 270-9M270 80Q315 80 338 98.50Q361 117 369 150.50Q377 184 377 229L377 584Q377 629 369 661.50Q361 694 338 711.50Q315 729 270 729Q225 729 201.50 711.50Q178 694 170 661.50Q162 629 162 584L162 229Q162 184 170 150.50Q178 117 201.50 98.50Q225 80 270 80M138 893Q139 935 149.50 968.50Q160 1002 188.50 1022Q217 1042 270 1042Q323 1042 351.50 1022Q380 1002 391 968.50Q402 935 402 893L339 893Q339 941 323.50 961Q308 981 270 981Q233 981 217.50 960.50Q202 940 201 893L138 893Z"  horiz-adv-x="539" vert-adv-y="1000"  />

      
      <glyph glyph-name="uni014C" unicode="&#x014C;" d="M270-9Q188-9 139 23Q90 55 69 114.50Q48 174 48 254L48 561Q48 641 69.50 698.50Q91 756 139.50 786.50Q188 817 270 817Q352 817 400 786Q448 755 469.50 698Q491 641 491 561L491 253Q491 174 469.50 115Q448 56 400 23.50Q352-9 270-9M270 80Q315 80 338 98.50Q361 117 369 150.50Q377 184 377 229L377 584Q377 629 369 661.50Q361 694 338 711.50Q315 729 270 729Q225 729 201.50 711.50Q178 694 170 661.50Q162 629 162 584L162 229Q162 184 170 150.50Q178 117 201.50 98.50Q225 80 270 80M174 917L174 982L366 982L366 917L174 917Z"  horiz-adv-x="539" vert-adv-y="1000"  />

      
      <glyph glyph-name="uni01EA" unicode="&#x01EA;" d="M270-9Q188-9 139 23Q90 55 69 114.50Q48 174 48 254L48 561Q48 641 69.50 698.50Q91 756 139.50 786.50Q188 817 270 817Q352 817 400 786Q448 755 469.50 698Q491 641 491 561L491 253Q491 174 469.50 115Q448 56 400 23.50Q352-9 270-9M270 80Q315 80 338 98.50Q361 117 369 150.50Q377 184 377 229L377 584Q377 629 369 661.50Q361 694 338 711.50Q315 729 270 729Q225 729 201.50 711.50Q178 694 170 661.50Q162 629 162 584L162 229Q162 184 170 150.50Q178 117 201.50 98.50Q225 80 270 80M312-231Q285-231 260-228Q235-225 215.50-216Q196-207 184.50-190Q173-173 173-145Q173-112 190-82Q207-52 232.50-30Q258-8 284 0L338 0Q320-16 300.50-37.50Q281-59 267.50-82.50Q254-106 254-129Q254-160 280-168.50Q306-177 334-177Q342-177 350.50-176.50Q359-176 366-175L348-228Q340-229 330-230Q320-231 312-231Z"  horiz-adv-x="539" vert-adv-y="1000"  />

      
      <glyph glyph-name="unid8" unicode="&#xd8;" d="M160-74L121-62L373 880L413 870L160-74M270-9Q188-9 139 23Q90 55 69 114.50Q48 174 48 254L48 561Q48 641 69.50 698.50Q91 756 139.50 786.50Q188 817 270 817Q352 817 400 786Q448 755 469.50 698Q491 641 491 561L491 253Q491 174 469.50 115Q448 56 400 23.50Q352-9 270-9M270 80Q315 80 338 98.50Q361 117 369 150.50Q377 184 377 229L377 584Q377 629 369 661.50Q361 694 338 711.50Q315 729 270 729Q225 729 201.50 711.50Q178 694 170 661.50Q162 629 162 584L162 229Q162 184 170 150.50Q178 117 201.50 98.50Q225 80 270 80Z"  horiz-adv-x="540" vert-adv-y="1000"  />

      
      <glyph glyph-name="uni01FE" unicode="&#x01FE;" d="M160-74L121-62L373 880L413 870L160-74M270-9Q188-9 139 23Q90 55 69 114.50Q48 174 48 254L48 561Q48 641 69.50 698.50Q91 756 139.50 786.50Q188 817 270 817Q352 817 400 786Q448 755 469.50 698Q491 641 491 561L491 253Q491 174 469.50 115Q448 56 400 23.50Q352-9 270-9M270 80Q315 80 338 98.50Q361 117 369 150.50Q377 184 377 229L377 584Q377 629 369 661.50Q361 694 338 711.50Q315 729 270 729Q225 729 201.50 711.50Q178 694 170 661.50Q162 629 162 584L162 229Q162 184 170 150.50Q178 117 201.50 98.50Q225 80 270 80M242 858L301 1056L408 1056L296 858L242 858Z"  horiz-adv-x="540" vert-adv-y="1000"  />

      
      <glyph glyph-name="unid5" unicode="&#xd5;" d="M270-9Q188-9 139 23Q90 55 69 114.50Q48 174 48 254L48 561Q48 641 69.50 698.50Q91 756 139.50 786.50Q188 817 270 817Q352 817 400 786Q448 755 469.50 698Q491 641 491 561L491 253Q491 174 469.50 115Q448 56 400 23.50Q352-9 270-9M270 80Q315 80 338 98.50Q361 117 369 150.50Q377 184 377 229L377 584Q377 629 369 661.50Q361 694 338 711.50Q315 729 270 729Q225 729 201.50 711.50Q178 694 170 661.50Q162 629 162 584L162 229Q162 184 170 150.50Q178 117 201.50 98.50Q225 80 270 80M346 932Q318 932 296.50 944.50Q275 957 256 969Q237 981 215 981Q198 981 189.50 972Q181 963 181 940L120 940Q120 970 127.50 994.50Q135 1019 152.50 1033.50Q170 1048 200 1048Q225 1048 245.50 1036Q266 1024 286 1012Q306 1000 327 1000Q344 1000 352 1009Q360 1018 360 1042L420 1042Q420 1012 414 987Q408 962 392 947Q376 932 346 932Z"  horiz-adv-x="539" vert-adv-y="1000"  />

      
      <glyph glyph-name="uni022C" unicode="&#x022C;" d="M270-9Q188-9 139 23Q90 55 69 114.50Q48 174 48 254L48 561Q48 641 69.50 698.50Q91 756 139.50 786.50Q188 817 270 817Q352 817 400 786Q448 755 469.50 698Q491 641 491 561L491 253Q491 174 469.50 115Q448 56 400 23.50Q352-9 270-9M270 80Q315 80 338 98.50Q361 117 369 150.50Q377 184 377 229L377 584Q377 629 369 661.50Q361 694 338 711.50Q315 729 270 729Q225 729 201.50 711.50Q178 694 170 661.50Q162 629 162 584L162 229Q162 184 170 150.50Q178 117 201.50 98.50Q225 80 270 80M346 932Q318 932 296.50 944.50Q275 957 256 969Q237 981 215 981Q198 981 189.50 972Q181 963 181 940L120 940Q120 970 127.50 994.50Q135 1019 152.50 1033.50Q170 1048 200 1048Q225 1048 245.50 1036Q266 1024 286 1012Q306 1000 327 1000Q344 1000 352 1009Q360 1018 360 1042L420 1042Q420 1012 414 987Q408 962 392 947Q376 932 346 932M174 1155L174 1220L366 1220L366 1155L174 1155Z"  horiz-adv-x="539" vert-adv-y="1000"  />

      
      <glyph glyph-name="uni0152" unicode="&#x0152;" d="M288 0Q198 0 145.50 27.50Q93 55 70.50 110Q48 165 48 247L48 546Q48 632 70.50 691Q93 750 144 780Q195 810 280 810L654 810L654 726L457 726L457 459L617 459L617 378L457 378L457 81L656 81L656 0L288 0M290 84L344 84L344 729L288 729Q227 729 200.50 705.50Q174 682 168 636.50Q162 591 162 525L162 259Q162 198 170 159Q178 120 205 102Q232 84 290 84Z"  horiz-adv-x="683" vert-adv-y="1000"  />

      
      <glyph glyph-name="uni50" unicode="&#x50;" d="M63 0L63 810L264 810Q337 810 380.50 783.50Q424 757 444 707Q464 657 464 586Q464 522 441.50 475Q419 428 375 402.50Q331 377 265 377L176 377L176 0L63 0M176 458L228 458Q277 458 305 469Q333 480 345 507.50Q357 535 357 585Q357 643 348.50 674Q340 705 313 717Q286 729 229 729L176 729L176 458Z"  horiz-adv-x="480" vert-adv-y="1000"  />

      
      <glyph glyph-name="uni1E56" unicode="&#x1E56;" d="M63 0L63 810L264 810Q337 810 380.50 783.50Q424 757 444 707Q464 657 464 586Q464 522 441.50 475Q419 428 375 402.50Q331 377 265 377L176 377L176 0L63 0M176 458L228 458Q277 458 305 469Q333 480 345 507.50Q357 535 357 585Q357 643 348.50 674Q340 705 313 717Q286 729 229 729L176 729L176 458M186 903L186 1022L294 1022L294 903L186 903Z"  horiz-adv-x="480" vert-adv-y="1000"  />

      
      <glyph glyph-name="unide" unicode="&#xde;" d="M63 0L63 810L176 810L176 704L293 704Q361 704 403.50 675Q446 646 466 593Q486 540 486 469Q486 412 473 368Q460 324 434 294Q408 264 368 248.50Q328 233 274 233L176 233L176 0L63 0M176 324L246 324Q313 324 344.50 354Q376 384 376 469Q376 547 349 578.50Q322 610 259 610L176 610L176 324Z"  horiz-adv-x="503" vert-adv-y="1000"  />

      
      <glyph glyph-name="uni51" unicode="&#x51;" d="M435-164Q408-150 381.50-124Q355-98 331.50-67Q308-36 289-8Q285-9 280-9Q275-9 270-9Q188-9 139 23Q90 55 69 114.50Q48 174 48 254L48 561Q48 641 69.50 698.50Q91 756 139.50 786.50Q188 817 270 817Q352 817 400.50 786Q449 755 470.50 698Q492 641 492 561L492 253Q492 194 480 145.50Q468 97 442 62.50Q416 28 373 10Q385-5 399-21.50Q413-38 427-52Q441-66 453-75L435-164M270 80Q316 80 339 98.50Q362 117 370 150.50Q378 184 378 229L378 584Q378 629 370 661.50Q362 694 339 711.50Q316 729 270 729Q225 729 201.50 711.50Q178 694 170 661.50Q162 629 162 584L162 229Q162 184 170 150.50Q178 117 201.50 98.50Q225 80 270 80Z"  horiz-adv-x="541" vert-adv-y="1000"  />

      
      <glyph glyph-name="uni52" unicode="&#x52;" d="M63 0L63 810L226 810Q307 810 360 788.50Q413 767 438.50 719.50Q464 672 464 595Q464 548 454 509.50Q444 471 422 444.50Q400 418 364 406L479 0L370 0L264 380L176 380L176 0L63 0M176 461L219 461Q267 461 297 473Q327 485 341 514Q355 543 355 595Q355 666 329 697.50Q303 729 226 729L176 729L176 461Z"  horiz-adv-x="519" vert-adv-y="1000"  />

      
      <glyph glyph-name="uni0154" unicode="&#x0154;" d="M63 0L63 810L226 810Q307 810 360 788.50Q413 767 438.50 719.50Q464 672 464 595Q464 548 454 509.50Q444 471 422 444.50Q400 418 364 406L479 0L370 0L264 380L176 380L176 0L63 0M176 461L219 461Q267 461 297 473Q327 485 341 514Q355 543 355 595Q355 666 329 697.50Q303 729 226 729L176 729L176 461M232 858L291 1056L398 1056L286 858L232 858Z"  horiz-adv-x="519" vert-adv-y="1000"  />

      
      <glyph glyph-name="uni0158" unicode="&#x0158;" d="M63 0L63 810L226 810Q307 810 360 788.50Q413 767 438.50 719.50Q464 672 464 595Q464 548 454 509.50Q444 471 422 444.50Q400 418 364 406L479 0L370 0L264 380L176 380L176 0L63 0M176 461L219 461Q267 461 297 473Q327 485 341 514Q355 543 355 595Q355 666 329 697.50Q303 729 226 729L176 729L176 461M207 869L120 1042L202 1042L260 925L318 1042L400 1042L312 869L207 869Z"  horiz-adv-x="519" vert-adv-y="1000"  />

      
      <glyph glyph-name="uni0156" unicode="&#x0156;" d="M63 0L63 810L226 810Q307 810 360 788.50Q413 767 438.50 719.50Q464 672 464 595Q464 548 454 509.50Q444 471 422 444.50Q400 418 364 406L479 0L370 0L264 380L176 380L176 0L63 0M176 461L219 461Q267 461 297 473Q327 485 341 514Q355 543 355 595Q355 666 329 697.50Q303 729 226 729L176 729L176 461M232-287L205-234Q236-232 248.50-216.50Q261-201 261-172L206-172L206-63L315-63L314-166Q313-219 298.50-252Q284-285 232-287Z"  horiz-adv-x="519" vert-adv-y="1000"  />

      
      <glyph glyph-name="uni0210" unicode="&#x0210;" d="M63 0L63 810L226 810Q307 810 360 788.50Q413 767 438.50 719.50Q464 672 464 595Q464 548 454 509.50Q444 471 422 444.50Q400 418 364 406L479 0L370 0L264 380L176 380L176 0L63 0M176 461L219 461Q267 461 297 473Q327 485 341 514Q355 543 355 595Q355 666 329 697.50Q303 729 226 729L176 729L176 461M175 872L63 1042L171 1042L229 872L175 872M303 872L229 1042L317 1042L357 872L303 872Z"  horiz-adv-x="519" vert-adv-y="1000"  />

      
      <glyph glyph-name="uni0212" unicode="&#x0212;" d="M63 0L63 810L226 810Q307 810 360 788.50Q413 767 438.50 719.50Q464 672 464 595Q464 548 454 509.50Q444 471 422 444.50Q400 418 364 406L479 0L370 0L264 380L176 380L176 0L63 0M176 461L219 461Q267 461 297 473Q327 485 341 514Q355 543 355 595Q355 666 329 697.50Q303 729 226 729L176 729L176 461M128 893Q129 935 139.50 968.50Q150 1002 178.50 1022Q207 1042 260 1042Q313 1042 341.50 1022Q370 1002 381 968.50Q392 935 392 893L329 893Q329 941 313.50 961Q298 981 260 981Q223 981 207.50 960.50Q192 940 191 893L128 893Z"  horiz-adv-x="519" vert-adv-y="1000"  />

      
      <glyph glyph-name="uni53" unicode="&#x53;" d="M254-9Q184-9 137.50 21Q91 51 67 104Q43 157 39 227L139 254Q142 211 152.50 171Q163 131 187 105.50Q211 80 254 80Q298 80 320.50 104.50Q343 129 343 175Q343 230 318 263.50Q293 297 255 331L119 451Q79 486 60 527.50Q41 569 41 630Q41 719 92 768Q143 817 231 817Q279 817 315.50 804.50Q352 792 376.50 766Q401 740 415.50 700.50Q430 661 435 608L339 582Q336 622 327 655.50Q318 689 295.50 709.50Q273 730 231 730Q189 730 165.50 707.50Q142 685 142 641Q142 604 154.50 580Q167 556 195 531L332 411Q378 371 413 315.50Q448 260 448 184Q448 124 423 80.50Q398 37 354.50 14Q311-9 254-9Z"  horiz-adv-x="473" vert-adv-y="1000"  />

      
      <glyph glyph-name="uni015A" unicode="&#x015A;" d="M254-9Q184-9 137.50 21Q91 51 67 104Q43 157 39 227L139 254Q142 211 152.50 171Q163 131 187 105.50Q211 80 254 80Q298 80 320.50 104.50Q343 129 343 175Q343 230 318 263.50Q293 297 255 331L119 451Q79 486 60 527.50Q41 569 41 630Q41 719 92 768Q143 817 231 817Q279 817 315.50 804.50Q352 792 376.50 766Q401 740 415.50 700.50Q430 661 435 608L339 582Q336 622 327 655.50Q318 689 295.50 709.50Q273 730 231 730Q189 730 165.50 707.50Q142 685 142 641Q142 604 154.50 580Q167 556 195 531L332 411Q378 371 413 315.50Q448 260 448 184Q448 124 423 80.50Q398 37 354.50 14Q311-9 254-9M209 858L268 1056L375 1056L263 858L209 858Z"  horiz-adv-x="473" vert-adv-y="1000"  />

      
      <glyph glyph-name="uni0160" unicode="&#x0160;" d="M254-9Q184-9 137.50 21Q91 51 67 104Q43 157 39 227L139 254Q142 211 152.50 171Q163 131 187 105.50Q211 80 254 80Q298 80 320.50 104.50Q343 129 343 175Q343 230 318 263.50Q293 297 255 331L119 451Q79 486 60 527.50Q41 569 41 630Q41 719 92 768Q143 817 231 817Q279 817 315.50 804.50Q352 792 376.50 766Q401 740 415.50 700.50Q430 661 435 608L339 582Q336 622 327 655.50Q318 689 295.50 709.50Q273 730 231 730Q189 730 165.50 707.50Q142 685 142 641Q142 604 154.50 580Q167 556 195 531L332 411Q378 371 413 315.50Q448 260 448 184Q448 124 423 80.50Q398 37 354.50 14Q311-9 254-9M184 869L97 1042L179 1042L237 925L295 1042L377 1042L289 869L184 869Z"  horiz-adv-x="473" vert-adv-y="1000"  />

      
      <glyph glyph-name="uni015E" unicode="&#x015E;" d="M254-9Q184-9 137.50 21Q91 51 67 104Q43 157 39 227L139 254Q142 211 152.50 171Q163 131 187 105.50Q211 80 254 80Q298 80 320.50 104.50Q343 129 343 175Q343 230 318 263.50Q293 297 255 331L119 451Q79 486 60 527.50Q41 569 41 630Q41 719 92 768Q143 817 231 817Q279 817 315.50 804.50Q352 792 376.50 766Q401 740 415.50 700.50Q430 661 435 608L339 582Q336 622 327 655.50Q318 689 295.50 709.50Q273 730 231 730Q189 730 165.50 707.50Q142 685 142 641Q142 604 154.50 580Q167 556 195 531L332 411Q378 371 413 315.50Q448 260 448 184Q448 124 423 80.50Q398 37 354.50 14Q311-9 254-9M250-235Q234-235 217-232Q200-229 183-225L183-171Q196-175 209-176.50Q222-178 234-178Q260-178 277.50-169Q295-160 295-139Q295-121 285-110.50Q275-100 256-93.50Q237-87 210-83L210 0L264 0L264-56Q314-56 344.50-79Q375-102 375-142Q375-174 358.50-194.50Q342-215 313.50-225Q285-235 250-235Z"  horiz-adv-x="473" vert-adv-y="1000"  />

      
      <glyph glyph-name="uni015C" unicode="&#x015C;" d="M254-9Q184-9 137.50 21Q91 51 67 104Q43 157 39 227L139 254Q142 211 152.50 171Q163 131 187 105.50Q211 80 254 80Q298 80 320.50 104.50Q343 129 343 175Q343 230 318 263.50Q293 297 255 331L119 451Q79 486 60 527.50Q41 569 41 630Q41 719 92 768Q143 817 231 817Q279 817 315.50 804.50Q352 792 376.50 766Q401 740 415.50 700.50Q430 661 435 608L339 582Q336 622 327 655.50Q318 689 295.50 709.50Q273 730 231 730Q189 730 165.50 707.50Q142 685 142 641Q142 604 154.50 580Q167 556 195 531L332 411Q378 371 413 315.50Q448 260 448 184Q448 124 423 80.50Q398 37 354.50 14Q311-9 254-9M96 867L182 1042L291 1042L378 867L297 867L236 988L176 867L96 867Z"  horiz-adv-x="473" vert-adv-y="1000"  />

      
      <glyph glyph-name="uni0218" unicode="&#x0218;" d="M254-9Q184-9 137.50 21Q91 51 67 104Q43 157 39 227L139 254Q142 211 152.50 171Q163 131 187 105.50Q211 80 254 80Q298 80 320.50 104.50Q343 129 343 175Q343 230 318 263.50Q293 297 255 331L119 451Q79 486 60 527.50Q41 569 41 630Q41 719 92 768Q143 817 231 817Q279 817 315.50 804.50Q352 792 376.50 766Q401 740 415.50 700.50Q430 661 435 608L339 582Q336 622 327 655.50Q318 689 295.50 709.50Q273 730 231 730Q189 730 165.50 707.50Q142 685 142 641Q142 604 154.50 580Q167 556 195 531L332 411Q378 371 413 315.50Q448 260 448 184Q448 124 423 80.50Q398 37 354.50 14Q311-9 254-9M209-287L182-234Q213-232 225.50-216.50Q238-201 238-172L183-172L183-63L292-63L291-166Q290-219 275.50-252Q261-285 209-287Z"  horiz-adv-x="473" vert-adv-y="1000"  />

      
      <glyph glyph-name="uni1E60" unicode="&#x1E60;" d="M254-9Q184-9 137.50 21Q91 51 67 104Q43 157 39 227L139 254Q142 211 152.50 171Q163 131 187 105.50Q211 80 254 80Q298 80 320.50 104.50Q343 129 343 175Q343 230 318 263.50Q293 297 255 331L119 451Q79 486 60 527.50Q41 569 41 630Q41 719 92 768Q143 817 231 817Q279 817 315.50 804.50Q352 792 376.50 766Q401 740 415.50 700.50Q430 661 435 608L339 582Q336 622 327 655.50Q318 689 295.50 709.50Q273 730 231 730Q189 730 165.50 707.50Q142 685 142 641Q142 604 154.50 580Q167 556 195 531L332 411Q378 371 413 315.50Q448 260 448 184Q448 124 423 80.50Q398 37 354.50 14Q311-9 254-9M183 903L183 1022L291 1022L291 903L183 903Z"  horiz-adv-x="473" vert-adv-y="1000"  />

      
      <glyph glyph-name="uni1E9E" unicode="&#x1E9E;" d="M254-9L254 72L288 72Q345 72 373 107.50Q401 143 401 227Q401 313 373 349.50Q345 386 288 386L264 386L264 472L397 716Q380 722 357.50 725.50Q335 729 309 729Q237 729 203 686.50Q169 644 169 562L169 0L56 0L56 557Q56 634 82 692.50Q108 751 163 784Q218 817 304 817Q358 817 400.50 806Q443 795 480 776L480 687L328 407L313 453Q412 453 460.50 396Q509 339 509 230Q509 104 457 47.50Q405-9 308-9L254-9Z"  horiz-adv-x="539" vert-adv-y="1000"  />

      
      <glyph glyph-name="uni018F" unicode="&#x018F;" d="M266-9Q184-9 135 23Q86 55 65 114.50Q44 174 44 254L44 421L373 421L373 584Q373 629 365 661.50Q357 694 334.50 711.50Q312 729 266 729Q221 729 197.50 711.50Q174 694 166 661.50Q158 629 158 584L158 514L44 514L44 561Q44 641 65 698.50Q86 756 134.50 786.50Q183 817 266 817Q348 817 396 786Q444 755 465.50 698Q487 641 487 561L487 253Q487 174 465.50 115Q444 56 396 23.50Q348-9 266-9M266 80Q311 80 334 98.50Q357 117 365 150.50Q373 184 373 229L373 332L158 332L158 229Q158 184 166 150.50Q174 117 197.50 98.50Q221 80 266 80Z"  horiz-adv-x="535" vert-adv-y="1000"  />

      
      <glyph glyph-name="uni54" unicode="&#x54;" d="M152 0L152 726L15 726L15 810L398 810L398 726L265 726L265 0L152 0Z"  horiz-adv-x="413" vert-adv-y="1000"  />

      
      <glyph glyph-name="uni0166" unicode="&#x0166;" d="M41 391L41 455L359 455L359 391L41 391M152 0L152 726L15 726L15 810L398 810L398 726L265 726L265 0L152 0Z"  horiz-adv-x="400" vert-adv-y="1000"  />

      
      <glyph glyph-name="uni0164" unicode="&#x0164;" d="M152 0L152 726L15 726L15 810L398 810L398 726L265 726L265 0L152 0M147 869L60 1042L142 1042L200 925L258 1042L340 1042L252 869L147 869Z"  horiz-adv-x="400" vert-adv-y="1000"  />

      
      <glyph glyph-name="uni0162" unicode="&#x0162;" d="M152 0L152 726L15 726L15 810L398 810L398 726L265 726L265 0L152 0M213-235Q197-235 180-232Q163-229 146-225L146-171Q159-175 172-176.50Q185-178 197-178Q223-178 240.50-169Q258-160 258-139Q258-121 248-110.50Q238-100 219-93.50Q200-87 173-83L173 0L227 0L227-56Q277-56 307.50-79Q338-102 338-142Q338-174 321.50-194.50Q305-215 276.50-225Q248-235 213-235Z"  horiz-adv-x="400" vert-adv-y="1000"  />

      
      <glyph glyph-name="uni021A" unicode="&#x021A;" d="M152 0L152 726L15 726L15 810L398 810L398 726L265 726L265 0L152 0M172-287L145-234Q176-232 188.50-216.50Q201-201 201-172L146-172L146-63L255-63L254-166Q253-219 238.50-252Q224-285 172-287Z"  horiz-adv-x="400" vert-adv-y="1000"  />

      
      <glyph glyph-name="uni1E6A" unicode="&#x1E6A;" d="M152 0L152 726L15 726L15 810L398 810L398 726L265 726L265 0L152 0M146 903L146 1022L254 1022L254 903L146 903Z"  horiz-adv-x="400" vert-adv-y="1000"  />

      
      <glyph glyph-name="uni55" unicode="&#x55;" d="M272-9Q184-9 137 26Q90 61 73 124.50Q56 188 56 273L56 810L164 810L164 268Q164 216 171 173Q178 130 201.50 105Q225 80 272 80Q320 80 343 105Q366 130 373 173Q380 216 380 268L380 810L487 810L487 273Q487 188 470 124.50Q453 61 406.50 26Q360-9 272-9Z"  horiz-adv-x="543" vert-adv-y="1000"  />

      
      <glyph glyph-name="unida" unicode="&#xda;" d="M272-9Q184-9 137 26Q90 61 73 124.50Q56 188 56 273L56 810L164 810L164 268Q164 216 171 173Q178 130 201.50 105Q225 80 272 80Q320 80 343 105Q366 130 373 173Q380 216 380 268L380 810L487 810L487 273Q487 188 470 124.50Q453 61 406.50 26Q360-9 272-9M244 858L303 1056L410 1056L298 858L244 858Z"  horiz-adv-x="543" vert-adv-y="1000"  />

      
      <glyph glyph-name="uni016C" unicode="&#x016C;" d="M272-9Q184-9 137 26Q90 61 73 124.50Q56 188 56 273L56 810L164 810L164 268Q164 216 171 173Q178 130 201.50 105Q225 80 272 80Q320 80 343 105Q366 130 373 173Q380 216 380 268L380 810L487 810L487 273Q487 188 470 124.50Q453 61 406.50 26Q360-9 272-9M272 873Q200 873 170.50 912Q141 951 141 1009L203 1009Q204 973 219.50 953.50Q235 934 272 934Q310 934 325.50 954Q341 974 341 1009L404 1009Q404 951 374.50 912Q345 873 272 873Z"  horiz-adv-x="543" vert-adv-y="1000"  />

      
      <glyph glyph-name="uni01D3" unicode="&#x01D3;" d="M272-9Q184-9 137 26Q90 61 73 124.50Q56 188 56 273L56 810L164 810L164 268Q164 216 171 173Q178 130 201.50 105Q225 80 272 80Q320 80 343 105Q366 130 373 173Q380 216 380 268L380 810L487 810L487 273Q487 188 470 124.50Q453 61 406.50 26Q360-9 272-9M219 869L132 1042L214 1042L272 925L330 1042L412 1042L324 869L219 869Z"  horiz-adv-x="543" vert-adv-y="1000"  />

      
      <glyph glyph-name="unidb" unicode="&#xdb;" d="M272-9Q184-9 137 26Q90 61 73 124.50Q56 188 56 273L56 810L164 810L164 268Q164 216 171 173Q178 130 201.50 105Q225 80 272 80Q320 80 343 105Q366 130 373 173Q380 216 380 268L380 810L487 810L487 273Q487 188 470 124.50Q453 61 406.50 26Q360-9 272-9M131 867L217 1042L326 1042L413 867L332 867L271 988L211 867L131 867Z"  horiz-adv-x="543" vert-adv-y="1000"  />

      
      <glyph glyph-name="uni0214" unicode="&#x0214;" d="M272-9Q184-9 137 26Q90 61 73 124.50Q56 188 56 273L56 810L164 810L164 268Q164 216 171 173Q178 130 201.50 105Q225 80 272 80Q320 80 343 105Q366 130 373 173Q380 216 380 268L380 810L487 810L487 273Q487 188 470 124.50Q453 61 406.50 26Q360-9 272-9M187 872L75 1042L183 1042L241 872L187 872M315 872L241 1042L329 1042L369 872L315 872Z"  horiz-adv-x="543" vert-adv-y="1000"  />

      
      <glyph glyph-name="unidc" unicode="&#xdc;" d="M272-9Q184-9 137 26Q90 61 73 124.50Q56 188 56 273L56 810L164 810L164 268Q164 216 171 173Q178 130 201.50 105Q225 80 272 80Q320 80 343 105Q366 130 373 173Q380 216 380 268L380 810L487 810L487 273Q487 188 470 124.50Q453 61 406.50 26Q360-9 272-9M304 931L304 1042L412 1042L412 931L304 931M132 931L132 1042L240 1042L240 931L132 931Z"  horiz-adv-x="543" vert-adv-y="1000"  />

      
      <glyph glyph-name="uni1EE4" unicode="&#x1EE4;" d="M272-9Q184-9 137 26Q90 61 73 124.50Q56 188 56 273L56 810L164 810L164 268Q164 216 171 173Q178 130 201.50 105Q225 80 272 80Q320 80 343 105Q366 130 373 173Q380 216 380 268L380 810L487 810L487 273Q487 188 470 124.50Q453 61 406.50 26Q360-9 272-9M218-176L218-63L326-63L326-176L218-176Z"  horiz-adv-x="543" vert-adv-y="1000"  />

      
      <glyph glyph-name="unid9" unicode="&#xd9;" d="M272-9Q184-9 137 26Q90 61 73 124.50Q56 188 56 273L56 810L164 810L164 268Q164 216 171 173Q178 130 201.50 105Q225 80 272 80Q320 80 343 105Q366 130 373 173Q380 216 380 268L380 810L487 810L487 273Q487 188 470 124.50Q453 61 406.50 26Q360-9 272-9M247 858L136 1056L243 1056L300 858L247 858Z"  horiz-adv-x="543" vert-adv-y="1000"  />

      
      <glyph glyph-name="uni1EE6" unicode="&#x1EE6;" d="M272-9Q184-9 137 26Q90 61 73 124.50Q56 188 56 273L56 810L164 810L164 268Q164 216 171 173Q178 130 201.50 105Q225 80 272 80Q320 80 343 105Q366 130 373 173Q380 216 380 268L380 810L487 810L487 273Q487 188 470 124.50Q453 61 406.50 26Q360-9 272-9M273 868L239 908Q268 921 286 934Q304 947 304 966Q304 987 286.50 996Q269 1005 243 1005Q231 1005 218 1003.50Q205 1002 192 998L192 1052Q231 1062 273 1062Q304 1062 329 1053Q354 1044 369 1024.50Q384 1005 384 975Q384 946 369.50 926Q355 906 330 892.50Q305 879 273 868Z"  horiz-adv-x="543" vert-adv-y="1000"  />

      
      <glyph glyph-name="uni01AF" unicode="&#x01AF;" d="M272-9Q184-9 137 26Q90 61 73 124.50Q56 188 56 273L56 810L164 810L164 268Q164 216 171 173Q178 130 201.50 105Q225 80 272 80Q320 80 343 105Q366 130 373 173Q380 216 380 268L380 810L487 810L487 273Q487 188 470 124.50Q453 61 406.50 26Q360-9 272-9M412 754L412 810L422 810Q452 810 464 828.50Q476 847 476 884L559 884Q559 819 524 786.50Q489 754 424 754L412 754Z"  horiz-adv-x="543" vert-adv-y="1000"  />

      
      <glyph glyph-name="uni1EE8" unicode="&#x1EE8;" d="M272-9Q184-9 137 26Q90 61 73 124.50Q56 188 56 273L56 810L164 810L164 268Q164 216 171 173Q178 130 201.50 105Q225 80 272 80Q320 80 343 105Q366 130 373 173Q380 216 380 268L380 810L487 810L487 273Q487 188 470 124.50Q453 61 406.50 26Q360-9 272-9M412 754L412 810L422 810Q452 810 464 828.50Q476 847 476 884L559 884Q559 819 524 786.50Q489 754 424 754L412 754M244 858L303 1056L410 1056L298 858L244 858Z"  horiz-adv-x="543" vert-adv-y="1000"  />

      
      <glyph glyph-name="uni1EF0" unicode="&#x1EF0;" d="M272-9Q184-9 137 26Q90 61 73 124.50Q56 188 56 273L56 810L164 810L164 268Q164 216 171 173Q178 130 201.50 105Q225 80 272 80Q320 80 343 105Q366 130 373 173Q380 216 380 268L380 810L487 810L487 273Q487 188 470 124.50Q453 61 406.50 26Q360-9 272-9M412 754L412 810L422 810Q452 810 464 828.50Q476 847 476 884L559 884Q559 819 524 786.50Q489 754 424 754L412 754M218-176L218-63L326-63L326-176L218-176Z"  horiz-adv-x="543" vert-adv-y="1000"  />

      
      <glyph glyph-name="uni1EEA" unicode="&#x1EEA;" d="M272-9Q184-9 137 26Q90 61 73 124.50Q56 188 56 273L56 810L164 810L164 268Q164 216 171 173Q178 130 201.50 105Q225 80 272 80Q320 80 343 105Q366 130 373 173Q380 216 380 268L380 810L487 810L487 273Q487 188 470 124.50Q453 61 406.50 26Q360-9 272-9M412 754L412 810L422 810Q452 810 464 828.50Q476 847 476 884L559 884Q559 819 524 786.50Q489 754 424 754L412 754M247 858L136 1056L243 1056L300 858L247 858Z"  horiz-adv-x="543" vert-adv-y="1000"  />

      
      <glyph glyph-name="uni1EEC" unicode="&#x1EEC;" d="M272-9Q184-9 137 26Q90 61 73 124.50Q56 188 56 273L56 810L164 810L164 268Q164 216 171 173Q178 130 201.50 105Q225 80 272 80Q320 80 343 105Q366 130 373 173Q380 216 380 268L380 810L487 810L487 273Q487 188 470 124.50Q453 61 406.50 26Q360-9 272-9M412 754L412 810L422 810Q452 810 464 828.50Q476 847 476 884L559 884Q559 819 524 786.50Q489 754 424 754L412 754M273 868L239 908Q268 921 286 934Q304 947 304 966Q304 987 286.50 996Q269 1005 243 1005Q231 1005 218 1003.50Q205 1002 192 998L192 1052Q231 1062 273 1062Q304 1062 329 1053Q354 1044 369 1024.50Q384 1005 384 975Q384 946 369.50 926Q355 906 330 892.50Q305 879 273 868Z"  horiz-adv-x="543" vert-adv-y="1000"  />

      
      <glyph glyph-name="uni1EEE" unicode="&#x1EEE;" d="M272-9Q184-9 137 26Q90 61 73 124.50Q56 188 56 273L56 810L164 810L164 268Q164 216 171 173Q178 130 201.50 105Q225 80 272 80Q320 80 343 105Q366 130 373 173Q380 216 380 268L380 810L487 810L487 273Q487 188 470 124.50Q453 61 406.50 26Q360-9 272-9M412 754L412 810L422 810Q452 810 464 828.50Q476 847 476 884L559 884Q559 819 524 786.50Q489 754 424 754L412 754M348 932Q320 932 298.50 944.50Q277 957 258 969Q239 981 217 981Q200 981 191.50 972Q183 963 183 940L122 940Q122 970 129.50 994.50Q137 1019 154.50 1033.50Q172 1048 202 1048Q227 1048 247.50 1036Q268 1024 288 1012Q308 1000 329 1000Q346 1000 354 1009Q362 1018 362 1042L422 1042Q422 1012 416 987Q410 962 394 947Q378 932 348 932Z"  horiz-adv-x="543" vert-adv-y="1000"  />

      
      <glyph glyph-name="uni0170" unicode="&#x0170;" d="M272-9Q184-9 137 26Q90 61 73 124.50Q56 188 56 273L56 810L164 810L164 268Q164 216 171 173Q178 130 201.50 105Q225 80 272 80Q320 80 343 105Q366 130 373 173Q380 216 380 268L380 810L487 810L487 273Q487 188 470 124.50Q453 61 406.50 26Q360-9 272-9M312 872L370 1043L478 1043L367 872L312 872M186 872L225 1043L313 1043L240 872L186 872Z"  horiz-adv-x="543" vert-adv-y="1000"  />

      
      <glyph glyph-name="uni0216" unicode="&#x0216;" d="M272-9Q184-9 137 26Q90 61 73 124.50Q56 188 56 273L56 810L164 810L164 268Q164 216 171 173Q178 130 201.50 105Q225 80 272 80Q320 80 343 105Q366 130 373 173Q380 216 380 268L380 810L487 810L487 273Q487 188 470 124.50Q453 61 406.50 26Q360-9 272-9M140 893Q141 935 151.50 968.50Q162 1002 190.50 1022Q219 1042 272 1042Q325 1042 353.50 1022Q382 1002 393 968.50Q404 935 404 893L341 893Q341 941 325.50 961Q310 981 272 981Q235 981 219.50 960.50Q204 940 203 893L140 893Z"  horiz-adv-x="543" vert-adv-y="1000"  />

      
      <glyph glyph-name="uni016A" unicode="&#x016A;" d="M272-9Q184-9 137 26Q90 61 73 124.50Q56 188 56 273L56 810L164 810L164 268Q164 216 171 173Q178 130 201.50 105Q225 80 272 80Q320 80 343 105Q366 130 373 173Q380 216 380 268L380 810L487 810L487 273Q487 188 470 124.50Q453 61 406.50 26Q360-9 272-9M176 917L176 982L368 982L368 917L176 917Z"  horiz-adv-x="543" vert-adv-y="1000"  />

      
      <glyph glyph-name="uni0172" unicode="&#x0172;" d="M272-9Q184-9 137 26Q90 61 73 124.50Q56 188 56 273L56 810L164 810L164 268Q164 216 171 173Q178 130 201.50 105Q225 80 272 80Q320 80 343 105Q366 130 373 173Q380 216 380 268L380 810L487 810L487 273Q487 188 470 124.50Q453 61 406.50 26Q360-9 272-9M314-231Q287-231 262-228Q237-225 217.50-216Q198-207 186.50-190Q175-173 175-145Q175-112 192-82Q209-52 234.50-30Q260-8 286 0L340 0Q322-16 302.50-37.50Q283-59 269.50-82.50Q256-106 256-129Q256-160 282-168.50Q308-177 336-177Q344-177 352.50-176.50Q361-176 368-175L350-228Q342-229 332-230Q322-231 314-231Z"  horiz-adv-x="543" vert-adv-y="1000"  />

      
      <glyph glyph-name="uni016E" unicode="&#x016E;" d="M272-9Q184-9 137 26Q90 61 73 124.50Q56 188 56 273L56 810L164 810L164 268Q164 216 171 173Q178 130 201.50 105Q225 80 272 80Q320 80 343 105Q366 130 373 173Q380 216 380 268L380 810L487 810L487 273Q487 188 470 124.50Q453 61 406.50 26Q360-9 272-9M272 828Q222 828 191 858.50Q160 889 160 940Q160 991 191 1021Q222 1051 272 1051Q322 1051 353 1021Q384 991 384 940Q384 889 353 858.50Q322 828 272 828M272 882Q298 882 314 897.50Q330 913 330 940Q330 968 314 983Q298 998 272 998Q245 998 229.50 983Q214 968 214 940Q214 913 229.50 897.50Q245 882 272 882Z"  horiz-adv-x="543" vert-adv-y="1000"  />

      
      <glyph glyph-name="uni0168" unicode="&#x0168;" d="M272-9Q184-9 137 26Q90 61 73 124.50Q56 188 56 273L56 810L164 810L164 268Q164 216 171 173Q178 130 201.50 105Q225 80 272 80Q320 80 343 105Q366 130 373 173Q380 216 380 268L380 810L487 810L487 273Q487 188 470 124.50Q453 61 406.50 26Q360-9 272-9M348 932Q320 932 298.50 944.50Q277 957 258 969Q239 981 217 981Q200 981 191.50 972Q183 963 183 940L122 940Q122 970 129.50 994.50Q137 1019 154.50 1033.50Q172 1048 202 1048Q227 1048 247.50 1036Q268 1024 288 1012Q308 1000 329 1000Q346 1000 354 1009Q362 1018 362 1042L422 1042Q422 1012 416 987Q410 962 394 947Q378 932 348 932Z"  horiz-adv-x="543" vert-adv-y="1000"  />

      
      <glyph glyph-name="uni56" unicode="&#x56;" d="M204 0L23 810L129 810L257 213L379 810L482 810L303 0L204 0Z"  horiz-adv-x="505" vert-adv-y="1000"  />

      
      <glyph glyph-name="uni57" unicode="&#x57;" d="M168 0L36 810L130 810L217 228L326 807L406 807L516 225L601 810L693 810L563 0L481 0L368 600L254 0L168 0Z"  horiz-adv-x="729" vert-adv-y="1000"  />

      
      <glyph glyph-name="uni1E82" unicode="&#x1E82;" d="M168 0L36 810L130 810L217 228L326 807L406 807L516 225L601 810L693 810L563 0L481 0L368 600L254 0L168 0M337 858L396 1056L503 1056L391 858L337 858Z"  horiz-adv-x="729" vert-adv-y="1000"  />

      
      <glyph glyph-name="uni0174" unicode="&#x0174;" d="M168 0L36 810L130 810L217 228L326 807L406 807L516 225L601 810L693 810L563 0L481 0L368 600L254 0L168 0M224 867L310 1042L419 1042L506 867L425 867L364 988L304 867L224 867Z"  horiz-adv-x="729" vert-adv-y="1000"  />

      
      <glyph glyph-name="uni1E84" unicode="&#x1E84;" d="M168 0L36 810L130 810L217 228L326 807L406 807L516 225L601 810L693 810L563 0L481 0L368 600L254 0L168 0M397 931L397 1042L505 1042L505 931L397 931M225 931L225 1042L333 1042L333 931L225 931Z"  horiz-adv-x="729" vert-adv-y="1000"  />

      
      <glyph glyph-name="uni1E80" unicode="&#x1E80;" d="M168 0L36 810L130 810L217 228L326 807L406 807L516 225L601 810L693 810L563 0L481 0L368 600L254 0L168 0M340 858L229 1056L336 1056L393 858L340 858Z"  horiz-adv-x="729" vert-adv-y="1000"  />

      
      <glyph glyph-name="uni58" unicode="&#x58;" d="M13 0L182 424L16 810L121 810L244 524L356 810L461 810L291 415L469 0L364 0L232 305L118 0L13 0Z"  horiz-adv-x="482" vert-adv-y="1000"  />

      
      <glyph glyph-name="uni59" unicode="&#x59;" d="M187 0L187 286L12 810L117 810L241 419L363 810L469 810L295 286L295 0L187 0Z"  horiz-adv-x="481" vert-adv-y="1000"  />

      
      <glyph glyph-name="unidd" unicode="&#xdd;" d="M187 0L187 286L12 810L117 810L241 419L363 810L469 810L295 286L295 0L187 0M213 858L272 1056L379 1056L267 858L213 858Z"  horiz-adv-x="481" vert-adv-y="1000"  />

      
      <glyph glyph-name="uni0176" unicode="&#x0176;" d="M187 0L187 286L12 810L117 810L241 419L363 810L469 810L295 286L295 0L187 0M100 867L186 1042L295 1042L382 867L301 867L240 988L180 867L100 867Z"  horiz-adv-x="481" vert-adv-y="1000"  />

      
      <glyph glyph-name="uni0178" unicode="&#x0178;" d="M187 0L187 286L12 810L117 810L241 419L363 810L469 810L295 286L295 0L187 0M273 931L273 1042L381 1042L381 931L273 931M101 931L101 1042L209 1042L209 931L101 931Z"  horiz-adv-x="481" vert-adv-y="1000"  />

      
      <glyph glyph-name="uni1EF4" unicode="&#x1EF4;" d="M187 0L187 286L12 810L117 810L241 419L363 810L469 810L295 286L295 0L187 0M187-176L187-63L295-63L295-176L187-176Z"  horiz-adv-x="481" vert-adv-y="1000"  />

      
      <glyph glyph-name="uni1EF2" unicode="&#x1EF2;" d="M187 0L187 286L12 810L117 810L241 419L363 810L469 810L295 286L295 0L187 0M216 858L105 1056L212 1056L269 858L216 858Z"  horiz-adv-x="481" vert-adv-y="1000"  />

      
      <glyph glyph-name="uni1EF6" unicode="&#x1EF6;" d="M187 0L187 286L12 810L117 810L241 419L363 810L469 810L295 286L295 0L187 0M242 868L208 908Q237 921 255 934Q273 947 273 966Q273 987 255.50 996Q238 1005 212 1005Q200 1005 187 1003.50Q174 1002 161 998L161 1052Q200 1062 242 1062Q273 1062 298 1053Q323 1044 338 1024.50Q353 1005 353 975Q353 946 338.50 926Q324 906 299 892.50Q274 879 242 868Z"  horiz-adv-x="481" vert-adv-y="1000"  />

      
      <glyph glyph-name="uni0232" unicode="&#x0232;" d="M187 0L187 286L12 810L117 810L241 419L363 810L469 810L295 286L295 0L187 0M145 917L145 982L337 982L337 917L145 917Z"  horiz-adv-x="481" vert-adv-y="1000"  />

      
      <glyph glyph-name="uni1EF8" unicode="&#x1EF8;" d="M187 0L187 286L12 810L117 810L241 419L363 810L469 810L295 286L295 0L187 0M317 932Q289 932 267.50 944.50Q246 957 227 969Q208 981 186 981Q169 981 160.50 972Q152 963 152 940L91 940Q91 970 98.50 994.50Q106 1019 123.50 1033.50Q141 1048 171 1048Q196 1048 216.50 1036Q237 1024 257 1012Q277 1000 298 1000Q315 1000 323 1009Q331 1018 331 1042L391 1042Q391 1012 385 987Q379 962 363 947Q347 932 317 932Z"  horiz-adv-x="481" vert-adv-y="1000"  />

      
      <glyph glyph-name="uni5a" unicode="&#x5a;" d="M38 0L38 81L276 729L53 729L53 810L396 810L396 761L145 81L396 81L396 0L38 0Z"  horiz-adv-x="417" vert-adv-y="1000"  />

      
      <glyph glyph-name="uni0179" unicode="&#x0179;" d="M38 0L38 81L276 729L53 729L53 810L396 810L396 761L145 81L396 81L396 0L38 0M181 858L240 1056L347 1056L235 858L181 858Z"  horiz-adv-x="417" vert-adv-y="1000"  />

      
      <glyph glyph-name="uni017D" unicode="&#x017D;" d="M38 0L38 81L276 729L53 729L53 810L396 810L396 761L145 81L396 81L396 0L38 0M156 869L69 1042L151 1042L209 925L267 1042L349 1042L261 869L156 869Z"  horiz-adv-x="417" vert-adv-y="1000"  />

      
      <glyph glyph-name="uni017B" unicode="&#x017B;" d="M38 0L38 81L276 729L53 729L53 810L396 810L396 761L145 81L396 81L396 0L38 0M155 903L155 1022L263 1022L263 903L155 903Z"  horiz-adv-x="417" vert-adv-y="1000"  />

      
      <glyph glyph-name="uni61" unicode="&#x61;" d="M158-8Q124-8 98 11.50Q72 31 57 61.50Q42 92 42 126Q42 180 60 217Q78 254 109.50 279.50Q141 305 182.50 324Q224 343 270 361L270 402Q270 437 266 460Q262 483 249.50 494.50Q237 506 212 506Q190 506 176.50 496Q163 486 157 467.50Q151 449 151 424L151 395L45 399Q47 495 89 540.50Q131 586 219 586Q305 586 341 539Q377 492 377 403L377 139Q377 112 378.50 87Q380 62 382.50 40.50Q385 19 387 0L289 0Q286 16 281.50 40.50Q277 65 275 85Q265 51 236.50 21.50Q208-8 158-8M200 84Q216 84 230 93Q244 102 255 113.50Q266 125 270 132L270 296Q245 282 223 268Q201 254 184.50 238.50Q168 223 158.50 203.50Q149 184 149 159Q149 124 162 104Q175 84 200 84Z"  horiz-adv-x="426" vert-adv-y="1000"  />

      
      <glyph glyph-name="unie1" unicode="&#xe1;" d="M158-8Q124-8 98 11.50Q72 31 57 61.50Q42 92 42 126Q42 180 60 217Q78 254 109.50 279.50Q141 305 182.50 324Q224 343 270 361L270 402Q270 437 266 460Q262 483 249.50 494.50Q237 506 212 506Q190 506 176.50 496Q163 486 157 467.50Q151 449 151 424L151 395L45 399Q47 495 89 540.50Q131 586 219 586Q305 586 341 539Q377 492 377 403L377 139Q377 112 378.50 87Q380 62 382.50 40.50Q385 19 387 0L289 0Q286 16 281.50 40.50Q277 65 275 85Q265 51 236.50 21.50Q208-8 158-8M200 84Q216 84 230 93Q244 102 255 113.50Q266 125 270 132L270 296Q245 282 223 268Q201 254 184.50 238.50Q168 223 158.50 203.50Q149 184 149 159Q149 124 162 104Q175 84 200 84M191 626L250 824L357 824L245 626L191 626Z"  horiz-adv-x="426" vert-adv-y="1000"  />

      
      <glyph glyph-name="uni0103" unicode="&#x0103;" d="M158-8Q124-8 98 11.50Q72 31 57 61.50Q42 92 42 126Q42 180 60 217Q78 254 109.50 279.50Q141 305 182.50 324Q224 343 270 361L270 402Q270 437 266 460Q262 483 249.50 494.50Q237 506 212 506Q190 506 176.50 496Q163 486 157 467.50Q151 449 151 424L151 395L45 399Q47 495 89 540.50Q131 586 219 586Q305 586 341 539Q377 492 377 403L377 139Q377 112 378.50 87Q380 62 382.50 40.50Q385 19 387 0L289 0Q286 16 281.50 40.50Q277 65 275 85Q265 51 236.50 21.50Q208-8 158-8M200 84Q216 84 230 93Q244 102 255 113.50Q266 125 270 132L270 296Q245 282 223 268Q201 254 184.50 238.50Q168 223 158.50 203.50Q149 184 149 159Q149 124 162 104Q175 84 200 84M219 641Q147 641 117.50 680Q88 719 88 777L150 777Q151 741 166.50 721.50Q182 702 219 702Q257 702 272.50 722Q288 742 288 777L351 777Q351 719 321.50 680Q292 641 219 641Z"  horiz-adv-x="426" vert-adv-y="1000"  />

      
      <glyph glyph-name="uni1EAF" unicode="&#x1EAF;" d="M158-8Q124-8 98 11.50Q72 31 57 61.50Q42 92 42 126Q42 180 60 217Q78 254 109.50 279.50Q141 305 182.50 324Q224 343 270 361L270 402Q270 437 266 460Q262 483 249.50 494.50Q237 506 212 506Q190 506 176.50 496Q163 486 157 467.50Q151 449 151 424L151 395L45 399Q47 495 89 540.50Q131 586 219 586Q305 586 341 539Q377 492 377 403L377 139Q377 112 378.50 87Q380 62 382.50 40.50Q385 19 387 0L289 0Q286 16 281.50 40.50Q277 65 275 85Q265 51 236.50 21.50Q208-8 158-8M200 84Q216 84 230 93Q244 102 255 113.50Q266 125 270 132L270 296Q245 282 223 268Q201 254 184.50 238.50Q168 223 158.50 203.50Q149 184 149 159Q149 124 162 104Q175 84 200 84M168 807L232 925L339 925L232 807L168 807M219 622Q147 622 117.50 661Q88 700 88 758L150 758Q151 722 166.50 702.50Q182 683 219 683Q257 683 272.50 703Q288 723 288 758L351 758Q351 700 321.50 661Q292 622 219 622Z"  horiz-adv-x="426" vert-adv-y="1000"  />

      
      <glyph glyph-name="uni1EB7" unicode="&#x1EB7;" d="M158-8Q124-8 98 11.50Q72 31 57 61.50Q42 92 42 126Q42 180 60 217Q78 254 109.50 279.50Q141 305 182.50 324Q224 343 270 361L270 402Q270 437 266 460Q262 483 249.50 494.50Q237 506 212 506Q190 506 176.50 496Q163 486 157 467.50Q151 449 151 424L151 395L45 399Q47 495 89 540.50Q131 586 219 586Q305 586 341 539Q377 492 377 403L377 139Q377 112 378.50 87Q380 62 382.50 40.50Q385 19 387 0L289 0Q286 16 281.50 40.50Q277 65 275 85Q265 51 236.50 21.50Q208-8 158-8M200 84Q216 84 230 93Q244 102 255 113.50Q266 125 270 132L270 296Q245 282 223 268Q201 254 184.50 238.50Q168 223 158.50 203.50Q149 184 149 159Q149 124 162 104Q175 84 200 84M159-176L159-63L267-63L267-176L159-176M219 641Q147 641 117.50 680Q88 719 88 777L150 777Q151 741 166.50 721.50Q182 702 219 702Q257 702 272.50 722Q288 742 288 777L351 777Q351 719 321.50 680Q292 641 219 641Z"  horiz-adv-x="426" vert-adv-y="1000"  />

      
      <glyph glyph-name="uni1EB1" unicode="&#x1EB1;" d="M158-8Q124-8 98 11.50Q72 31 57 61.50Q42 92 42 126Q42 180 60 217Q78 254 109.50 279.50Q141 305 182.50 324Q224 343 270 361L270 402Q270 437 266 460Q262 483 249.50 494.50Q237 506 212 506Q190 506 176.50 496Q163 486 157 467.50Q151 449 151 424L151 395L45 399Q47 495 89 540.50Q131 586 219 586Q305 586 341 539Q377 492 377 403L377 139Q377 112 378.50 87Q380 62 382.50 40.50Q385 19 387 0L289 0Q286 16 281.50 40.50Q277 65 275 85Q265 51 236.50 21.50Q208-8 158-8M200 84Q216 84 230 93Q244 102 255 113.50Q266 125 270 132L270 296Q245 282 223 268Q201 254 184.50 238.50Q168 223 158.50 203.50Q149 184 149 159Q149 124 162 104Q175 84 200 84M202 807L95 925L202 925L266 807L202 807M219 622Q147 622 117.50 661Q88 700 88 758L150 758Q151 722 166.50 702.50Q182 683 219 683Q257 683 272.50 703Q288 723 288 758L351 758Q351 700 321.50 661Q292 622 219 622Z"  horiz-adv-x="426" vert-adv-y="1000"  />

      
      </font>
</defs>
</svg>
