<svg width="112" height="35" viewBox="0 0 112 35" fill="none" xmlns="http://www.w3.org/2000/svg">
<path d="M5.19057 34.0241H106.93C109.479 34.0241 111.5 31.9875 111.5 29.5684V5.83455C111.5 3.32996 109.472 1.37891 106.93 1.37891H5.19057C2.64893 1.37891 0.620972 3.32996 0.620972 5.83455V29.5684C0.620972 32.073 2.64893 34.0241 5.19057 34.0241Z" fill="black" stroke="white"/>
<path d="M56.4065 19.6104C54.4614 19.6104 52.9215 21.0148 52.9215 22.9653C52.9215 24.8378 54.4614 26.3202 56.4065 26.3202C58.3516 26.3202 59.8915 24.9158 59.8915 22.9653C59.8915 20.9367 58.3516 19.6104 56.4065 19.6104ZM56.4065 24.9158C55.3529 24.9158 54.4614 24.0576 54.4614 22.8873C54.4614 21.7169 55.3529 20.8587 56.4065 20.8587C57.4601 20.8587 58.3516 21.6389 58.3516 22.8873C58.3516 24.0576 57.4601 24.9158 56.4065 24.9158ZM48.8693 19.6104C46.9242 19.6104 45.3843 21.0148 45.3843 22.9653C45.3843 24.8378 46.9242 26.3202 48.8693 26.3202C50.8144 26.3202 52.3542 24.9158 52.3542 22.9653C52.3542 20.9367 50.8144 19.6104 48.8693 19.6104ZM48.8693 24.9158C47.8157 24.9158 46.9242 24.0576 46.9242 22.8873C46.9242 21.7169 47.8157 20.8587 48.8693 20.8587C49.9229 20.8587 50.8144 21.6389 50.8144 22.8873C50.8144 24.0576 49.9229 24.9158 48.8693 24.9158ZM39.8732 20.6247V22.029H43.3582C43.2771 22.8092 42.9529 23.4334 42.5477 23.8235C42.0614 24.2916 41.251 24.8378 39.8732 24.8378C37.685 24.8378 36.0641 23.1993 36.0641 21.0928C36.0641 18.9862 37.766 17.3478 39.8732 17.3478C41.0078 17.3478 41.8993 17.8159 42.5477 18.3621L43.6013 17.3478C42.7098 16.5676 41.5752 15.9434 39.9543 15.9434C37.0366 15.9434 34.5242 18.284 34.5242 21.0928C34.5242 23.9015 37.0366 26.2421 39.9543 26.2421C41.5752 26.2421 42.7098 25.774 43.6823 24.7598C44.6549 23.8235 44.9791 22.4972 44.9791 21.4829C44.9791 21.1708 44.9791 20.8587 44.898 20.6247H39.8732ZM76.6679 21.7169C76.3437 20.9367 75.5332 19.6104 73.7502 19.6104C71.9672 19.6104 70.5084 20.9367 70.5084 22.9653C70.5084 24.8378 71.9672 26.3202 73.9123 26.3202C75.4522 26.3202 76.4247 25.3839 76.7489 24.8378L75.6143 24.0576C75.2091 24.6037 74.7228 24.9938 73.9123 24.9938C73.1019 24.9938 72.6156 24.6817 72.2104 23.9795L76.83 22.107L76.6679 21.7169ZM71.9672 22.8092C71.9672 21.5609 73.0208 20.8587 73.7502 20.8587C74.3176 20.8587 74.8849 21.1708 75.047 21.5609L71.9672 22.8092ZM68.1581 26.0081H69.698V16.2555H68.1581V26.0081ZM65.7267 20.3126C65.3215 19.9225 64.6731 19.5324 63.8627 19.5324C62.1607 19.5324 60.5398 21.0148 60.5398 22.8873C60.5398 24.7597 62.0797 26.1641 63.8627 26.1641C64.6731 26.1641 65.3215 25.774 65.6457 25.3839H65.7267V25.852C65.7267 27.1004 64.9973 27.8026 63.8627 27.8026C62.9712 27.8026 62.3228 27.1784 62.1607 26.6322L60.864 27.1784C61.2692 28.0366 62.2418 29.1289 63.9437 29.1289C65.7267 29.1289 67.1856 28.1146 67.1856 25.696V19.7664H65.7267V20.3126ZM63.9437 24.9158C62.8901 24.9158 61.9986 24.0576 61.9986 22.8873C61.9986 21.7169 62.8901 20.8587 63.9437 20.8587C64.9973 20.8587 65.8078 21.7169 65.8078 22.8873C65.8078 24.0576 64.9973 24.9158 63.9437 24.9158ZM83.7188 16.2555H80.0718V26.0081H81.6116V22.3411H83.7188C85.4208 22.3411 87.0417 21.1708 87.0417 19.2983C87.0417 17.4258 85.4208 16.2555 83.7188 16.2555ZM83.7999 20.9367H81.6116V17.5819H83.7999C84.9345 17.5819 85.5829 18.5181 85.5829 19.2203C85.5018 20.0785 84.8535 20.9367 83.7999 20.9367ZM93.1201 19.5324C91.9855 19.5324 90.8508 20.0005 90.4456 21.0148L91.8234 21.5609C92.1476 21.0148 92.6338 20.8587 93.2012 20.8587C94.0116 20.8587 94.741 21.3268 94.8221 22.107V22.1851C94.5789 22.029 93.9306 21.795 93.2822 21.795C91.8234 21.795 90.3646 22.5752 90.3646 23.9795C90.3646 25.3059 91.5802 26.1641 92.877 26.1641C93.9306 26.1641 94.4168 25.696 94.8221 25.2279H94.9031V26.0081H96.3619V22.2631C96.1998 20.5466 94.8221 19.5324 93.1201 19.5324ZM92.958 24.9158C92.4718 24.9158 91.7423 24.6817 91.7423 24.0576C91.7423 23.2774 92.6338 23.0433 93.3633 23.0433C94.0116 23.0433 94.3358 23.1993 94.741 23.3554C94.5789 24.2916 93.7685 24.9158 92.958 24.9158ZM101.468 19.7664L99.7659 23.9795H99.6848L97.9018 19.7664H96.2809L98.9554 25.696L97.4155 28.9729H98.9554L103.089 19.7664H101.468ZM87.8522 26.0081H89.392V16.2555H87.8522V26.0081Z" fill="white"/>
<path d="M9.58549 7.98315C9.34131 8.22733 9.17853 8.63429 9.17853 9.12264V27.1102C9.17853 27.5986 9.34131 28.0056 9.58549 28.2497L9.66688 28.3311L19.7595 18.2385V18.1571V18.0757L9.58549 7.98315Z" fill="url(#paint0_linear)"/>
<path d="M23.0966 21.6568L19.7595 18.3198V18.157V18.0756L23.0966 14.7385L23.178 14.8199L27.1662 17.0989C28.3057 17.75 28.3057 18.8081 27.1662 19.4593L23.0966 21.6568Z" fill="url(#paint1_linear)"/>
<path d="M23.1778 21.5757L19.7593 18.1572L9.58533 28.3312C9.99229 28.7382 10.562 28.7382 11.2946 28.4126L23.1778 21.5757Z" fill="url(#paint2_linear)"/>
<path d="M23.1778 14.7388L11.2946 7.98325C10.562 7.57629 9.99229 7.65769 9.58533 8.06465L19.7593 18.1572L23.1778 14.7388Z" fill="url(#paint3_linear)"/>
<path opacity="0.2" d="M23.0964 21.4939L11.2946 28.168C10.6434 28.575 10.0737 28.4936 9.66672 28.168L9.58533 28.2494L9.66672 28.3308C10.0737 28.6564 10.6434 28.7378 11.2946 28.3308L23.0964 21.4939Z" fill="black"/>
<path opacity="0.12" d="M9.58533 28.1688C9.34116 27.9246 9.25977 27.5176 9.25977 27.0293V27.1107C9.25977 27.599 9.42255 28.006 9.66672 28.2502V28.1688H9.58533Z" fill="black"/>
<path opacity="0.12" d="M27.1665 19.2153L23.0969 21.4943L23.1783 21.5757L27.1665 19.2967C27.7362 18.9711 27.9804 18.5642 27.9804 18.1572C27.9804 18.5642 27.6548 18.8898 27.1665 19.2153Z" fill="black"/>
<path opacity="0.25" d="M11.2954 8.06458L27.1668 17.0991C27.6552 17.4247 27.9808 17.7502 27.9808 18.1572C27.9808 17.7502 27.7366 17.3433 27.1668 17.0177L11.2954 7.98319C10.1559 7.33206 9.26062 7.9018 9.26062 9.20407V9.28546C9.26062 7.98319 10.1559 7.41345 11.2954 8.06458Z" fill="white"/>
<path d="M35.3868 13.5183H34.8171V11.8904H35.3054C35.7124 11.5649 35.9566 10.9137 35.9566 10.0184V7.57666H39.2122V11.8904H39.782V13.5183H39.2122V12.4602H35.4682V13.5183H35.3868ZM36.5263 10.0184C36.5263 10.7509 36.3635 11.4021 36.038 11.8904H38.4797V8.22779H36.4449V10.0184H36.5263Z" fill="white"/>
<path d="M44.5843 11.8083C44.0959 12.2966 43.5262 12.5408 42.7937 12.5408C42.0611 12.5408 41.4914 12.2966 41.003 11.8083C40.5147 11.3199 40.2705 10.7502 40.2705 10.0177C40.2705 9.28513 40.5147 8.71538 41.003 8.22703C41.4914 7.73868 42.0611 7.49451 42.7937 7.49451C43.5262 7.49451 44.0959 7.73868 44.5843 8.22703C45.0726 8.71538 45.3168 9.28513 45.3168 10.0177C45.3168 10.7502 45.0726 11.3199 44.5843 11.8083ZM41.4914 11.4013C41.817 11.7269 42.3053 11.9711 42.7937 11.9711C43.282 11.9711 43.7704 11.8083 44.0959 11.4013C44.4215 11.0758 44.6657 10.5874 44.6657 10.0177C44.6657 9.44791 44.5029 8.95956 44.0959 8.63399C43.7704 8.30843 43.282 8.06425 42.7937 8.06425C42.3053 8.06425 41.817 8.22703 41.4914 8.63399C41.1658 8.95956 40.9216 9.44791 40.9216 10.0177C40.9216 10.5874 41.0844 11.0758 41.4914 11.4013Z" fill="white"/>
<path d="M48.4912 12.5408C47.7587 12.5408 47.189 12.2966 46.7006 11.8083C46.2123 11.3199 45.9681 10.7502 45.9681 10.0177C45.9681 9.28513 46.2123 8.71538 46.7006 8.22703C47.189 7.73868 47.7587 7.49451 48.4912 7.49451C49.2238 7.49451 49.7935 7.73868 50.2819 8.30843L49.8749 8.71538C49.5493 8.30843 49.061 8.06425 48.4912 8.06425C47.9215 8.06425 47.5145 8.22703 47.1076 8.63399C46.7006 8.95956 46.5378 9.44791 46.5378 10.0177C46.5378 10.5874 46.7006 11.0758 47.1076 11.4013C47.4331 11.7269 47.9215 11.9711 48.4912 11.9711C49.061 11.9711 49.5493 11.7269 49.9563 11.2385L50.3632 11.6455C50.1191 11.8897 49.8749 12.1338 49.5493 12.2966C49.2238 12.4594 48.8982 12.5408 48.4912 12.5408Z" fill="white"/>
<path d="M52.9674 12.4594H52.3163V8.14567H50.9326V7.57593H54.2697V8.14567H52.886V12.4594H52.9674Z" fill="white"/>
<path d="M58.5833 7.57593L56.7113 11.7269C56.4671 12.2967 56.0602 12.6222 55.5718 12.6222C55.409 12.6222 55.2463 12.6222 55.0835 12.5408L55.2463 11.9711C55.3276 12.0525 55.4904 12.0525 55.5718 12.0525C55.7346 12.0525 55.816 12.0525 55.8974 11.9711C55.9788 11.8897 56.0602 11.8083 56.1416 11.6455L56.3044 11.2386L54.6765 7.65732H55.409L56.6299 10.4246L57.7694 7.65732H58.5833V7.57593Z" fill="white"/>
<path d="M59.316 12.4594V7.57593H62.8159V12.4594H62.1648V8.14567H59.8858V12.4594H59.316Z" fill="white"/>
<path d="M63.9551 12.4594V7.57593H64.6062V9.69212H67.048V7.57593H67.6991V12.4594H67.048V10.2619H64.6062V12.4594H63.9551Z" fill="white"/>
<path d="M72.8271 11.8083C72.3387 12.2966 71.769 12.5408 71.0365 12.5408C70.3039 12.5408 69.7342 12.2966 69.2458 11.8083C68.7575 11.3199 68.5133 10.7502 68.5133 10.0177C68.5133 9.28513 68.7575 8.71538 69.2458 8.22703C69.7342 7.73868 70.3039 7.49451 71.0365 7.49451C71.769 7.49451 72.3387 7.73868 72.8271 8.22703C73.3154 8.71538 73.5596 9.28513 73.5596 10.0177C73.4782 10.7502 73.234 11.3199 72.8271 11.8083ZM69.6528 11.4013C69.9784 11.7269 70.4667 11.9711 70.9551 11.9711C71.4434 11.9711 71.9318 11.8083 72.2573 11.4013C72.5829 11.0758 72.8271 10.5874 72.8271 10.0177C72.8271 9.44791 72.6643 8.95956 72.2573 8.63399C71.9318 8.30843 71.4434 8.06425 70.9551 8.06425C70.4667 8.06425 69.9784 8.22703 69.6528 8.63399C69.3272 8.95956 69.083 9.44791 69.083 10.0177C69.083 10.5874 69.3272 11.0758 69.6528 11.4013Z" fill="white"/>
<path d="M76.0831 12.4594V7.57593H77.8738C78.2807 7.57593 78.6063 7.73871 78.8505 7.98289C79.0946 8.22706 79.2574 8.55263 79.2574 8.95959C79.2574 9.20377 79.176 9.36655 79.0946 9.61072C79.0132 9.77351 78.8505 9.93629 78.6063 10.0177C78.8505 10.0991 79.0132 10.2619 79.176 10.4246C79.3388 10.5874 79.4202 10.8316 79.4202 11.1572C79.4202 11.5641 79.2574 11.8897 79.0132 12.1339C78.6877 12.378 78.3621 12.5408 77.9551 12.5408H76.0831V12.4594ZM76.7343 9.69212H77.8738C78.1179 9.69212 78.2807 9.61072 78.4435 9.44794C78.6063 9.28516 78.6877 9.12237 78.6877 8.95959C78.6877 8.79681 78.6063 8.63402 78.4435 8.47124C78.2807 8.30845 78.1179 8.22706 77.8738 8.22706H76.7343V9.69212ZM76.7343 11.8897H78.0365C78.2807 11.8897 78.4435 11.8083 78.6063 11.6455C78.7691 11.4827 78.8505 11.32 78.8505 11.0758C78.8505 10.913 78.7691 10.6688 78.6063 10.506C78.4435 10.3433 78.2807 10.2619 78.0365 10.2619H76.8157V11.8897H76.7343Z" fill="white"/>
<defs>
<linearGradient id="paint0_linear" x1="18.8639" y1="8.96775" x2="5.20441" y2="22.6273" gradientUnits="userSpaceOnUse">
<stop stop-color="#00A0FF"/>
<stop offset="0.00657445" stop-color="#00A1FF"/>
<stop offset="0.2601" stop-color="#00BEFF"/>
<stop offset="0.5122" stop-color="#00D2FF"/>
<stop offset="0.7604" stop-color="#00DFFF"/>
<stop offset="1" stop-color="#00E3FF"/>
</linearGradient>
<linearGradient id="paint1_linear" x1="28.6592" y1="18.1581" x2="8.96493" y2="18.1581" gradientUnits="userSpaceOnUse">
<stop stop-color="#FFE000"/>
<stop offset="0.4087" stop-color="#FFBD00"/>
<stop offset="0.7754" stop-color="#FFA500"/>
<stop offset="1" stop-color="#FF9C00"/>
</linearGradient>
<linearGradient id="paint2_linear" x1="21.3277" y1="20.0261" x2="2.80433" y2="38.5495" gradientUnits="userSpaceOnUse">
<stop stop-color="#FF3A44"/>
<stop offset="1" stop-color="#C31162"/>
</linearGradient>
<linearGradient id="paint3_linear" x1="7.05998" y1="2.02228" x2="15.3315" y2="10.2937" gradientUnits="userSpaceOnUse">
<stop stop-color="#32A071"/>
<stop offset="0.0685" stop-color="#2DA771"/>
<stop offset="0.4762" stop-color="#15CF74"/>
<stop offset="0.8009" stop-color="#06E775"/>
<stop offset="1" stop-color="#00F076"/>
</linearGradient>
</defs>
</svg>
