<svg width="177" height="94" viewBox="0 0 177 94" fill="none" xmlns="http://www.w3.org/2000/svg">
<path d="M114.275 34.0108V1.70673H115.016V33.7031L174.93 93.3887L174.375 93.9425L114.275 34.0108Z" fill="#FFDD00"/>
<path d="M30.0444 14.3524H25.8749L22.6865 9.32298V14.3524H19.3755V1.34961H24.4034C26.9786 1.34961 28.9407 2.57628 28.9407 5.27497C28.9407 7.11498 27.9597 8.58699 26.1202 8.955L30.0444 14.3524ZM22.6865 7.23765H23.0544C24.1581 7.23765 25.3844 6.99232 25.3844 5.64297C25.3844 4.29363 24.1581 4.04829 23.0544 4.04829H22.6865V7.23765Z" fill="white"/>
<path d="M40.4679 14.3523H37.4021V13.371C36.9116 14.2297 35.8079 14.5977 34.7043 14.5977C32.129 14.5977 30.2896 12.3896 30.2896 9.93628C30.2896 7.36025 32.129 5.2749 34.7043 5.2749C35.6853 5.2749 36.789 5.6429 37.4021 6.37891V5.52024H40.4679V14.3523ZM33.478 9.93628C33.478 11.0403 34.2137 11.899 35.44 11.899C36.6664 11.899 37.4021 11.0403 37.4021 9.93628C37.4021 8.83226 36.6664 7.97359 35.44 7.97359C34.2137 7.97359 33.478 8.83226 33.478 9.93628Z" fill="white"/>
<path d="M45.8636 2.20807C45.8636 3.18941 45.1278 3.92541 44.1468 3.92541C43.1657 3.92541 42.4299 3.18941 42.4299 2.20807C42.4299 1.22673 43.1657 0.490723 44.1468 0.490723C45.1278 0.368053 45.8636 1.22673 45.8636 2.20807ZM45.741 14.3522H42.5526V5.52009H45.6183V14.3522H45.741Z" fill="white"/>
<path d="M51.137 14.3521H48.0712V8.09606H46.9675V5.52004H48.0712V4.41603C48.0712 3.18935 48.0712 2.33068 48.9296 1.34934C49.6654 0.49067 50.7691 0 51.9954 0C52.4859 0 52.8538 0.122667 53.3443 0.368V3.06669C52.9764 2.94402 52.6086 2.82135 52.2407 2.82135C51.3822 2.82135 51.137 3.31202 51.137 4.29336V5.76537H53.3443V8.34139H51.137V14.3521Z" fill="white"/>
<path d="M57.8814 14.3521H54.8157V8.09606H53.5894V5.52004H54.693V4.41603C54.693 3.18935 54.693 2.33068 55.5514 1.34934C56.2872 0.49067 57.3909 0 58.6172 0C59.1077 0 59.4756 0.122667 59.9662 0.368V3.06669C59.5983 2.94402 59.2304 2.82135 58.8625 2.82135C58.0041 2.82135 57.7588 3.31202 57.7588 4.29336V5.76537H59.9662V8.34139H57.7588V14.3521H57.8814Z" fill="white"/>
<path d="M70.1446 10.427H63.5226C63.5226 11.6536 64.1357 12.3896 65.4847 12.3896C66.0978 12.3896 66.5883 12.1443 66.9562 11.531H69.8994C69.4088 13.6163 67.4468 14.5977 65.4847 14.5977C62.5415 14.5977 60.4568 13.003 60.4568 9.93628C60.4568 6.99225 62.4189 5.2749 65.362 5.2749C68.4278 5.2749 70.1446 7.11491 70.1446 10.1816V10.427ZM67.2015 8.70959C67.0789 7.85092 66.2204 7.36025 65.4847 7.36025C64.6262 7.36025 63.7678 7.85092 63.6452 8.70959H67.2015Z" fill="white"/>
<path d="M74.8045 2.20807C74.8045 3.18941 74.0687 3.92541 73.0877 3.92541C72.1066 3.92541 71.3708 3.18941 71.3708 2.20807C71.3708 1.22673 72.1066 0.490723 73.0877 0.490723C74.0687 0.368053 74.8045 1.22673 74.8045 2.20807ZM74.6819 14.3522H71.6161V5.52009H74.6819V14.3522Z" fill="white"/>
<path d="M82.5304 7.85032C82.0399 7.60499 81.4268 7.48232 80.8136 7.48232C80.4457 7.48232 79.8326 7.60499 79.8326 8.09566C79.8326 8.70899 80.8136 8.83166 81.1815 8.83166C82.6531 9.077 83.7567 9.81298 83.7567 11.4077C83.7567 13.7384 81.672 14.7197 79.5873 14.7197C78.361 14.7197 77.1347 14.3517 76.031 13.7384L77.1347 11.5304C77.7478 12.021 78.8515 12.389 79.5873 12.389C79.9552 12.389 80.5683 12.1437 80.5683 11.7757C80.5683 11.0397 79.5873 11.0397 78.6063 10.7944C77.6252 10.549 76.6442 10.0584 76.6442 8.46366C76.6442 6.25564 78.6063 5.39697 80.5683 5.39697C81.5494 5.39697 82.5304 5.51964 83.5115 6.01031L82.5304 7.85032Z" fill="white"/>
<path d="M94.5482 10.427H87.9261C87.9261 11.6536 88.5393 12.3896 89.8882 12.3896C90.5014 12.3896 90.9919 12.1443 91.3598 11.531H94.3029C93.8124 13.6163 91.8503 14.5977 89.8882 14.5977C86.9451 14.5977 84.8604 13.003 84.8604 9.93628C84.8604 6.99225 86.8224 5.2749 89.7656 5.2749C92.8314 5.2749 94.5482 7.11491 94.5482 10.1816V10.427ZM91.6051 8.70959C91.4824 7.85092 90.624 7.36025 89.8882 7.36025C89.0298 7.36025 88.1714 7.85092 88.0488 8.70959H91.6051Z" fill="white"/>
<path d="M99.0855 6.62435C99.8213 5.52035 100.68 5.15234 101.906 5.15234C104.236 5.15234 105.217 6.62435 105.217 8.83237V14.2298H102.151V10.0591C102.151 9.20037 102.274 7.72836 100.802 7.72836C99.576 7.72836 99.2081 8.7097 99.2081 9.81368V14.3524H96.1423V5.52035H99.2081V6.62435H99.0855Z" fill="white"/>
<path d="M127.536 9.44608H128.762C129.621 9.44608 130.479 9.32338 131.215 8.71003C131.828 8.21936 132.073 7.36069 132.073 6.50202C132.073 5.64334 131.706 4.78467 131.092 4.294C130.357 3.68066 129.621 3.68066 128.762 3.68066H126.8V14.3528H127.536V9.44608ZM127.536 4.294H128.64C129.253 4.294 129.989 4.294 130.479 4.662C130.97 5.03001 131.338 5.76601 131.338 6.37935C131.338 6.99269 131.092 7.60602 130.602 7.97403C129.989 8.4647 129.376 8.58736 128.762 8.58736H127.536V4.294ZM135.752 7.48336C135.998 7.48336 136.12 7.48336 136.243 7.60602L136.611 6.99269C136.366 6.87002 136.12 6.87002 135.875 6.87002C135.139 6.87002 134.526 7.36069 134.281 7.97403V6.99269H133.545V14.3528H134.281V10.6727C134.281 9.44608 134.158 7.48336 135.752 7.48336ZM140.78 6.87002C138.696 6.87002 137.224 8.58737 137.224 10.6727C137.224 12.7581 138.573 14.4754 140.78 14.4754C142.252 14.4754 143.356 13.7394 144.091 12.5127L143.478 12.1447C142.988 13.1261 142.007 13.8621 140.903 13.8621C139.186 13.8621 137.96 12.6354 137.96 10.7954H144.337C144.337 8.58736 142.988 6.87002 140.78 6.87002ZM140.78 7.48336C142.252 7.48336 143.356 8.71003 143.601 10.0594H137.96C138.082 8.71003 139.309 7.48336 140.78 7.48336ZM154.515 9.56868V14.2301H155.251V9.69138C155.251 8.09669 154.883 6.74735 153.043 6.74735C152.062 6.74735 151.327 7.23802 150.959 8.09669C150.591 7.23802 149.855 6.74735 148.874 6.74735C148.138 6.74735 147.402 7.11535 147.034 7.85136V6.99269H146.299V14.3528H147.034V10.3047C147.034 9.07803 147.28 7.48336 148.874 7.48336C150.346 7.48336 150.468 8.58736 150.468 9.81408V14.3528H151.204V10.0594C151.204 8.8327 151.572 7.48336 153.043 7.48336C154.27 7.48336 154.515 8.4647 154.515 9.56868ZM157.826 3.68066C157.458 3.68066 157.213 3.926 157.213 4.294C157.213 4.662 157.458 4.90734 157.826 4.90734C158.194 4.90734 158.439 4.662 158.439 4.294C158.439 3.926 158.194 3.68066 157.826 3.68066ZM157.458 14.3528H158.194V6.99269H157.458V14.3528ZM165.184 13.4941C165.674 12.8807 165.674 12.1447 165.674 11.4087V6.99269H164.939V11.1634C164.939 12.5127 164.816 13.8621 162.977 13.8621C161.137 13.8621 161.014 12.6354 161.014 11.1634V6.99269H160.279V11.4087C160.279 12.1447 160.279 12.8807 160.769 13.4941C161.26 14.1074 162.118 14.4754 162.977 14.4754C163.835 14.4754 164.693 14.1074 165.184 13.4941ZM174.626 6.87002C173.645 6.87002 172.91 7.36069 172.542 8.21936C172.174 7.36069 171.438 6.87002 170.457 6.87002C169.721 6.87002 168.985 7.23802 168.618 7.97403V6.99269H167.882V14.3528H168.618V10.3047C168.618 9.07803 168.863 7.48336 170.457 7.48336C171.929 7.48336 172.051 8.58736 172.051 9.81408V14.3528H172.787V10.0594C172.787 8.8327 173.155 7.48336 174.626 7.48336C175.975 7.48336 176.221 8.4647 176.221 9.56868V14.2301H176.956V9.69138C176.834 8.09669 176.466 6.87002 174.626 6.87002ZM130.97 24.5342C131.828 24.0435 132.196 23.3075 132.196 22.3261C132.196 21.4675 131.951 20.6088 131.215 19.9955C130.602 19.3821 129.744 19.3821 128.885 19.3821H126.678V30.4222H129.498C130.479 30.4222 131.338 30.2995 132.073 29.6862C132.809 29.0729 133.055 28.3369 133.055 27.3555C133.177 25.8835 132.319 24.7795 130.97 24.5342ZM127.536 19.9955H128.762C129.376 19.9955 130.111 19.9955 130.602 20.3635C131.215 20.7315 131.46 21.4675 131.46 22.2035C131.46 22.9395 131.215 23.5528 130.602 23.9208C129.989 24.4115 129.376 24.2888 128.64 24.2888H127.414V19.9955H127.536ZM131.46 29.3182C130.847 29.8089 129.989 29.6862 129.253 29.6862H127.536V25.0248H129.13C129.866 25.0248 130.725 25.0248 131.46 25.3928C132.196 25.7608 132.564 26.6195 132.564 27.3555C132.441 28.0915 132.073 28.8275 131.46 29.3182ZM140.903 23.9208C140.29 22.9395 139.186 22.4488 138.082 22.4488C135.875 22.4488 134.526 24.0435 134.526 26.2515C134.526 28.4595 135.875 30.1769 138.205 30.1769C139.309 30.1769 140.412 29.6862 141.026 28.7049V30.0542H141.761V22.6941H141.026V23.9208H140.903ZM138.082 29.5635C136.243 29.5635 135.139 27.9689 135.139 26.3742C135.139 24.7795 136.366 23.1848 137.96 23.1848C139.799 23.1848 140.903 24.5342 140.903 26.2515C140.903 27.9689 139.922 29.5635 138.082 29.5635ZM147.034 22.4488C146.053 22.4488 145.318 22.9395 144.827 23.7982V22.6941H144.091V30.0542H144.827V26.3742C144.827 24.9022 145.072 23.1848 147.034 23.1848C148.629 23.1848 148.751 24.2888 148.751 25.6382V30.0542H149.487V25.6382C149.487 23.6755 148.874 22.4488 147.034 22.4488ZM156.6 22.6941H155.619L152.553 25.8835V17.2968H151.817V30.0542H152.553V26.7422L152.921 26.3742L156.6 30.0542H157.581L153.411 25.8835L156.6 22.6941ZM159.42 19.3821C159.052 19.3821 158.807 19.6275 158.807 19.9955C158.807 20.3635 159.052 20.6088 159.42 20.6088C159.788 20.6088 160.033 20.3635 160.033 19.9955C160.033 19.6275 159.788 19.3821 159.42 19.3821ZM159.052 30.0542H159.788V22.6941H159.052V30.0542ZM165.307 22.4488C164.325 22.4488 163.59 22.9395 163.099 23.7982V22.6941H162.363V30.0542H163.099V26.3742C163.099 24.9022 163.344 23.1848 165.307 23.1848C166.901 23.1848 167.023 24.2888 167.023 25.6382V30.0542H167.759V25.6382C167.759 23.6755 167.269 22.4488 165.307 22.4488ZM176.098 23.9208C175.362 22.9395 174.504 22.4488 173.278 22.4488C171.07 22.4488 169.599 24.1662 169.599 26.2515C169.599 28.3369 171.07 30.1769 173.155 30.1769C174.259 30.1769 175.362 29.5635 175.975 28.7049V29.5635C175.975 30.5449 175.853 31.5262 175.362 32.3849C174.872 33.1209 173.891 33.4889 173.032 33.4889C171.561 33.4889 170.212 32.5076 170.212 31.0355H169.476C169.599 33.1209 171.193 34.2249 173.155 34.2249C174.381 34.2249 175.362 33.7342 176.098 32.7529C176.834 31.7715 176.834 30.7902 176.834 29.5635V22.5715H176.098V23.9208ZM173.278 29.5635C171.438 29.5635 170.334 27.9689 170.334 26.3742C170.334 24.7795 171.438 23.1848 173.155 23.1848C174.994 23.1848 176.098 24.5342 176.098 26.2515C176.221 27.9689 175.117 29.5635 173.278 29.5635Z" fill="white"/>
<path d="M0 1.34961V14.2297H12.8762V1.34961H0ZM12.631 13.9844H0.367893V1.71761H12.5084V13.9844H12.631Z" fill="white"/>
<path d="M6.49949 9.32198L10.4237 13.2474L11.8953 11.7754L7.97106 7.85L8.70685 7.114V5.51932L9.32 5.02865V6.25532L9.81053 6.74599L11.65 4.90598L12.1405 5.39665C12.1405 5.02865 12.0179 3.92464 11.1595 3.06597C10.1784 2.08463 9.19737 2.69796 8.82948 2.9433L6.99002 4.78331L7.48054 5.27398L6.49949 6.25532L5.51845 5.27398L6.00897 4.78331L4.04687 2.9433C3.67898 2.69796 2.69793 2.08463 1.71689 3.06597C0.85847 3.92464 0.73584 5.02865 0.73584 5.39665L1.22636 4.90598L3.06583 6.74599L3.67898 6.25532V5.02865L4.16951 5.51932V6.99133L4.90529 7.72733L1.10373 11.53L2.5753 13.0021L6.49949 9.32198Z" fill="white"/>
</svg>
