<svg width="26" height="20" viewBox="0 0 26 20" fill="none" xmlns="http://www.w3.org/2000/svg">
<path d="M0.242561 8.9175C0.227028 8.93764 0.20908 8.95592 0.194862 8.97719C0.163244 9.02444 0.137667 9.07553 0.113131 9.12747C0.105885 9.14292 0.0961132 9.15678 0.0895271 9.17223C0.0621929 9.2377 0.0412769 9.3065 0.0262928 9.37751C0.0254688 9.38136 0.0238762 9.3847 0.0230541 9.38854C0.00801277 9.46284 0 9.53996 0 9.61895C0 9.69794 0.00801277 9.77506 0.0230541 9.84935C0.0238762 9.8532 0.0254688 9.85654 0.0262928 9.86038C0.0412769 9.9314 0.0621929 10.0002 0.0895271 10.0657C0.0961132 10.0811 0.105885 10.095 0.113131 10.1104C0.137667 10.1624 0.163244 10.2135 0.194862 10.2607C0.20908 10.282 0.227028 10.3002 0.242561 10.3204C0.272425 10.3591 0.301954 10.3975 0.336262 10.4318C0.340269 10.4356 0.343124 10.4406 0.347132 10.4445L9.12974 18.9318C9.57172 19.3595 10.267 19.3363 10.6814 18.8802C11.096 18.4243 11.0737 17.7082 10.6312 17.2808L3.87401 10.7506H24.1522C24.7584 10.7506 25.25 10.2439 25.25 9.61895C25.25 8.99399 24.7584 8.4873 24.1522 8.4873H3.87401L10.6312 1.95713C11.0737 1.52971 11.0959 0.813599 10.6813 0.357714C10.4652 0.119841 10.1731 -5.72205e-05 9.88016 -5.72205e-05C9.61108 -5.72205e-05 9.34146 0.101339 9.12969 0.306053L0.347078 8.79341C0.343069 8.79726 0.340216 8.80224 0.336206 8.80614C0.301901 8.84037 0.272425 8.87879 0.242561 8.9175Z" fill="black"/>
</svg>
