<svg width="32" height="195" viewBox="0 0 32 195" fill="none" xmlns="http://www.w3.org/2000/svg">
<path fill-rule="evenodd" clip-rule="evenodd" d="M2.95407 140.806C0.156526 155.228 1.478 172.122 11.6909 194.291L10.7826 194.709C0.495383 172.379 -0.870709 155.272 1.97237 140.616C4.46662 127.758 10.2005 116.81 15.8921 105.943C16.675 104.448 17.4572 102.955 18.23 101.458C24.631 89.0621 30.4128 76.4123 30.9169 60.6793C31.4208 44.9509 26.6501 26.0766 11.8081 1.25663L12.6663 0.743408C27.5741 25.6734 32.4282 44.7366 31.9164 60.7113C31.4047 76.6815 25.5301 89.5004 19.1185 101.917C18.3422 103.42 17.5584 104.917 16.7752 106.413C11.0794 117.291 5.41846 128.102 2.95407 140.806Z" fill="black"/>
</svg>
