
<svg width="208px" height="127px" viewBox="0 0 208 127" version="1.1" xmlns="http://www.w3.org/2000/svg" xmlns:xlink="http://www.w3.org/1999/xlink">
    <!-- Generator: Sketch 46.2 (44496) - http://www.bohemiancoding.com/sketch -->
    <desc>Created with Sketch.</desc>
    <defs>
        <circle id="path-1" cx="15.6876056" cy="15.8097656" r="15.6876056"></circle>
        <circle id="path-2" cx="15.6876056" cy="15.8097656" r="15.6876056"></circle>
    </defs>
    <g id="App" stroke="none" stroke-width="1" fill="none" fill-rule="evenodd">
        <g id="Заполнение-профиля-07" transform="translate(-84.000000, -85.000000)">
            <g id="car-illustration" transform="translate(188.000000, 148.798911) scale(-1, 1) translate(-188.000000, -148.798911) translate(84.000000, 85.298911)">
                <ellipse id="Oval-12" fill="#D1D4DF" cx="103.610704" cy="122.556661" rx="103.610704" ry="4.14442814"></ellipse>
                <g id="Group-9" transform="translate(59.106493, 84.103618) rotate(11.000000) translate(-59.106493, -84.103618) translate(44.606493, 70.603618)" fill="#B8BECD">
                    <rect id="Rectangle-5" transform="translate(11.883627, 16.883468) rotate(51.000000) translate(-11.883627, -16.883468) " x="10.9707005" y="2.99723196" width="1.82585401" height="27.7724722"></rect>
                    <rect id="Rectangle-7" transform="translate(22.355580, 7.915751) rotate(-36.000000) translate(-22.355580, -7.915751) " x="20.8422" y="0.34884955" width="3.02676065" height="15.1338032" rx="1.51338032"></rect>
                </g>
                <g id="Group-16" transform="translate(3.626294, 0.963544)">
                    <path d="M186.574635,16.028321 C186.574635,16.028321 194.943401,16.028321 193.654979,31.4281054 C197.37825,32.1201465 196.873045,37.203585 196.873045,37.203585 L196.873045,45.248003 C196.873045,49.5078677 191.825479,50.6124431 191.825479,50.6124431 L172.523061,54.2086657 C172.872818,52.8141205 173.079085,51.3627772 173.079085,49.8591197 C173.079085,40.013601 165.097444,32.0319598 155.251926,32.0319598 C145.406407,32.0319598 137.424766,40.013601 137.424766,49.8591197 C137.424766,51.3881869 137.637012,52.86494 138.000221,54.2819055 L46.9004002,54.2819055 C47.262115,52.86494 47.4758556,51.3881869 47.4758556,49.8591197 C47.4758556,40.013601 39.4942144,32.0319598 29.647201,32.0319598 C19.8016823,32.0319598 11.8200412,40.013601 11.8200412,49.8591197 C11.8200412,51.3881869 12.0337818,52.86494 12.3954966,54.2819055 L4.68289957,54.2819055 C2.63218579,54.2819055 0.953649654,52.6033693 0.953649654,50.5526555 L0.953649654,40.4007255 C0.953649654,38.4890178 2.41844521,36.919594 4.27783876,36.7133269 C5.28077531,31.8256927 8.77236962,24.3492566 20.683549,23.0548556 L56.3109643,20.2418503 C57.3751831,19.3644676 58.4528541,18.5005372 59.5499561,17.6635112 C65.0145403,13.502296 70.8602704,9.79995051 77.0527683,6.81655058 C82.2692342,4.30397779 87.7547441,2.30856751 93.442037,1.18456112 C100.398321,-0.192047766 107.589272,0.25187497 114.633743,0.269811242 C124.235627,0.293726271 134.235099,0.248885591 143.585875,2.62992572 C151.027933,4.55956967 158.314544,7.15285568 165.258871,10.4576138 C168.928333,12.2049057 172.50363,14.1584646 175.935437,16.336227 L186.574635,16.028321 Z M147.146225,17.8772517 C151.888875,17.6395961 153.398511,14.772782 153.398511,14.772782 C156.091941,10.7849508 152.507676,9.23944201 152.507676,9.23944201 C149.304557,8.11244624 146.017735,7.11249907 142.666641,6.24258987 C134.025842,4.04390184 124.571932,4.0214815 115.430412,4.00055585 L114.624774,3.99756647 C113.27507,3.99457709 111.920881,3.97664082 110.563703,3.95720986 C109.094424,3.9377789 107.62066,3.91685325 106.148391,3.91685325 C102.537222,3.91685325 98.2878199,4.02596557 94.1654667,4.84206595 C89.1881511,5.82557154 83.9761694,7.62069345 78.6715169,10.1766122 C73.0096337,12.9029256 67.3357929,16.4199296 61.8099264,20.6304695 L147.146225,17.8772517 Z" id="Combined-Shape" stroke="#42475F" stroke-width="2" fill="#06AE8F"></path>
                    <path d="M57.6382484,51.286548 L132.755356,51.286548 C135.553415,32.5745321 146.569275,27.431306 147.688797,26.9545001 C148.845687,21.2388081 154.377532,17.3092698 154.43433,17.2689132 C156.760067,15.0567729 157.751046,13.0553839 157.359438,11.3349965 C156.801918,8.88819001 153.585347,7.82546589 153.552464,7.81500306 C150.159519,6.60579938 146.639526,5.52513898 143.08366,4.60441035 C134.239583,2.35340819 124.67955,2.33098785 115.434896,2.30856751 L114.629258,2.30707282 C113.388666,2.30408344 112.142095,2.28764186 110.89403,2.27120028 L110.587619,2.26671621 C109.224462,2.24728525 107.680448,2.22486491 106.148391,2.22486491 C102.455014,2.22486491 98.1039731,2.3384613 93.836635,3.18296078 C88.7218081,4.19486546 83.3723149,6.03482805 77.9376244,8.65202909 C72.1726076,11.4306566 66.4016121,15.0074482 60.7845695,19.2852491 C59.8130214,20.0251203 58.7891592,20.839726 57.65469,21.7739069 C57.4514122,22.8291575 54.7549927,37.3919158 57.6382484,51.286548 Z M133.054294,51.6318212 L57.3572468,51.6318212 L57.327353,51.4958045 C54.2871549,37.030201 57.2974592,21.7978219 57.327353,21.6468583 L57.3393105,21.585576 L57.3871406,21.5482088 C58.5425355,20.5931023 59.5858286,19.762055 60.575313,19.0087316 C66.2102918,14.7174785 72.0007183,11.1287293 77.7866608,8.33963902 C83.2482557,5.70898577 88.6261479,3.86005505 93.769374,2.8436663 C98.0651112,1.99468275 102.438572,1.87959167 106.148391,1.87959167 C107.683437,1.87959167 109.228946,1.90051732 110.592103,1.91994828 L110.900009,1.92443235 C112.146579,1.94087393 113.390161,1.95731551 114.630753,1.96030489 L115.434896,1.96329427 C124.70197,1.98421992 134.284423,2.00664026 143.168857,4.26810524 C146.735186,5.19331795 150.265642,6.27547303 153.664565,7.48766609 C153.799087,7.53101209 157.094878,8.62064062 157.695743,11.2572726 C158.117245,13.1062033 157.093383,15.2181994 154.652555,17.5364626 C154.577821,17.5917661 149.099784,21.4854318 148.010156,27.1129372 L147.992219,27.2071026 L147.901043,27.2429752 C147.782963,27.2863212 135.940539,31.954236 133.076714,51.483847 L133.054294,51.6318212 L133.054294,51.6318212 Z" id="Fill-49" fill="#000000"></path>
                    <path d="M107.045205,51.4255541 C106.812033,32.3234243 110.071951,18.8757042 110.104834,18.7411822 L110.441139,18.8248848 C110.408256,18.9579121 107.158801,32.3667703 107.391973,51.42107 L107.045205,51.4255541" id="Fill-50" fill="#000000"></path>
                </g>
                <g id="Group-10" transform="translate(93.767804, 86.131625) scale(-1, 1) translate(-93.767804, -86.131625) translate(73.267804, 69.131625)" fill-rule="nonzero" fill="#B8BECD">
                    <path d="M10.9086281,32.9524549 C10.9086281,32.9524549 0.366774514,4.24074505 0.755993986,2.44364913 C1.14521346,0.646553203 3.6370528,-0.0639265804 6.18860267,1.8167552 C8.74015254,3.69743698 16.6604269,21.9191218 16.2712074,23.8415965 C15.881988,25.7640712 11.5573272,26.3073793 10.9086281,32.9524549 Z" id="Shape"></path>
                    <path d="M39.4946359,33.7883135 C41.5272265,29.9433641 40.4893079,26.3909652 37.8945114,24.3431117 C35.0834819,22.1280865 20.2066488,23.5072531 17.092893,25.6804854 C12.2925195,29.0239197 12.2925195,33.7883135 12.2925195,33.7883135 L39.4946359,33.7883135 L39.4946359,33.7883135 Z" id="Shape"></path>
                </g>
                <g id="Group-10-Copy" transform="translate(132.975597, 85.178418) scale(-1, 1) translate(-132.975597, -85.178418) translate(114.975597, 70.178418)" fill-rule="nonzero" fill="#B8BECD">
                    <path d="M9.43738483,28.5081677 C9.43738483,28.5081677 0.317307751,3.6687971 0.654033315,2.11407494 C0.990758879,0.559352776 3.14652464,-0.0553048227 5.35394778,1.57173 C7.56137092,3.19876482 14.4134404,18.9628968 14.0767148,20.6260879 C13.7399893,22.2892791 9.9985941,22.7593114 9.43738483,28.5081677 Z" id="Shape"></path>
                    <path d="M34.1680068,29.2312943 C35.9264625,25.904912 35.0285277,22.831624 32.7836906,21.0599639 C30.3517837,19.1436784 17.4813844,20.3368373 14.7875799,22.2169664 C10.6346313,25.1094728 10.6346313,29.2312943 10.6346313,29.2312943 L34.1680068,29.2312943 L34.1680068,29.2312943 Z" id="Shape"></path>
                </g>
                <g id="Group-7" transform="translate(5.994539, 80.059335)">
                    <path d="M1.05671013,18.4193747 L16.8258085,18.4193747 L56.4618148,26.708231 L102.340252,26.708231 L109.907249,24.3399863 L139.135529,24.3399863 L168.523028,14.8670077 L185.004778,14.8670077 L185.004778,14.8670077 L185.004778,14.8670077 C185.733606,9.82183153 182.33928,5.10454599 177.323976,4.19256392 L171.460021,3.1262635 L164.139475,9.71101461 L139.135529,19.7766025 L110.237836,18.5924801 L102.152996,20.9607248 L57.1306841,20.9607248 L45.3397268,0.000472600929 L27.22064,0.00047260093 L16.8258085,9.71101461 L5.9369659,12.1402201 L5.9369659,12.1402201 C3.01490294,12.7921068 0.967164002,15.426819 1.05671013,18.4193747 L1.05671013,18.4193747 Z" id="Path-5-Copy" fill="#77829E"></path>
                    <path d="M4.81961981,23.155864 L16.8258085,23.155864 L56.4618148,31.4447203 L102.340252,31.4447203 L109.907249,29.0764756 L139.135529,29.0764756 L168.523028,19.603497 L182.991885,19.603497 L182.991885,19.603497 C184.757548,19.603497 186.1889,18.1721448 186.1889,16.4064825 L186.1889,16.4064825 L186.1889,16.4064825 C186.1889,14.6408201 184.757548,13.2094679 182.991885,13.2094679 L168.535951,13.2094679 L139.135529,24.5130918 L110.237836,23.3289694 L102.152996,25.6972141 L57.1306841,25.6972141 L16.8258085,15.6316262 L4.66533722,15.6316262 L4.66533722,15.6316262 C2.62931567,15.6316262 0.978794091,17.2821478 0.978794091,19.3181694 C0.978794091,19.3433633 0.979052354,19.3685565 0.97956884,19.3937451 L0.97956884,19.3937451 L0.97956884,19.3937451 C1.02242624,21.4838663 2.7290593,23.155864 4.81961981,23.155864 Z" id="Path-5" fill="#42475F"></path>
                    <g id="Group-3" transform="translate(11.530197, 10.657101)">
                        <g id="Oval-4">
                            <use fill="#D8D8D8" fill-rule="evenodd" xlink:href="#path-1"></use>
                            <circle stroke="#42475F" stroke-width="4" cx="15.6876056" cy="15.8097656" r="13.6876056"></circle>
                        </g>
                        <circle id="Oval-4-Copy" stroke="#42475F" stroke-width="2" cx="15.6876056" cy="15.8097656" r="7.7356018"></circle>
                    </g>
                    <g id="Group-3-Copy" transform="translate(137.305587, 10.657101)">
                        <g id="Oval-4">
                            <use fill="#D8D8D8" fill-rule="evenodd" xlink:href="#path-2"></use>
                            <circle stroke="#42475F" stroke-width="4" cx="15.6876056" cy="15.8097656" r="13.6876056"></circle>
                        </g>
                        <circle id="Oval-4-Copy" stroke="#42475F" stroke-width="2" cx="15.6876056" cy="15.8097656" r="7.7356018"></circle>
                    </g>
                </g>
            </g>
        </g>
    </g>
</svg>