
<svg width="136px" height="136px" viewBox="0 0 136 136" version="1.1" xmlns="http://www.w3.org/2000/svg" xmlns:xlink="http://www.w3.org/1999/xlink">
    <!-- Generator: Sketch 46.2 (44496) - http://www.bohemiancoding.com/sketch -->
    <desc>Created with Sketch.</desc>
    <defs>
        <path d="M135.231209,81.0892774 C134.874776,82.9022767 134.446809,84.687526 133.949159,86.4431754 C129.792211,101.10627 120.805531,113.739299 108.816919,122.507062 C108.156469,122.988062 107.764269,123.265562 107.367752,123.541828 C96.4743398,131.078109 83.2548614,135.495907 69.0012333,135.495907 C31.7212805,135.495907 1.50030833,105.276168 1.50030833,67.9955989 C1.50030833,30.715646 31.7212805,0.495907203 69.0012333,0.495907203 C105.498636,0.495907203 135.231209,29.4607298 136.459608,65.6584331 C136.488592,66.4335828 136.499692,67.2148992 136.499692,67.9955989 C136.499692,72.4762972 136.064325,76.8540123 135.231209,81.0892774 Z" id="path-1"></path>
        <path d="M74.7625583,104.686695 L63.5652328,104.686695 L63.5652328,70.447662 L32.0435833,70.447662 L32.0435833,104.686695 L20.8561414,104.686695 L20.8561414,47.1700491 L69.5538282,36.3005148 L117.143859,47.1700491 L117.143859,104.686695 L106.284208,104.686695 L106.284208,70.447662 L74.7625583,70.447662 L74.7625583,104.686695 Z" id="path-3"></path>
        <circle id="path-4" cx="101.126931" cy="30.347301" r="8.07413757"></circle>
        <circle id="path-5" cx="25.2527942" cy="30.347301" r="8.07413757"></circle>
        <polygon id="path-6" points="69 30.4583714 12.2440499 47.2264345 16.2440499 54.1546377 69 39.6959758 121.75595 54.1546377 125.75595 47.2264345"></polygon>
    </defs>
    <g id="App" stroke="none" stroke-width="1" fill="none" fill-rule="evenodd">
        <g id="Заполнение-профиля-автосервиса01" transform="translate(-120.000000, -451.000000)">
            <g id="illustration-station" transform="translate(119.000000, 451.000000)">
                <mask id="mask-2" fill="white">
                    <use xlink:href="#path-1"></use>
                </mask>
                <use id="Fill-39" fill="#F2F6FB" fill-rule="evenodd" xlink:href="#path-1"></use>
                <rect id="Rectangle-2" fill="#B4B7C1" fill-rule="evenodd" mask="url(#mask-2)" x="10" y="104" width="130" height="34"></rect>
                <path d="M32.1009655,74.452194 L63.7671284,74.452194" id="Path-2" stroke="#B4B7C1" stroke-width="1" mask="url(#mask-2)"></path>
                <path d="M32.1009655,79.452194 L63.7671284,79.452194" id="Path-2-Copy" stroke="#B4B7C1" stroke-width="1" mask="url(#mask-2)"></path>
                <path d="M32.1009655,84.452194 L63.7671284,84.452194" id="Path-2-Copy-2" stroke="#B4B7C1" stroke-width="1" mask="url(#mask-2)"></path>
                <path d="M32.1009655,89.452194 L63.7671284,89.452194" id="Path-2-Copy-3" stroke="#B4B7C1" stroke-width="1" mask="url(#mask-2)"></path>
                <path d="M32.1009655,94.452194 L63.7671284,94.452194" id="Path-2-Copy-4" stroke="#B4B7C1" stroke-width="1" mask="url(#mask-2)"></path>
                <path d="M74.1009655,74.452194 L106.770964,74.452194" id="Path-2-Copy-9" stroke="#B4B7C1" stroke-width="1" mask="url(#mask-2)"></path>
                <path d="M74.1009655,79.452194 L106.770964,79.452194" id="Path-2-Copy-8" stroke="#B4B7C1" stroke-width="1" mask="url(#mask-2)"></path>
                <path d="M74.1009655,84.452194 L106.770964,84.452194" id="Path-2-Copy-7" stroke="#B4B7C1" stroke-width="1" mask="url(#mask-2)"></path>
                <path d="M74.1009655,89.452194 L106.770964,89.452194" id="Path-2-Copy-6" stroke="#B4B7C1" stroke-width="1" mask="url(#mask-2)"></path>
                <path d="M74.1009655,94.452194 L106.770964,94.452194" id="Path-2-Copy-5" stroke="#B4B7C1" stroke-width="1" mask="url(#mask-2)"></path>
                <path d="M74.1009655,99.452194 L106.770964,99.452194" id="Path-2-Copy-10" stroke="#B4B7C1" stroke-width="1" mask="url(#mask-2)"></path>
                <g id="Combined-Shape" mask="url(#mask-2)">
                    <use fill="#06AE8F" fill-rule="evenodd" xlink:href="#path-3"></use>
                    <path stroke="#42475F" stroke-width="3" d="M73.2625583,103.186695 L73.2625583,68.947662 L107.784208,68.947662 L107.784208,103.186695 L115.643859,103.186695 L115.643859,48.3660774 L69.5500276,37.8382741 L22.3561414,48.3721536 L22.3561414,103.186695 L30.5435833,103.186695 L30.5435833,68.947662 L65.0652328,68.947662 L65.0652328,103.186695 L73.2625583,103.186695 Z"></path>
                </g>
                <g id="Car-animation-Copy" stroke-width="1" fill-rule="evenodd" mask="url(#mask-2)">
                    <g transform="translate(-32.708070, 85.567506)">
                        <g id="Oval-4" stroke="none" fill="none" transform="translate(101.126931, 30.347301) scale(-1, 1) translate(-101.126931, -30.347301) ">
                            <use fill="#B4B7C1" fill-rule="evenodd" xlink:href="#path-4"></use>
                            <circle stroke="#42475F" stroke-width="3" cx="101.126931" cy="30.347301" r="6.57413757"></circle>
                        </g>
                        <g id="Oval-4" stroke="none" fill="none" transform="translate(25.252794, 30.347301) scale(-1, 1) translate(-25.252794, -30.347301) ">
                            <use fill="#B4B7C1" fill-rule="evenodd" xlink:href="#path-5"></use>
                            <circle stroke="#42475F" stroke-width="3" cx="25.2527942" cy="30.347301" r="6.57413757"></circle>
                        </g>
                        <path d="M112.175162,9.9707271 L105.757054,10.1564717 C103.686813,8.84273427 101.530011,7.66424776 99.316404,6.61019211 C95.1272315,4.61659327 90.731576,3.05219074 86.2421465,1.88813099 C80.6012807,0.451766023 74.5690888,0.478816211 68.776742,0.464389444 C64.5271575,0.453569369 60.189209,0.18577251 55.9928232,1.01621328 C52.5619577,1.69427132 49.2528181,2.89800467 46.1059796,4.41371686 C42.3703486,6.21345602 38.8439058,8.44689986 35.5473896,10.9571573 C34.8855617,11.4620941 34.2354555,11.9832611 33.5934644,12.5125431 L12.1011885,14.2094915 C4.91575697,14.9903403 2.80944901,19.5005083 2.20442648,22.4489787 C1.08274536,22.5734096 0.199105889,23.5201662 0.199105889,24.6734058 L0.199105889,30.7975683 C0.199105889,32.0346636 1.21168458,33.0472423 2.44877984,33.0472423 L7.10141214,33.0472423 C6.88320729,32.1924564 6.75426806,31.3016035 6.75426806,30.3791921 C6.75426806,24.4398725 11.5692015,19.6249391 17.5085211,19.6249391 C23.4487423,19.6249391 28.2636757,24.4398725 28.2636757,30.3791921 C28.2636757,31.3016035 28.1347365,32.1924564 27.9165316,33.0472423 L82.8725948,33.0472423 C82.6534883,32.1924564 82.5254507,31.3016035 82.5254507,30.3791921 C82.5254507,24.4398725 87.3403842,19.6249391 93.2797037,19.6249391 C99.2190233,19.6249391 104.033957,24.4398725 104.033957,30.3791921 C104.033957,31.2862751 103.909526,32.1617995 103.698534,33.0030603 L115.342739,30.8336353 C115.342739,30.8336353 118.387688,30.167299 118.387688,27.5975311 L118.387688,22.7447274 C118.387688,22.7447274 118.692453,19.6781378 116.446386,19.2606633 C117.223628,9.9707271 112.175162,9.9707271 112.175162,9.9707271 Z" id="Combined-Shape" stroke="#42475F" stroke-width="2" fill="#F2F6FB" fill-rule="evenodd" transform="translate(59.300340, 16.731016) scale(-1, 1) translate(-59.300340, -16.731016) "></path>
                        <path d="M76.2895112,12.4734053 L24.8102988,14.1342869 C28.1437836,11.5942742 31.566534,9.47263783 34.9820711,7.82798642 C38.1821083,6.28612571 41.3262418,5.20321653 44.3288126,4.60991574 C46.8156265,4.11760233 49.3790827,4.0517802 51.5575245,4.0517802 C52.4456723,4.0517802 53.3347218,4.06440362 54.2210663,4.07612537 C55.0397853,4.08784712 55.856701,4.0986672 56.6709116,4.10047054 L57.1569133,4.10227389 C62.671545,4.11489731 68.3746262,4.1284224 73.5871974,5.45478328 C75.6087481,5.97955692 77.5915269,6.58277611 79.5238119,7.26263749 C79.5238119,7.26263749 81.6860236,8.1949673 80.061209,10.6006307 C80.061209,10.6006307 79.1505193,12.3300393 76.2895112,12.4734053" id="Fill-51" stroke="#42475F" stroke-width="1.5" fill="#B8BECD" fill-rule="evenodd" transform="translate(52.738273, 9.093034) scale(-1, 1) translate(-52.738273, -9.093034) "></path>
                    </g>
                </g>
                <g id="Combined-Shape" mask="url(#mask-2)">
                    <use fill="#FFFFFF" fill-rule="evenodd" xlink:href="#path-6"></use>
                    <path stroke="#42475F" stroke-width="3" d="M69,32.0224663 L14.4951533,48.12546 L16.9641898,52.4019566 L69,38.1406611 L121.03581,52.4019566 L123.504847,48.12546 L69,32.0224663 Z"></path>
                </g>
                <g id="Group" stroke-width="1" fill-rule="evenodd" transform="translate(93.218534, 86.712139)" fill="#42475F">
                    <path d="M23.1756336,29.2300698 L37.1171572,43.1692051 C37.1171572,43.1692051 38.8164595,44.8697016 41.8428815,41.8440757 C44.8697016,38.8180517 43.168807,37.1175553 43.168807,37.1175553 L30.4942966,24.4430448 C28.29822,25.0377409 26.5734421,25.695728 25.9552607,26.3155016 L23.1756336,29.2300698 Z" id="Shape" fill-rule="nonzero"></path>
                    <path d="M19.9856104,16.9934212 L11.151149,8.16055208 L9.46936118,4.23810536 L2.99218916,0 L0,2.99298528 L4.23691119,9.47015729 L8.15895986,11.1527412 L16.9305284,19.9239117 L18.8686645,18.3647252 C19.2707013,17.953533 19.6377092,17.4886033 19.9856104,16.9934212 Z" id="Shape" fill-rule="nonzero"></path>
                    <path d="M43.5250674,7.59371992 L35.1392155,11.2271778 L33.5115633,7.28920686 L33.6902906,5.31365347 L40.6960813,2.25896947 C40.6960813,2.25896947 36.7437804,-0.254756028 32.6127522,0.642462859 C28.481724,1.54127397 27.5829128,1.71920513 26.686092,4.41683264 C25.7888731,7.10888736 24.5310152,15.5512633 20.2196675,19.862611 L1.55679817,34.8713236 C1.55679817,34.8713236 -1.68019562,38.5167231 1.55998262,41.7561052 C4.80016085,44.9962835 8.44396817,41.7572994 8.44396817,41.7572994 L24.5310152,24.8904601 C27.2254583,22.196017 39.0791767,20.7586357 39.0791767,20.7586357 L37.1044194,15.9787758 C41.6959987,13.7285635 43.5250674,7.59371992 43.5250674,7.59371992 Z M7.00579078,40.1388025 C5.94895131,41.1968362 4.23253257,41.1968362 3.17370283,40.1388025 C2.11686337,39.0803708 2.11686337,37.3663404 3.17529506,36.3083068 C4.2341248,35.249079 5.94895131,35.249079 7.00539272,36.3075107 C8.06422246,37.3655443 8.06422246,39.0799728 7.00579078,40.1388025 Z" id="Shape" fill-rule="nonzero"></path>
                </g>
            </g>
        </g>
    </g>
</svg>