
<svg width="128px" height="113px" viewBox="0 0 128 113" version="1.1" xmlns="http://www.w3.org/2000/svg" xmlns:xlink="http://www.w3.org/1999/xlink">
    <!-- Generator: Sketch 46.2 (44496) - http://www.bohemiancoding.com/sketch -->
    <desc>Created with Sketch.</desc>
    <defs></defs>
    <g id="App" stroke="none" stroke-width="1" fill="none" fill-rule="evenodd">
        <g id="Карточка-акции-автосервиса" transform="translate(-244.000000, -56.000000)">
            <g id="Group-15" transform="translate(245.000000, 39.524084)">
                <path d="M26.8746035,69.4933064 L26.8746035,78.5205422" id="Path-14" stroke="#FFFFFF" stroke-width="2" stroke-linecap="round" transform="translate(26.874603, 74.006924) rotate(-315.000000) translate(-26.874603, -74.006924) "></path>
                <path d="M31.1326014,73.901043 L22.1053656,73.901043" id="Path-14-Copy" stroke="#FFFFFF" stroke-width="2" stroke-linecap="round" transform="translate(26.618983, 74.262544) rotate(-315.000000) translate(-26.618983, -74.262544) "></path>
                <path d="M118.668222,16.1899388 L118.668222,25.2171747" id="Path-14" stroke="#FFFFFF" stroke-width="2" stroke-linecap="round" transform="translate(118.668222, 20.703557) rotate(-315.000000) translate(-118.668222, -20.703557) "></path>
                <path d="M122.92622,20.5976755 L113.898984,20.5976755" id="Path-14-Copy" stroke="#FFFFFF" stroke-width="2" stroke-linecap="round" transform="translate(118.412602, 20.959177) rotate(-315.000000) translate(-118.412602, -20.959177) "></path>
                <path d="M3.24322055,107.649634 L3.24322055,114.246232" id="Path-14" stroke="#FFFFFF" stroke-width="2" stroke-linecap="round" transform="translate(3.243221, 110.947933) rotate(-315.000000) translate(-3.243221, -110.947933) "></path>
                <path d="M6.35472652,110.870561 L-0.241870904,110.870561" id="Path-14-Copy" stroke="#FFFFFF" stroke-width="2" stroke-linecap="round" transform="translate(3.056428, 111.134726) rotate(-315.000000) translate(-3.056428, -111.134726) "></path>
                <circle id="Oval-7" stroke="#FFFFFF" stroke-width="2" cx="42.1190441" cy="47.217964" r="5.27557364"></circle>
                <circle id="Oval-7-Copy" stroke="#FFFFFF" stroke-width="2" cx="29.8434705" cy="104.295156" r="7"></circle>
                <path d="M72.7307757,105.601196 L65.494318,105.601196 C63.5794705,105.601196 62.02718,104.048905 62.02718,102.134058 L62.02718,100.225542 C62.0187452,99.1476668 62.5132519,98.1274647 63.3646044,97.4663412 C64.2159569,96.8052176 65.3268389,96.5787442 66.3690546,96.8538295 L73.6055124,98.7543937 C75.3476462,99.1492953 76.5045999,100.803205 76.2782211,102.575133 C76.0518423,104.347062 74.5162355,105.656974 72.7307757,105.601196 Z M64.7229593,85.6174396 C66.599667,80.8461488 68.9932646,75.4625423 70.0986136,73.8641599 C70.7188814,72.9814711 71.6254267,72.2737296 74.0746893,71.8761221 C78.1108061,71.2639816 82.1918594,70.9979417 86.2732895,71.0809069 C90.3547343,70.9972803 94.4358441,71.263324 98.4718897,71.8761221 C100.897296,72.2975861 101.803841,72.973519 102.447965,73.8562078 C103.561267,75.446638 105.946912,80.8779574 107.82362,85.6094875 C100.634875,86.3145782 93.4434793,86.6671236 86.249433,86.6671236 C79.0553868,86.6671236 71.8798955,86.317229 64.7229593,85.6174396 Z M110.44783,102.118154 C110.45206,103.040448 110.088642,103.92642 109.437969,104.580078 C108.787295,105.233737 107.902996,105.601206 106.980692,105.601196 L99.7680904,105.601196 C98.0209522,105.606844 96.5425604,104.311622 96.3183989,102.578915 C96.0942375,100.846207 97.1943462,99.2174032 98.8854016,98.7782502 L106.129811,96.8538295 C107.170413,96.576548 108.280793,96.7997239 109.13345,97.4575327 C109.986107,98.1153414 110.483764,99.1327345 110.479638,100.209637 L110.44783,102.118154 Z" id="Shape" stroke="#FFFFFF" stroke-width="2" fill-rule="nonzero"></path>
                <path d="M121.238899,80.7232135 C120.740564,80.7232135 120.239579,79.5499481 119.735942,79.5499481 C118.021915,79.6336776 116.401637,80.3572693 115.195264,81.5777467 C113.286748,76.7348865 110.813629,71.2638064 109.310672,69.0690126 C106.598988,65.1724585 102.646769,64.0830137 99.9112291,63.6058846 C95.3916598,62.9146599 90.8203745,62.6193091 86.249433,62.7231958 C81.686444,62.6207384 77.1232052,62.9160851 72.6114934,63.6058846 C69.8759534,64.0830137 65.9237341,65.1963149 63.2120505,69.0690126 C61.6852375,71.2638064 59.2359748,76.7348865 57.3115542,81.5538903 C56.1051811,80.3334128 54.4849034,79.6098211 52.7708758,79.5260917 C52.2672395,79.5260917 51.766254,79.5260917 51.2679192,79.5260917 C49.0827527,79.5518527 47.3176045,81.3170009 47.2918435,83.5021674 C47.2918435,84.3530476 47.2918435,85.267545 47.2918435,86.3808462 C47.3342007,88.6336554 49.1502964,90.4497512 51.4031057,90.4921084 L53.1605312,90.4921084 C51.1373576,97.5683026 49.9893344,104.949985 49.9876228,112.376429 L49.9876228,123.740053 C49.9876185,125.981188 51.8020898,127.799217 54.04322,127.803603 L59.299592,127.803603 C61.5438284,127.803603 63.3631414,125.98429 63.3631414,123.740053 L63.3631414,119.318657 C70.976001,120.060858 78.6047649,120.431958 86.249433,120.431958 C93.8941012,120.431958 101.522865,120.060858 109.135725,119.318657 L109.135725,123.740053 C109.135725,125.98429 110.955038,127.803603 113.199274,127.803603 L118.455646,127.803603 C120.699882,127.803603 122.519195,125.98429 122.519195,123.740053 L122.519195,112.376429 C122.514913,104.949571 121.364206,97.5678787 119.107723,90.4921084 L121.063952,90.4921084 C123.321506,90.467243 125.155249,88.6616037 125.214975,86.4047026 C125.214975,85.2914014 125.214975,84.376904 125.214975,83.5260238 C125.189214,81.3408574 123.424066,80.7489745 121.238899,80.7232135 Z" id="Path" stroke="#FFFFFF" stroke-width="2"></path>
                <circle id="Oval" fill="#FFFFFF" fill-rule="nonzero" cx="73.1192222" cy="20.9078268" r="1.5930504"></circle>
                <circle id="Oval" fill="#FFFFFF" fill-rule="nonzero" cx="79.4914238" cy="20.9078268" r="1.5930504"></circle>
                <circle id="Oval" fill="#FFFFFF" fill-rule="nonzero" cx="85.8636254" cy="20.9078268" r="1.5930504"></circle>
                <circle id="Oval" fill="#FFFFFF" fill-rule="nonzero" cx="85.8636254" cy="27.2800284" r="1.5930504"></circle>
                <circle id="Oval" fill="#FFFFFF" fill-rule="nonzero" cx="85.8636254" cy="33.65223" r="1.5930504"></circle>
                <circle id="Oval" fill="#FFFFFF" fill-rule="nonzero" cx="85.8636254" cy="40.0244316" r="1.5930504"></circle>
                <circle id="Oval" fill="#FFFFFF" fill-rule="nonzero" cx="85.8636254" cy="46.3966332" r="1.5930504"></circle>
                <circle id="Oval" fill="#FFFFFF" fill-rule="nonzero" cx="85.8636254" cy="52.7688348" r="1.5930504"></circle>
                <circle id="Oval" fill="#FFFFFF" fill-rule="nonzero" cx="60.374819" cy="52.7688348" r="1.5930504"></circle>
                <circle id="Oval" fill="#FFFFFF" fill-rule="nonzero" cx="62.927523" cy="46.3953587" r="1.59241318"></circle>
                <circle id="Oval" fill="#FFFFFF" fill-rule="nonzero" cx="65.4764036" cy="40.0231571" r="1.59241318"></circle>
                <circle id="Oval" fill="#FFFFFF" fill-rule="nonzero" cx="68.0252843" cy="33.6509555" r="1.59241318"></circle>
                <circle id="Oval" fill="#FFFFFF" fill-rule="nonzero" cx="70.5741649" cy="27.2787539" r="1.59241318"></circle>
                <circle id="Oval" fill="#FFFFFF" fill-rule="nonzero" cx="78.2169835" cy="27.2800284" r="1.59177596"></circle>
                <circle id="Oval" fill="#FFFFFF" fill-rule="nonzero" cx="76.9425432" cy="33.65223" r="1.59177596"></circle>
                <circle id="Oval" fill="#FFFFFF" fill-rule="nonzero" cx="75.6681029" cy="40.0244316" r="1.59177596"></circle>
                <circle id="Oval" fill="#FFFFFF" fill-rule="nonzero" cx="74.3936626" cy="46.3966332" r="1.59177596"></circle>
                <circle id="Oval" fill="#FFFFFF" fill-rule="nonzero" cx="73.1192222" cy="52.7688348" r="1.5930504"></circle>
                <circle id="Oval" fill="#FFFFFF" fill-rule="nonzero" cx="98.6080287" cy="20.9078268" r="1.5930504"></circle>
                <circle id="Oval" fill="#FFFFFF" fill-rule="nonzero" cx="92.2358271" cy="20.9078268" r="1.5930504"></circle>
                <circle id="Oval" fill="#FFFFFF" fill-rule="nonzero" cx="111.352432" cy="52.7688348" r="1.5930504"></circle>
                <circle id="Oval" fill="#FFFFFF" fill-rule="nonzero" cx="108.799728" cy="46.3953587" r="1.59241318"></circle>
                <circle id="Oval" fill="#FFFFFF" fill-rule="nonzero" cx="106.250847" cy="40.0231571" r="1.59241318"></circle>
                <circle id="Oval" fill="#FFFFFF" fill-rule="nonzero" cx="103.701967" cy="33.6509555" r="1.59241318"></circle>
                <circle id="Oval" fill="#FFFFFF" fill-rule="nonzero" cx="101.153086" cy="27.2787539" r="1.59241318"></circle>
                <circle id="Oval" fill="#FFFFFF" fill-rule="nonzero" cx="93.5102674" cy="27.2800284" r="1.59177596"></circle>
                <circle id="Oval" fill="#FFFFFF" fill-rule="nonzero" cx="94.7847077" cy="33.65223" r="1.59177596"></circle>
                <circle id="Oval" fill="#FFFFFF" fill-rule="nonzero" cx="96.059148" cy="40.0244316" r="1.59177596"></circle>
                <circle id="Oval" fill="#FFFFFF" fill-rule="nonzero" cx="97.3335883" cy="46.3966332" r="1.59177596"></circle>
                <circle id="Oval" fill="#FFFFFF" fill-rule="nonzero" cx="98.6080287" cy="52.7688348" r="1.5930504"></circle>
            </g>
        </g>
    </g>
</svg>