
<svg width="28px" height="32px" viewBox="0 0 28 32" version="1.1" xmlns="http://www.w3.org/2000/svg" xmlns:xlink="http://www.w3.org/1999/xlink">
    <!-- Generator: Sketch 46.2 (44496) - http://www.bohemiancoding.com/sketch -->
    <desc>Created with Sketch.</desc>
    <defs>
        <path d="M26.5703263,17.7114343 C26.5703263,17.0528866 26.0367167,16.519277 25.3781689,16.519277 L23.6972271,16.519277 C22.4354477,14.0968132 19.7054074,11.8159778 13.8776654,11.8159778 C8.04992333,11.8159778 5.32035985,14.0968132 4.05810364,16.519277 L2.37525432,16.519277 C1.71670659,16.519277 1.18309696,17.0528866 1.18309696,17.7114343 C1.18309696,18.369982 1.71670659,18.9035917 2.37525432,18.9035917 L2.49923868,18.9035917 C1.74007288,19.9345694 1.3099425,21.2144695 1.3099425,22.5668528 C1.3099425,24.0746934 1.83639919,25.4623646 2.71144269,26.5157548 C2.70953524,26.542936 2.70285916,26.5677329 2.70285916,26.5949141 L2.70285916,29.0288225 C2.70285916,30.5690898 3.95653183,31.8227625 5.49679914,31.8227625 L6.80149615,31.8227625 C8.34271718,31.8227625 9.59543613,30.5690898 9.59543613,29.0288225 L9.59543613,28.5071345 L18.1575103,28.5071345 L18.1575103,29.0288225 C18.1575103,30.5690898 19.4102292,31.8227625 20.9504965,31.8227625 L22.2561473,31.8227625 C23.7973683,31.8227625 25.0500872,30.5690898 25.0500872,29.0288225 L25.0500872,26.5949141 C25.0500872,26.5677329 25.0434112,26.542936 25.0415037,26.5167085 C25.9170241,25.4623646 26.4430039,24.0756471 26.4430039,22.5668528 C26.4430039,21.2135158 26.0138272,19.9345694 25.2546614,18.9035917 L25.3767384,18.9035917 C26.0367167,18.9035917 26.5703263,18.369982 26.5703263,17.7114343 Z M6.85681225,26.1228198 C6.74236514,26.1228198 6.6283949,26.1132825 6.51299407,26.0994535 C4.90644282,25.9048934 3.69378035,24.3856081 3.69378035,22.5668528 C3.69378035,21.4500398 4.15681427,20.4238307 4.94077695,19.751454 L22.8136,19.751454 C23.5980396,20.4238307 24.0596429,21.4505166 24.0596429,22.5668528 C24.0596429,24.3856081 22.8479342,25.9048934 21.2394755,26.1004072 C21.1269358,26.1142362 21.0139193,26.1228198 20.8975647,26.1228198 L6.85681225,26.1228198 L6.85681225,26.1228198 Z M13.8776654,14.2002925 C17.6477438,14.2002925 20.1803629,15.2656043 21.4368967,17.3671393 L6.31843399,17.3671393 C7.57592157,15.2656043 10.1075869,14.2002925 13.8776654,14.2002925 Z M7.21159828,29.0283457 C7.21159828,29.2548556 7.02800605,29.4379709 6.80197301,29.4379709 L5.497276,29.4379709 C5.27171983,29.4379709 5.08765073,29.2543787 5.08765073,29.0283457 L5.08765073,28.1919281 C5.4510203,28.3221116 5.83012634,28.418438 6.22496885,28.4656474 C6.43288109,28.4918749 6.64413138,28.5066576 6.85728911,28.5066576 L7.21207514,28.5066576 L7.21207514,29.0283457 L7.21159828,29.0283457 Z M22.257101,29.4384478 L20.9514502,29.4384478 C20.7258941,29.4384478 20.5427787,29.2548556 20.5427787,29.0288225 L20.5427787,28.5071345 L20.8985185,28.5071345 C21.1135836,28.5071345 21.3243571,28.4933054 21.529885,28.4680317 C21.9247275,28.4193917 22.3038335,28.3235422 22.6672031,28.1933587 L22.6672031,29.0288225 C22.6672031,29.2548556 22.4836109,29.4384478 22.257101,29.4384478 Z M7.14388374,21.2607252 C8.07519707,21.2607252 8.83245542,22.0179835 8.83245542,22.9492969 C8.83245542,23.8806102 8.07519707,24.6388223 7.14388374,24.6388223 C6.21257042,24.6388223 5.45531206,23.8806102 5.45531206,22.9492969 C5.45531206,22.0179835 6.21257042,21.2607252 7.14388374,21.2607252 Z M22.2113221,22.9492969 C22.2113221,23.8806102 21.4540638,24.6388223 20.5227505,24.6388223 C19.5914371,24.6388223 18.8332251,23.8806102 18.8332251,22.9492969 C18.8332251,22.0179835 19.5914371,21.2607252 20.5227505,21.2607252 C21.4540638,21.2607252 22.2113221,22.0179835 22.2113221,22.9492969 Z" id="path-1"></path>
    </defs>
    <g id="App" stroke="none" stroke-width="1" fill="none" fill-rule="evenodd">
        <g id="Профиль-клиента" transform="translate(-36.000000, -706.000000)" fill-rule="nonzero">
            <g id="Group" transform="translate(36.000000, 706.000000)">
                <g id="Group-2-Copy" transform="translate(0.000000, 0.731299)" fill="#06AE8F">
                    <path d="M27.7539001,1.19215736 C27.7539001,0.533609633 27.2202905,0 26.5617428,0 L1.19215736,0 C0.533609633,0 0,0.533609633 0,1.19215736 C0,1.85070508 0.533609633,2.38431471 1.19215736,2.38431471 L4.5206607,2.38431471 L4.5206607,4.53687404 C4.5206607,5.19542176 5.05427033,5.72903139 5.71281805,5.72903139 C6.37136578,5.72903139 6.90497541,5.19542176 6.90497541,4.53687404 L6.90497541,2.38431471 L10.1333375,2.38431471 L10.1333375,5.72903139 C10.1333375,6.38757912 10.6669472,6.92118875 11.3254949,6.92118875 C11.9840426,6.92118875 12.5176522,6.38757912 12.5176522,5.72903139 L12.5176522,2.38431471 L15.7460144,2.38431471 L15.7460144,3.94079536 C15.7460144,4.59934308 16.279624,5.13295271 16.9381717,5.13295271 C17.5967194,5.13295271 18.1303291,4.59934308 18.1303291,3.94079536 L18.1303291,2.38431471 L21.3586912,2.38431471 L21.3586912,3.34471668 C21.3586912,4.0032644 21.8923008,4.53687404 22.5508486,4.53687404 C23.2093963,4.53687404 23.7430059,4.0032644 23.7430059,3.34471668 L23.7430059,2.38431471 L26.5622196,2.38431471 C27.2202905,2.38431471 27.7539001,1.85070508 27.7539001,1.19215736 Z" id="Shape"></path>
                    <path d="M5.71329491,9.35605093 C6.37184264,9.35605093 6.90545227,8.8224413 6.90545227,8.16389358 L6.90545227,7.35751834 C6.90545227,6.69897062 6.37184264,6.16536098 5.71329491,6.16536098 C5.05474719,6.16536098 4.52113756,6.69897062 4.52113756,7.35751834 L4.52113756,8.16389358 C4.52113756,8.82196444 5.05474719,9.35605093 5.71329491,9.35605093 Z" id="Shape"></path>
                    <path d="M5.71329491,12.2768365 C6.37184264,12.2768365 6.90545227,11.7432268 6.90545227,11.0846791 L6.90545227,11.032701 C6.90545227,10.3741533 6.37184264,9.86677114 5.71329491,9.86677114 C5.05474719,9.86677114 4.52113756,10.4266082 4.52113756,11.085156 C4.52113756,11.7437037 5.05474719,12.2768365 5.71329491,12.2768365 Z" id="Shape"></path>
                    <path d="M12.5176522,9.04561316 L12.5176522,8.9936351 C12.5176522,8.33508737 11.9840426,7.8277052 11.3254949,7.8277052 C10.6669472,7.8277052 10.1333375,8.3875423 10.1333375,9.04609002 C10.1333375,9.70463774 10.6669472,10.2382474 11.3254949,10.2382474 C11.9840426,10.2382474 12.5176522,9.70416088 12.5176522,9.04561316 Z" id="Shape"></path>
                    <path d="M18.1303291,9.35605093 L18.1303291,7.35751834 C18.1303291,6.69897062 17.5967194,6.16536098 16.9381717,6.16536098 C16.279624,6.16536098 15.7460144,6.69897062 15.7460144,7.35751834 L15.7460144,9.35605093 C15.7460144,10.0145987 16.279624,10.5482083 16.9381717,10.5482083 C17.5967194,10.5482083 18.1303291,10.0141218 18.1303291,9.35605093 Z" id="Shape"></path>
                    <path d="M22.5503717,8.75997225 C23.2089194,8.75997225 23.742529,8.22636262 23.742529,7.5678149 L23.742529,6.76143966 C23.742529,6.10289194 23.2089194,5.56928231 22.5503717,5.56928231 C21.891824,5.56928231 21.3582143,6.10289194 21.3582143,6.76143966 L21.3582143,7.5678149 C21.3582143,8.22588576 21.8923008,8.75997225 22.5503717,8.75997225 Z" id="Shape"></path>
                    <path d="M22.5503717,12.2768365 C23.2089194,12.2768365 23.742529,11.7432268 23.742529,11.0846791 L23.742529,11.032701 C23.742529,10.3741533 23.2089194,9.86677114 22.5503717,9.86677114 C21.891824,9.86677114 21.3582143,10.4266082 21.3582143,11.085156 C21.3582143,11.7437037 21.8923008,12.2768365 22.5503717,12.2768365 Z" id="Shape"></path>
                </g>
                <g id="Shape">
                    <use fill="#FFFFFF" fill-rule="evenodd" xlink:href="#path-1"></use>
                    <path stroke="#324364" stroke-width="0.6" d="M26.2703263,17.7114343 C26.2703263,18.2044619 25.8708657,18.6035917 25.3767384,18.6035917 L24.6611965,18.6035917 L25.0130885,19.0814751 C25.7437697,20.0737695 26.1430039,21.2935995 26.1430039,22.5668528 C26.1430039,23.9708585 25.6637398,25.297787 24.810704,26.325054 L24.7335317,26.4179885 L24.742294,26.5384693 C24.7454345,26.5708779 24.7454345,26.5708779 24.7484123,26.5905498 C24.7486829,26.5923405 24.7486829,26.5923405 24.7489305,26.5939744 C24.7508655,26.6085047 24.7508655,26.6085047 24.7500872,26.5949141 L24.7500872,29.0288225 C24.7500872,30.4037495 23.6313379,31.5227625 22.2561473,31.5227625 L20.9504965,31.5227625 C19.5761278,31.5227625 18.4575103,30.4036176 18.4575103,29.0288225 L18.4575103,28.2071345 L9.29543613,28.2071345 L9.29543613,29.0288225 C9.29543613,30.4037495 8.17668676,31.5227625 6.80149615,31.5227625 L5.49679914,31.5227625 C4.12221726,31.5227625 3.00285916,30.4034044 3.00285916,29.0288225 L3.00285916,26.5949141 C3.00224759,26.6072767 3.00224759,26.6072767 3.00325489,26.5989042 C3.00362699,26.5963866 3.00362699,26.5963866 3.00409845,26.5932369 C3.00723656,26.572704 3.00723656,26.572704 3.01070672,26.5367558 L2.94220849,26.3240594 C2.08966589,25.297756 1.6099425,23.9698846 1.6099425,22.5668528 C1.6099425,21.2949165 2.00989879,20.0740841 2.74081159,19.0814751 L3.09270358,18.6035917 L2.37525432,18.6035917 C1.88239202,18.6035917 1.48309696,18.2042966 1.48309696,17.7114343 C1.48309696,17.218572 1.88239202,16.819277 2.37525432,16.819277 L4.24006805,16.819277 L4.32415283,16.6579053 C5.81212341,13.802261 8.8420449,12.1159778 13.8776654,12.1159778 C18.9134392,12.1159778 21.9438893,13.8024911 23.4311564,16.6578641 L23.5152309,16.819277 L25.3781689,16.819277 C25.8710312,16.819277 26.2703263,17.218572 26.2703263,17.7114343 Z M6.85681225,26.4228198 C6.73837711,26.4228198 6.61767573,26.4141443 6.47692634,26.3972774 C4.7126796,26.1836198 3.39378035,24.531057 3.39378035,22.5668528 C3.39378035,21.3707888 3.8889788,20.2583185 4.7454711,19.5237357 L4.94077695,19.451454 L22.8136,19.451454 L23.0088374,19.523677 C23.8651374,20.2576484 24.3596429,21.3702512 24.3596429,22.5668528 C24.3596429,24.531476 23.0413498,26.1835912 21.2760647,26.3981676 C21.1439177,26.414406 21.020429,26.4228198 20.8975647,26.4228198 L6.85681225,26.4228198 Z M13.8776654,13.9002925 C17.7395081,13.9002925 20.3741889,15.0051827 21.6943814,17.213186 L21.9658058,17.6671393 L5.78931892,17.6671393 L6.06100074,17.2130999 C7.38226852,15.0049744 10.0162036,13.9002925 13.8776654,13.9002925 Z M7.4452725,29.3283457 C7.33223005,29.5703696 7.0866393,29.7379709 6.80197301,29.7379709 L5.497276,29.7379709 C5.1059237,29.7379709 4.78765073,29.4199536 4.78765073,29.0283457 L4.78765073,27.7657755 L5.18883335,27.9095063 C5.54838055,28.0383204 5.90426847,28.125166 6.26251533,28.1680062 C6.46503996,28.1935541 6.66316107,28.2066576 6.85728911,28.2066576 L7.51207514,28.2066576 L7.51207514,29.3283457 L7.4452725,29.3283457 Z M22.257101,29.7384478 L20.9514502,29.7384478 C20.5600633,29.7384478 20.2427787,29.4203962 20.2427787,29.0288225 L20.2427787,28.2071345 L20.8985185,28.2071345 C21.096558,28.2071345 21.2949025,28.1946677 21.4932057,28.1702824 C21.8520944,28.1260715 22.2088283,28.0389073 22.5660205,27.9109368 L22.9672031,27.7672061 L22.9672031,29.0288225 C22.9672031,29.4206687 22.6491686,29.7384478 22.257101,29.7384478 Z M7.14388374,21.5607252 C6.37825584,21.5607252 5.75531206,22.183669 5.75531206,22.9492969 C5.75531206,23.7151587 6.37848965,24.3388223 7.14388374,24.3388223 C7.90927783,24.3388223 8.53245542,23.7151587 8.53245542,22.9492969 C8.53245542,22.183669 7.90951164,21.5607252 7.14388374,21.5607252 Z M21.9113221,22.9492969 C21.9113221,22.183669 21.2883784,21.5607252 20.5227505,21.5607252 C19.7568886,21.5607252 19.1332251,22.1839028 19.1332251,22.9492969 C19.1332251,23.7149248 19.7571226,24.3388223 20.5227505,24.3388223 C21.2881445,24.3388223 21.9113221,23.7151587 21.9113221,22.9492969 Z"></path>
                </g>
            </g>
        </g>
    </g>
</svg>