
<svg width="137px" height="137px" viewBox="0 0 137 137" version="1.1" xmlns="http://www.w3.org/2000/svg" xmlns:xlink="http://www.w3.org/1999/xlink">
    <!-- Generator: Sketch 46.2 (44496) - http://www.bohemiancoding.com/sketch -->
    <desc>Created with Sketch.</desc>
    <defs>
        <circle id="path-1" cx="67.5" cy="67.7003042" r="67.5"></circle>
        <path d="M58.3075227,124.580024 L23.2681145,124.580024 C18.3732047,124.580024 4.74589223,123.259869 0.753452237,120.942755 L0.753457963,0.340362088 L80.7187075,0.340362088 L80.7187075,121.002364 C76.7504503,123.282496 63.1603015,124.580024 58.3075227,124.580024 Z" id="path-3"></path>
        <rect id="path-5" x="4.60413627" y="32.9739201" width="7" height="11" rx="3"></rect>
        <rect id="path-6" x="34.267554" y="32.9739201" width="7" height="11" rx="3"></rect>
        <path d="M22.9204495,0.334488603 C9.29858225,1.80595664 0.575312338,6.76019606 0.575312338,15.420504 C0.575312338,20.9655098 3.65479464,38.6900894 15.0356387,41.0819426 C22.3447486,42.6180605 22.5197546,47.9001229 22.5197546,47.9001229 C22.5197546,47.9001229 40.0017357,39.6418038 43.3623539,29.1875701 C45.2490415,23.3184495 47.2135931,15.3797345 45.5285545,11.7051988 C44.2121576,8.83455382 38.9713454,4.60504747 34.6361316,7.85586612 C34.6361316,7.85586612 36.5423167,-1.13697943 22.9204495,0.334488603 Z" id="path-7"></path>
    </defs>
    <g id="App" stroke="none" stroke-width="1" fill="none" fill-rule="evenodd">
        <g id="Разводящий-экран" transform="translate(-119.000000, -97.000000)">
            <g id="illustration-driver" transform="translate(119.250000, 97.000000)">
                <mask id="mask-2" fill="white">
                    <use xlink:href="#path-1"></use>
                </mask>
                <use id="Mask" fill="#F2F6FB" xlink:href="#path-1"></use>
                <g id="Group-3" mask="url(#mask-2)">
                    <g transform="translate(-11.000000, 57.200304)">
                        <path d="M88.6954872,7.57188579 C98.028278,12.6644497 104.401135,21.7242543 112.218793,26.7905924 C121.085481,32.5388 145.214363,33.0525863 145.214363,48.8536008 L145.214363,65.4020491 L4.59785084,65.1684016 L0,41.244557 C0,41.244557 9.44246215,14.1354758 31.362421,4.89447511 C53.2823799,-4.34771767 79.3626963,2.47932194 88.6954872,7.57188579 Z" id="Fill-175" fill="#B4B7C1"></path>
                        <path d="M14.5958221,65.1684016 C14.5958221,55.6317651 22.9570681,46.4932833 33.2709404,46.4932833 C43.5860048,46.4932833 51.9460587,55.6317651 51.9460587,65.1684016 L14.5958221,65.1684016" id="Fill-176" fill="#F2F4F9"></path>
                        <path d="M93.2659202,65.1684016 C93.2659202,55.6317651 101.625974,46.4932833 111.939846,46.4932833 C122.254911,46.4932833 130.616157,55.6317651 130.616157,65.1684016 L93.2659202,65.1684016" id="Fill-177" fill="#FFFFFF"></path>
                        <polyline id="Fill-178" fill="#FFC1B5" points="145.214363 58.3365936 3.24722471 58.3365936 4.59785084 65.4020491 145.214363 65.4020491 145.214363 58.3365936"></polyline>
                        <path d="M126.623882,65.7191423 C126.623882,73.6166694 120.221223,80.0169445 112.323696,80.0169445 C104.426169,80.0169445 98.028278,73.6166694 98.028278,65.7191423 C98.028278,57.8228073 104.426169,51.4225322 112.323696,51.4225322 C120.221223,51.4225322 126.623882,57.8228073 126.623882,65.7191423" id="Fill-179" fill="#B4B7C1"></path>
                        <path d="M47.32079,65.7191423 C47.32079,73.6166694 40.9181307,80.0169445 33.0206037,80.0169445 C25.1230766,80.0169445 18.7251856,73.6166694 18.7251856,65.7191423 C18.7251856,57.8228073 25.1230766,51.4225322 33.0206037,51.4225322 C40.9181307,51.4225322 47.32079,57.8228073 47.32079,65.7191423" id="Fill-181" fill="#B4B7C1"></path>
                        <polygon id="Fill-183" fill="#C24B33" points="73.6121046 43.8420983 84.1202858 43.8420983 84.1202858 40.2277131 73.6121046 40.2277131"></polygon>
                        <path d="M103.697808,30.0700032 C103.697808,30.0700032 93.0716112,10.991962 72.6071815,6.14496657 L72.6071815,30.0700032 L103.697808,30.0700032" id="Fill-186" fill="#F2F4F9"></path>
                        <path d="M65.3867556,5.09236032 C54.3814772,4.48559183 46.3635501,4.50824134 39.498364,6.31901018 L39.498364,30.0700032 L66.695659,30.0700032 L66.695659,5.20083956 C66.26055,5.16388509 65.8302092,5.11620191 65.3867556,5.09236032" id="Fill-187" fill="#F2F4F9"></path>
                        <path d="M10.5558645,30.0700032 L33.5868415,30.0700032 L33.5868415,8.46594546 C26.073164,12.0111901 19.4106314,18.559283 10.5558645,30.0700032" id="Fill-188" fill="#F2F4F9"></path>
                    </g>
                </g>
                <g id="Group-293" mask="url(#mask-2)">
                    <g transform="translate(24.266592, 14.136425)">
                        <mask id="mask-4" fill="white">
                            <use xlink:href="#path-3"></use>
                        </mask>
                        <g id="Clip-281" stroke="none" fill="none"></g>
                        <g id="Group-5" stroke="none" stroke-width="1" fill="none" fill-rule="evenodd" mask="url(#mask-4)">
                            <g transform="translate(20.293363, 14.443732)">
                                <g id="Rectangle-21" stroke="none" fill="none" transform="translate(8.104136, 38.473920) rotate(-13.000000) translate(-8.104136, -38.473920) ">
                                    <use fill="#F8CFA4" fill-rule="evenodd" xlink:href="#path-5"></use>
                                    <rect stroke="#42475F" stroke-width="1" x="5.10413627" y="33.4739201" width="6" height="10" rx="3"></rect>
                                </g>
                                <g id="Rectangle-21-Copy" stroke="none" fill="none" transform="translate(37.767554, 38.473920) scale(-1, 1) rotate(-13.000000) translate(-37.767554, -38.473920) ">
                                    <use fill="#F8CFA4" fill-rule="evenodd" xlink:href="#path-6"></use>
                                    <rect stroke="#42475F" stroke-width="1" x="34.767554" y="33.4739201" width="6" height="10" rx="3"></rect>
                                </g>
                                <mask id="mask-8" fill="white">
                                    <use xlink:href="#path-7"></use>
                                </mask>
                                <use id="Fill-280" stroke="#42475F" stroke-width="3" fill="#42475F" fill-rule="evenodd" xlink:href="#path-7"></use>
                            </g>
                        </g>
                        <path d="M52.3494452,73.5352156 C53.7740617,76.8922377 60.7683173,81.1038269 64.6000445,81.2221272 C68.7355428,81.3509543 69.7982406,80.8627661 70.2253248,88.1607928 C70.6092995,94.7369871 70.8689587,96.7901994 70.8689587,96.7901994 L15.6156932,96.6192654 C15.6156932,96.6192654 14.7484661,87.1586721 17.7430682,84.7079508 C21.1226475,81.941929 31.0418539,82.4483424 33.764265,73.0204087 C35.4500445,67.1825889 34.5968787,53.1754794 34.5968787,53.1754794 L51.1980222,58.0869476 C51.1980222,58.0869476 50.3197927,68.7475617 52.3494452,73.5352156 Z" id="Fill-283" stroke="#42475F" stroke-width="2" fill="#EDBE8D" fill-rule="evenodd" mask="url(#mask-4)"></path>
                        <path d="M52.6747711,74.9778523 C52.5464453,74.7893738 52.4371679,74.5918725 52.3494452,74.3848469 C51.8180963,73.1311643 51.4857526,71.3576621 51.2852436,69.4237527 C51.6737298,72.4639706 52.3479414,74.2500046 52.6747711,74.9778523 M51.0090425,63.2139886 C51.0090425,62.598426 51.015559,62.0059219 51.0260857,61.4485068 C51.0466379,61.4334686 51.0676913,61.4184305 51.0882435,61.4033923 C51.0867397,61.4284559 51.0852359,61.4540208 51.0837321,61.4795857 C51.0481417,62.0791076 51.0235794,62.6570749 51.0090425,63.2139886 M34.8124259,60.8169034 L34.8013979,60.6986031 C34.805408,60.7016107 34.8084157,60.7041171 34.8124259,60.7071247 C34.8124259,60.7432164 34.8124259,60.7808118 34.8124259,60.8169034" id="Fill-285" stroke="none" fill="#47271B" fill-rule="evenodd" mask="url(#mask-4)"></path>
                        <path d="M58.8554613,45.2412597 C58.7348191,45.6575917 58.1061885,53.5372797 58.0759999,54.1341931 C58.0458113,54.7311064 57.1486652,62.1541368 55.9776045,64.1431685 C54.302853,66.9908977 46.5527297,70.68678 43.1220205,70.8852839 C40.1840623,71.0567191 31.7306536,65.8745638 30.8764853,64.5832857 C29.575731,62.6138271 28.6073391,59.1962857 28.3184253,55.670528 C28.0295116,52.1447704 26.9046257,47.1186144 26.3764013,45.2412597 C24.7828559,39.5693611 28.4322291,28.621146 30.7190344,25.7323124 C33.0073435,22.8429776 55.8889305,19.8107801 58.8554613,27.4812522 C58.8554613,27.4812522 61.4229792,36.3812678 58.8554613,45.2412597 Z" id="Fill-288" stroke="#42475F" stroke-width="2" fill="#F8CFA4" fill-rule="evenodd" mask="url(#mask-4)"></path>
                        <path d="M58.2704763,31.9049823 C59.978813,37.1232293 59.6945915,38.7704108 59.6945915,38.7704108 C59.6945915,38.7704108 66.3514907,30.9500581 56.9576435,24.359327 C47.5647989,17.7685958 40.0522276,21.7431856 40.0522276,21.7431856 L52.862247,22.5682802 C52.862247,22.5682802 56.5621395,26.6867353 58.2704763,31.9049823 Z" id="Fill-289" stroke="none" fill="#42475F" fill-rule="evenodd" mask="url(#mask-4)"></path>
                        <path d="M26.0952197,80.176524 C26.0952197,80.176524 29.0372651,88.6173752 43.6147714,88.4920571 C58.3506799,88.3662377 61.0982315,79.2837577 61.0982315,79.2837577 C61.0982315,79.2837577 75.8218531,84.2957766 76.4614768,89.0328019 C77.1031056,93.7703286 83.1698136,126.279286 83.1698136,126.279286 L3.20455835,126.279286 C3.20455835,126.279286 7.35038997,91.711101 9.2727701,88.8277815 C11.1314886,86.0341897 26.0952197,80.176524 26.0952197,80.176524 Z" id="Fill-291" stroke="#42475F" stroke-width="3" fill="#06AE8F" fill-rule="evenodd" mask="url(#mask-4)"></path>
                        <path d="M55.3189912,31.7955164 C50.9847345,36.9175191 45.6629952,37.2378322 45.6629952,37.2378322 C45.6629952,37.2378322 49.9987472,33.8261714 50.4304282,29.7297723 C48.8093814,31.6601728 47.7266895,35.9340224 39.7326155,38.7667134 C34.7677856,40.5256787 29.792309,42.7243855 27.0165822,44.6895926 C24.2408555,46.6547997 28.06787,38.8381232 27.0165822,30.8809231 C25.0640482,16.0848619 57.5830732,21.5364729 57.5830732,21.5364729 C57.5830732,21.5364729 59.6522508,26.6760201 55.3189912,31.7955164 Z" id="Fill-292" stroke="#42475F" stroke-width="3" fill="#42475F" fill-rule="evenodd" mask="url(#mask-4)"></path>
                    </g>
                </g>
                <path d="M79.0757272,64.053929 C77.5093291,65.387402 72.7558789,65.518364 71.1132422,63.7700223 C69.4729441,62.0202774 68.9860464,59.2635289 69.806897,58.4342593 C70.9687164,57.2593437 76.0650061,56.8000415 79.0294228,57.4805758 C81.8076865,58.1180798 80.6425931,62.7199883 79.0757272,64.053929 Z M64.422491,62.2415095 C63.3060406,64.7812354 62.3883717,65.1273491 59.1957071,65.2798262 C56.0025747,65.4318355 53.1766034,63.38462 54.1499312,58.4122764 C54.363212,57.327631 58.9515566,57.0058388 62.0478707,57.3987246 C65.4706541,57.8323021 65.5417478,59.6999127 64.422491,62.2415095 Z M67.3013148,57.9763603 C65.4542839,58.0993709 64.2770297,56.1564572 59.0605356,56.1110883 C53.8426384,56.0652516 51.865581,57.5530726 51.865581,57.5530726 L51.7355546,59.4875673 C51.7355546,59.4875673 51.9334006,59.6030944 52.3618332,60.5352627 C52.9881118,61.8982022 53.4113995,66.0880483 59.3000089,66.0885161 C64.2812392,66.0899192 64.8813255,63.7723609 65.8373475,61.5595721 C66.7933696,59.3477187 67.9982193,60.4562178 68.7072846,61.9819243 C69.417753,63.5085661 69.4808954,65.9598927 75.4532269,66.0525015 C80.158034,66.1259337 81.0551232,63.3593631 82.1603483,61.1741698 C82.6846637,60.1344257 82.8862515,59.877179 82.8862515,59.877179 L82.8240446,57.8079806 C82.8240446,57.8079806 80.3853465,55.957208 74.8433185,56.3248368 C69.2984841,56.6919979 69.7376743,57.8159319 67.3013148,57.9763603 Z" id="Fill-39" stroke="#42475F" stroke-width="0.5" fill="#42475F" mask="url(#mask-2)"></path>
                <g id="car-key-(1)" transform="translate(82.000000, 87.875947)" fill-rule="nonzero" fill="#42475F">
                    <path d="M54.1134358,2.00436259 C54.0687268,1.06685528 53.3188696,0.317104307 52.3814685,0.272395361 L46.974872,0.0149737801 C46.4616218,-0.00913294386 45.9636639,0.183402256 45.6010011,0.546065085 L43.1810896,2.96608281 C42.7912403,3.35593208 42.5990237,3.90146618 42.6583878,4.44954901 L42.8423211,6.14519686 L41.5519211,5.83117226 C40.9344916,5.68111587 40.28361,5.86345616 39.8342904,6.31288195 L37.8262109,8.32096144 C37.3201821,8.82699024 37.1575945,9.58247586 37.4105558,10.2518357 L38.2317774,12.4250515 L35.8720796,11.6704155 C35.222791,11.4625879 34.5119081,11.6350519 34.0301984,12.1171864 L32.162299,13.9850858 C31.6975808,14.4498039 31.5193822,15.1287215 31.6959879,15.761762 L31.9848438,16.7966519 L31.1329313,16.4908045 C30.4691999,16.2527108 29.7285818,16.4186967 29.2303054,16.9169732 L26.4465629,19.7006095 C26.1051395,20.0420329 25.9132415,20.5050519 25.9132415,20.9878236 C25.9132415,21.4705952 26.1050333,21.9336143 26.4465629,22.2750377 L32.110581,27.9390558 C32.4661287,28.2946035 32.932015,28.4723773 33.3977951,28.4723773 C33.8635753,28.4723773 34.329674,28.2947097 34.6850092,27.9390558 L53.839766,8.78472383 C54.2024289,8.422061 54.3952827,7.92314739 54.3709635,7.41085296 L54.1134358,2.00436259 Z" id="Shape"></path>
                    <path d="M53.8395536,8.78483003 C54.2022165,8.4221672 54.3950703,7.92325359 54.3707511,7.41095916 L54.1133296,2.00436259 C54.091453,1.54622864 53.9004045,1.13365321 53.6020971,0.825469449 L31.5601619,22.8674047 L35.6585173,26.9657601 L53.8395536,8.78483003 Z" id="Shape"></path>
                    <path d="M30.4174819,16.3874748 C29.9779325,16.4117939 29.552932,16.594028 29.230093,16.9169732 L26.4463505,19.7006095 C26.1049271,20.0420329 25.9130291,20.5050519 25.9130291,20.9878236 C25.9130291,21.4705952 26.1048209,21.9336143 26.4463505,22.2750377 L32.1103687,27.9390558 C32.4659163,28.2946035 32.9318026,28.4723773 33.3975828,28.4723773 C33.8633629,28.4723773 34.3294616,28.2947097 34.6847969,27.9390558 L38.3269299,24.2969228 L30.4174819,16.3874748 Z" id="Shape"></path>
                    <g id="Group" transform="translate(0.000000, 3.823093)">
                        <path d="M32.6791599,17.8399315 L32.6791599,17.8399315 C32.1271478,17.2879194 32.1271478,16.3931032 32.6791599,15.8411973 L48.1023657,0.417991477 C48.6543779,-0.134020641 49.549194,-0.134020641 50.1010999,0.417991477 L50.1010999,0.417991477 C50.653112,0.970003596 50.653112,1.8648197 50.1010999,2.41672562 L34.677894,17.8399315 C34.1260943,18.3919436 33.231172,18.3919436 32.6791599,17.8399315 Z" id="Shape"></path>
                        <path d="M36.5677762,23.4243019 L30.1971231,17.0536487 C24.6245406,11.48096 15.5569079,11.4810662 9.98432539,17.0536487 L1.54102498,25.4969491 C0.547233253,26.4906347 0,27.8118318 0,29.217137 C0,30.6224422 0.547233253,31.9436393 1.54091878,32.9371125 L11.8650746,43.2613745 C12.8588664,44.25506 14.1798511,44.8021871 15.5850501,44.8021871 C16.9903553,44.8021871 18.3115524,44.2549539 19.3050256,43.2612683 L36.56767,25.9989424 C36.9090935,25.657519 37.1009915,25.1945 37.1009915,24.7117283 C37.1010977,24.2288505 36.9093059,23.7657253 36.5677762,23.4243019 Z M18.9537258,34.4734648 L17.473127,35.9540637 C16.4068027,37.0203879 14.6777028,37.0203879 13.6113785,35.9540637 L8.84854824,31.1912334 C7.78222394,30.1249091 7.78222394,28.3958092 8.84854824,27.3294849 L10.3291471,25.8488861 C11.3954714,24.7825618 13.1245713,24.7825618 14.1908956,25.8488861 L18.9537258,30.6117163 C20.0200501,31.6780406 20.0200501,33.4069281 18.9537258,34.4734648 Z" id="Shape"></path>
                    </g>
                </g>
            </g>
        </g>
    </g>
</svg>