
<svg width="141px" height="136px" viewBox="0 0 141 136" version="1.1" xmlns="http://www.w3.org/2000/svg" xmlns:xlink="http://www.w3.org/1999/xlink">
    <!-- Generator: Sketch 46.2 (44496) - http://www.bohemiancoding.com/sketch -->
    <desc>Created with Sketch.</desc>
    <defs>
        <path d="M134.667773,80.7114361 C134.31134,82.5244354 133.883374,84.3096847 133.385724,86.0653341 C129.228775,100.728429 120.242095,113.361457 108.253483,122.129221 C107.593033,122.610221 107.200833,122.88772 106.804317,123.163987 C95.9109043,130.700268 82.6914259,135.118066 68.4377978,135.118066 C31.1578449,135.118066 0.936872803,104.898327 0.936872803,67.6177576 C0.936872803,30.3378047 31.1578449,0.118065908 68.4377978,0.118065908 C104.935201,0.118065908 134.667773,29.0828885 135.896173,65.2805918 C135.925156,66.0557415 135.936256,66.8370579 135.936256,67.6177576 C135.936256,72.0984559 135.50089,76.476171 134.667773,80.7114361 Z" id="path-1"></path>
        <rect id="path-3" x="46.9990351" y="52.3007661" width="7" height="11" rx="3"></rect>
        <rect id="path-4" x="81.5059345" y="52.3007661" width="7" height="11" rx="3"></rect>
    </defs>
    <g id="App" stroke="none" stroke-width="1" fill="none" fill-rule="evenodd">
        <g id="Разводящий-экран" transform="translate(-120.000000, -402.000000)">
            <g id="illustration-master" transform="translate(119.250000, 402.000000)">
                <g id="Group-18" transform="translate(0.563436, 0.345598)">
                    <mask id="mask-2" fill="white">
                        <use xlink:href="#path-1"></use>
                    </mask>
                    <use id="Fill-39" fill="#F2F6FB" xlink:href="#path-1"></use>
                    <g id="Rectangle-21" mask="url(#mask-2)" transform="translate(50.499035, 57.800766) rotate(-13.000000) translate(-50.499035, -57.800766) ">
                        <use fill="#F8CFA4" fill-rule="evenodd" xlink:href="#path-3"></use>
                        <rect stroke="#42475F" stroke-width="1" x="47.4990351" y="52.8007661" width="6" height="10" rx="3"></rect>
                    </g>
                    <g id="Rectangle-21-Copy" mask="url(#mask-2)" transform="translate(85.005935, 57.800766) scale(-1, 1) rotate(-13.000000) translate(-85.005935, -57.800766) ">
                        <use fill="#F8CFA4" fill-rule="evenodd" xlink:href="#path-4"></use>
                        <rect stroke="#42475F" stroke-width="1" x="82.0059345" y="52.8007661" width="6" height="10" rx="3"></rect>
                    </g>
                    <g id="Group-4" mask="url(#mask-2)">
                        <g transform="translate(-38.025032, 43.998359)">
                            <path d="M66.959901,19.4739472 C66.959901,8.89037393 58.3824982,0.311542986 47.7989249,0.311542986 C37.2153516,0.311542986 28.6260471,8.89037393 28.6260471,19.4739472 C28.6260471,30.0594248 37.2153516,38.6368276 47.7989249,38.6368276 C58.3824982,38.6368276 66.959901,30.0594248 66.959901,19.4739472" id="Fill-227" fill="#B4B7C1"></path>
                            <path d="M61.0732614,19.4739472 C61.0732614,12.1395705 55.1271128,6.19961075 47.7989249,6.19961075 C40.4588353,6.19961075 34.5245885,12.1395705 34.5245885,19.4739472 C34.5245885,26.8040394 40.4588353,32.7482837 47.7989249,32.7482837 C55.1271128,32.7482837 61.0732614,26.8040394 61.0732614,19.4739472" id="Fill-228" fill="#F2F4F9"></path>
                            <path d="M55.8117054,27.4938688 C56.7605184,26.5436276 56.7605184,25.002104 55.8117054,24.0518628 C54.8628924,23.1006694 53.3251774,23.1006694 52.3758884,24.0518628 C51.4151735,25.002104 51.4151735,26.5436276 52.3758884,27.4938688 C53.3251774,28.44411 54.8628924,28.44411 55.8117054,27.4938688" id="Fill-229" fill="#A2A5B2"></path>
                            <path d="M43.2219615,14.8965077 C44.1707745,13.9467426 44.1707745,12.405219 43.2219615,11.4549778 C42.2607706,10.5047366 40.7230557,10.5047366 39.7742427,11.4549778 C38.8254297,12.405219 38.8254297,13.9467426 39.7742427,14.8965077 C40.7230557,15.8481772 42.2607706,15.8481772 43.2219615,14.8965077" id="Fill-230" fill="#A2A5B2"></path>
                            <path d="M55.8117054,14.8965077 C56.7605184,13.9467426 56.7605184,12.405219 55.8117054,11.4549778 C54.8628924,10.5047366 53.3251774,10.5047366 52.3758884,11.4549778 C51.4151735,12.405219 51.4151735,13.9467426 52.3758884,14.8965077 C53.3251774,15.8481772 54.8628924,15.8481772 55.8117054,14.8965077" id="Fill-231" fill="#A2A5B2"></path>
                            <path d="M43.2219615,27.4938688 C44.1707745,26.5436276 44.1707745,25.002104 43.2219615,24.0518628 C42.2607706,23.1006694 40.7230557,23.1006694 39.7742427,24.0518628 C38.8254297,25.002104 38.8254297,26.5436276 39.7742427,27.4938688 C40.7230557,28.44411 42.2607706,28.44411 43.2219615,27.4938688" id="Fill-232" fill="#A2A5B2"></path>
                            <path d="M50.2254677,28.3812684 C50.2254677,27.037315 49.1324047,25.9475845 47.7989249,25.9475845 C46.4535433,25.9475845 45.3604803,27.037315 45.3604803,28.3812684 C45.3604803,29.7256978 46.4535433,30.8149523 47.7989249,30.8149523 C49.1324047,30.8149523 50.2254677,29.7256978 50.2254677,28.3812684" id="Fill-233" fill="#A2A5B2"></path>
                            <path d="M50.2254677,10.5671022 C50.2254677,9.22314879 49.1324047,8.13341826 47.7989249,8.13341826 C46.4535433,8.13341826 45.3604803,9.22314879 45.3604803,10.5671022 C45.3604803,11.9115316 46.4535433,13.0012621 47.7989249,13.0012621 C49.1324047,13.0012621 50.2254677,11.9115316 50.2254677,10.5671022" id="Fill-234" fill="#A2A5B2"></path>
                            <path d="M59.1389778,19.4739472 C59.1389778,18.130946 58.0459148,17.0412155 56.7005332,17.0412155 C55.3551516,17.0412155 54.2620886,18.130946 54.2620886,19.4739472 C54.2620886,20.8179006 55.3551516,21.9076311 56.7005332,21.9076311 C58.0459148,21.9076311 59.1389778,20.8179006 59.1389778,19.4739472" id="Fill-235" fill="#A2A5B2"></path>
                            <path d="M41.3238595,19.4739472 C41.3238595,18.130946 40.2307964,17.0412155 38.8854148,17.0412155 C37.5395572,17.0412155 36.458872,18.130946 36.458872,19.4739472 C36.458872,20.8179006 37.5395572,21.9076311 38.8854148,21.9076311 C40.2307964,21.9076311 41.3238595,20.8179006 41.3238595,19.4739472" id="Fill-236" fill="#A2A5B2"></path>
                            <path d="M28.5503515,54.9070898 L28.5503515,40.4121028 C28.5503515,39.7113237 29.1183063,39.1428929 29.8195615,39.1428929 L65.7663866,39.1428929 C66.4671657,39.1428929 67.0355965,39.7113237 67.0355965,40.4121028 L67.0355965,54.9070898 C67.0355965,55.608345 66.4671657,56.1767759 65.7663866,56.1767759 L29.8195615,56.1767759 C29.1183063,56.1767759 28.5503515,55.608345 28.5503515,54.9070898" id="Fill-246" fill="#B4B7C1"></path>
                            <path d="M28.5503515,72.1618706 L28.5503515,57.6673596 C28.5503515,56.9661045 29.1183063,56.3976736 29.8195615,56.3976736 L65.7663866,56.3976736 C66.4671657,56.3976736 67.0355965,56.9661045 67.0355965,57.6673596 L67.0355965,72.1618706 C67.0355965,72.8631257 66.4671657,73.4315566 65.7663866,73.4315566 L29.8195615,73.4315566 C29.1183063,73.4315566 28.5503515,72.8631257 28.5503515,72.1618706" id="Fill-247" fill="#B4B7C1"></path>
                        </g>
                    </g>
                    <path d="M97.0997687,87.0028605 L89.27976,84.567323 L85.4124895,83.3648795 L84.3544571,83.0336181 C84.3544571,83.0336181 83.16616,82.250851 80.942229,81.374364 C78.1170762,80.2591566 73.6214701,78.9983592 67.7524848,78.9983592 C61.8834996,78.9983592 57.3861251,80.2621038 54.5633301,81.374364 C52.3376308,82.250851 51.1493336,83.0336181 51.1493336,83.0336181 L50.0907118,83.3648795 L38.4052009,87.0028605 C30.7573066,90.5589104 29.8666732,94.2935584 29.8666732,94.2935584 L24.974968,121.932022 C36.3622258,132.024295 51.3397205,138.156168 67.7524848,138.156168 C84.1646597,138.156168 99.1427438,132.021938 110.529412,121.929664 L105.638296,94.2935584 C105.638296,94.2935584 104.747663,90.5589104 97.0997687,87.0028605 Z" id="Fill-54" stroke="#42475F" stroke-width="3" fill="#77829E" mask="url(#mask-2)"></path>
                    <path d="M89.6534606,135.15985 L89.6534606,84.8178441 L89.27976,84.6948953 L85.4124895,83.4470572 L84.3544571,83.10329 C84.3544571,83.10329 83.16616,82.2909719 80.942229,81.3813957 C80.7848504,81.3171688 80.620988,81.2523301 80.4553573,81.1881032 L80.4553573,102.685785 L55.0490229,102.685785 L55.0490229,81.1881032 C54.8833922,81.2523301 54.7189404,81.3171688 54.5633301,81.3813957 C52.3376308,82.2909719 51.1493336,83.10329 51.1493336,83.10329 L50.0907118,83.4470572 L45.8515091,84.8147857 L45.8515091,135.15985 C52.687754,137.720365 60.0621513,139.118066 67.7524848,139.118066 C75.44105,139.118066 82.8166262,136.682613 89.6534606,134.122098 L89.6534606,135.15985 Z" id="Fill-55" stroke="#42475F" stroke-width="2" fill="#06AE8F" mask="url(#mask-2)"></path>
                    <path d="M85.716637,56.4184776 C86.2642751,50.7014844 86.2589154,47.3953149 85.716637,45.0033954 C85.716637,45.0033954 85.8958246,29.3150444 67.7524848,29.3150444 C49.6097344,29.3150444 49.7877432,45.0033954 49.7877432,45.0033954 C49.243107,47.3953149 49.3010779,53.0088212 49.7877432,57.253495 C50.2744085,61.4981688 52.1020892,65.1890226 52.1020892,65.1890226 C53.5238018,75.7540212 58.1476727,77.3414628 58.1476727,77.3414628 C58.2154575,77.3874386 58.2861895,77.4457925 58.356332,77.4947154 L58.356332,81.4875352 C58.356332,81.4875352 62.5749046,92.5152388 67.7524848,92.5152388 C72.930065,92.5152388 77.1492271,81.4875352 77.1492271,81.4875352 L77.1492271,77.4947154 C77.2187802,77.4457925 77.2877439,77.3874386 77.3561181,77.3414628 C77.3561181,77.3414628 82.5160153,74.1390729 83.9377279,63.5740742 C83.9377279,63.5740742 85.1689989,62.1354707 85.716637,56.4184776 Z" id="Fill-57" stroke="#42475F" stroke-width="2" fill="#FFD9B0" stroke-linecap="round" stroke-linejoin="round" mask="url(#mask-2)"></path>
                    <path d="M49.5590432,53.1010272 C49.5590432,53.1010272 45.3180721,38.2608703 55.0059943,33.4068889 C55.0059943,33.4068889 52.8433643,50.6607742 49.5590432,53.1010272" id="Fill-58" fill="#42475F" mask="url(#mask-2)"></path>
                    <path d="M86.201151,53.1010272 C86.201151,53.1010272 90.4415326,38.2608703 80.753021,33.4068889 C80.753021,33.4068889 82.915651,50.6607742 86.201151,53.1010272" id="Fill-59" fill="#42475F" mask="url(#mask-2)"></path>
                    <path d="M67.7524848,21.5474952 C67.7524848,21.5474952 47.9145249,22.210018 48.5782265,43.0989371 C48.5782265,43.0989371 51.6680348,51.0592309 67.7524848,50.5057533 C83.8369349,51.0592309 86.9255642,43.0989371 86.9255642,43.0989371 C87.5886765,22.210018 67.7524848,21.5474952 67.7524848,21.5474952" id="Fill-60" stroke="#42475F" stroke-width="3" fill="#06AE8F" mask="url(#mask-2)"></path>
                    <path d="M67.7524848,50.5057533 C81.9472124,50.9938039 86.0172479,44.857216 86.7799743,43.4072106 L48.7249954,43.4072106 C49.4871323,44.857216 53.5577572,50.9938039 67.7524848,50.5057533" id="Fill-61" stroke="#42475F" stroke-width="2" fill="#69C9B7" mask="url(#mask-2)"></path>
                    <path d="M83.483275,62.6940506 C82.598536,64.1770643 81.7191018,65.6671511 80.7376957,67.0900426 C79.8158224,68.4233402 78.7843145,69.6717595 77.664981,70.8453208 C77.4463014,70.9349146 77.1822353,71.0068255 77.0938204,71.0498541 C76.7212987,71.2202002 76.3328623,71.4288595 75.9090599,71.4094083 C75.4445866,71.3917253 75.3667814,70.8217435 75.2253175,70.4881243 C75.0166582,69.9912322 74.7136896,69.5108443 74.4348877,69.0516759 C74.1360451,68.5642147 73.806552,68.0920788 73.4204734,67.6706342 C72.8587436,67.055266 72.1838428,66.5695732 71.4405676,66.1999986 C70.8251995,65.8934934 70.1762337,65.6571308 69.5154792,65.4732276 C69.0622051,65.3482678 68.5977319,65.2439382 68.129722,65.1914786 C68.0012256,65.1779217 67.8762658,65.1761534 67.7524848,65.1749745 C67.6263461,65.1761534 67.5031546,65.1779217 67.3752476,65.1914786 C66.9072378,65.2439382 66.4427645,65.3482678 65.988901,65.4732276 C65.3281465,65.6571308 64.6780018,65.8934934 64.0638126,66.1999986 C63.319948,66.5695732 62.646226,67.055266 62.0839068,67.6706342 C61.6978282,68.0920788 61.3653879,68.5642147 61.0689031,69.0516759 C60.7906906,69.5108443 60.4859537,69.9912322 60.2778839,70.4881243 C60.1364199,70.8217435 60.060383,71.3917253 59.5953203,71.4094083 C59.1721074,71.4288595 58.7824921,71.2202002 58.4099704,71.0498541 C58.320966,71.0068255 58.0592577,70.9349146 57.8382203,70.8453208 C56.7182974,69.6717595 55.6879684,68.4233402 54.7660951,67.0900426 C53.784689,65.6671511 52.9052548,64.1770643 52.0205157,62.6940506 C51.7525202,62.2437238 51.3442395,65.7441704 50.7956738,73.1953905 C51.9939913,75.2501542 57.4745401,80.044603 57.4745401,80.044603 C62.7476085,85.7674088 66.843579,85.7220224 67.7524848,85.6294815 C68.6608012,85.7220224 72.754414,85.7674088 78.0292507,80.044603 C78.0292507,80.044603 83.5103889,75.2501542 84.7075275,73.1953905 C84.1585689,65.7441704 83.7504847,62.2437238 83.483275,62.6940506 Z M69.8632447,72.8835804 C69.1924698,72.5576239 68.4598045,72.7827873 67.7524848,72.7827873 C67.0439863,72.7827873 66.3113209,72.5576239 65.6381883,72.8835804 C65.0387349,73.1718132 64.5943023,73.7052501 63.9748082,73.9651901 C63.3841962,74.2109837 62.7552711,74.2946832 62.1298826,74.1343574 C61.8711215,74.0683409 61.620023,73.9710844 61.377766,73.8537873 C61.4367093,73.0162028 62.0974638,70.6054215 67.7524848,70.5270269 C73.4069164,70.6054215 74.0676709,73.0162028 74.1272036,73.8537873 C73.8819995,73.9710844 73.6320799,74.0683409 73.3739082,74.1343574 C72.7473408,74.2946832 72.1207734,74.2109837 71.5283932,73.9651901 C70.9077201,73.7052501 70.4650559,73.1718132 69.8632447,72.8835804 Z" id="Fill-62" fill="#42475F" mask="url(#mask-2)"></path>
                </g>
                <g id="Group-2" transform="translate(116.227756, 106.142347) rotate(42.000000) translate(-116.227756, -106.142347) translate(90.727756, 81.142347)" fill="#42475F">
                    <g id="Group-6" transform="translate(0.979096, 0.465488)">
                        <path d="M32.533583,20.6321905 C32.533583,18.0528313 31.0181506,15.8300791 28.8295855,14.7997501 L28.8295855,20.5673528 C28.8295855,21.4078844 28.1482009,22.0892691 27.3082587,22.0892691 L24.8762578,22.0892691 C24.0369051,22.0892691 23.354931,21.4078844 23.354931,20.5673528 L23.354931,14.7997501 C21.1669554,15.8300791 19.6503441,18.0528313 19.6503441,20.6321905 C19.6503441,23.3795381 21.373257,25.7237135 23.7934692,26.6491234 L23.7934692,37.9962998 C24.5408704,38.121849 25.3089017,38.1908127 26.0928477,38.1908127 C26.8756149,38.1908127 27.6436462,38.121849 28.3910473,37.9962998 L28.3910473,26.6491234 C30.8136173,25.7237135 32.533583,23.3795381 32.533583,20.6321905" id="Fill-63"></path>
                        <path d="M44.6844246,21.5847143 C44.5783267,20.8715003 44.4368627,20.1712538 44.2564962,19.4827959 C45.3204229,18.9817778 47.2855928,17.9131356 47.6427893,16.7242491 L46.5423177,14.0682636 C46.5423177,14.0682636 44.2936305,13.7417177 42.2064479,14.5368629 C41.8127066,13.8643198 41.3800628,13.2188905 40.910874,12.5999858 C41.6211409,11.8502269 43.3352123,9.88152041 43.2002321,8.52169828 L41.166688,6.489333 C41.166688,6.489333 38.7535489,7.10293284 37.1166932,8.80108956 C36.4400241,8.28651448 35.7303466,7.81614687 34.9911975,7.39116562 C35.3454468,6.47165001 36.2278281,3.91704701 35.5658948,2.68690016 L32.9104987,1.58701802 C32.9104987,1.58701802 30.8457146,3.12956441 30.0081302,5.38650369 C29.283717,5.20613717 28.5410313,5.06290493 27.7853781,4.96682734 C27.8614149,2.57490787 26.5587678,0.381037926 26.5587678,0.381037926 L23.6841026,0.381037926 C22.5830416,1.28169168 22.4345045,4.06499471 22.4162321,4.99983559 C21.6476113,5.11005958 20.8954947,5.26449104 20.1592928,5.46018283 C19.3087408,3.22799973 17.2751967,1.70549407 17.2751967,1.70549407 L14.6186218,2.80714451 C13.951973,4.05202719 14.8602893,6.6514271 15.206876,7.54147106 C14.4789261,7.97352551 13.7804479,8.45096631 13.1155674,8.97261459 C11.4787117,7.23555528 9.01841802,6.60898791 9.01841802,6.60898791 L6.98546331,8.64312149 C6.84223107,10.0707284 8.7455105,12.175594 9.37502504,12.8263281 C8.93000306,13.4316759 8.5173999,14.0653165 8.14075216,14.720766 C6.01171985,13.8448685 3.64160941,14.188508 3.64160941,14.188508 L2.5405484,16.8444935 C2.92485878,18.121795 5.15763131,19.2564536 6.14434229,19.7032439 C5.97812216,20.3622301 5.85021518,21.0324155 5.75295872,21.7173368 C3.28736012,21.5581898 0.972066962,22.9339267 0.972066962,22.9339267 L0.972066962,25.8085918 C1.92341196,26.9727222 4.97785422,27.0729258 5.73350743,27.079999 C5.83253219,27.8279896 5.975175,28.5647809 6.15613095,29.2850682 C5.09043594,29.788444 3.14059129,30.8547285 2.78221597,32.0388996 L3.88150868,34.6931167 C3.88150868,34.6931167 6.09247218,35.0149472 8.16138231,34.2480948 C8.55630248,34.9347843 8.98894637,35.5943599 9.4599034,36.2226956 C8.71839658,37.0143042 7.093919,38.9175837 7.22713087,40.2414504 L9.25949615,42.2744051 C9.25949615,42.2744051 11.5930617,41.6802565 13.225202,40.0492952 C13.9160175,40.5774272 14.633947,41.0637095 15.3884214,41.49989 C15.0111842,42.5060523 14.2284171,44.8991506 14.8602893,46.0768379 L17.5174537,47.1767201 C17.5174537,47.1767201 19.4908757,45.7007796 20.3608789,43.5257715 C21.1112272,43.7167479 21.8786691,43.865285 22.6608468,43.9666675 C22.685603,44.9751875 22.857128,47.6264575 23.9257702,48.5017656 L26.8010248,48.5017656 C26.8010248,48.5017656 28.0960093,46.3190949 28.0282245,43.9336592 C28.7838777,43.8275613 29.5236162,43.6766664 30.2462612,43.486869 C31.0791301,45.7491131 33.1515769,47.2999116 33.1515769,47.2999116 L35.8099201,46.1988506 C36.4871787,44.9315694 35.5352443,42.2643847 35.2016251,41.4191377 C35.9260384,40.9906198 36.6233377,40.5178945 37.2817345,40.0033194 C38.9215374,41.7621877 41.4095344,42.3964177 41.4095344,42.3964177 L43.4401314,40.3622842 C43.5863108,38.923478 41.6547386,36.8009295 41.0376021,36.1643417 C41.4861607,35.5619411 41.8993533,34.9318371 42.2742327,34.2787453 C44.4079805,35.1599477 46.7857536,34.8163083 46.7857536,34.8163083 L47.8862252,32.1597333 C47.5025042,30.8877367 45.2838781,29.7548463 44.2942199,29.3051089 C44.487554,28.537667 44.6378594,27.7531316 44.7374736,26.9526815 C45.7890222,26.9214415 48.3548245,26.7357701 49.213039,25.6883475 L49.213039,22.8130929 C49.213039,22.8130929 47.0521773,21.5298971 44.6844246,21.5847143 Z M25.0928477,38.1324588 C17.532779,38.1324588 11.4032643,32.0023547 11.4032643,24.4434648 C11.4032643,16.8816277 17.532779,10.7538814 25.0928477,10.7538814 C32.6535059,10.7538814 38.7812523,16.8816277 38.7812523,24.4434648 C38.7812523,32.0023547 32.6535059,38.1324588 25.0928477,38.1324588 L25.0928477,38.1324588 Z" id="Fill-65"></path>
                    </g>
                </g>
            </g>
        </g>
    </g>
</svg>