
<svg width="192px" height="143px" viewBox="0 0 192 143" version="1.1" xmlns="http://www.w3.org/2000/svg" xmlns:xlink="http://www.w3.org/1999/xlink">
    <!-- Generator: Sketch 46.2 (44496) - http://www.bohemiancoding.com/sketch -->
    <desc>Created with Sketch.</desc>
    <defs>
        <polygon id="path-1" points="108.141808 0.159135792 0.595482205 0.159135792 0.595482205 88.9187938 108.141808 88.9187938 108.141808 0.159135792"></polygon>
    </defs>
    <g id="App" stroke="none" stroke-width="1" fill="none" fill-rule="evenodd">
        <g id="Экран-загрузки" transform="translate(-91.000000, -252.000000)">
            <g id="Page-1" transform="translate(91.500000, 252.000000)">
                <path d="M88.8677131,112.995707 L88.8677131,121.675484 C91.0563214,121.526171 93.1604502,121.587075 95.1859935,121.192183 C97.1683146,120.805149 98.1152708,118.952494 97.912913,116.663689 C97.7400247,114.657792 96.4728323,113.148949 94.5887431,113.019283 C92.7125125,112.887652 90.8225294,112.995707 88.8677131,112.995707 M102.958107,127.186297 C104.702707,129.653885 106.419802,131.974124 108.017053,134.380807 C109.675209,136.877864 109.390336,139.457435 107.423732,141.025217 C105.256735,142.759994 102.09563,142.339561 100.415864,139.960383 C98.3451336,137.009494 96.3746003,134.003596 94.4276427,130.972158 C93.89719,130.137186 93.2960104,129.836596 92.3470895,129.903394 C91.2174219,129.972156 90.0877542,129.917146 88.7616226,129.917146 C88.7616226,132.431885 88.7694812,134.834639 88.7576933,137.231499 C88.7360823,139.736414 87.0956084,141.675513 84.7498289,142.003608 C82.1486464,142.361172 79.9443209,141.003606 79.2665204,138.573347 C79.127031,138.084152 79.1034553,137.541912 79.1034553,137.025212 C79.0897028,127.82677 79.0897028,118.624399 79.099526,109.422028 C79.099526,106.384695 81.0307665,104.471137 84.0798869,104.465243 C87.5887329,104.453455 91.1015081,104.361117 94.6064249,104.484889 C98.6241124,104.630272 102.246908,105.889606 104.944357,109.031065 C109.411947,114.227536 108.763616,122.170573 103.551428,126.62834 C103.368717,126.783546 103.209581,126.950541 102.958107,127.186297" id="Fill-1" fill="#282322"></path>
                <path d="M19.6218361,103.817108 C25.631668,103.966421 30.5039738,105.689409 34.2603643,109.923207 C36.8517237,112.834803 35.9420957,116.673708 32.4843303,117.663887 C30.5373726,118.217915 28.9636965,117.479211 27.6179185,116.105928 C25.9165408,114.351505 23.9283257,113.210049 21.45288,112.887848 C14.4960919,111.990008 9.13852021,117.192373 10.0304665,124.481185 C10.5098385,128.355454 12.5334171,131.235616 16.3251712,132.508702 C20.3271416,133.858409 23.932255,133.113811 27.1208647,130.225791 C28.1012198,129.335809 29.3330487,128.502802 30.5884533,128.174708 C32.2917956,127.72677 33.875295,128.471368 34.91066,129.972353 C35.9420957,131.459585 35.9460249,133.102023 35.0639018,134.669805 C33.6179272,137.255271 31.2859003,138.870204 28.6906116,140.131503 C17.6925602,145.502827 4.0383163,139.65606 0.743616016,128.18846 C-2.42927663,117.164868 4.89489909,105.823005 16.2701613,104.178602 C17.5314598,103.99982 18.81044,103.909446 19.6218361,103.817108" id="Fill-3" fill="#282322"></path>
                <path d="M60.3668857,128.896909 C59.1350568,125.382169 57.9641317,122.020671 56.6753283,118.315361 C55.3865248,122.022636 54.2038119,125.407709 52.9877001,128.896909 L60.3668857,128.896909 Z M68.6301591,142.026594 C66.25491,142.058028 64.7637487,140.724038 64.0957713,138.64545 C63.5535308,136.985329 62.6949834,136.533462 61.0309338,136.610083 C57.7696324,136.755467 54.4926139,136.674916 51.2214893,136.633659 C50.3865175,136.614013 49.9110748,136.836017 49.6969291,137.680812 C49.555475,138.223052 49.2764962,138.733858 49.0210931,139.234842 C47.7381836,141.771191 45.2607733,142.718147 42.6988835,141.682782 C40.3727504,140.737791 39.2863049,138.274133 40.3020234,135.641516 C42.015189,131.191608 43.8933843,126.802603 45.7126404,122.395917 C47.7990874,117.338935 49.9110748,112.289812 51.9719815,107.213184 C52.8305289,105.116914 54.24114,103.924377 56.573167,103.879191 C58.9798503,103.832039 60.490658,105.034399 61.3649225,107.156209 C65.2057926,116.445024 69.0564858,125.735804 72.8482399,135.054089 C74.3944111,138.851737 72.4356656,142.024629 68.6301591,142.026594 L68.6301591,142.026594 Z" id="Fill-5" fill="#282322"></path>
                <path d="M146.260331,113.822624 C143.217105,118.559369 140.171914,123.296115 137.126723,128.026967 C136.889001,128.390425 136.67682,128.751919 136.43517,129.107518 C134.806483,131.541707 132.97151,131.525989 131.368365,129.046614 C128.338891,124.355056 125.327098,119.651709 122.297624,114.958185 C122.052044,114.571151 121.776995,114.199834 121.254401,113.451307 L121.254401,115.333431 C121.246542,123.392382 121.254401,131.455262 121.246542,139.510284 C121.246542,141.286318 120.134556,142.345259 118.627678,141.989659 C117.52748,141.734256 116.951841,140.97394 116.951841,139.824626 C116.951841,128.539738 116.93023,117.254849 117.012744,105.966031 C117.012744,105.294124 117.680722,104.366814 118.299583,104.024967 C119.164025,103.549524 120.16992,103.916912 120.788781,104.785282 C121.61393,105.950314 122.387998,107.13892 123.150278,108.333421 C126.704311,113.812801 130.244591,119.305932 133.894891,124.962129 C134.637525,123.828532 135.329078,122.791203 135.997055,121.755838 C139.356588,116.541685 142.700405,111.325567 146.065832,106.115343 C146.42929,105.555421 146.739703,104.82654 147.268191,104.569172 C148.002966,104.19982 149.008862,103.914947 149.716132,104.142845 C150.240691,104.319663 150.568785,105.337346 150.814365,106.036758 C150.97743,106.502377 150.851694,107.072123 150.851694,107.596681 C150.851694,118.217522 150.851694,128.840327 150.8458,139.461168 C150.8458,141.245061 150.073696,142.097714 148.58057,142.021093 C147.281944,141.950366 146.551098,141.044667 146.551098,139.461168 C146.549133,131.445439 146.551098,123.431675 146.551098,115.415946 L146.551098,113.889421 C146.456795,113.865846 146.360528,113.848164 146.260331,113.822624" id="Fill-7" fill="#FEFEFE"></path>
                <path d="M174.588467,110.570556 C171.885123,117.25033 169.325198,123.586292 166.737768,129.963512 L182.226985,129.963512 C179.680812,123.497883 177.191614,117.181568 174.588467,110.570556 M159.639526,142.016574 C158.555045,142.002822 157.568796,140.611857 158.164081,139.034252 C159.063886,136.647215 160.089428,134.307329 161.093359,131.963515 C164.767234,123.364288 168.458792,114.768991 172.142491,106.16387 C172.199465,106.034204 172.252511,105.900608 172.307521,105.774871 C172.755458,104.735577 173.299663,103.845595 174.655265,103.87703 C175.946033,103.908464 176.441122,104.778799 176.863519,105.767013 C178.16804,108.804345 179.460773,111.851501 180.765293,114.886869 C184.042312,122.533245 187.313436,130.171763 190.58849,137.814211 C190.798707,138.289654 191.046251,138.767061 191.168059,139.26215 C191.425427,140.346631 191.085544,141.256259 190.067861,141.778853 C189.075718,142.291624 188.071787,142.169816 187.421491,141.232683 C186.830135,140.387888 186.435243,139.413427 185.987305,138.482188 C185.289858,137.040143 184.981409,135.028352 183.841918,134.283754 C182.692604,133.543085 180.724036,134.034245 179.124819,134.030315 C174.904774,134.014598 170.678834,134.05782 166.468612,133.992987 C165.409672,133.97727 164.847785,134.262143 164.468609,135.277861 C163.80849,137.048001 162.999059,138.759202 162.268213,140.499873 C161.859568,141.46844 161.207308,142.049973 159.639526,142.016574" id="Fill-9" fill="#FEFEFE"></path>
                <g id="Group-13" transform="translate(41.257428, 0.691221)">
                    <mask id="mask-2" fill="white">
                        <use xlink:href="#path-1"></use>
                    </mask>
                    <g id="Clip-12"></g>
                    <path d="M108.141808,43.9698087 C108.141808,43.6927946 108.096621,43.0307111 108.096621,43.0208879 C108.02393,40.7478001 107.652613,38.8637109 107.652613,38.8637109 C105.243965,25.5120215 93.6211582,15.527724 79.6997233,15.527724 C79.0612155,15.527724 78.4207431,15.5493351 77.7822353,15.5925571 C69.5012802,5.88723845 57.188885,0.158349936 44.4030117,0.158349936 C20.5562186,0.158349936 1.3381159,18.8499293 0.650492108,42.7281566 L0.630845714,43.183953 C0.61119932,43.4432854 0.595482205,43.7026178 0.595482205,43.9698087 L0.599411483,44.2703986 L0.603340762,44.6554679 L0.595482205,45.0994764 C0.595482205,45.2723647 0.615128599,45.5179446 0.615128599,45.5650959 C0.705502012,48.1780664 1.08271278,50.2075389 1.08271278,50.2075389 C3.48939605,63.5631576 15.1180967,73.5454904 29.0414962,73.5454904 C29.680004,73.5454904 30.3204765,73.5219147 30.9570196,73.4806573 C39.2320808,83.185976 51.5425113,88.9187938 64.3303493,88.9187938 C88.4875554,88.9187938 108.141808,69.2586472 108.141808,45.0994764 L108.126091,44.5709884 L108.141808,43.9698087 Z" id="Fill-11" fill="#FEFEFE" mask="url(#mask-2)"></path>
                </g>
                <path d="M136.228097,43.5195742 C135.397054,38.246482 130.856772,34.187537 125.351853,34.187537 C119.852827,34.187537 115.31451,38.246482 114.491326,43.5195742 L76.0767318,43.5195742 C76.1651406,44.0794964 76.2515847,44.6394187 76.2515847,45.2288105 C76.2515847,51.317228 71.2908702,56.270084 65.206382,56.270084 C59.1120705,56.270084 54.1592146,51.317228 54.1592146,45.2288105 C54.1592146,44.6394187 54.2456587,44.0794964 54.3321028,43.5195742 L49.2515453,43.5195742 C49.8566543,23.9576596 65.9549096,8.22482723 85.6602428,8.22482723 C97.3105545,8.22482723 108.345934,13.865307 115.188773,23.3152225 L115.83121,24.1993103 L116.901939,23.9890938 C118.239858,23.7297614 119.597424,23.5942013 120.956954,23.5942013 C132.184869,23.5942013 141.391169,32.4291847 141.992349,43.5195742 L136.228097,43.5195742 Z M125.351853,52.9655605 C121.086621,52.9655605 117.613138,49.4940426 117.613138,45.2288105 C117.613138,40.9596491 121.086621,37.4881312 125.351853,37.4881312 C129.622979,37.4881312 133.096461,40.9596491 133.096461,45.2288105 C133.096461,49.4940426 129.622979,52.9655605 125.351853,52.9655605 L125.351853,52.9655605 Z M145.424574,45.1462956 L145.424574,45.1089675 C145.432432,44.9576902 145.436361,44.8103423 145.436361,44.6610297 C145.436361,44.3722277 145.402963,44.087355 145.391175,43.8005176 L145.383316,43.5195742 L145.375458,43.5195742 C144.774278,30.5490248 134.076816,20.1816227 120.956954,20.1816227 C119.738878,20.1816227 118.526696,20.2719961 117.316478,20.4547075 C109.793873,10.6374044 98.0414004,4.81028394 85.6602428,4.81028394 C64.072785,4.81028394 46.485333,22.0755351 45.8723655,43.5195742 L45.8704009,43.5195742 L45.864507,43.776942 C45.8546838,44.0755672 45.815391,44.3643691 45.815391,44.6610297 C45.815391,44.8005191 45.8252142,45.3270425 45.8252142,45.3270425 C45.8212849,45.4842136 45.815391,45.6374555 45.815391,45.7906974 C45.815391,45.9262575 45.8350374,46.0559237 45.8350374,46.1895192 L45.8487899,46.9341175 L45.8723655,46.9341175 C46.4755098,59.9027022 57.1886885,70.272069 70.2987273,70.272069 C71.5069805,70.272069 72.7289863,70.1836603 73.9372395,70.0009488 C81.4519852,79.8162873 93.2024935,85.6453724 105.58758,85.6453724 C127.562072,85.6453724 145.436361,67.7691184 145.436361,45.7906974 C145.436361,45.5942334 145.432432,45.3918756 145.424574,45.1914823 L145.424574,45.1462956 Z" id="Fill-14" fill="#282322"></path>
                <path d="M72.7417564,43.5195742 L72.7417564,43.5195742 C71.9637592,40.0735967 68.8851693,37.4881312 65.2053996,37.4881312 C61.5236654,37.4881312 58.4509694,40.0735967 57.6670782,43.5195742 L57.6670782,43.5274328 C57.5413413,44.0755672 57.4647204,44.6394187 57.4647204,45.2288105 C57.4647204,49.4940426 60.9362382,52.9714544 65.2053996,52.9714544 C69.4686672,52.9714544 72.9441143,49.4940426 72.9441143,45.2288105 C72.9441143,44.6394187 72.8674933,44.0755672 72.7417564,43.531362 L72.7417564,43.5195742 Z" id="Fill-16" fill="#282322"></path>
            </g>
        </g>
    </g>
</svg>