
<svg width="91px" height="92px" viewBox="0 0 91 92" version="1.1" xmlns="http://www.w3.org/2000/svg" xmlns:xlink="http://www.w3.org/1999/xlink">
    <!-- Generator: Sketch 46.2 (44496) - http://www.bohemiancoding.com/sketch -->
    <desc>Created with Sketch.</desc>
    <defs></defs>
    <g id="App" stroke="none" stroke-width="1" fill="none" fill-rule="evenodd">
        <g id="Вход-по-телефону-01" transform="translate(-249.000000, -46.000000)" fill-rule="nonzero" fill="#F2F6FB">
            <path d="M339.961697,88.870304 L339.961697,94.2268985 C339.972038,98.2131735 337.109294,101.62726 333.182258,102.312008 L328.896982,103.065279 C328.360476,104.671235 327.711618,106.237444 326.955217,107.752299 L329.449381,111.284304 C331.743548,114.545019 331.354755,118.984331 328.528716,121.796621 L324.745621,125.579715 C321.930244,128.399145 317.495912,128.787502 314.233305,126.50038 L310.667822,124.006216 C309.152897,124.762467 307.586699,125.41132 305.980801,125.947981 L305.22753,130.233257 C304.542782,134.160293 301.128696,137.023037 297.142421,137.012697 L291.785826,137.012697 C287.799551,137.023037 284.385464,134.160293 283.700716,130.233257 L283.047881,125.964721 C281.441906,125.428267 279.875694,124.779407 278.360861,124.022955 L274.678203,126.517119 C271.415595,128.804242 266.981264,128.415885 264.165886,125.596455 L260.382791,121.81336 C257.563351,118.985776 257.195526,114.536507 259.512345,111.284304 L262.006509,107.718821 C261.250107,106.203965 260.601249,104.637756 260.064743,103.031801 L255.779468,102.27853 C251.852431,101.593782 248.989688,98.1796948 249.000028,94.1934198 L249.000028,88.8368253 C248.989688,84.8505503 251.852431,81.4364634 255.779468,80.7517156 L260.064743,79.9984445 C260.601145,78.3924501 261.250006,76.8262341 262.006509,75.3114243 L259.512345,71.7459412 C257.218177,68.4852262 257.606971,64.0459139 260.433009,61.2336245 L264.216104,57.4505297 C267.036765,54.6743363 271.437541,54.3081917 274.678203,56.5800831 L278.243686,59.0742474 C279.796701,58.3131891 281.402202,57.6642757 283.047881,57.1324819 L283.801152,52.8472064 C284.451481,48.9246247 287.826602,46.0367077 291.802565,46.0008091 L297.15916,46.0008091 C301.145435,45.9904687 304.559522,48.8532124 305.24427,52.7802489 L305.997541,57.0655245 C307.6034,57.6022888 309.169591,58.2511393 310.684561,59.00729 L314.250044,56.5131257 C317.512652,54.2260034 321.946983,54.6143605 324.762361,57.4337904 L328.545455,61.2168852 C331.371494,64.0291745 331.760287,68.4684868 329.46612,71.7292018 L326.971956,75.294685 C327.727757,76.8098148 328.376597,78.3759808 328.913721,79.9817051 L333.198997,80.7349762 C337.138186,81.4301172 339.998022,84.8704151 339.961697,88.870304 Z M333.265954,88.870304 C333.269477,88.1388371 332.747067,87.5105328 332.027242,87.3805012 L332.027242,87.3805012 L325.716504,86.2757036 C324.432571,86.0535228 323.394193,85.1065745 323.054946,83.8484967 C322.390256,81.3763115 321.405461,79.0015495 320.125559,76.7844878 C319.476059,75.6545212 319.54137,74.2503259 320.292952,73.1855259 L323.975611,67.9293676 C324.392852,67.3316905 324.32236,66.5210287 323.808217,66.0043415 L320.008383,62.237986 C319.491696,61.7238436 318.681034,61.6533513 318.083357,62.0705924 L312.827199,65.7532511 C311.762399,66.5048332 310.358203,66.5701446 309.228237,65.9206447 C307.011345,64.6403979 304.636537,63.6555841 302.164228,62.9912571 C300.925703,62.6354646 300.001314,61.6004096 299.787239,60.3296992 L298.682441,54.0189614 C298.55241,53.2991364 297.924106,52.776726 297.192639,52.7802489 L291.836044,52.7802489 C291.104577,52.776726 290.476273,53.2991364 290.346241,54.0189614 L289.241444,60.3296992 C289.019263,61.6136322 288.072315,62.65201 286.814237,62.9912571 C284.325488,63.6463404 281.933606,64.625605 279.70001,65.9039053 C278.570043,66.5534053 277.165848,66.4880939 276.101048,65.7365118 L270.84489,62.0538531 C270.247213,61.6366119 269.436551,61.7071043 268.919864,62.2212466 L265.170247,66.0880383 C264.656105,66.6047255 264.585613,67.4153873 265.002854,68.0130644 L268.685513,73.2524833 C269.437095,74.3172833 269.502406,75.7214786 268.852906,76.8514452 C267.572142,79.0680816 266.587299,81.4429594 265.923519,83.9154542 C265.584271,85.1735319 264.545894,86.1204802 263.261961,86.342661 L256.951223,87.4474586 C256.231398,87.5774902 255.708987,88.2057945 255.71251,88.9372615 L255.71251,94.2938559 C255.710392,95.0306399 256.24148,95.6608639 256.967962,95.7836587 L263.2787,96.8884563 C264.562633,97.1106371 265.601011,98.0575855 265.940258,99.3156632 C266.603017,101.746101 267.576342,104.080956 268.836167,106.262497 C269.485667,107.392463 269.420355,108.796659 268.668773,109.861459 L264.986114,115.117617 C264.568873,115.715294 264.639366,116.525956 265.153508,117.042643 L268.936603,120.825738 C269.45329,121.33988 270.263952,121.410372 270.861629,120.993131 L276.101048,117.310473 C277.165848,116.558891 278.570043,116.493579 279.70001,117.143079 C281.916731,118.423671 284.291586,119.408504 286.764019,120.072467 C288.022097,120.411714 288.969045,121.450092 289.191226,122.734025 L290.296023,129.044762 C290.426055,129.764587 291.054359,130.286998 291.785826,130.283475 L297.142421,130.283475 C297.879205,130.285593 298.509429,129.754505 298.632223,129.028023 L299.787239,122.767503 C300.00942,121.48357 300.956368,120.445192 302.214446,120.105945 C304.681041,119.440426 307.050163,118.455637 309.261715,117.176558 C310.388466,116.522126 311.792562,116.580902 312.860677,117.327212 L318.116836,121.009871 C318.714513,121.427112 319.525175,121.35662 320.041862,120.842477 L323.824957,117.059382 C324.339099,116.542695 324.409591,115.732033 323.99235,115.134356 L320.309692,109.878198 C319.558109,108.813398 319.492798,107.409203 320.142298,106.279236 C321.422201,104.062174 322.406995,101.687412 323.071686,99.2152271 C323.410933,97.9571493 324.44931,97.010201 325.733243,96.7880202 L332.043981,95.6832226 C332.763806,95.553191 333.286217,94.9248867 333.282694,94.1934198 L333.265954,88.870304 Z M312.291539,91.5486013 C312.291535,101.373741 304.328316,109.339452 294.503177,109.34253 C284.678037,109.345608 276.709829,101.384889 276.703668,91.5597503 C276.697508,81.7346121 284.655727,73.7639069 294.480863,73.7546641 C304.307078,73.7638732 312.273091,81.722399 312.291539,91.5486013 Z M305.595796,91.5486013 C305.595796,85.4192379 300.626965,80.4504071 294.497602,80.4504071 C288.368239,80.4504071 283.399408,85.4192379 283.399408,91.5486013 C283.399408,97.6779646 288.368239,102.646795 294.497602,102.646795 C300.623143,102.637577 305.586578,97.6741422 305.595796,91.5486013 Z M339.961697,88.870304 L339.961697,94.2268985 C339.972038,98.2131735 337.109294,101.62726 333.182258,102.312008 L328.896982,103.065279 C328.360476,104.671235 327.711618,106.237444 326.955217,107.752299 L329.449381,111.284304 C331.743548,114.545019 331.354755,118.984331 328.528716,121.796621 L324.745621,125.579715 C321.930244,128.399145 317.495912,128.787502 314.233305,126.50038 L310.667822,124.006216 C309.152897,124.762467 307.586699,125.41132 305.980801,125.947981 L305.22753,130.233257 C304.542782,134.160293 301.128696,137.023037 297.142421,137.012697 L291.785826,137.012697 C287.799551,137.023037 284.385464,134.160293 283.700716,130.233257 L283.047881,125.964721 C281.441906,125.428267 279.875694,124.779407 278.360861,124.022955 L274.678203,126.517119 C271.415595,128.804242 266.981264,128.415885 264.165886,125.596455 L260.382791,121.81336 C257.563351,118.985776 257.195526,114.536507 259.512345,111.284304 L262.006509,107.718821 C261.250107,106.203965 260.601249,104.637756 260.064743,103.031801 L255.779468,102.27853 C251.852431,101.593782 248.989688,98.1796948 249.000028,94.1934198 L249.000028,88.8368253 C248.989688,84.8505503 251.852431,81.4364634 255.779468,80.7517156 L260.064743,79.9984445 C260.601145,78.3924501 261.250006,76.8262341 262.006509,75.3114243 L259.512345,71.7459412 C257.218177,68.4852262 257.606971,64.0459139 260.433009,61.2336245 L264.216104,57.4505297 C267.036765,54.6743363 271.437541,54.3081917 274.678203,56.5800831 L278.243686,59.0742474 C279.796701,58.3131891 281.402202,57.6642757 283.047881,57.1324819 L283.801152,52.8472064 C284.451481,48.9246247 287.826602,46.0367077 291.802565,46.0008091 L297.15916,46.0008091 C301.145435,45.9904687 304.559522,48.8532124 305.24427,52.7802489 L305.997541,57.0655245 C307.6034,57.6022888 309.169591,58.2511393 310.684561,59.00729 L314.250044,56.5131257 C317.512652,54.2260034 321.946983,54.6143605 324.762361,57.4337904 L328.545455,61.2168852 C331.371494,64.0291745 331.760287,68.4684868 329.46612,71.7292018 L326.971956,75.294685 C327.727757,76.8098148 328.376597,78.3759808 328.913721,79.9817051 L333.198997,80.7349762 C337.138186,81.4301172 339.998022,84.8704151 339.961697,88.870304 Z M333.265954,88.870304 C333.269477,88.1388371 332.747067,87.5105328 332.027242,87.3805012 L332.027242,87.3805012 L325.716504,86.2757036 C324.432571,86.0535228 323.394193,85.1065745 323.054946,83.8484967 C322.390256,81.3763115 321.405461,79.0015495 320.125559,76.7844878 C319.476059,75.6545212 319.54137,74.2503259 320.292952,73.1855259 L323.975611,67.9293676 C324.392852,67.3316905 324.32236,66.5210287 323.808217,66.0043415 L320.008383,62.237986 C319.491696,61.7238436 318.681034,61.6533513 318.083357,62.0705924 L312.827199,65.7532511 C311.762399,66.5048332 310.358203,66.5701446 309.228237,65.9206447 C307.011345,64.6403979 304.636537,63.6555841 302.164228,62.9912571 C300.925703,62.6354646 300.001314,61.6004096 299.787239,60.3296992 L298.682441,54.0189614 C298.55241,53.2991364 297.924106,52.776726 297.192639,52.7802489 L291.836044,52.7802489 C291.104577,52.776726 290.476273,53.2991364 290.346241,54.0189614 L289.241444,60.3296992 C289.019263,61.6136322 288.072315,62.65201 286.814237,62.9912571 C284.325488,63.6463404 281.933606,64.625605 279.70001,65.9039053 C278.570043,66.5534053 277.165848,66.4880939 276.101048,65.7365118 L270.84489,62.0538531 C270.247213,61.6366119 269.436551,61.7071043 268.919864,62.2212466 L265.170247,66.0880383 C264.656105,66.6047255 264.585613,67.4153873 265.002854,68.0130644 L268.685513,73.2524833 C269.437095,74.3172833 269.502406,75.7214786 268.852906,76.8514452 C267.572142,79.0680816 266.587299,81.4429594 265.923519,83.9154542 C265.584271,85.1735319 264.545894,86.1204802 263.261961,86.342661 L256.951223,87.4474586 C256.231398,87.5774902 255.708987,88.2057945 255.71251,88.9372615 L255.71251,94.2938559 C255.710392,95.0306399 256.24148,95.6608639 256.967962,95.7836587 L263.2787,96.8884563 C264.562633,97.1106371 265.601011,98.0575855 265.940258,99.3156632 C266.603017,101.746101 267.576342,104.080956 268.836167,106.262497 C269.485667,107.392463 269.420355,108.796659 268.668773,109.861459 L264.986114,115.117617 C264.568873,115.715294 264.639366,116.525956 265.153508,117.042643 L268.936603,120.825738 C269.45329,121.33988 270.263952,121.410372 270.861629,120.993131 L276.101048,117.310473 C277.165848,116.558891 278.570043,116.493579 279.70001,117.143079 C281.916731,118.423671 284.291586,119.408504 286.764019,120.072467 C288.022097,120.411714 288.969045,121.450092 289.191226,122.734025 L290.296023,129.044762 C290.426055,129.764587 291.054359,130.286998 291.785826,130.283475 L297.142421,130.283475 C297.879205,130.285593 298.509429,129.754505 298.632223,129.028023 L299.787239,122.767503 C300.00942,121.48357 300.956368,120.445192 302.214446,120.105945 C304.681041,119.440426 307.050163,118.455637 309.261715,117.176558 C310.388466,116.522126 311.792562,116.580902 312.860677,117.327212 L318.116836,121.009871 C318.714513,121.427112 319.525175,121.35662 320.041862,120.842477 L323.824957,117.059382 C324.339099,116.542695 324.409591,115.732033 323.99235,115.134356 L320.309692,109.878198 C319.558109,108.813398 319.492798,107.409203 320.142298,106.279236 C321.422201,104.062174 322.406995,101.687412 323.071686,99.2152271 C323.410933,97.9571493 324.44931,97.010201 325.733243,96.7880202 L332.043981,95.6832226 C332.763806,95.553191 333.286217,94.9248867 333.282694,94.1934198 L333.265954,88.870304 Z M312.291539,91.5486013 C312.291535,101.373741 304.328316,109.339452 294.503177,109.34253 C284.678037,109.345608 276.709829,101.384889 276.703668,91.5597503 C276.697508,81.7346121 284.655727,73.7639069 294.480863,73.7546641 C304.307078,73.7638732 312.273091,81.722399 312.291539,91.5486013 Z M305.595796,91.5486013 C305.595796,85.4192379 300.626965,80.4504071 294.497602,80.4504071 C288.368239,80.4504071 283.399408,85.4192379 283.399408,91.5486013 C283.399408,97.6779646 288.368239,102.646795 294.497602,102.646795 C300.623143,102.637577 305.586578,97.6741422 305.595796,91.5486013 Z" id="Shape-Copy-2"></path>
        </g>
    </g>
</svg>