
<svg width="112px" height="116px" viewBox="0 0 112 116" version="1.1" xmlns="http://www.w3.org/2000/svg" xmlns:xlink="http://www.w3.org/1999/xlink">
    <!-- Generator: Sketch 46.2 (44496) - http://www.bohemiancoding.com/sketch -->
    <desc>Created with Sketch.</desc>
    <defs>
        <polyline id="path-1" points="41.4288501 14.1444828 58.439288 31.1549207 89.3294194 0.264789336"></polyline>
    </defs>
    <g id="App" stroke="none" stroke-width="1" fill="none" fill-rule="evenodd">
        <g id="Задание-размещено" transform="translate(-132.000000, -219.000000)">
            <g id="large-icons/done" transform="translate(127.000000, 218.000000)">
                <g transform="translate(2.000000, 6.000000)">
                    <g id="Group-10" transform="translate(24.754109, 48.696360)" stroke="#06AE8F" stroke-width="3">
                        <path d="M24.3752105,39.8089594 L17.6643829,39.8089594 C15.8886231,39.8089594 14.4490853,38.3694216 14.4490853,36.5936617 L14.4490853,34.8237731 C14.4412632,33.8241912 14.8998507,32.8780929 15.689364,32.264991 C16.4788774,31.651889 17.509069,31.4418658 18.4755819,31.6969699 L25.1864095,33.459484 C26.802001,33.8257014 27.8749177,35.359477 27.6649823,37.002699 C27.4550468,38.6459209 26.0309809,39.860686 24.3752105,39.8089594 Z M16.9490529,21.2767508 C18.6894434,16.8520293 20.9091787,11.8594686 21.9342392,10.3771869 C22.509453,9.55861339 23.35015,8.90227971 25.6215071,8.53355291 C29.3644549,7.96587616 33.1490753,7.71916036 36.934045,7.79609933 C40.7190285,7.71854708 44.5037012,7.96526629 48.246583,8.53355291 C50.4958164,8.92440331 51.3365135,9.55123886 51.9338509,10.3698123 C52.9662859,11.8447195 55.1786467,16.8815275 56.9190371,21.2693763 C50.2524567,21.9232518 43.5834182,22.2501896 36.9119214,22.2501896 C30.2404247,22.2501896 23.5861352,21.92571 16.9490529,21.2767508 Z M59.352634,36.5789127 C59.3565574,37.4342152 59.0195366,38.2558329 58.4161256,38.8620119 C57.8127146,39.4681909 56.9926479,39.8089684 56.1373363,39.8089594 L49.4486323,39.8089594 C47.8284,39.8141973 46.4573932,38.6130557 46.249514,37.0062058 C46.0416348,35.3993558 47.0618356,33.8888622 48.6300589,33.4816076 L55.348261,31.6969699 C56.3132771,31.4398292 57.3430029,31.6467944 58.1337262,32.2568223 C58.9244496,32.8668502 59.385958,33.8103435 59.3821321,34.8090241 L59.352634,36.5789127 Z" id="Shape" fill-rule="nonzero"></path>
                        <path d="M69.3598416,16.7380236 C68.8977041,16.7380236 68.4331083,15.64998 67.9660544,15.64998 C66.3765275,15.7276276 64.8739409,16.3986602 63.7551944,17.5304866 C61.9853058,13.0393943 59.6918252,7.96571366 58.2980379,5.93034177 C55.7833212,2.31681921 52.1181769,1.3065078 49.5813365,0.864035655 C45.3900524,0.223019019 41.1508088,-0.0508785571 36.911884,0.0454621783 C32.680334,-0.0495530871 28.4485524,0.224340652 24.2645551,0.864035655 C21.7277147,1.3065078 18.0625704,2.33894282 15.5478537,5.93034177 C14.1319428,7.96571366 11.8605858,13.0393943 10.0759481,17.508363 C8.95720166,16.3765366 7.45461499,15.705504 5.86508817,15.6278564 C5.39803423,15.6278564 4.93343848,15.6278564 4.4713009,15.6278564 C2.44485704,15.6517462 0.807922819,17.2886804 0.784032985,19.3151243 C0.784032985,20.1041996 0.784032985,20.9522712 0.784032985,21.9847063 C0.823313507,24.0738796 2.50749465,25.7580608 4.59666801,25.7973413 L6.22644042,25.7973413 C4.3502229,32.3595463 3.28558789,39.2050498 3.28400063,46.0920639 L3.28400063,56.6302756 C3.28399665,58.7086222 4.9666713,60.3945962 7.0450139,60.3986634 L11.9195821,60.3986634 C14.0008052,60.3986634 15.6879699,58.7114987 15.6879699,56.6302756 L15.6879699,52.5300337 C22.7478589,53.2183237 29.8224969,53.5624687 36.911884,53.5624687 C44.0012711,53.5624687 51.0759091,53.2183237 58.1357981,52.5300337 L58.1357981,56.6302756 C58.1357981,58.7114987 59.8229628,60.3986634 61.9041859,60.3986634 L66.7787541,60.3986634 C68.8599772,60.3986634 70.5471419,58.7114987 70.5471419,56.6302756 L70.5471419,46.0920639 C70.5431702,39.2046658 69.4760463,32.3591532 67.383466,25.7973413 L69.1976018,25.7973413 C71.2911756,25.774282 72.9917217,24.0997978 73.0471095,22.0068299 C73.0471095,20.9743949 73.0471095,20.1263232 73.0471095,19.3372479 C73.0232197,17.310804 71.3862855,16.7619134 69.3598416,16.7380236 Z" id="Path"></path>
                    </g>
                    <g id="Path-27" stroke-linecap="round" stroke-linejoin="round">
                        <use stroke="#FFFFFF" stroke-width="10" xlink:href="#path-1"></use>
                        <use stroke="#06AE8F" stroke-width="4" xlink:href="#path-1"></use>
                    </g>
                    <g id="Group-12" transform="translate(7.278065, 55.376598) rotate(-315.000000) translate(-7.278065, -55.376598) translate(2.778065, 50.876598)" stroke="#272E53" stroke-width="2" stroke-linecap="round">
                        <path d="M4.69340357,0.560012626 L4.69340357,8.9315427" id="Path-14"></path>
                        <path d="M8.87916861,4.74577766 L0.507638529,4.74577766" id="Path-14-Copy"></path>
                    </g>
                    <g id="Group-12-Copy-2" transform="translate(110.033432, 80.960596) rotate(-315.000000) translate(-110.033432, -80.960596) translate(105.533432, 76.460596)" stroke="#272E53" stroke-width="2" stroke-linecap="round">
                        <path d="M4.69340357,0.560012626 L4.69340357,8.9315427" id="Path-14"></path>
                        <path d="M8.87916861,4.74577766 L0.507638529,4.74577766" id="Path-14-Copy"></path>
                    </g>
                    <g id="Group-12-Copy" transform="translate(91.184147, 31.174910) rotate(-315.000000) translate(-91.184147, -31.174910) translate(85.184147, 25.174910)" stroke="#272E53" stroke-width="2" stroke-linecap="round">
                        <path d="M6.3108841,0.0349421188 L6.3108841,11.2915399" id="Path-14"></path>
                        <path d="M11.939183,5.66324099 L0.682585223,5.66324099" id="Path-14-Copy"></path>
                    </g>
                    <circle id="Oval-7-Copy" stroke="#272E53" stroke-width="2" cx="29.3909271" cy="36.7191024" r="6.49154529"></circle>
                    <circle id="Oval-7-Copy-2" stroke="#272E53" stroke-width="2" cx="11.914883" cy="79.2993591" r="4.03229231"></circle>
                    <circle id="Oval-7-Copy-3" stroke="#272E53" stroke-width="2" cx="109.710594" cy="54.3857922" r="4.03229231"></circle>
                    <path d="M80.8120471,50.7153724 C76.0321716,50.7153724 71.2522962,44.1963473 71.2411295,37.6696989 L71.2411295,37.646829 C71.2411295,37.6504591 71.2408637,37.6544523 71.2408637,37.6580825 C71.2408637,37.6540893 71.2405978,37.6504591 71.2405978,37.646466 L71.2405978,37.6693359 C71.2294311,44.1963473 66.4498215,50.7153724 61.6696803,50.7153724 C66.4554049,50.7153724 71.2411295,57.249644 71.2411295,63.7839157 L71.2411295,63.7839157 C71.2411295,57.249644 76.0268542,50.7153724 80.8125788,50.7153724 L80.8120471,50.7153724 Z" id="Shape" stroke="#272E53" stroke-width="2" fill="#FFFFFF" fill-rule="nonzero" stroke-linecap="round" stroke-linejoin="round"></path>
                    <path d="M96.3255781,62.1276716 C92.83158,62.1276716 89.337582,57.3623883 89.3294194,52.5915324 L89.3294194,52.5748149 C89.3294194,52.5774685 89.329225,52.5803874 89.329225,52.583041 C89.329225,52.5801221 89.3290307,52.5774685 89.3290307,52.5745496 L89.3290307,52.5912671 C89.320868,57.3623883 85.8270643,62.1276716 82.3328719,62.1276716 C85.8311456,62.1276716 89.3294194,66.9041 89.3294194,71.6805284 L89.3294194,71.6805284 C89.3294194,66.9041 92.8276931,62.1276716 96.3259668,62.1276716 L96.3255781,62.1276716 Z" id="Shape-Copy" stroke="#272E53" stroke-width="2" fill="#FFFFFF" fill-rule="nonzero" stroke-linecap="round" stroke-linejoin="round"></path>
                </g>
            </g>
        </g>
    </g>
</svg>