<svg width="25" height="25" viewBox="0 0 25 25" fill="none" xmlns="http://www.w3.org/2000/svg">
<g clip-path="url(#clip0)">
<path d="M6.0341 13.186L17.5973 24.7173C17.9762 25.0949 18.5896 25.0942 18.9678 24.7153C19.3457 24.3365 19.3447 23.7228 18.9658 23.3449L8.09087 12.5L18.9662 1.65508C19.3451 1.27715 19.3461 0.663824 18.9682 0.28492C18.7786 0.0949783 18.5302 7.62939e-06 18.2818 7.62939e-06C18.034 7.62939e-06 17.7866 0.0943432 17.5974 0.282965L6.0341 11.8139C5.85163 11.9955 5.74923 12.2425 5.74923 12.5C5.74923 12.7574 5.85192 13.0042 6.0341 13.186Z" fill="#0092DF"/>
</g>
<defs>
<clipPath id="clip0">
<rect width="25" height="25" fill="white" transform="translate(25 25) rotate(-180)"/>
</clipPath>
</defs>
</svg>
