<svg width="93" height="120" viewBox="0 0 93 120" fill="none" xmlns="http://www.w3.org/2000/svg">
<path d="M1.93742 79.2886C0.258254 82.2531 2.32492 85.9911 5.81242 86.2488L10.9791 86.6355C9.94575 82.1242 8.13742 77.0974 6.07075 71.8127L1.93742 79.2886Z" fill="#A6D514"/>
<path d="M26.0918 76.195C22.9918 77.8706 19.5043 81.8663 18.4709 87.151L41.4626 88.9555L47.5334 53.2519L39.6543 52.9941C39.3959 54.7987 39.1376 56.6032 38.7501 58.2788C37.3293 65.239 31.9043 72.8438 26.0918 76.195Z" fill="#A6D514"/>
<path d="M15.6293 75.2929V75.0351C15.6293 74.9063 15.6293 74.7774 15.6293 74.5196C15.6293 74.2618 15.6293 74.004 15.7584 73.8751C16.4043 69.3638 18.3418 64.9814 21.5709 60.728C21.7001 60.5991 21.7001 60.4702 21.8293 60.4702L21.9584 60.3413C21.9584 60.3413 23.7668 58.279 26.4793 55.1855C27.2543 54.4122 28.1584 53.5099 28.8042 52.7365L19.1168 52.4788C18.4709 54.4122 17.6959 56.3456 16.9209 58.279C14.0793 64.4659 11.8834 70.0083 15.6293 75.2929Z" fill="#A6D514"/>
<path d="M92.6124 86.5065L83.9583 54.2831L50.1166 53.252L45.2083 89.0844L87.5749 92.3067C90.9333 92.6934 93.3874 89.7289 92.6124 86.5065Z" fill="#4BBCD7"/>
<path d="M17.825 50.4165C17.825 50.2876 17.9541 50.0298 17.9541 49.9009L17.6958 50.4165H17.825Z" fill="#0390BF"/>
<path d="M30.4833 50.803C32.1625 48.8695 36.2958 44.2294 39.2666 41.2648L39.6542 41.6515L40.6875 41.9093C40.6875 41.9093 40.3 46.2917 39.7833 51.0607L47.7916 51.3185L50.8917 33.0156H30.0958C28.2875 33.0156 26.7375 33.9179 25.9625 35.4646L20.6666 45.0027C20.4083 46.8072 20.0208 48.7407 19.5042 50.5452L30.4833 50.803Z" fill="#4BBCD7"/>
<path d="M83.4417 52.2208L79.1792 36.4958C78.6625 34.4335 76.725 33.0156 74.6583 33.0156H52.9583L50.5042 51.4474L83.4417 52.2208Z" fill="#A6D514"/>
<path fill-rule="evenodd" clip-rule="evenodd" d="M8.52515 12.0061C12.9168 29.0201 13.3043 44.6162 10.721 63.1769H10.4626C12.1418 37.1404 11.1085 30.9535 8.52515 12.0061Z" fill="#1A1A1A"/>
<path fill-rule="evenodd" clip-rule="evenodd" d="M22.9917 67.5593C25.4459 62.0169 28.2875 58.4079 32.4209 55.1855V55.3144C28.9334 58.9235 26.2209 63.8214 22.9917 67.5593Z" fill="#1A1A1A"/>
<path fill-rule="evenodd" clip-rule="evenodd" d="M39.525 41.0073L39.3958 41.394C39.0083 49.3854 37.2 57.119 33.0666 63.0481C28.9333 68.9772 26.6083 69.235 22.0875 75.293C17.1791 82.511 17.1791 86.3779 17.5666 92.1781C17.5666 92.5648 18.2125 96.5605 18.3416 96.9471L21.0541 96.8182C20.925 96.6893 19.5041 93.0803 19.375 92.8225C16.275 83.2844 21.1833 75.5508 26.35 72.7151C31.6458 69.7506 36.8125 62.6614 37.975 56.2167C39.2666 49.9009 39.9125 40.6206 39.9125 40.6206L39.525 41.0073Z" fill="#1A1A1A"/>
<path fill-rule="evenodd" clip-rule="evenodd" d="M13.5626 93.2091C14.9834 85.9911 11.2376 74.9062 4.65005 60.3413C0.645886 51.4476 1.80839 37.9138 2.84172 30.309C4.65005 17.2908 5.42505 15.3574 6.07089 0.792388C6.20005 0.534601 6.07089 0.663495 6.20005 0.792388C6.20005 1.43686 6.20005 2.33911 6.20005 3.88584C5.81255 10.7172 4.00422 30.9535 3.87505 41.3939C3.61672 51.9632 5.29589 59.9546 7.75005 65.6259C12.0126 75.4218 14.4667 83.5421 14.9834 92.0491C14.9834 92.3069 14.9834 96.1737 14.9834 96.5604H12.6584L13.5626 93.2091Z" fill="#1A1A1A"/>
<path fill-rule="evenodd" clip-rule="evenodd" d="M23.3793 59.6967C26.6085 55.9588 30.7418 50.2875 30.7418 50.2875C30.7418 50.2875 28.9335 52.092 27.5126 53.5098C24.9293 56.4744 23.2501 58.4078 23.2501 58.4078C22.8626 59.0522 18.6001 63.9502 17.696 70.9105C17.696 71.1682 17.5668 71.6838 17.5668 72.0705L17.1793 73.4883C17.0501 73.6172 16.4043 73.2305 16.146 72.8439C10.8501 65.6258 16.7918 57.7633 19.3751 49.3852C21.9585 40.8782 22.346 30.0512 17.0501 17.9352C14.4668 11.6194 7.10431 1.69457 7.10431 1.69457L6.58765 1.56567C11.2376 8.65482 18.6001 18.0641 20.021 34.1758C20.796 43.7139 19.6335 47.194 16.0168 56.7322C14.0793 62.2746 12.7876 69.3637 15.371 74.3906C16.6626 76.9685 17.3085 76.0662 17.696 74.3906V74.2617C17.9543 73.3594 18.0835 72.1994 18.2126 71.426C19.1168 67.5592 20.5376 63.0479 23.3793 59.6967Z" fill="#1A1A1A"/>
<path d="M0 102.361H9.55833V104.681H2.84167V107.774H6.45833C7.75 107.774 11.3667 107.774 11.3667 111.899C11.3667 116.023 7.62083 116.023 6.84583 116.023H0V102.361ZM2.84167 113.703H6.2C7.23333 113.703 8.525 113.574 8.525 111.899C8.525 110.223 7.23333 110.094 6.07083 110.094H2.84167V113.703Z" fill="#4BBCD7"/>
<path d="M21.8292 114.09C21.8292 115.379 22.0876 115.637 22.4751 115.637V116.023H19.5042C19.3751 115.766 19.2459 115.379 19.2459 114.863C18.4709 115.766 17.8251 116.41 16.0167 116.41C14.2084 116.41 12.9167 115.379 12.9167 113.317C12.9167 111.641 13.9501 110.481 15.7584 110.223L18.3417 109.836C18.7292 109.836 19.2459 109.708 19.2459 108.934C19.2459 108.29 18.8584 107.774 17.5667 107.774C16.1459 107.774 15.8876 108.419 15.7584 109.192H13.0459C13.0459 108.419 13.5626 105.712 17.4376 105.583C21.0542 105.583 21.8292 107.259 21.8292 108.676V114.09ZM19.2459 111.125C18.8584 111.254 18.6001 111.512 18.0834 111.512L17.3084 111.641C16.0167 111.899 15.5001 112.157 15.5001 113.188C15.5001 114.09 16.1459 114.477 16.7917 114.477C17.4376 114.477 19.1167 114.219 19.1167 112.157V111.125H19.2459Z" fill="#4BBCD7"/>
<path d="M24.2834 105.97H26.9959V112.156L30.7418 105.841H33.5834V116.023H30.8709V109.836L27.1251 116.152H24.2834V105.97ZM32.0334 101.587C32.0334 103.521 30.7418 104.294 28.9334 104.294C27.1251 104.294 25.8334 103.521 25.8334 101.587H26.8668C26.9959 102.489 27.9001 102.876 28.9334 102.876C29.9668 102.876 30.8709 102.489 31.0001 101.587H32.0334Z" fill="#4BBCD7"/>
<path d="M40.0416 102.361H43.2708L48.1791 116.152H45.0791L44.175 113.317H39.1375L38.2333 116.152H35.1333L40.0416 102.361ZM39.9125 110.868H43.4L41.7208 105.454L39.9125 110.868Z" fill="#1A1A1A"/>
<path d="M49.8584 105.97H52.4417V107.388C53.2167 106.099 53.9917 105.583 55.5417 105.583C57.3501 105.583 59.8042 106.872 59.8042 110.739C59.8042 114.09 58.3834 116.281 55.4126 116.281C54.3792 116.281 53.2167 115.895 52.5709 114.734V119.89H49.8584V105.97ZM52.4417 110.997C52.4417 112.157 52.8292 114.09 54.7667 114.09C56.7042 114.09 57.0917 112.157 57.0917 110.997C57.0917 109.579 56.4459 107.903 54.7667 107.903C52.9584 108.032 52.4417 109.579 52.4417 110.997Z" fill="#1A1A1A"/>
<path d="M63.5499 111.899C63.5499 112.414 63.8082 114.348 66.0041 114.348C66.7791 114.348 67.5541 113.961 67.6832 113.188H70.3957C70.3957 114.348 68.9749 116.539 65.7457 116.539C63.0332 116.539 60.8374 114.992 60.8374 110.996C60.8374 108.161 62.2582 105.712 65.7457 105.712C69.3624 105.712 70.6541 108.161 70.6541 111.899H63.5499ZM67.8124 110.094C67.8124 108.29 66.6499 107.774 65.7457 107.774C64.8416 107.774 63.6791 108.29 63.6791 110.094H67.8124Z" fill="#1A1A1A"/>
<path d="M72.3333 105.969H75.0457V109.578H78.9207V105.841H81.6332V116.023H78.9207V111.641H75.0457V116.023H72.3333V105.969Z" fill="#1A1A1A"/>
<path d="M92.3541 114.09C92.3541 115.379 92.6125 115.637 93 115.637V116.023H90.0291C89.9 115.766 89.7708 115.379 89.7708 114.863C88.9958 115.766 88.35 116.41 86.5416 116.41C84.7333 116.41 83.4417 115.379 83.4417 113.317C83.4417 111.641 84.475 110.481 86.2833 110.223L88.8667 109.836C89.2542 109.836 89.7708 109.708 89.7708 108.934C89.7708 108.29 89.3833 107.774 88.0916 107.774C86.6708 107.774 86.4125 108.419 86.2833 109.192H83.5708C83.5708 108.419 84.0875 105.712 87.9625 105.583C91.5791 105.583 92.3541 107.259 92.3541 108.676V114.09ZM89.6416 111.125C89.2541 111.254 88.9958 111.512 88.4791 111.512L87.8333 111.641C86.5416 111.899 86.025 112.157 86.025 113.188C86.025 114.09 86.6708 114.477 87.3166 114.477C87.9625 114.477 89.6416 114.219 89.6416 112.157V111.125Z" fill="#1A1A1A"/>
</svg>
