<svg width="84" height="67" viewBox="0 0 84 67" fill="none" xmlns="http://www.w3.org/2000/svg">
<path d="M36.4285 10.9999L43.2856 11.4285L44.1428 15.2856L48.4285 16.9999L52.2856 15.7142L56.1428 21.7142L52.2856 24.2856L52.7142 28.9999L55.7142 31.1427L51.8571 37.5713L47.9999 35.4285L44.5714 37.5713L43.7142 42.7142H36.8571L36.4285 37.5713L32.1428 35.857L29.1428 38.4285L25.2856 31.5713L28.7142 28.5713V24.7142L25.2856 22.1427C26.1428 20.1427 27.8571 16.057 27.8571 15.7142C27.8571 15.3713 30.9999 16.7142 32.5714 17.4285L36.4285 15.7142V10.9999Z" fill="#67B514" stroke="#02607E" stroke-width="0.857143"/>
<path d="M47.78 15.652L48.0031 15.8063L48.238 15.6706L52.4575 13.2346L57.9051 22.6704L53.7304 25.0804L53.4927 25.2177L53.5179 25.491C53.5873 26.2421 53.5825 26.9115 53.5179 27.6139L53.4928 27.8871L53.7304 28.0243L57.9051 30.4343L52.4575 39.8701L48.238 37.4341L48.0031 37.2984L47.78 37.4527C47.2052 37.85 46.603 38.1998 45.9769 38.4995L45.7333 38.6161V38.8861V43.7521H34.8382V38.8856V38.6156L34.5947 38.499C33.9684 38.1992 33.3663 37.85 32.7918 37.4523L32.5686 37.2979L32.3336 37.4335L28.114 39.8696L22.6665 30.4343L26.8412 28.0243L27.0788 27.8871L27.0537 27.6138C26.9847 26.8644 26.9887 26.195 27.0536 25.491L27.0789 25.2177L26.8412 25.0804L22.6665 22.6704L28.114 13.2346L32.3336 15.6706L32.5685 15.8063L32.7916 15.652C33.3664 15.2547 33.9686 14.9049 34.5947 14.6052L34.8382 14.4886V14.2186V9.35258H45.7333V14.2186V14.4886L45.9769 14.6052C46.603 14.9049 47.2052 15.2547 47.78 15.652ZM53.7248 31.555L53.3536 31.3407L50.1208 29.4742C50.3752 28.0998 50.5125 27.3304 50.5127 26.5571C50.513 25.7835 50.3762 25.0113 50.1208 23.6305L53.3536 21.7641L53.7247 21.5498L53.5104 21.1786L51.5517 17.7861L51.3374 17.4149L50.9663 17.6292L47.6993 19.5156C46.727 18.6857 46.1395 18.1889 45.461 17.7878C44.7759 17.3829 44.0065 17.0797 42.6731 16.6013V12.8414V12.4128H42.2445H38.3271H37.8985V12.8414V16.6008C37.89 16.6038 37.8815 16.6069 37.8731 16.6099C36.7329 17.0154 36.0342 17.2639 35.3546 17.6468C34.6599 18.0382 33.9925 18.565 32.8727 19.5158L29.6053 17.6297L29.2341 17.4155L29.0199 17.7866L27.0612 21.1786L26.8468 21.5498L27.218 21.7641L30.4513 23.6305C30.1985 24.9943 30.0602 25.7584 30.059 26.5308C30.0577 27.3046 30.1938 28.0814 30.4513 29.4742L27.218 31.3406L26.8468 31.5549L27.0612 31.9261L29.0199 35.3181L29.2341 35.6892L29.6053 35.475L32.8723 33.5891C33.8305 34.4075 34.4101 34.9014 35.0865 35.3032C35.7711 35.7099 36.5469 36.0182 37.8985 36.5034V40.2633V40.6919H38.3271H42.2445H42.6731V40.2633V36.5038C43.8455 36.0864 44.5562 35.8316 45.2413 35.4437C45.9348 35.0511 46.5944 34.5272 47.699 33.5889L50.9663 35.475L51.3374 35.6892L51.5517 35.3181L53.5104 31.9261L53.7248 31.555Z" fill="#02607E" stroke="#67B514" stroke-width="0.857143"/>
<path d="M34.8382 26.5524C34.8382 23.549 37.2825 21.1048 40.2858 21.1048C43.2891 21.1048 45.7333 23.549 45.7333 26.5524C45.7333 29.5557 43.2891 31.9999 40.2858 31.9999C37.2825 31.9999 34.8382 29.5557 34.8382 26.5524ZM37.8985 26.5524C37.8985 27.8689 38.9693 28.9396 40.2858 28.9396C41.6023 28.9396 42.6731 27.8689 42.6731 26.5524C42.6731 25.2358 41.6023 24.1651 40.2858 24.1651C38.9693 24.1651 37.8985 25.2358 37.8985 26.5524Z" fill="#02607E" stroke="#67B514" stroke-width="0.857143"/>
<path d="M19.0377 51.8763V51.5049L18.6701 51.452C12.2422 50.5286 7.28551 44.9834 7.28551 38.3046V14.8001C7.28551 7.47641 13.2442 1.51775 20.5679 1.51775H60.0031C67.3268 1.51775 73.2855 7.47641 73.2855 14.8001V38.3046C73.2855 45.6283 67.3268 51.5869 60.0031 51.5869H33.3795H33.1949L33.068 51.7212L22.0889 63.3392H19.0377V51.8763ZM20.5679 48.5267H22.098V57.7962V58.8737L22.8381 58.0906L31.8763 48.5267H60.0031C65.64 48.5267 70.2252 43.9415 70.2252 38.3046V14.8001C70.2252 9.16321 65.64 4.57802 60.0031 4.57802H20.5679C14.931 4.57802 10.3458 9.16321 10.3458 14.8001V38.3046C10.3458 43.9415 14.931 48.5267 20.5679 48.5267Z" fill="#02607E" stroke="white" stroke-width="0.857143"/>
</svg>
