<svg width="62" height="62" viewBox="0 0 62 62" fill="none" xmlns="http://www.w3.org/2000/svg">
<circle cx="33" cy="16" r="15" fill="#67B514"/>
<path d="M61.0312 7.71996L47.1394 18.4062H39.8922C37.0634 18.4062 34.2976 19.5562 32.303 21.5615L31.9784 21.8889L31.6307 21.5411C29.6079 19.5193 26.9206 18.4062 24.0608 18.4062H14.8606L0.96875 7.71996V39.2092L11.1523 47.5404L10.7744 47.9182C10.0731 48.6196 9.6875 49.5506 9.6875 50.5407C9.6875 52.5867 11.3508 54.25 13.3968 54.25C13.8115 54.25 14.2106 54.1676 14.5913 54.0378C14.8761 55.8019 16.3971 57.1562 18.2406 57.1562C19.0698 57.1562 19.8487 56.8714 20.4949 56.3725C20.9298 57.9361 22.352 59.0937 24.0531 59.0937C24.8746 59.0937 25.6554 58.8283 26.2977 58.3381C26.7404 59.891 28.1722 61.0312 29.8656 61.0312C30.8557 61.0312 31.7876 60.6457 32.488 59.9443L34.3945 58.0378C35.091 58.7159 36.0055 59.0928 36.9791 59.0928C38.6803 59.0928 40.1024 57.9351 40.5373 56.3716C41.1825 56.8714 41.9614 57.1562 42.7907 57.1562C44.4918 57.1562 45.9139 55.9986 46.3489 54.435C46.995 54.9339 47.7739 55.2187 48.6032 55.2187C50.4467 55.2187 51.9676 53.8644 52.2524 52.1003C52.6341 52.2301 53.0333 52.3125 53.4469 52.3125C55.4929 52.3125 57.1562 50.6492 57.1562 48.6032C57.1562 47.6131 56.7707 46.6812 56.0693 45.9807L54.7053 44.6167L61.0312 39.1956V7.71996ZM59.0938 35.4824L48.7688 19.5978L59.0938 11.655V35.4824ZM13.2312 19.5978L2.90625 35.4824V11.655L13.2312 19.5978ZM11.625 50.5407C11.625 50.0679 11.8091 49.6232 12.1442 49.2881L15.3828 46.0495C15.717 45.7153 16.1617 45.5312 16.6344 45.5312C17.6119 45.5312 18.4062 46.3256 18.4062 47.3031C18.4062 47.7758 18.2222 48.2205 17.887 48.5557L14.6485 51.7942C14.3142 52.1284 13.8696 52.3125 13.3968 52.3125C12.4194 52.3125 11.625 51.5181 11.625 50.5407ZM18.2406 55.2187C17.2631 55.2187 16.4688 54.4244 16.4688 53.4469C16.4688 52.9742 16.6528 52.5295 16.988 52.1943L20.2265 48.9558C20.5607 48.6216 21.0054 48.4375 21.4782 48.4375C22.4556 48.4375 23.25 49.2319 23.25 50.2093C23.25 50.6821 23.0659 51.1267 22.7308 51.4619L19.4922 54.7005C19.158 55.0347 18.7133 55.2187 18.2406 55.2187ZM25.3057 56.637C24.9705 56.9722 24.5258 57.1562 24.0531 57.1562C23.0756 57.1562 22.2812 56.3619 22.2812 55.3844C22.2812 54.9117 22.4653 54.467 22.8005 54.1318L26.039 50.8933C26.3732 50.5591 26.8179 50.375 27.2907 50.375C28.2681 50.375 29.0625 51.1694 29.0625 52.1468C29.0625 52.6196 28.8784 53.0642 28.5433 53.3994L25.3057 56.637ZM31.1182 58.5745C30.783 58.9097 30.3383 59.0937 29.8656 59.0937C28.8881 59.0937 28.0938 58.2994 28.0938 57.3219C28.0938 56.8492 28.2778 56.4045 28.613 56.0693L31.8515 52.8308C32.1858 52.4966 32.6304 52.3125 33.1032 52.3125C34.0806 52.3125 34.875 53.1069 34.875 54.0843C34.875 54.5571 34.6909 55.0017 34.3558 55.3369L31.1182 58.5745ZM36.9782 57.1562C36.5199 57.1562 36.0908 56.9799 35.7595 56.6651C36.4366 55.9695 36.8125 55.056 36.8125 54.0843C36.8125 53.3772 36.6033 52.7232 36.2593 52.1604L38.2317 54.1328C38.5659 54.467 38.75 54.9117 38.75 55.3844C38.75 56.3619 37.9556 57.1562 36.9782 57.1562ZM53.4469 50.375C52.9742 50.375 52.5295 50.1909 52.1943 49.8557L39.4349 37.0963L38.0651 38.4662L49.8558 50.2568C50.1909 50.592 50.375 51.0367 50.375 51.5094C50.375 52.4869 49.5806 53.2812 48.6032 53.2812C48.1304 53.2812 47.6857 53.0972 47.3506 52.762L35.5599 40.9713L34.1901 42.3411L44.0433 52.1943C44.3784 52.5295 44.5625 52.9742 44.5625 53.4469C44.5625 54.4244 43.7681 55.2187 42.7907 55.2187C42.3179 55.2187 41.8732 55.0347 41.5381 54.6995L31.2005 44.362L29.8307 45.7318L35.0271 50.9281C34.4652 50.5842 33.8103 50.375 33.1032 50.375C32.2739 50.375 31.495 50.6598 30.8489 51.1587C30.4139 49.5951 28.9918 48.4375 27.2907 48.4375C26.4614 48.4375 25.6825 48.7223 25.0364 49.2212C24.6014 47.6576 23.1793 46.5 21.4782 46.5C21.0693 46.5 20.6702 46.5659 20.2934 46.6928C20.0018 44.9364 18.4721 43.5937 16.6344 43.5937C15.6443 43.5937 14.7124 43.9793 14.012 44.6807L12.5288 46.1638L3.22303 38.5504L15.0573 20.3437H24.0618C26.4033 20.3437 28.6043 21.2553 30.2608 22.9109L30.6144 23.2645L25.7135 28.2052C24.7651 29.1632 23.6559 29.9179 22.4188 30.4478L22.3006 30.4982C21.0926 31.0165 20.3253 32.1887 20.3457 33.5401C20.3709 35.3448 21.8589 36.8125 23.6637 36.8125H25.9422C28.2575 36.8125 30.2657 36.0278 31.7508 34.5427L32.6217 33.6718C33.7193 32.5732 35.1792 31.9687 36.7321 31.9687C37.51 31.9687 38.2676 31.8525 38.997 31.6481L54.6995 47.3506C55.0347 47.6857 55.2188 48.1304 55.2188 48.6032C55.2188 49.5806 54.4244 50.375 53.4469 50.375ZM40.9239 30.8353C42.0224 30.2008 42.9854 29.3241 43.7129 28.2332L44.9326 26.4033L43.3206 25.3289L42.1009 27.1589C40.9016 28.9569 38.8943 30.0312 36.7321 30.0312C34.6619 30.0312 32.7157 30.8372 31.2519 32.301L30.381 33.1719C29.2504 34.3025 27.7576 34.875 25.9422 34.875H23.6637C22.9129 34.875 22.2929 34.2647 22.2822 33.4567C22.2745 32.9404 22.5738 32.489 23.0621 32.2797L23.1803 32.2293C24.6489 31.5997 25.9644 30.7045 27.0892 29.5692L33.6757 22.9284C35.309 21.2854 37.5749 20.3437 39.8912 20.3437H46.9427L58.7876 38.5669L53.3316 43.244L40.9239 30.8353Z" fill="#02607E"/>
</svg>
