<svg width="63" height="63" viewBox="0 0 63 63" fill="none" xmlns="http://www.w3.org/2000/svg">
<g clip-path="url(#clip0)">
<path d="M41.7596 63L32.832 50.1042L34.5052 48.9471L41.5948 59.1855L45.1171 53.0221L52.167 52.1418L46.9959 44.0284L48.7128 42.9353L55.6131 53.762L46.3791 54.9161L41.7596 63Z" fill="#02607E"/>
<path d="M21.3735 63L16.754 54.9161L7.51904 53.762L14.4203 42.9353L16.1372 44.0284L10.9661 52.1418L18.016 53.0221L21.5384 59.1855L28.6279 48.9471L30.3011 50.1042L21.3735 63Z" fill="#02607E"/>
<path d="M31.5001 50.8869C27.5726 50.8869 24.3759 47.6902 24.3759 43.7627C24.3759 43.6467 24.379 43.5286 24.3861 43.4075C24.1988 43.3332 24.0126 43.2559 23.8263 43.1745C23.751 43.261 23.6696 43.3485 23.5841 43.434C20.8077 46.2114 16.288 46.2104 13.5095 43.434C10.7321 40.6566 10.7321 36.1358 13.5095 33.3594C13.595 33.2739 13.6825 33.1925 13.7691 33.1172C13.6887 32.9309 13.6113 32.7447 13.536 32.5574C13.4149 32.5646 13.2968 32.5676 13.1808 32.5676C9.25336 32.5676 6.05664 29.3709 6.05664 25.4434C6.05664 21.516 9.25336 18.3193 13.1808 18.3193C13.2968 18.3193 13.4149 18.3223 13.536 18.3295C13.6103 18.1422 13.6876 17.9559 13.7691 17.7697C13.6825 17.6944 13.595 17.613 13.5095 17.5275C10.7321 14.7501 10.7321 10.2303 13.5095 7.45289C16.288 4.67549 20.8077 4.67549 23.5841 7.45289C23.6696 7.53838 23.751 7.62591 23.8263 7.71242C24.0126 7.63201 24.1988 7.55467 24.3861 7.47935C24.379 7.35824 24.3759 7.23917 24.3759 7.12416C24.3759 3.19671 27.5726 0 31.5001 0C35.4275 0 38.6242 3.19671 38.6242 7.12416C38.6242 7.24019 38.6212 7.35824 38.6141 7.47935C38.8013 7.55365 38.9876 7.631 39.1738 7.71242C39.2491 7.62591 39.3306 7.53838 39.416 7.45289C42.1924 4.67447 46.7122 4.6765 49.4906 7.45289C52.268 10.2303 52.268 14.7511 49.4906 17.5275C49.4051 17.613 49.3176 17.6944 49.2311 17.7697C49.3115 17.9559 49.3889 18.1422 49.4642 18.3295C49.5853 18.3223 49.7033 18.3193 49.8194 18.3193C53.7468 18.3193 56.9435 21.516 56.9435 25.4434C56.9435 29.3709 53.7468 32.5676 49.8194 32.5676C49.7033 32.5676 49.5853 32.5646 49.4642 32.5574C49.3899 32.7447 49.3125 32.9309 49.2311 33.1172C49.3176 33.1925 49.4051 33.2739 49.4906 33.3594C52.268 36.1368 52.268 40.6566 49.4906 43.434C46.7122 46.2114 42.1924 46.2114 39.416 43.434C39.3306 43.3485 39.2491 43.261 39.1738 43.1745C38.9876 43.2549 38.8013 43.3322 38.6141 43.4075C38.6212 43.5286 38.6242 43.6467 38.6242 43.7627C38.6242 47.6902 35.4275 50.8869 31.5001 50.8869Z" fill="#67B514"/>
<path d="M38.1622 10.1774H24.838L15.0239 25.4434L24.838 40.7095H38.1622L40.4979 37.0762L38.7861 35.974L37.0508 38.674H25.9493L17.4431 25.4434L25.9493 12.2128H37.0508L45.5561 25.4434L40.0216 34.0525L41.7334 35.1537L47.9752 25.4434L38.1622 10.1774Z" fill="#02607E"/>
<path d="M31.5001 6.10641C20.8373 6.10641 12.1631 14.7806 12.1631 25.4434C12.1631 36.1063 20.8373 44.7805 31.5001 44.7805C42.1629 44.7805 50.8371 36.1063 50.8371 25.4434C50.8371 14.7806 42.1629 6.10641 31.5001 6.10641ZM31.5001 42.745C21.9598 42.745 14.1986 34.9837 14.1986 25.4434C14.1986 15.9032 21.9598 8.14189 31.5001 8.14189C41.0404 8.14189 48.8016 15.9032 48.8016 25.4434C48.8016 34.9837 41.0404 42.745 31.5001 42.745Z" fill="#02607E"/>
</g>
<defs>
<clipPath id="clip0">
<rect width="63" height="63" fill="white"/>
</clipPath>
</defs>
</svg>
