<svg width="62" height="62" viewBox="0 0 62 62" fill="none" xmlns="http://www.w3.org/2000/svg">
<path d="M55.2188 52.3125C54.0233 52.3125 52.4132 51.3922 50.8555 50.5029C49.0788 49.4867 47.2421 48.4375 45.5312 48.4375C44.6749 48.4375 43.8243 48.578 42.9922 48.8453C42.7548 49.6368 42.625 50.4748 42.625 51.3438C42.625 56.1594 46.5281 60.0625 51.3438 60.0625C56.1594 60.0625 60.0625 56.1594 60.0625 51.3438V51.2052C59.6663 51.6102 56.8521 52.3125 55.2188 52.3125Z" fill="#67B514"/>
<path d="M48.1256 31.9503L46.6017 27.125H46.5V28.0938C46.5 28.9027 42.9515 30.0312 38.75 30.0312C36.8958 30.0312 34.9593 29.0267 32.8087 27.8031C32.5335 28.5374 31.8302 29.0625 31 29.0625H27.125C26.8886 29.0625 26.6639 29.0141 26.4546 28.9366L26.4498 28.9404L25.4994 31.9503C25.2931 32.6042 25.1875 33.2863 25.1875 33.9721C25.1875 34.9874 25.4123 35.9493 25.8162 36.8125H31V40.6274C31.2955 40.6672 31.5967 40.6875 31.9029 40.6875H41.7231C45.4315 40.6875 48.4375 37.6815 48.4375 33.9721C48.4375 33.2863 48.3319 32.6042 48.1256 31.9503Z" fill="#67B514"/>
<path d="M54.5891 26.1562H61.0312V12.5938H54.5891L51.6034 10.2048C50.406 9.24672 48.9015 8.71875 47.368 8.71875H43.678C43.6441 8.07259 43.6218 7.42741 43.6102 6.78125H44.5625C46.1648 6.78125 47.4688 5.47731 47.4688 3.875C47.4688 2.27269 46.1648 0.96875 44.5625 0.96875H29.0625C27.4602 0.96875 26.1562 2.27269 26.1562 3.875C26.1562 5.47731 27.4602 6.78125 29.0625 6.78125H30.0148C29.9809 8.72166 29.8443 10.6679 29.6079 12.5938H27.125C25.5227 12.5938 24.2188 13.8977 24.2188 15.5C24.2188 16.2469 24.5103 16.9221 24.9744 17.4375C24.5094 17.9529 24.2188 18.6281 24.2188 19.375C24.2188 20.1219 24.5103 20.7971 24.9744 21.3125C24.5094 21.8279 24.2188 22.5031 24.2188 23.25C24.2188 23.9969 24.5103 24.6721 24.9744 25.1875C24.5094 25.7029 24.2188 26.3781 24.2188 27.125C24.2188 28.0327 24.645 28.8339 25.2989 29.3677L24.5753 31.6588C24.3389 32.4076 24.2188 33.1865 24.2188 33.9721C24.2188 34.6115 24.304 35.2363 24.4561 35.8438H20.3438V37.7812H22.2812V43.5938H16.4688V37.7812H18.4062V35.8438H4.84375V37.7812H6.78125V43.6916C4.57347 44.1421 2.90625 46.0989 2.90625 48.4375V59.0938H0.96875V61.0312H37.7812V59.0938H35.8438V48.4375C35.8438 46.0989 34.1765 44.1421 31.9688 43.6916V41.6562H41.7221C43.5279 41.6562 45.1864 41.0266 46.5 39.9793V42.9631C43.4969 44.6942 41.6562 47.8524 41.6562 51.3438C41.6562 56.6854 46.0021 61.0312 51.3438 61.0312C56.6854 61.0312 61.0312 56.6854 61.0312 51.3438C61.0312 47.8524 59.1906 44.6942 56.1875 42.9631V37.7812H58.125V35.8438H49.166C49.3171 35.2431 49.4062 34.6193 49.4062 33.9721C49.4062 33.1855 49.2861 32.4076 49.0498 31.6578L48.5053 29.9344C49.6329 29.7416 50.7044 29.265 51.6034 28.5452L54.5891 26.1562ZM55.2188 14.5312H59.0938V24.2188H55.2188V14.5312ZM28.0938 3.875C28.0938 3.34122 28.5287 2.90625 29.0625 2.90625H44.5625C45.0963 2.90625 45.5312 3.34122 45.5312 3.875C45.5312 4.40878 45.0963 4.84375 44.5625 4.84375H29.0625C28.5287 4.84375 28.0938 4.40878 28.0938 3.875ZM41.6727 6.78125C41.6834 7.42741 41.7057 8.07259 41.7376 8.71875H37.7812C36.7127 8.71875 35.8438 9.58772 35.8438 10.6562C35.8438 12.7933 37.5817 14.5312 39.7188 14.5312H42.3324C42.779 17.4404 43.4407 20.3321 44.3261 23.1367L44.8308 24.7341C43.4862 24.3408 41.7473 24.2188 39.7188 24.2188C38.0457 24.2188 35.4805 24.8455 33.511 25.6893C33.4073 25.5091 33.2882 25.3415 33.1497 25.1875C33.6147 24.6721 33.9053 23.9969 33.9053 23.25C33.9053 22.5031 33.6137 21.8279 33.1497 21.3125C33.6147 20.7971 33.9053 20.1219 33.9053 19.375C33.9053 18.6281 33.6137 17.9529 33.1497 17.4375C33.6147 16.9221 33.9053 16.2469 33.9053 15.5C33.9053 14.0866 32.89 12.9086 31.5512 12.6499C31.7847 10.7047 31.9184 8.74006 31.9523 6.78125H41.6727ZM31.9688 27.125C31.9688 27.6588 31.5338 28.0938 31 28.0938H27.125C26.5912 28.0938 26.1562 27.6588 26.1562 27.125C26.1562 26.5912 26.5912 26.1562 27.125 26.1562H31C31.5338 26.1562 31.9688 26.5912 31.9688 27.125ZM26.1562 23.25C26.1562 22.7162 26.5912 22.2812 27.125 22.2812H31C31.5338 22.2812 31.9688 22.7162 31.9688 23.25C31.9688 23.7838 31.5338 24.2188 31 24.2188H27.125C26.5912 24.2188 26.1562 23.7838 26.1562 23.25ZM26.1562 19.375C26.1562 18.8412 26.5912 18.4062 27.125 18.4062H31C31.5338 18.4062 31.9688 18.8412 31.9688 19.375C31.9688 19.9088 31.5338 20.3438 31 20.3438H27.125C26.5912 20.3438 26.1562 19.9088 26.1562 19.375ZM27.125 14.5312H31C31.5338 14.5312 31.9688 14.9662 31.9688 15.5C31.9688 16.0338 31.5338 16.4688 31 16.4688H27.125C26.5912 16.4688 26.1562 16.0338 26.1562 15.5C26.1562 14.9662 26.5912 14.5312 27.125 14.5312ZM24.2188 37.7812H30.0312V43.5938H24.2188V37.7812ZM24.2188 45.5312H30.0312V52.3125C30.0312 53.9148 28.7273 55.2188 27.125 55.2188C25.5227 55.2188 24.2188 53.9148 24.2188 52.3125V45.5312ZM14.5312 37.7812V43.5938H8.71875V37.7812H14.5312ZM8.71875 45.5312H14.5312V52.3125C14.5312 53.9148 13.2273 55.2188 11.625 55.2188C10.0227 55.2188 8.71875 53.9148 8.71875 52.3125V45.5312ZM33.9062 48.4375V59.0938H4.84375V48.4375C4.84375 47.1762 5.65653 46.1106 6.78125 45.7095V52.3125C6.78125 54.9833 8.95416 57.1562 11.625 57.1562C14.2958 57.1562 16.4688 54.9833 16.4688 52.3125V45.5312H22.2812V52.3125C22.2812 54.9833 24.4542 57.1562 27.125 57.1562C29.7958 57.1562 31.9688 54.9833 31.9688 52.3125V45.7095C33.0935 46.1106 33.9062 47.1762 33.9062 48.4375ZM41.7221 39.7188H31.9688V37.7812H33.9062V35.8438H26.4682C26.2618 35.2451 26.1562 34.6183 26.1562 33.9721C26.1562 33.3841 26.2463 32.8019 26.4227 32.2419L27.1211 30.0312H27.125H31C32.4192 30.0312 33.6001 29.0073 33.852 27.6607C35.6103 26.8257 38.1697 26.1562 39.7188 26.1562C43.9851 26.1562 45.2958 26.7627 45.7085 27.5125L47.2023 32.2419C47.3787 32.8019 47.4688 33.3841 47.4688 33.9721C47.4688 37.1409 44.8909 39.7188 41.7221 39.7188ZM54.7867 44.4094C56.699 45.3607 58.0775 47.0105 58.7072 48.9587C57.7607 48.6264 56.5721 48.4375 55.2188 48.4375C53.9836 48.4375 52.4714 49.0749 50.6162 50.3663C50.6957 50.4118 50.7761 50.4573 50.8555 50.5029C51.4145 50.8226 51.9802 51.1442 52.5314 51.428C53.9758 50.5426 54.8158 50.375 55.2188 50.375C57.6503 50.375 58.9659 51.1054 59.0938 51.3438C59.0938 55.6169 55.6169 59.0938 51.3438 59.0938C47.0706 59.0938 43.5938 55.6169 43.5938 51.3438C43.5938 48.3891 45.2445 45.7318 47.9008 44.4094L48.4375 44.1421V37.7812H54.25V44.1421L54.7867 44.4094ZM47.9095 28.0472L47.7526 27.5503C47.6925 27.2432 47.6063 26.9584 47.4852 26.7026L46.1745 22.5525C45.3646 19.9882 44.7504 17.3474 44.3203 14.6892L45.0817 15.4506C46.3624 16.7313 48.0655 17.4365 49.8771 17.4365H51.3438V15.499H49.8761C48.5828 15.499 47.3661 14.9953 46.4506 14.0808L44.9636 12.5938H39.7188C38.6502 12.5938 37.7812 11.7248 37.7812 10.6562H47.368C48.4637 10.6562 49.538 11.0331 50.3944 11.718L53.2812 14.0275V24.7225L50.3934 27.033C49.6794 27.6026 48.8124 27.9446 47.9095 28.0472Z" fill="#02607E"/>
</svg>
