<svg width="68" height="68" viewBox="0 0 68 68" fill="none" xmlns="http://www.w3.org/2000/svg">
<path d="M32.9033 46.0645H13.1614V60.3226H32.9033V46.0645Z" fill="#67B514"/>
<path d="M50.4517 9.87097H32.9033V12.0645H50.4517V9.87097Z" fill="#02607E"/>
<path d="M50.4517 14.2581H32.9033V16.4516H50.4517V14.2581Z" fill="#02607E"/>
<path d="M32.9033 44.9677H13.1614V47.1613H32.9033V44.9677Z" fill="#02607E"/>
<path d="M32.9033 53.7419H13.1614V55.9355H32.9033V53.7419Z" fill="#02607E"/>
<path d="M21.9356 49.3548H13.1614V51.5484H21.9356V49.3548Z" fill="#02607E"/>
<path d="M32.9033 49.3548H24.1292V51.5484H32.9033V49.3548Z" fill="#02607E"/>
<path d="M21.9356 58.129H13.1614V60.3226H21.9356V58.129Z" fill="#02607E"/>
<path d="M32.9033 58.129H24.1292V60.3226H32.9033V58.129Z" fill="#02607E"/>
<path d="M65.8064 41.8792V27.4194C65.8064 26.2831 65.042 25.2763 63.9463 24.9725L54.8387 22.4422V4.3871H24.525C24.4625 4.318 24.4076 4.24342 24.3407 4.17652C22.9226 2.75729 20.8881 2.25497 19.0126 2.78361C18.0551 1.08142 16.263 0 14.2581 0C12.2532 0 10.461 1.08142 9.50465 2.78252C7.62697 2.25606 5.59355 2.75729 4.17652 4.17652C2.75839 5.59465 2.25606 7.62697 2.78361 9.50465C1.08142 10.461 0 12.2532 0 14.2581C0 16.263 1.08142 18.0551 2.78361 19.0115C2.25606 20.8903 2.75839 22.9215 4.17652 24.3396C4.8631 25.0262 5.69336 25.4989 6.58065 25.7435V40.7298L8.77419 38.9015V68H41.0358L54.8387 54.196V38.9015L61.4194 37.0216V30.5693L63.6129 29.9595V41.8803C62.3396 42.3344 61.4194 43.5408 61.4194 44.9688V52.6463H68V44.9688C68 43.5397 67.0798 42.3333 65.8064 41.8792ZM26.3226 14.2581C26.3226 15.6948 25.3892 16.9495 24.0007 17.3817L23.5642 17.5177C23.9239 16.4955 24.129 15.4009 24.129 14.2581C24.129 13.1152 23.9239 12.0206 23.5642 10.9995L24.0007 11.1355C25.3892 11.5666 26.3226 12.8213 26.3226 14.2581ZM8.77419 36.0455V25.8861C9.01877 25.8521 9.26336 25.8016 9.50465 25.7336C10.461 27.4347 12.2532 28.5161 14.2581 28.5161C16.263 28.5161 18.0551 27.4347 19.0115 25.7336C19.2528 25.8016 19.4963 25.8521 19.7419 25.8861V36.0455L14.2581 31.4752L8.77419 36.0455ZM14.2581 24.129C15.4009 24.129 16.4955 23.9239 17.5166 23.5642L17.3806 24.0007C16.9495 25.3892 15.6948 26.3226 14.2581 26.3226C12.8213 26.3226 11.5666 25.3892 11.1345 24.0007L10.9985 23.5642C12.0206 23.9239 13.1152 24.129 14.2581 24.129ZM6.58065 14.2581C6.58065 10.0245 10.0245 6.58065 14.2581 6.58065C18.4916 6.58065 21.9355 10.0245 21.9355 14.2581C21.9355 18.4916 18.4916 21.9355 14.2581 21.9355C10.0245 21.9355 6.58065 18.4916 6.58065 14.2581ZM18.9391 23.3558L18.5322 23.1419C20.5426 22.1713 22.1702 20.5426 23.1419 18.5322L23.3558 18.9391C24.0325 20.2256 23.8055 21.7732 22.7888 22.7888C21.7743 23.8044 20.2267 24.0325 18.9391 23.3558ZM22.7888 5.72736C23.8044 6.74297 24.0325 8.29052 23.3558 9.57703L23.1419 9.98394C22.1702 7.97355 20.5426 6.34594 18.5322 5.37419L18.9391 5.16032C20.2256 4.48142 21.7743 4.71065 22.7888 5.72736ZM14.2581 2.19355C15.6948 2.19355 16.9495 3.1269 17.3817 4.51542L17.5177 4.95194C16.4955 4.59219 15.4009 4.3871 14.2581 4.3871C13.1152 4.3871 12.0206 4.59219 10.9995 4.95194L11.1355 4.51542C11.5666 3.1269 12.8213 2.19355 14.2581 2.19355ZM5.72736 5.72736C6.74297 4.71174 8.29052 4.48252 9.57703 5.16032L9.98394 5.37419C7.97355 6.34594 6.34594 7.97355 5.37419 9.98394L5.16032 9.57703C4.48361 8.29052 4.71065 6.74297 5.72736 5.72736ZM2.19355 14.2581C2.19355 12.8213 3.1269 11.5666 4.51542 11.1345L4.95194 10.9985C4.59219 12.0206 4.3871 13.1152 4.3871 14.2581C4.3871 15.4009 4.59219 16.4955 4.95194 17.5166L4.51542 17.3806C3.1269 16.9495 2.19355 15.6948 2.19355 14.2581ZM5.72736 22.7888C4.71174 21.7732 4.48361 20.2256 5.16032 18.9391L5.37419 18.5322C6.34484 20.5426 7.97355 22.1702 9.98394 23.1419L9.57703 23.3558C8.28942 24.0314 6.74187 23.8044 5.72736 22.7888ZM52.6452 52.6452H39.4839V63.6129H41.6774V54.8387H51.0943L40.1266 65.8064H10.9677V37.0732L14.2581 34.3312L21.9355 40.7287V25.7435C22.8228 25.4989 23.653 25.0273 24.3396 24.3407C25.7577 22.9226 26.2601 20.8903 25.7325 19.0126C27.4347 18.0551 28.5161 16.263 28.5161 14.2581C28.5161 12.2532 27.4347 10.461 25.7325 9.50465C26.0056 8.5351 25.9979 7.52606 25.7369 6.58065H52.6452V21.8324L44.9677 19.6992L25.9892 24.9714C24.8935 25.2763 24.129 26.2831 24.129 27.4194C24.129 28.5556 24.8935 29.5625 25.9892 29.8663L28.5161 30.5682V37.0205L44.9677 41.7213L52.6452 39.5277V52.6452ZM59.2258 35.3666L44.9677 39.44L30.7097 35.3666V31.178L44.9677 35.1385L59.2258 31.178V35.3666ZM63.3596 27.7528L44.9677 32.8615L26.5759 27.7528C26.4268 27.7111 26.3226 27.574 26.3226 27.4194C26.3226 27.2647 26.4268 27.1276 26.5759 27.0859L44.9677 21.9772L63.3596 27.0859C63.5087 27.1276 63.6129 27.2647 63.6129 27.4194C63.6129 27.574 63.5087 27.7111 63.3596 27.7528ZM65.8064 50.4516H63.6129V44.9677C63.6129 44.3634 64.1054 43.871 64.7097 43.871C65.314 43.871 65.8064 44.3634 65.8064 44.9677V50.4516Z" fill="#02607E"/>
<path d="M14.258 19.7419C17.2867 19.7419 19.7419 17.2867 19.7419 14.2581C19.7419 11.2294 17.2867 8.77419 14.258 8.77419C11.2294 8.77419 8.77417 11.2294 8.77417 14.2581C8.77417 17.2867 11.2294 19.7419 14.258 19.7419Z" fill="#67B514"/>
<path d="M50.4517 12.0645H32.9033V14.2581H50.4517V12.0645Z" fill="#67B514"/>
</svg>
