<svg width="62" height="62" viewBox="0 0 62 62" fill="none" xmlns="http://www.w3.org/2000/svg">
<path d="M21.3124 8.71873C25.107 8.71873 28.3262 11.1474 29.5245 14.5312H33.9062C34.2714 14.5312 34.6279 14.5651 34.9796 14.6145L34.9844 13.8647C34.6473 13.3154 34.3528 12.7352 34.1057 12.1394C33.3588 10.3385 33.0595 8.4126 33.2377 6.57198L33.3511 5.40076L32.1799 5.5141C30.3334 5.69042 28.4124 5.39107 26.6125 4.6461C24.8116 3.90017 23.2383 2.75123 22.0622 1.32232L21.3124 0.413635L20.5645 1.32232C19.3885 2.75123 17.8152 3.90017 16.0143 4.6461C14.2144 5.39204 12.2905 5.69042 10.4469 5.5141L9.27473 5.39979L9.38808 6.57101C9.56633 8.41164 9.26601 10.3375 8.52008 12.1384C7.77414 13.9393 6.6252 15.5126 5.19629 16.6886L4.28857 17.4375L5.19726 18.1854C6.22511 19.0311 7.10861 20.1083 7.80417 21.3144C12.0589 21.3444 15.4999 24.8 15.4999 29.0625V29.2117H15.5232V33.3337C15.5251 33.3337 15.527 33.3347 15.529 33.3347C15.8225 29.3221 19.1628 26.1562 23.2499 26.1562H29.0624C29.0624 26.6435 29.0043 27.1163 28.9171 27.5784L28.8396 29.5459C29.9585 29.3182 31.0813 29.2562 32.1799 29.3618L33.3501 29.4752L33.2368 28.3039C33.0585 26.4633 33.3588 24.5374 34.1048 22.7365C34.2007 22.5069 34.3005 22.2822 34.408 22.0633L32.5306 21.5159C31.4698 21.0073 30.5417 20.2691 29.8113 19.3614C28.9346 23.25 25.4655 26.1562 21.3124 26.1562C16.4968 26.1562 12.5937 22.2531 12.5937 17.4375C12.5937 12.6218 16.4968 8.71873 21.3124 8.71873Z" fill="#67B514"/>
<path d="M9.68751 32.9375L9.67394 32.8406C9.66619 32.8697 9.6691 32.9016 9.68751 32.9375Z" fill="#67B514"/>
<path d="M54.5552 57.9177C53.8974 55.9434 52.39 54.4447 50.5242 53.7375L49.3239 50.5881C48.6138 48.7223 46.7955 47.4688 44.7979 47.4688H42.625V41.6562V40.6875V37.7812H47.4688C52.2767 37.7812 56.1875 33.8704 56.1875 29.0625V28.0938H49.4062C46.6686 28.0938 44.2244 29.3647 42.625 31.3439V23.25V22.2812V19.375H47.4688C52.2767 19.375 56.1875 15.4642 56.1875 10.6562V9.6875H49.4062C45.0847 9.6875 41.4974 12.8514 40.8144 16.9822C39.2189 14.9081 36.7195 13.5625 33.9062 13.5625H30.1853C28.6401 10.0304 25.1759 7.75 21.3125 7.75C15.9708 7.75 11.625 12.0958 11.625 17.4375C11.625 19.0534 12.028 20.5753 12.7313 21.917C11.3179 20.9289 9.60225 20.3438 7.75 20.3438H0.96875V21.3125C0.96875 26.1204 4.87959 30.0312 9.6875 30.0312H14.5312V33.9062V34.875V37.1564C12.9318 35.1772 10.4877 33.9062 7.75 33.9062H0.96875V34.875C0.96875 39.6829 4.87959 43.5938 9.6875 43.5938H14.5312V48.4375V49.4062V51.3554C11.781 51.4193 9.30291 53.1602 8.33512 55.7438L7.07866 59.0938H4.84375V61.0312H57.1562V59.0938H54.9475L54.5552 57.9177ZM49.4062 30.0312H54.1812C53.7104 33.3134 50.8797 35.8438 47.4688 35.8438H42.6938C43.1656 32.5616 45.9953 30.0312 49.4062 30.0312ZM9.6875 41.6562C6.27653 41.6562 3.44681 39.1259 2.97503 35.8438H7.75C11.161 35.8438 13.9907 38.3741 14.4625 41.6562H9.6875ZM47.5143 51.2788L48.2825 53.2938C48.2282 53.2929 48.1769 53.2812 48.1236 53.2812H42.625V55.2188H48.1236C50.2113 55.2188 52.0587 56.5498 52.7184 58.5309L52.9063 59.0938H27.4999L27.6878 58.5309C28.3485 56.5498 30.195 55.2188 32.2826 55.2188H40.6875V53.2812H35.2499L35.8786 51.3941C36.2758 50.2045 37.3841 49.4062 38.6367 49.4062H44.7979C45.9953 49.4062 47.0871 50.158 47.5143 51.2788ZM40.6875 35.2189C39.0881 33.2397 36.6439 31.9688 33.9062 31.9688H27.7925C29.1797 30.4246 30.0312 28.3902 30.0312 26.1562V25.1875H27.0979C28.4619 24.1693 29.5566 22.8005 30.2347 21.1972C31.7527 22.476 33.7086 23.25 35.8438 23.25H40.6875V35.2189ZM40.6187 39.7188H35.8438C32.4328 39.7188 29.6031 37.1884 29.1313 33.9062H33.9062C37.3172 33.9062 40.1469 36.4366 40.6187 39.7188ZM16.4387 28.4774C16.3612 27.312 16.0551 26.2115 15.562 25.2156C16.4106 25.8453 17.36 26.3452 18.3888 26.6716C17.6497 27.1705 16.9948 27.7818 16.4387 28.4774ZM23.25 27.125H28.025C27.5542 30.4071 24.7235 32.9375 21.3125 32.9375H16.5375C17.0093 29.6554 19.839 27.125 23.25 27.125ZM49.4062 11.625H54.1812C53.7104 14.9071 50.8797 17.4375 47.4688 17.4375H42.6938C43.1656 14.1554 45.9953 11.625 49.4062 11.625ZM40.6187 21.3125H35.8438C32.4328 21.3125 29.6031 18.7821 29.1313 15.5H33.9062C37.3172 15.5 40.1469 18.0304 40.6187 21.3125ZM21.3125 9.6875C24.1083 9.6875 26.6397 11.1852 28.0133 13.5625H27.125V14.5312C27.125 16.4184 27.7343 18.1631 28.7573 19.591C27.8099 22.8664 24.7729 25.1875 21.3125 25.1875C17.0393 25.1875 13.5625 21.7107 13.5625 17.4375C13.5625 13.1643 17.0393 9.6875 21.3125 9.6875ZM9.6875 28.0938C6.27653 28.0938 3.44681 25.5634 2.97503 22.2812H7.75C11.161 22.2812 13.9907 24.8116 14.4625 28.0938H9.6875ZM21.3125 49.4062C26.1204 49.4062 30.0312 45.4954 30.0312 40.6875V39.7188H23.25C20.5123 39.7188 18.0682 40.9897 16.4688 42.9689V42.625V34.875H21.3125C23.5464 34.875 25.5808 34.0235 27.125 32.6362V32.9375C27.125 37.7454 31.0358 41.6562 35.8438 41.6562H40.6875V47.4688H38.6367C36.549 47.4688 34.7016 48.7998 34.0419 50.7809L33.8539 51.3438H16.4688V49.4062H21.3125ZM16.5375 47.4688C17.0083 44.1866 19.839 41.6562 23.25 41.6562H28.025C27.5542 44.9384 24.7235 47.4688 21.3125 47.4688H16.5375ZM10.1496 56.4239C10.8539 54.5445 12.6761 53.2812 14.6843 53.2812H32.2826C29.3589 53.2812 26.7733 55.1451 25.8501 57.9177L25.4587 59.0938H9.14791L10.1496 56.4239Z" fill="#02607E"/>
</svg>
