<svg width="60" height="69" viewBox="0 0 60 69" fill="none" xmlns="http://www.w3.org/2000/svg">
<path d="M60 0H0V60.1124H27.6404C27.7927 60.1923 27.9449 60.2722 28.1044 60.3593L28.2349 60.1124H60V0ZM55.6506 46.0157C49.402 47.766 44.6684 49.5381 38.4197 52.5157C37.1874 51.8258 35.9261 51.1286 34.6357 50.4314C43.697 45.4493 49.7862 42.98 55.6506 41.2152V46.0157ZM25.4295 45.6163C36.3465 39.5157 48.1551 34.5336 55.6506 32.195V36.6688C48.5973 38.7023 41.5223 41.5057 30.0616 47.9984C28.5248 47.1923 26.9735 46.3934 25.4295 45.6163ZM30.0906 38.2157L30.1341 38.1286C24.8858 35.3397 20.9569 33.4152 17.5643 31.9554C18.3255 25.6805 23.668 20.7928 30.1341 20.7928C36.7452 20.7928 42.1747 25.8911 42.7474 32.3621C38.7459 34.0397 34.4255 36.0224 30.0906 38.2157ZM25.502 40.6051C23.8855 41.4766 22.2834 42.3772 20.7104 43.2923C14.353 40.242 8.45234 37.7146 4.3494 36.48V31.9626C10.9822 33.8291 15.6941 35.5213 25.502 40.6051ZM4.3494 41.0554C11.8159 43.5465 24.3566 49.7051 34.9112 55.5442L35.0127 55.7476H28.7133C17.1294 49.6688 12.2001 47.9766 4.3494 45.8196V41.0554ZM55.6506 4.35755V27.6487C53.2077 28.3604 50.2356 29.3844 46.9228 30.6772C45.5817 22.6012 38.5792 16.4352 30.1341 16.4352C21.8267 16.4352 14.9112 22.3978 13.4179 30.285C10.4386 29.1811 7.6477 28.3531 4.34215 27.4453V4.35755H55.6506ZM4.3494 55.7549V50.3442C9.32947 51.7387 13.2222 53.0387 18.9924 55.7549H4.3494ZM41.7688 55.7549C46.6836 53.4817 50.7213 51.9783 55.6506 50.5476V55.7549H41.7688Z" fill="black"/>
<path d="M32.4973 8.07593H27.568V13.0145H32.4973V8.07593Z" fill="black"/>
<path d="M40.8752 10.4705L37.7067 14.2534L41.4825 17.4279L44.6511 13.645L40.8752 10.4705Z" fill="black"/>
<path d="M50.5051 18.8071L46.2363 21.2764L48.701 25.5532L52.9698 23.0839L50.5051 18.8071Z" fill="black"/>
<path d="M19.1844 10.4645L15.4086 13.639L18.5771 17.422L22.353 14.2475L19.1844 10.4645Z" fill="black"/>
<path d="M9.55597 18.8074L7.09131 23.0842L11.3601 25.5535L13.8248 21.2767L9.55597 18.8074Z" fill="black"/>
<path d="M1.07995 67.5639C1.30466 67.7019 1.63812 67.8181 1.98607 67.8181C2.50075 67.8181 2.80521 67.5421 2.80521 67.1499C2.80521 66.7868 2.59499 66.5762 2.06581 66.3728C1.4279 66.1477 1.03645 65.8136 1.03645 65.2616C1.03645 64.6516 1.54388 64.2013 2.29778 64.2013C2.69647 64.2013 2.98643 64.2957 3.16041 64.3901L3.02268 64.8041C2.8922 64.7315 2.63123 64.6153 2.28328 64.6153C1.74685 64.6153 1.54388 64.9348 1.54388 65.2035C1.54388 65.5667 1.7831 65.7482 2.31952 65.9588C2.97918 66.213 3.31989 66.5326 3.31989 67.1063C3.31989 67.7091 2.87045 68.232 1.94983 68.232C1.57288 68.232 1.15968 68.1231 0.949463 67.9851L1.07995 67.5639Z" fill="black"/>
<path d="M9.61949 64.2594V68.1739H9.11206V64.2594H9.61949Z" fill="black"/>
<path d="M15.6072 68.1739V64.2594H16.1581L17.4122 66.2421C17.7021 66.6996 17.9269 67.1136 18.1153 67.513L18.1298 67.5058C18.0863 66.9829 18.0718 66.5035 18.0718 65.9007V64.2667H18.5503V68.1812H18.0428L16.8033 66.1985C16.5278 65.7628 16.2668 65.3125 16.0711 64.8912L16.0566 64.8985C16.0856 65.3924 16.1001 65.8644 16.1001 66.5108V68.1812H15.6072V68.1739Z" fill="black"/>
<path d="M27.8651 66.1767C27.8651 67.5203 27.046 68.2393 26.0528 68.2393C25.0235 68.2393 24.2986 67.4404 24.2986 66.2566C24.2986 65.0147 25.067 64.2013 26.1108 64.2013C27.1692 64.2013 27.8651 65.0147 27.8651 66.1767ZM24.8278 66.2421C24.8278 67.0773 25.2772 67.8253 26.0746 67.8253C26.872 67.8253 27.3287 67.0845 27.3287 66.1985C27.3287 65.4214 26.9227 64.608 26.0818 64.608C25.2482 64.608 24.8278 65.3851 24.8278 66.2421Z" fill="black"/>
<path d="M33.6209 64.3103C33.8602 64.2667 34.1864 64.2377 34.5851 64.2377C35.0852 64.2377 35.4477 64.3539 35.6797 64.5645C35.8971 64.7533 36.0203 65.0366 36.0203 65.3852C36.0203 65.741 35.9189 66.017 35.7159 66.2204C35.4477 66.5036 35.0127 66.6489 34.5198 66.6489C34.3676 66.6489 34.2299 66.6416 34.1139 66.6125V68.1813H33.6064V64.3103H33.6209ZM34.1284 66.1986C34.2371 66.2276 34.3748 66.2421 34.5488 66.2421C35.1577 66.2421 35.5274 65.9444 35.5274 65.4069C35.5274 64.8913 35.165 64.6371 34.6068 64.6371C34.3893 64.6371 34.2154 64.6516 34.1284 64.6807V66.1986Z" fill="black"/>
<path d="M42.5515 64.6951H41.3627V64.2666H44.255V64.6951H43.0589V68.1811H42.5515V64.6951Z" fill="black"/>
<path d="M50.3009 64.2594V68.1739H49.7935V64.2594H50.3009Z" fill="black"/>
<path d="M56.2885 64.2594H56.7959V66.1477H56.8104C56.9119 65.9952 57.0206 65.8572 57.1148 65.7264L58.3109 64.2594H58.9343L57.5208 65.9225L59.0431 68.1739H58.4487L57.1656 66.2494L56.7959 66.6778V68.1667H56.2885V64.2594Z" fill="black"/>
</svg>
