<svg width="20" height="21" viewBox="0 0 20 21" fill="none" xmlns="http://www.w3.org/2000/svg">
<path d="M16.2026 13.4913C14.9824 13.4913 13.8943 14.0669 13.1982 14.9564L7.37004 11.734C7.50661 11.3459 7.5815 10.9273 7.5815 10.4956C7.5815 10.0596 7.50661 9.64535 7.36564 9.25291L13.1894 6.03488C13.8811 6.92878 14.9736 7.50872 16.1982 7.50872C18.2863 7.50872 19.9912 5.82558 19.9912 3.75436C19.9912 1.68314 18.2907 0 16.1982 0C14.1057 0 12.4053 1.68314 12.4053 3.75436C12.4053 4.19041 12.4802 4.60901 12.6211 4.99709L6.80176 8.21512C6.11013 7.31686 5.01762 6.74128 3.79295 6.74128C1.70485 6.74128 0 8.42442 0 10.4956C0 12.5669 1.70485 14.25 3.79736 14.25C5.02203 14.25 6.11454 13.6701 6.81057 12.7718L12.6344 15.9942C12.4934 16.3866 12.4141 16.8096 12.4141 17.2456C12.4141 19.3125 14.1145 21 16.207 21C18.2996 21 20 19.3169 20 17.2456C20 15.1744 18.2952 13.4913 16.2026 13.4913ZM16.2026 1.18169C17.6388 1.18169 18.8062 2.33721 18.8062 3.75872C18.8062 5.18023 17.6388 6.33576 16.2026 6.33576C14.7665 6.33576 13.5991 5.18023 13.5991 3.75872C13.5991 2.33721 14.7709 1.18169 16.2026 1.18169ZM3.79736 13.0727C2.36123 13.0727 1.19383 11.9172 1.19383 10.4956C1.19383 9.07413 2.36123 7.9186 3.79736 7.9186C5.23348 7.9186 6.40088 9.07413 6.40088 10.4956C6.40088 11.9172 5.22907 13.0727 3.79736 13.0727ZM16.2026 19.8183C14.7665 19.8183 13.5991 18.6628 13.5991 17.2413C13.5991 15.8198 14.7665 14.6642 16.2026 14.6642C17.6388 14.6642 18.8062 15.8198 18.8062 17.2413C18.8062 18.6628 17.6388 19.8183 16.2026 19.8183Z" fill="black"/>
</svg>
