<svg width="20" height="20" viewBox="0 0 20 20" fill="none" xmlns="http://www.w3.org/2000/svg">
<path fill-rule="evenodd" clip-rule="evenodd" d="M17.0703 20H2.92969C1.31424 20 0 18.6858 0 17.0703V2.92969C0 1.31424 1.31424 0 2.92969 0H17.0703C18.6858 0 20 1.31424 20 2.92969V17.0703C20 18.6858 18.6858 20 17.0703 20ZM2.92969 1.17188C1.96045 1.17188 1.17188 1.96045 1.17188 2.92969V17.0703C1.17188 18.0396 1.96045 18.8281 2.92969 18.8281H17.0703C18.0396 18.8281 18.8281 18.0396 18.8281 17.0703V2.92969C18.8281 1.96045 18.0396 1.17188 17.0703 1.17188H2.92969ZM16.1921 12.5542L16.2011 12.5626C17.3495 13.6767 17.9477 14.6272 17.979 15.3874L18 15.8958L15.0472 15.8959C14.7429 15.8959 14.19 15.8183 13.8884 15.6647C13.3364 15.3836 12.9885 14.9542 12.652 14.5387C12.4188 14.2509 12.1986 13.979 11.9212 13.7721C11.8245 13.7 11.7373 13.6636 11.6877 13.675C11.633 13.6873 11.5328 13.7703 11.4303 13.9641C11.3613 14.0957 11.2955 14.2212 11.2461 14.3731C11.1651 14.6223 11.1273 14.951 11.1273 15.4075V15.8958H10.639C8.20958 15.8958 6.40599 14.997 4.95475 13.2805C3.64123 11.7269 2.6597 9.56387 1.58994 6.79401L1.33333 6.13026L5.29858 6.13038C5.34009 6.2406 5.36389 6.3005 5.38513 6.35394C5.43137 6.4703 5.46546 6.55606 5.64356 7.06397L5.64546 7.06937C5.87239 7.71612 6.18242 8.59969 6.53594 9.34694C7.04699 10.4274 7.34135 10.5562 7.37607 10.568L7.37624 10.5679C7.38853 10.5583 7.58846 10.4026 7.67209 9.58396C7.73058 9.0101 7.70222 8.36732 7.64806 7.98484C7.56502 7.39801 7.46381 7.27962 7.15888 7.17701L6.35767 6.90744L6.99155 6.34808C7.18317 6.17896 7.57341 5.98708 8.90182 6.00068C10.1862 6.0142 10.7813 6.16527 11.0294 6.22825C11.0777 6.24051 11.1128 6.24943 11.1374 6.25334L11.2618 6.86548C11.3383 7.24122 11.3064 7.76638 11.2693 8.37444C11.2377 8.89299 11.205 9.42921 11.2419 9.87209C11.2772 10.2949 11.3632 10.4589 11.4124 10.5197L11.4358 10.5268C11.587 10.4625 12.0163 10.0981 12.6707 8.938C13.4983 7.47106 13.7469 6.55926 13.7935 6.38806C13.7978 6.37255 13.8004 6.36311 13.8015 6.3599L17.9002 6.35812L17.9797 6.75014C18.1272 7.48409 17.4106 8.51737 16.3008 10.0099L16.2965 10.0157C15.9516 10.4797 15.6262 10.9175 15.4635 11.2033C15.3342 11.4304 15.2944 11.582 15.4669 11.8133C15.6139 11.9987 16.0498 12.4229 16.1921 12.5542ZM15.0582 14.9192H15.0661V14.9191H16.8477C16.6705 14.5568 16.298 14.0178 15.5252 13.2674C15.4185 13.1685 14.9041 12.6777 14.6958 12.4126L14.69 12.4049C14.3168 11.9102 14.2565 11.3493 14.6148 10.72C14.8077 10.3812 15.1364 9.93911 15.5171 9.42717C15.539 9.39781 15.5614 9.3677 15.5843 9.33692C16.0196 8.75202 16.636 7.92394 16.9038 7.33456C16.7048 7.3343 15.0109 7.3324 14.5137 7.33341C14.2994 7.89506 13.9012 8.75502 13.4736 9.5013C12.2975 11.5538 11.6105 11.5199 11.3806 11.5086C11.3496 11.507 11.3269 11.5059 11.3125 11.5104L10.9971 11.4136C10.9968 11.4134 10.9954 11.4127 10.9932 11.4116C10.9717 11.4008 10.8678 11.3487 10.7692 11.2587C10.1496 10.6935 10.2232 9.48558 10.2946 8.31499L10.2946 8.31493L10.2946 8.31433C10.3241 7.82993 10.3546 7.32937 10.3078 7.07465C9.79293 7.00077 8.98028 6.95754 8.37336 6.98488C8.51577 7.25636 8.57414 7.55937 8.61508 7.84802C8.66467 8.19884 8.70663 8.83551 8.66149 9.47473C8.60427 10.2854 8.43363 10.8438 8.13977 11.1822C7.93365 11.4196 7.66827 11.545 7.37238 11.545C6.7797 11.545 6.26307 11.0243 5.69735 9.85671C5.30227 9.04138 4.96696 8.08529 4.72218 7.38707L4.70893 7.34931C4.67874 7.26332 4.65014 7.18186 4.62338 7.10669L2.76054 7.10644C3.69552 9.46608 4.57837 11.3227 5.70053 12.6501C6.9075 14.0777 8.3361 14.802 10.1669 14.906C10.1902 14.5801 10.239 14.3121 10.3175 14.0711C10.3921 13.8413 10.4842 13.6656 10.5656 13.5104L10.5663 13.509C10.8553 12.9624 11.2189 12.7795 11.4731 12.7223C11.5404 12.707 11.619 12.6965 11.7065 12.6965C11.9255 12.6965 12.2013 12.7627 12.5049 12.9892C12.8804 13.2691 13.1501 13.6021 13.4109 13.9242L13.4117 13.9252C13.7086 14.2915 13.9649 14.6078 14.3315 14.7946C14.448 14.8538 14.8484 14.9226 15.0582 14.9192Z" fill="black"/>
</svg>
