<svg width="20" height="20" viewBox="0 0 20 20" fill="none" xmlns="http://www.w3.org/2000/svg">
<path fill-rule="evenodd" clip-rule="evenodd" d="M17.0703 20H2.92969C1.31424 20 0 18.6858 0 17.0703V2.92969C0 1.31424 1.31424 0 2.92969 0H17.0703C18.6858 0 20 1.31424 20 2.92969V17.0703C20 18.6858 18.6858 20 17.0703 20ZM2.92969 1.17188C1.96045 1.17188 1.17188 1.96045 1.17188 2.92969V17.0703C1.17188 18.0396 1.96045 18.8281 2.92969 18.8281H17.0703C18.0396 18.8281 18.8281 18.0396 18.8281 17.0703V2.92969C18.8281 1.96045 18.0396 1.17188 17.0703 1.17188H2.92969ZM7.07031 14.3231V6.35832L14.1211 10.2754L7.07031 14.3231ZM11.7383 10.2922L8.24219 8.34989V12.2992L11.7383 10.2922Z" fill="black"/>
</svg>
