<svg width="244" height="70" viewBox="0 0 244 70" fill="none" xmlns="http://www.w3.org/2000/svg">
<path d="M98.3213 30.6251L93.2062 24.3426L98.1467 18.3751H95.755L91.1113 23.8701V18.3751H89.1036V30.6251H91.1113V24.7976L95.9296 30.6251H98.3213Z" fill="#1C1B28"/>
<path d="M102.819 30.8526C105.385 30.8526 107.428 28.8401 107.428 26.2501C107.428 23.6426 105.385 21.6476 102.819 21.6476C100.27 21.6476 98.2102 23.6426 98.2102 26.2501C98.2102 28.8401 100.27 30.8526 102.819 30.8526ZM102.819 29.0151C101.283 29.0151 100.096 27.8426 100.096 26.2501C100.096 24.6576 101.283 23.4851 102.819 23.4851C104.355 23.4851 105.542 24.6576 105.542 26.2501C105.542 27.8426 104.355 29.0151 102.819 29.0151Z" fill="#1C1B28"/>
<path d="M115.016 21.8751V25.3576H111.018V21.8751H109.133V30.6251H111.018V27.1426H115.016V30.6251H116.901V21.8751H115.016Z" fill="#1C1B28"/>
<path d="M123.209 30.8526C124.92 30.8526 126.404 29.9601 127.137 28.5776L125.513 27.6501C125.094 28.4551 124.239 28.9976 123.192 28.9976C121.655 28.9976 120.486 27.8251 120.486 26.2501C120.486 24.6751 121.655 23.5026 123.192 23.5026C124.239 23.5026 125.094 24.0276 125.478 24.8501L127.102 23.9051C126.404 22.5401 124.92 21.6476 123.209 21.6476C120.573 21.6476 118.6 23.6426 118.6 26.2501C118.6 28.8401 120.573 30.8526 123.209 30.8526Z" fill="#1C1B28"/>
<path d="M134.093 21.8751L131.859 28.2451L129.205 21.8751H127.197L130.863 30.5551L130.811 30.6776C130.375 31.8501 129.711 32.4276 128.489 32.3576V34.1251C130.41 34.2476 131.928 33.1276 132.749 30.9051L136.101 21.8751H134.093Z" fill="#1C1B28"/>
<path d="M144.118 21.8751H137.432V26.8626C137.432 28.5076 136.856 29.0326 135.826 28.8576V30.6251C137.973 30.8351 139.317 29.8201 139.317 26.9501V23.6951H142.233V30.6251H144.118V21.8751Z" fill="#1C1B28"/>
<path d="M150.121 24.8501H148.201V21.8751H146.315V30.6251H150.121C151.972 30.6251 153.298 29.4526 153.298 27.7376C153.298 26.0051 151.972 24.8501 150.121 24.8501ZM150.139 28.9276H148.201V26.5476H150.139C150.872 26.5476 151.448 27.0026 151.448 27.7376C151.448 28.4551 150.872 28.9276 150.139 28.9276Z" fill="#1C1B28"/>
<path d="M160.554 21.8751H152.96V23.6951H155.823V30.6251H157.708V23.6951H160.554V21.8751Z" fill="#1C1B28"/>
<path d="M168.402 21.8751V23.1176C167.738 22.2076 166.708 21.6476 165.347 21.6476C162.972 21.6476 161 23.6426 161 26.2501C161 28.8401 162.972 30.8526 165.347 30.8526C166.708 30.8526 167.738 30.2926 168.402 29.3651V30.6251H170.287V21.8751H168.402ZM165.643 29.0501C164.072 29.0501 162.885 27.8776 162.885 26.2501C162.885 24.6226 164.072 23.4501 165.643 23.4501C167.215 23.4501 168.402 24.6226 168.402 26.2501C168.402 27.8776 167.215 29.0501 165.643 29.0501Z" fill="#1C1B28"/>
<path d="M179.992 28.8401V21.8751H178.106V28.8401H174.37V21.8751H172.485V30.6251H179.573V32.9701H181.423V28.8401H179.992Z" fill="#1C1B28"/>
<path d="M189.272 21.8751L184.803 27.4226V21.8751H182.952V30.6251H184.401L188.871 25.0601V30.6251H190.721V21.8751H189.272Z" fill="#1C1B28"/>
<path d="M197.029 30.8526C199.595 30.8526 201.638 28.8401 201.638 26.2501C201.638 23.6426 199.595 21.6476 197.029 21.6476C194.48 21.6476 192.42 23.6426 192.42 26.2501C192.42 28.8401 194.48 30.8526 197.029 30.8526ZM197.029 29.0151C195.492 29.0151 194.305 27.8426 194.305 26.2501C194.305 24.6576 195.492 23.4851 197.029 23.4851C198.565 23.4851 199.752 24.6576 199.752 26.2501C199.752 27.8426 198.565 29.0151 197.029 29.0151Z" fill="#1C1B28"/>
<path d="M209.226 21.8751V25.3576H205.228V21.8751H203.342V30.6251H205.228V27.1426H209.226V30.6251H211.111V21.8751H209.226Z" fill="#1C1B28"/>
<path d="M219.182 21.8751V25.3576H215.184V21.8751H213.299V30.6251H215.184V27.1426H219.182V30.6251H221.067V21.8751H219.182Z" fill="#1C1B28"/>
<path d="M227.061 24.8501H225.14V21.8751H223.255V30.6251H227.061C228.911 30.6251 230.238 29.4526 230.238 27.7376C230.238 26.0051 228.911 24.8501 227.061 24.8501ZM231.286 21.8751V30.6251H233.171V21.8751H231.286ZM227.078 28.9276H225.14V26.5476H227.078C227.811 26.5476 228.388 27.0026 228.388 27.7376C228.388 28.4551 227.811 28.9276 227.078 28.9276Z" fill="#1C1B28"/>
<path d="M236.791 20.6501H241.679V19.0051H236.791V20.6501ZM241.679 21.8751L237.21 27.4226V21.8751H235.359V30.6251H236.808L241.278 25.0601V30.6251H243.128V21.8751H241.679Z" fill="#1C1B28"/>
<path d="M96.4882 46.3401V39.3751H94.6028V46.3401H90.8669V39.3751H88.9814V48.1251H96.0692V50.4701H97.9197V46.3401H96.4882Z" fill="#1C1B28"/>
<path d="M100.592 44.5551H107.54C107.575 44.3101 107.61 44.0301 107.61 43.7676C107.61 41.2476 105.829 39.1476 103.228 39.1476C100.487 39.1476 98.6194 41.1601 98.6194 43.7501C98.6194 46.3751 100.487 48.3526 103.368 48.3526C105.079 48.3526 106.388 47.6351 107.191 46.4451L105.637 45.5351C105.218 46.1476 104.433 46.6201 103.385 46.6201C101.989 46.6201 100.889 45.9201 100.592 44.5551ZM100.575 43.0151C100.837 41.7026 101.797 40.8626 103.211 40.8626C104.346 40.8626 105.445 41.5101 105.707 43.0151H100.575Z" fill="#1C1B28"/>
<path d="M115.152 39.3751V42.8576H111.155V39.3751H109.269V48.1251H111.155V44.6426H115.152V48.1251H117.038V39.3751H115.152Z" fill="#1C1B28"/>
<path d="M125.894 39.3751H118.3V41.1951H121.163V48.1251H123.049V41.1951H125.894V39.3751Z" fill="#1C1B28"/>
<path d="M132.11 39.1476C130.749 39.1476 129.719 39.7076 129.055 40.6351V39.3751H127.17V51.6251H129.055V46.8826C129.719 47.7926 130.749 48.3526 132.11 48.3526C134.485 48.3526 136.457 46.3576 136.457 43.7501C136.457 41.1601 134.485 39.1476 132.11 39.1476ZM131.814 46.5501C130.243 46.5501 129.055 45.3776 129.055 43.7501C129.055 42.1226 130.243 40.9501 131.814 40.9501C133.385 40.9501 134.572 42.1226 134.572 43.7501C134.572 45.3776 133.385 46.5501 131.814 46.5501Z" fill="#1C1B28"/>
<path fill-rule="evenodd" clip-rule="evenodd" d="M23.6428 32.9873H31.0921V4.11226H23.6428V32.9873ZM19.573 37.1024H35.1592V0H19.573V37.1024Z" fill="#1C1B28"/>
<path fill-rule="evenodd" clip-rule="evenodd" d="M0 45.2432H66.2504V41.144H0V45.2432Z" fill="#1C1B28"/>
<path fill-rule="evenodd" clip-rule="evenodd" d="M4.05494 61.2612H23.2045V53.4357H4.05494V61.2612ZM0 70H4.05484V65.3555H27.2603V49.3375H0V70Z" fill="#1C1B28"/>
<path fill-rule="evenodd" clip-rule="evenodd" d="M50.6645 4.11119V37.1018H54.7317V12.3412L62.1794 4.11445V37.1018H66.2507V0H60.534L54.7317 6.39047V0H49.0175L39.1434 10.7843V37.1018H43.2158V12.3428L50.6645 4.11119Z" fill="#1C1B28"/>
<path fill-rule="evenodd" clip-rule="evenodd" d="M35.2836 61.2612H46.5821V53.4357H35.2836V61.2612ZM50.8125 61.2612H62.1971V53.4357H50.8125V61.2612ZM31.2266 65.3555H46.5825V70H50.8125V65.3555H66.2514V49.3375H31.2266V65.3555Z" fill="#1C1B28"/>
<path fill-rule="evenodd" clip-rule="evenodd" d="M4.07182 12.3439L11.518 4.11553V32.9879H4.07182V12.3439ZM15.5884 37.1018V0H9.87366L0.000581197 10.7843V37.1018H15.5884Z" fill="#1C1B28"/>
<rect x="76.9706" width="2.1822" height="70" fill="#8BC540"/>
</svg>
