<svg width="287" height="82" viewBox="0 0 287 82" fill="none" xmlns="http://www.w3.org/2000/svg">
<path d="M115.176 35.875L109.184 28.5155L114.972 21.525H112.17L106.73 27.962V21.525H104.379V35.875H106.73V29.0485L112.375 35.875H115.176Z" fill="#1C1B28"/>
<path d="M120.445 36.1415C123.451 36.1415 125.844 33.784 125.844 30.75C125.844 27.6955 123.451 25.3585 120.445 25.3585C117.459 25.3585 115.046 27.6955 115.046 30.75C115.046 33.784 117.459 36.1415 120.445 36.1415ZM120.445 33.989C118.645 33.989 117.255 32.6155 117.255 30.75C117.255 28.8845 118.645 27.511 120.445 27.511C122.245 27.511 123.635 28.8845 123.635 30.75C123.635 32.6155 122.245 33.989 120.445 33.989Z" fill="#1C1B28"/>
<path d="M134.733 25.625V29.7045H130.05V25.625H127.841V35.875H130.05V31.7955H134.733V35.875H136.942V25.625H134.733Z" fill="#1C1B28"/>
<path d="M144.33 36.1415C146.335 36.1415 148.073 35.096 148.932 33.4765L147.03 32.39C146.539 33.333 145.537 33.9685 144.31 33.9685C142.51 33.9685 141.14 32.595 141.14 30.75C141.14 28.905 142.51 27.5315 144.31 27.5315C145.537 27.5315 146.539 28.1465 146.989 29.11L148.891 28.003C148.073 26.404 146.335 25.3585 144.33 25.3585C141.242 25.3585 138.932 27.6955 138.932 30.75C138.932 33.784 141.242 36.1415 144.33 36.1415Z" fill="#1C1B28"/>
<path d="M157.08 25.625L154.463 33.087L151.354 25.625H149.003L153.297 35.793L153.236 35.9365C152.725 37.31 151.947 37.9865 150.516 37.9045V39.975C152.765 40.1185 154.545 38.8065 155.506 36.203L159.432 25.625H157.08Z" fill="#1C1B28"/>
<path d="M168.824 25.625H160.992V31.4675C160.992 33.3945 160.317 34.0095 159.11 33.8045V35.875C161.626 36.121 163.2 34.932 163.2 31.57V27.757H166.616V35.875H168.824V25.625Z" fill="#1C1B28"/>
<path d="M175.856 29.11H173.607V25.625H171.398V35.875H175.856C178.024 35.875 179.578 34.5015 179.578 32.4925C179.578 30.463 178.024 29.11 175.856 29.11ZM175.877 33.8865H173.607V31.0985H175.877C176.735 31.0985 177.41 31.6315 177.41 32.4925C177.41 33.333 176.735 33.8865 175.877 33.8865Z" fill="#1C1B28"/>
<path d="M188.077 25.625H179.181V27.757H182.535V35.875H184.744V27.757H188.077V25.625Z" fill="#1C1B28"/>
<path d="M197.271 25.625V27.0805C196.493 26.0145 195.287 25.3585 193.692 25.3585C190.91 25.3585 188.6 27.6955 188.6 30.75C188.6 33.784 190.91 36.1415 193.692 36.1415C195.287 36.1415 196.493 35.4855 197.271 34.399V35.875H199.479V25.625H197.271ZM194.039 34.03C192.199 34.03 190.808 32.6565 190.808 30.75C190.808 28.8435 192.199 27.47 194.039 27.47C195.88 27.47 197.271 28.8435 197.271 30.75C197.271 32.6565 195.88 34.03 194.039 34.03Z" fill="#1C1B28"/>
<path d="M210.847 33.784V25.625H208.638V33.784H204.262V25.625H202.053V35.875H210.356V38.622H212.524V33.784H210.847Z" fill="#1C1B28"/>
<path d="M221.719 25.625L216.483 32.1235V25.625H214.316V35.875H216.013L221.248 29.356V35.875H223.416V25.625H221.719Z" fill="#1C1B28"/>
<path d="M230.805 36.1415C233.811 36.1415 236.204 33.784 236.204 30.75C236.204 27.6955 233.811 25.3585 230.805 25.3585C227.819 25.3585 225.406 27.6955 225.406 30.75C225.406 33.784 227.819 36.1415 230.805 36.1415ZM230.805 33.989C229.005 33.989 227.615 32.6155 227.615 30.75C227.615 28.8845 229.005 27.511 230.805 27.511C232.605 27.511 233.995 28.8845 233.995 30.75C233.995 32.6155 232.605 33.989 230.805 33.989Z" fill="#1C1B28"/>
<path d="M245.093 25.625V29.7045H240.41V25.625H238.201V35.875H240.41V31.7955H245.093V35.875H247.301V25.625H245.093Z" fill="#1C1B28"/>
<path d="M256.756 25.625V29.7045H252.073V25.625H249.864V35.875H252.073V31.7955H256.756V35.875H258.965V25.625H256.756Z" fill="#1C1B28"/>
<path d="M265.985 29.11H263.736V25.625H261.527V35.875H265.985C268.153 35.875 269.707 34.5015 269.707 32.4925C269.707 30.463 268.153 29.11 265.985 29.11ZM270.934 25.625V35.875H273.143V25.625H270.934ZM266.006 33.8865H263.736V31.0985H266.006C266.865 31.0985 267.54 31.6315 267.54 32.4925C267.54 33.333 266.865 33.8865 266.006 33.8865Z" fill="#1C1B28"/>
<path d="M277.384 24.19H283.11V22.263H277.384V24.19ZM283.11 25.625L277.874 32.1235V25.625H275.707V35.875H277.404L282.639 29.356V35.875H284.807V25.625H283.11Z" fill="#1C1B28"/>
<path d="M113.029 54.284V46.125H110.82V54.284H106.444V46.125H104.235V56.375H112.538V59.122H114.706V54.284H113.029Z" fill="#1C1B28"/>
<path d="M117.836 52.193H125.976C126.017 51.906 126.057 51.578 126.057 51.2705C126.057 48.3185 123.972 45.8585 120.924 45.8585C117.714 45.8585 115.526 48.216 115.526 51.25C115.526 54.325 117.714 56.6415 121.088 56.6415C123.092 56.6415 124.626 55.801 125.567 54.407L123.747 53.341C123.256 54.0585 122.336 54.612 121.108 54.612C119.472 54.612 118.184 53.792 117.836 52.193ZM117.816 50.389C118.123 48.8515 119.247 47.8675 120.904 47.8675C122.233 47.8675 123.522 48.626 123.828 50.389H117.816Z" fill="#1C1B28"/>
<path d="M134.893 46.125V50.2045H130.21V46.125H128.001V56.375H130.21V52.2955H134.893V56.375H137.101V46.125H134.893Z" fill="#1C1B28"/>
<path d="M147.476 46.125H138.58V48.257H141.934V56.375H144.143V48.257H147.476V46.125Z" fill="#1C1B28"/>
<path d="M154.758 45.8585C153.163 45.8585 151.956 46.5145 151.179 47.601V46.125H148.97V60.475H151.179V54.9195C151.956 55.9855 153.163 56.6415 154.758 56.6415C157.539 56.6415 159.85 54.3045 159.85 51.25C159.85 48.216 157.539 45.8585 154.758 45.8585ZM154.41 54.53C152.57 54.53 151.179 53.1565 151.179 51.25C151.179 49.3435 152.57 47.97 154.41 47.97C156.251 47.97 157.641 49.3435 157.641 51.25C157.641 53.1565 156.251 54.53 154.41 54.53Z" fill="#1C1B28"/>
<path fill-rule="evenodd" clip-rule="evenodd" d="M27.6959 38.6423H36.4222V4.81721H27.6959V38.6423ZM22.9283 43.4628H41.1865V0H22.9283V43.4628Z" fill="#1C1B28"/>
<path fill-rule="evenodd" clip-rule="evenodd" d="M0 52.9992H77.6076V48.1973H0V52.9992Z" fill="#1C1B28"/>
<path fill-rule="evenodd" clip-rule="evenodd" d="M4.75008 71.7632H27.1825V62.5961H4.75008V71.7632ZM0 82H4.74996V76.5593H31.9335V57.7954H0V82Z" fill="#1C1B28"/>
<path fill-rule="evenodd" clip-rule="evenodd" d="M59.3499 4.81597V43.4621H64.1143V14.4568L72.8387 4.81979V43.4621H77.608V0H70.9112L64.1143 7.48598V0H57.4205L45.8537 12.6331V43.4621H50.6242V14.4587L59.3499 4.81597Z" fill="#1C1B28"/>
<path fill-rule="evenodd" clip-rule="evenodd" d="M41.3322 71.7632H54.5676V62.5961H41.3322V71.7632ZM59.5233 71.7632H72.8595V62.5961H59.5233V71.7632ZM36.5797 76.5593H54.5681V82H59.5232V76.5593H77.6088V57.7954H36.5797V76.5593Z" fill="#1C1B28"/>
<path fill-rule="evenodd" clip-rule="evenodd" d="M4.76984 14.46L13.4925 4.82105V38.643H4.76984V14.46ZM18.2606 43.4621V0H11.5663L0.000680831 12.6331V43.4621H18.2606Z" fill="#1C1B28"/>
<rect x="90.1655" width="2.55629" height="82" fill="#8BC540"/>
</svg>
