<svg width="298" height="83" viewBox="0 0 298 83" fill="none" xmlns="http://www.w3.org/2000/svg">
<path d="M120.424 36.3131L114.159 28.8638L120.21 21.7881H117.281L111.593 28.3036V21.7881H109.134V36.3131H111.593V29.4033L117.494 36.3131H120.424Z" fill="#1C1B28"/>
<path d="M125.933 36.5828C129.076 36.5828 131.577 34.1966 131.577 31.1256C131.577 28.0338 129.076 25.6683 125.933 25.6683C122.811 25.6683 120.288 28.0338 120.288 31.1256C120.288 34.1966 122.811 36.5828 125.933 36.5828ZM125.933 34.4041C124.051 34.4041 122.597 33.0138 122.597 31.1256C122.597 29.2373 124.051 27.8471 125.933 27.8471C127.814 27.8471 129.268 29.2373 129.268 31.1256C129.268 33.0138 127.814 34.4041 125.933 34.4041Z" fill="#1C1B28"/>
<path d="M140.871 25.9381V30.0673H135.975V25.9381H133.666V36.3131H135.975V32.1838H140.871V36.3131H143.181V25.9381H140.871Z" fill="#1C1B28"/>
<path d="M150.906 36.5828C153.002 36.5828 154.819 35.5246 155.717 33.8853L153.729 32.7856C153.216 33.7401 152.168 34.3833 150.885 34.3833C149.003 34.3833 147.571 32.9931 147.571 31.1256C147.571 29.2581 149.003 27.8678 150.885 27.8678C152.168 27.8678 153.216 28.4903 153.686 29.4656L155.675 28.3451C154.819 26.7266 153.002 25.6683 150.906 25.6683C147.678 25.6683 145.261 28.0338 145.261 31.1256C145.261 34.1966 147.678 36.5828 150.906 36.5828Z" fill="#1C1B28"/>
<path d="M164.237 25.9381L161.5 33.4911L158.25 25.9381H155.791L160.282 36.2301L160.217 36.3753C159.683 37.7656 158.87 38.4503 157.374 38.3673V40.4631C159.726 40.6083 161.586 39.2803 162.591 36.6451L166.696 25.9381H164.237Z" fill="#1C1B28"/>
<path d="M176.516 25.9381H168.327V31.8518C168.327 33.8023 167.621 34.4248 166.36 34.2173V36.3131C168.99 36.5621 170.636 35.3586 170.636 31.9556V28.0961H174.207V36.3131H176.516V25.9381Z" fill="#1C1B28"/>
<path d="M183.868 29.4656H181.516V25.9381H179.207V36.3131H183.868C186.135 36.3131 187.76 34.9228 187.76 32.8893C187.76 30.8351 186.135 29.4656 183.868 29.4656ZM183.89 34.3003H181.516V31.4783H183.89C184.788 31.4783 185.493 32.0178 185.493 32.8893C185.493 33.7401 184.788 34.3003 183.89 34.3003Z" fill="#1C1B28"/>
<path d="M196.646 25.9381H187.345V28.0961H190.852V36.3131H193.161V28.0961H196.646V25.9381Z" fill="#1C1B28"/>
<path d="M206.258 25.9381V27.4113C205.446 26.3323 204.184 25.6683 202.517 25.6683C199.609 25.6683 197.192 28.0338 197.192 31.1256C197.192 34.1966 199.609 36.5828 202.517 36.5828C204.184 36.5828 205.446 35.9188 206.258 34.8191V36.3131H208.568V25.9381H206.258ZM202.88 34.4456C200.956 34.4456 199.502 33.0553 199.502 31.1256C199.502 29.1958 200.956 27.8056 202.88 27.8056C204.805 27.8056 206.258 29.1958 206.258 31.1256C206.258 33.0553 204.805 34.4456 202.88 34.4456Z" fill="#1C1B28"/>
<path d="M220.454 34.1966V25.9381H218.144V34.1966H213.569V25.9381H211.259V36.3131H219.941V39.0936H222.207V34.1966H220.454Z" fill="#1C1B28"/>
<path d="M231.821 25.9381L226.347 32.5158V25.9381H224.08V36.3131H225.855L231.329 29.7146V36.3131H233.595V25.9381H231.821Z" fill="#1C1B28"/>
<path d="M241.321 36.5828C244.464 36.5828 246.966 34.1966 246.966 31.1256C246.966 28.0338 244.464 25.6683 241.321 25.6683C238.199 25.6683 235.676 28.0338 235.676 31.1256C235.676 34.1966 238.199 36.5828 241.321 36.5828ZM241.321 34.4041C239.439 34.4041 237.985 33.0138 237.985 31.1256C237.985 29.2373 239.439 27.8471 241.321 27.8471C243.203 27.8471 244.657 29.2373 244.657 31.1256C244.657 33.0138 243.203 34.4041 241.321 34.4041Z" fill="#1C1B28"/>
<path d="M256.26 25.9381V30.0673H251.363V25.9381H249.054V36.3131H251.363V32.1838H256.26V36.3131H258.569V25.9381H256.26Z" fill="#1C1B28"/>
<path d="M268.454 25.9381V30.0673H263.558V25.9381H261.249V36.3131H263.558V32.1838H268.454V36.3131H270.764V25.9381H268.454Z" fill="#1C1B28"/>
<path d="M278.104 29.4656H275.752V25.9381H273.443V36.3131H278.104C280.371 36.3131 281.996 34.9228 281.996 32.8893C281.996 30.8351 280.371 29.4656 278.104 29.4656ZM283.279 25.9381V36.3131H285.588V25.9381H283.279ZM278.126 34.3003H275.752V31.4783H278.126C279.024 31.4783 279.729 32.0178 279.729 32.8893C279.729 33.7401 279.024 34.3003 278.126 34.3003Z" fill="#1C1B28"/>
<path d="M290.022 24.4856H296.009V22.5351H290.022V24.4856ZM296.009 25.9381L290.535 32.5158V25.9381H288.269V36.3131H290.043L295.517 29.7146V36.3131H297.784V25.9381H296.009Z" fill="#1C1B28"/>
<path d="M118.179 54.9466V46.6881H115.869V54.9466H111.294V46.6881H108.984V57.0631H117.665V59.8436H119.932V54.9466H118.179Z" fill="#1C1B28"/>
<path d="M123.205 52.8301H131.715C131.758 52.5396 131.801 52.2076 131.801 51.8963C131.801 48.9083 129.62 46.4183 126.434 46.4183C123.077 46.4183 120.789 48.8046 120.789 51.8756C120.789 54.9881 123.077 57.3328 126.605 57.3328C128.7 57.3328 130.304 56.4821 131.288 55.0711L129.384 53.9921C128.871 54.7183 127.909 55.2786 126.626 55.2786C124.916 55.2786 123.569 54.4486 123.205 52.8301ZM123.184 51.0041C123.504 49.4478 124.68 48.4518 126.412 48.4518C127.802 48.4518 129.149 49.2196 129.47 51.0041H123.184Z" fill="#1C1B28"/>
<path d="M141.038 46.6881V50.8173H136.142V46.6881H133.833V57.0631H136.142V52.9338H141.038V57.0631H143.348V46.6881H141.038Z" fill="#1C1B28"/>
<path d="M154.195 46.6881H144.894V48.8461H148.401V57.0631H150.71V48.8461H154.195V46.6881Z" fill="#1C1B28"/>
<path d="M161.809 46.4183C160.141 46.4183 158.879 47.0823 158.067 48.1821V46.6881H155.758V61.2131H158.067V55.5898C158.879 56.6688 160.141 57.3328 161.809 57.3328C164.717 57.3328 167.133 54.9673 167.133 51.8756C167.133 48.8046 164.717 46.4183 161.809 46.4183ZM161.445 55.1956C159.521 55.1956 158.067 53.8053 158.067 51.8756C158.067 49.9458 159.521 48.5556 161.445 48.5556C163.37 48.5556 164.824 49.9458 164.824 51.8756C164.824 53.8053 163.37 55.1956 161.445 55.1956Z" fill="#1C1B28"/>
<path fill-rule="evenodd" clip-rule="evenodd" d="M28.9578 39.1136H38.0817V4.87596H28.9578V39.1136ZM23.9731 43.9928H43.0631V0H23.9731V43.9928Z" fill="#1C1B28"/>
<path fill-rule="evenodd" clip-rule="evenodd" d="M0 53.6455H81.1437V48.785H0V53.6455Z" fill="#1C1B28"/>
<path fill-rule="evenodd" clip-rule="evenodd" d="M4.96651 72.6383H28.421V63.3594H4.96651V72.6383ZM0 83H4.96638V77.493H33.3885V58.5002H0V83Z" fill="#1C1B28"/>
<path fill-rule="evenodd" clip-rule="evenodd" d="M62.0541 4.8747V43.9922H67.0356V14.6331L76.1576 4.87857V43.9922H81.1441V0H74.1423L67.0356 7.57728V0H60.0369L47.943 12.7871V43.9922H52.9309V14.635L62.0541 4.8747Z" fill="#1C1B28"/>
<path fill-rule="evenodd" clip-rule="evenodd" d="M43.2155 72.6383H57.0539V63.3594H43.2155V72.6383ZM62.2354 72.6383H76.1792V63.3594H62.2354V72.6383ZM38.2464 77.493H57.0544V83H62.2353V77.493H81.145V58.5002H38.2464V77.493Z" fill="#1C1B28"/>
<path fill-rule="evenodd" clip-rule="evenodd" d="M4.98718 14.6363L14.1073 4.87984V39.1142H4.98718V14.6363ZM19.0927 43.9922V0H12.0933L0.000711852 12.7871V43.9922H19.0927Z" fill="#1C1B28"/>
<rect x="94.2744" width="2.67276" height="83" fill="#8BC540"/>
</svg>
