<svg width="15" height="17" viewBox="0 0 15 17" fill="none" xmlns="http://www.w3.org/2000/svg">
<path d="M13.8194 2.92224V4.10132C13.8194 6.66275 11.7333 8.74138 9.17399 8.74138H5.82606C3.2617 8.74138 1.18069 6.65767 1.18069 4.10132V2.92224H13.8194ZM0.275024 2.01761V4.10132C0.275024 7.16589 2.76307 9.65109 5.82606 9.65109H9.17399C12.237 9.65109 14.725 7.16589 14.725 4.10132V2.01761H0.275024Z" fill="#F4CD0C"/>
<path d="M8.09505 12.177V11.0488H6.90445V12.177C6.90445 14.4132 5.49507 16.2377 3.76514 16.2377H11.2344C9.50443 16.2377 8.09505 14.4183 8.09505 12.177Z" fill="#F4CD0C"/>
<path d="M8.79725 10.5151H6.19727V12.7716H8.79725V10.5151Z" fill="#E29418"/>
<path d="M11.2345 16.2377H3.76526V17H11.2345V16.2377Z" fill="#E29418"/>
<path d="M2.23885 0.513298C2.23885 0.599696 2.23376 0.686093 2.23376 0.777573C2.23376 7.02361 4.58952 12.0804 7.49987 12.0804C10.4102 12.0804 12.766 7.01853 12.766 0.777573C12.766 0.691175 12.766 0.599696 12.7609 0.513298H2.23885Z" fill="#F4CD0C"/>
<path d="M7.68277 3.82182L8.03893 4.9145H9.18883C9.37709 4.9145 9.45341 5.15336 9.30076 5.26517L8.36966 5.94111L8.72582 7.03378C8.78179 7.21166 8.57826 7.35905 8.43071 7.24724L7.4996 6.56622L6.56849 7.24215C6.41585 7.35396 6.21233 7.20658 6.27339 7.0287L6.62955 5.93603L5.69844 5.26009C5.5458 5.14828 5.62721 4.90942 5.81038 4.90942H6.96027L7.31643 3.81674C7.3724 3.64395 7.6268 3.64395 7.68277 3.82182Z" fill="#E29418"/>
<path d="M4.2995 0.777573C4.2995 0.691175 4.2995 0.599696 4.2995 0.513298H2.23885C2.23885 0.599696 2.23376 0.686093 2.23376 0.777573C2.23376 7.02361 4.58952 12.0804 7.49987 12.0804C5.73433 12.0855 4.2995 7.02361 4.2995 0.777573Z" fill="#FAEC0F"/>
<path d="M13.2086 0H1.79614V1.02661H13.2086V0Z" fill="#F4CD0C"/>
<path d="M4.03516 0H2.39172V1.02661H4.03516V0Z" fill="#FAEC0F"/>
</svg>
