<svg width="30" height="13" viewBox="0 0 30 13" fill="none" xmlns="http://www.w3.org/2000/svg">
<path d="M18.6081 8.14058H11.3919V4.81789H18.6081V8.14058ZM11.1081 1.70288C11.1081 0.789137 10.2568 0 9.16216 0C8.10811 0 7.21622 0.747604 7.21622 1.70288V11.2971C7.21622 12.2109 8.06757 13 9.16216 13C10.2162 13 11.1081 12.2524 11.1081 11.2971V1.70288ZM6.97297 1.70288C6.97297 0.789137 6.12162 0 5.02703 0C3.97297 0 3.08108 0.747604 3.08108 1.70288V11.2971C3.08108 12.2109 3.93243 13 5.02703 13C6.08108 13 6.97297 12.2524 6.97297 11.2971V1.70288ZM2.27027 2.94888H1.54054C1.2973 2.94888 1.09459 3.19808 1.09459 3.44728V4.77636H0V8.05751H1.09459V9.46965C1.09459 9.76038 1.2973 9.96805 1.54054 9.96805H1.78378H2.71622V9.46965V3.44728V2.94888H2.27027ZM18.8919 11.2971C18.8919 12.2109 19.7432 13 20.8378 13C21.8919 13 22.7838 12.2524 22.7838 11.2971V1.70288C22.7838 0.789137 21.9324 0 20.8378 0C19.7838 0 18.8919 0.747604 18.8919 1.70288V11.2971ZM23.027 11.2971C23.027 12.2109 23.8784 13 24.973 13C26.027 13 26.9189 12.2524 26.9189 11.2971V1.70288C26.9189 0.789137 26.0676 0 24.973 0C23.9189 0 23.027 0.747604 23.027 1.70288V11.2971ZM30 4.77636H28.9054V3.44728C28.9054 3.15655 28.7027 2.94888 28.4595 2.94888H27.7297H27.2838V3.44728V9.46965V9.96805H28.2162H28.4595C28.7027 9.96805 28.9054 9.71885 28.9054 9.46965V8.05751H30V4.77636Z" fill="#F4CD0C"/>
</svg>
