<svg width="67" height="67" viewBox="0 0 67 67" fill="none" xmlns="http://www.w3.org/2000/svg">
<path d="M60.0862 39.3864C61.2717 40.7821 61.8208 42.1995 61.7334 43.6386C61.6398 45.0343 61.2873 46.1881 60.6758 47.0999C60.0644 48.1482 59.0348 49.0012 57.5873 49.6587C56.1834 50.2666 54.4925 50.2418 52.5146 49.5842C52.0342 49.4106 51.5724 49.3888 51.1294 49.5191C50.6927 49.699 50.3214 49.8975 50.0157 50.1146C49.7536 50.5054 49.5571 50.9179 49.4261 51.3521C49.2513 51.836 49.2732 52.3167 49.4916 52.7943C50.1904 54.7545 50.2559 56.4759 49.6881 57.9584C49.1141 59.4471 48.3248 60.5172 47.3202 61.1685C46.3968 61.733 45.2331 62.0586 43.8292 62.1455C42.3817 62.2385 40.956 61.6957 39.5521 60.5172C39.2027 61.2987 38.8283 62.04 38.429 62.741C37.9922 63.3923 37.5336 64.0684 37.0532 64.7694C39.3306 66.3387 41.6548 67.08 44.0258 66.9932C46.3968 66.9063 48.4589 66.3387 50.2122 65.2904C52.0965 64.0684 53.4131 62.5425 54.1618 60.7126C54.9043 58.8764 55.2537 57.0652 55.2101 55.2787C57.2753 55.3221 59.1846 54.9096 60.9379 54.0412C62.6475 53.1665 64.0951 51.8577 65.2806 50.1146C66.335 48.415 66.906 46.4083 66.9933 44.0945C67.0807 41.8242 66.3132 39.557 64.6909 37.2929C63.8549 37.5968 63.0874 37.9225 62.3886 38.2698C61.6398 38.6606 60.8724 39.0328 60.0862 39.3864ZM6.4485 27.6068C5.40027 26.2111 4.89799 24.8371 4.94167 23.4848C4.98535 22.1326 5.31292 20.9974 5.92439 20.0793C6.53586 19.0372 7.54353 18.1874 8.94742 17.5299C10.3513 16.8786 12.0422 16.9003 14.0201 17.595C14.5442 17.7687 15.006 17.7904 15.4053 17.6601C15.842 17.5299 16.2133 17.3128 16.519 17.0088C16.6937 16.8351 16.8684 16.5746 17.0431 16.2272C17.1742 15.9171 17.2397 15.61 17.2397 15.3061V14.8502L17.1087 14.3942C16.3662 12.4279 16.3006 10.7034 16.9121 9.22086C17.5298 7.73833 18.3628 6.6714 19.411 6.02008C20.3345 5.4494 21.4981 5.12063 22.902 5.03379C24.3496 4.94695 25.7753 5.49282 27.1792 6.6714C27.5286 5.84019 27.9248 5.09892 28.3678 4.4476C28.8046 3.74665 29.3068 3.07052 29.8746 2.4192C27.5972 0.806399 25.2512 0.0651323 22.8365 0.195397C20.4655 0.28224 18.4252 0.849821 16.7156 1.89814C14.7876 3.12014 13.471 4.6461 12.766 6.47601C12.0235 8.30591 11.6741 10.1823 11.7177 12.1053C9.6088 12.0184 7.69952 12.431 5.9899 13.3428C4.28028 14.2174 2.83272 15.5046 1.64722 17.2042C1.07943 18.0789 0.661385 19.0155 0.393087 20.0142C0.131029 21.0191 0 22.1108 0 23.2894C0 24.3812 0.152867 25.4946 0.458602 26.6298C0.770576 27.7587 1.34149 28.8474 2.17134 29.8957C2.8764 29.5483 3.5565 29.1575 4.21165 28.7233C4.91671 28.2829 5.66233 27.9107 6.4485 27.6068ZM36.8566 36.3717L36.4635 33.3663L35.93 29.8957C35.4496 25.9257 35.0784 21.8472 34.8163 17.6601C34.5106 13.4296 35.7148 10.0056 38.429 7.38786C39.9264 5.8619 41.4645 5.09892 43.0431 5.09892C44.6217 5.09892 45.9382 5.40598 46.9926 6.02008C47.9972 6.6714 48.8302 7.71662 49.4916 9.15573C50.1467 10.5514 50.1467 12.2325 49.4916 14.1988C49.2732 14.6765 49.2513 15.1324 49.4261 15.5666C49.5571 16.007 49.7536 16.3792 50.0157 16.6832C50.3214 16.9003 50.7176 17.0957 51.2043 17.2694C51.6847 17.3996 52.187 17.3779 52.7111 17.2042C54.689 16.4599 56.4018 16.3947 57.8494 17.0088C59.3406 17.5733 60.4356 18.358 61.1344 19.3629C61.7521 20.3678 62.061 21.6549 62.061 23.2243C62.061 24.7937 61.3372 26.3196 59.8897 27.8022C57.9117 29.8988 55.3224 31.1642 52.1215 31.5984C48.877 32.0761 45.2362 32.0544 41.1993 31.5333L42.051 36.502C42.7997 36.5888 43.6109 36.6322 44.4844 36.6322C45.4078 36.6757 46.2439 36.6974 46.9926 36.6974C50.0625 36.6974 53.0231 36.3283 55.8746 35.5901C58.6823 34.8023 61.1594 33.2764 63.3058 31.0123C65.7205 28.6985 66.9278 26.1677 66.9278 23.4197C66.9278 20.7152 66.3132 18.4696 65.084 16.6832C63.8549 14.7602 62.3199 13.4296 60.4793 12.6915C58.6386 11.9471 56.8167 11.6184 55.0135 11.7052C55.0572 9.61476 54.6423 7.71972 53.7687 6.02008C52.889 4.27081 51.5724 2.8317 49.8191 1.70274C48.9394 1.13206 47.9972 0.716455 46.9926 0.455926C45.9819 0.151976 44.8837 0 43.6982 0C42.2943 0 40.8468 0.303951 39.3555 0.911852C37.908 1.48253 36.5259 2.44401 35.2094 3.79628C33.4124 5.49592 32.0959 7.43438 31.2598 9.61166C30.38 11.7951 29.8091 14.0655 29.5471 16.4226C29.2413 18.7302 29.1758 21.0625 29.3505 23.4197C29.4815 25.7769 29.6999 28.0658 30.0057 30.2865L30.4736 33.2361L30.9322 36.6974C31.5874 40.7108 32.0023 44.811 32.177 48.9981C32.4016 53.1851 31.2629 56.6092 28.7609 59.2703C27.226 60.7963 25.6692 61.5593 24.0906 61.5593C22.512 61.5593 21.1955 61.2119 20.141 60.5172C19.0866 59.903 18.2318 58.8982 17.5766 57.5025C16.9589 56.1068 16.9807 54.4288 17.6421 52.4687C17.8168 51.9414 17.8387 51.4607 17.7076 51.0265C17.6203 50.6357 17.4206 50.2883 17.1087 49.9843C16.8903 49.7672 16.6282 49.5904 16.3225 49.454C15.9731 49.2803 15.6424 49.1935 15.3304 49.1935H14.8718L14.4132 49.3888C12.4415 50.1332 10.7101 50.1983 9.21883 49.5842C7.7276 48.9763 6.67312 48.1482 6.05542 47.0999C5.40027 46.0578 5.0727 44.7924 5.0727 43.3036C5.0727 41.7777 5.77464 40.2952 7.17852 38.856C9.1502 36.7656 11.6491 35.5033 14.6753 35.0691C17.7014 34.6286 21.364 34.5821 25.663 34.9295L24.8768 30.0911C20.9272 29.7871 17.0899 29.9174 13.365 30.4819C9.63376 31.096 6.42979 32.7553 3.75305 35.4599C1.4694 37.7674 0.305735 40.2517 0.262059 42.9128C0.174706 45.574 0.767456 47.866 2.04031 49.7889C3.26949 51.6623 4.82624 52.968 6.71056 53.7062C8.55745 54.4506 10.4449 54.801 12.3729 54.7576C12.2419 56.8046 12.6381 58.7028 13.5615 60.452C14.435 62.1517 15.7266 63.5908 17.4362 64.7694C18.316 65.3338 19.2613 65.7463 20.2721 66.0069C21.2829 66.2736 22.3779 66.407 23.5572 66.407C24.961 66.407 26.4086 66.1216 27.8998 65.5509C29.3973 64.943 30.823 63.9847 32.177 62.6758C35.3841 59.2269 37.0968 55.0616 37.3152 50.1797C37.5773 45.2917 37.4244 40.689 36.8566 36.3717Z" fill="#2AFA1D"/>
</svg>
