<svg width="12" height="12" viewBox="0 0 12 12" fill="none" xmlns="http://www.w3.org/2000/svg">
<path d="M10.7617 7.05428C10.974 7.30425 11.0724 7.55812 11.0567 7.81587C11.04 8.06584 10.9768 8.27249 10.8673 8.43581C10.7578 8.62356 10.5734 8.77633 10.3141 8.89409C10.0627 9.00297 9.75985 8.99853 9.4056 8.88076C9.31955 8.84965 9.23685 8.84576 9.15751 8.86909C9.07928 8.90131 9.01279 8.93687 8.95803 8.97575C8.9111 9.04574 8.8759 9.11962 8.85243 9.19739C8.82114 9.28405 8.82505 9.37015 8.86416 9.4557C8.98932 9.80678 9.00106 10.1151 8.89936 10.3806C8.79655 10.6472 8.65518 10.8389 8.47526 10.9555C8.30987 11.0566 8.10145 11.115 7.85001 11.1305C7.59075 11.1472 7.33539 11.05 7.08395 10.8389C7.02137 10.9789 6.95432 11.1116 6.8828 11.2372C6.80457 11.3538 6.72243 11.4749 6.63639 11.6005C7.04428 11.8816 7.46056 12.0143 7.88521 11.9988C8.30987 11.9832 8.67921 11.8816 8.99323 11.6938C9.33072 11.4749 9.56652 11.2016 9.70062 10.8739C9.83361 10.545 9.89619 10.2206 9.88837 9.90066C10.2583 9.90843 10.6002 9.83455 10.9142 9.67901C11.2204 9.52236 11.4797 9.28794 11.692 8.97575C11.8809 8.67134 11.9832 8.31193 11.9988 7.89753C12.0144 7.4909 11.877 7.08483 11.5864 6.67932C11.4367 6.73376 11.2992 6.79208 11.1741 6.8543C11.04 6.92429 10.9025 6.99095 10.7617 7.05428ZM1.15496 4.9445C0.967213 4.69452 0.877252 4.44843 0.885075 4.20624C0.892898 3.96404 0.951567 3.76073 1.06108 3.5963C1.1706 3.40965 1.35108 3.25745 1.60252 3.13968C1.85396 3.02302 2.15681 3.02691 2.51107 3.15135C2.60494 3.18245 2.68763 3.18634 2.75915 3.16301C2.83738 3.13968 2.90387 3.1008 2.95863 3.04636C2.98992 3.01525 3.02121 2.96859 3.0525 2.90637C3.07597 2.85082 3.0877 2.79583 3.0877 2.74139V2.65973L3.06424 2.57807C2.93125 2.22588 2.91952 1.91703 3.02904 1.6515C3.13967 1.38597 3.28886 1.19488 3.4766 1.07822C3.64199 0.976012 3.85041 0.917128 4.10185 0.901574C4.36112 0.88602 4.61647 0.983788 4.86791 1.19488C4.93049 1.046 5.00146 0.91324 5.0808 0.796585C5.15903 0.671043 5.24899 0.549944 5.35068 0.433289C4.94279 0.14443 4.5226 0.0116655 4.09012 0.0349964C3.66546 0.0505504 3.30003 0.152207 2.99383 0.339965C2.64852 0.558832 2.41272 0.832137 2.28644 1.15988C2.15346 1.48763 2.09088 1.8237 2.0987 2.16811C1.72098 2.15256 1.37902 2.22644 1.07282 2.38976C0.766618 2.54641 0.507354 2.77694 0.295025 3.08135C0.193331 3.238 0.118457 3.40576 0.0704037 3.58463C0.0234679 3.76462 0 3.96015 0 4.17124C0 4.36678 0.0273792 4.5662 0.0821376 4.76951C0.138014 4.97171 0.240267 5.1667 0.388897 5.35445C0.515176 5.29224 0.636986 5.22224 0.754325 5.14447C0.880605 5.06559 1.01415 4.99893 1.15496 4.9445ZM6.60118 6.51434L6.53078 5.97606L6.43523 5.35445C6.34918 4.64341 6.28269 3.91293 6.23575 3.16301C6.181 2.40531 6.39668 1.79204 6.8828 1.3232C7.151 1.04989 7.42647 0.91324 7.70921 0.91324C7.99194 0.91324 8.22773 0.968235 8.41659 1.07822C8.59651 1.19488 8.7457 1.38208 8.86416 1.63983C8.9815 1.88981 8.9815 2.19089 8.86416 2.54307C8.82505 2.62862 8.82114 2.71028 8.85243 2.78805C8.8759 2.86693 8.9111 2.93359 8.95803 2.98803C9.01279 3.02691 9.08375 3.06191 9.17092 3.09302C9.25697 3.11635 9.34693 3.11246 9.4408 3.08135C9.79505 2.94803 10.1018 2.93637 10.3611 3.04636C10.6282 3.14746 10.8243 3.288 10.9495 3.46798C11.0601 3.64796 11.1154 3.87849 11.1154 4.15958C11.1154 4.44066 10.9858 4.71396 10.7265 4.97949C10.3723 5.35501 9.90848 5.58165 9.33519 5.65942C8.75408 5.74497 8.10201 5.74108 7.37898 5.64776L7.53152 6.53767C7.66562 6.55322 7.8109 6.561 7.96735 6.561C8.13274 6.56877 8.28249 6.57266 8.41659 6.57266C8.96641 6.57266 9.49668 6.50656 10.0074 6.37435C10.5103 6.23325 10.9539 5.95995 11.3383 5.55443C11.7708 5.14003 11.9871 4.68674 11.9871 4.19457C11.9871 3.71018 11.877 3.308 11.6568 2.98803C11.4367 2.64362 11.1618 2.40531 10.8321 2.2731C10.5024 2.13978 10.1761 2.0809 9.85316 2.09645C9.86099 1.72205 9.78667 1.38264 9.63022 1.07822C9.47265 0.764922 9.23685 0.50717 8.92283 0.304969C8.76526 0.202757 8.59651 0.12832 8.41659 0.0816585C8.23556 0.0272196 8.03887 0 7.82654 0C7.5751 0 7.31584 0.054439 7.04875 0.163317C6.78949 0.265529 6.54196 0.437733 6.30616 0.67993C5.98431 0.984344 5.74852 1.33153 5.59877 1.72149C5.4412 2.11256 5.33895 2.51919 5.29201 2.94137C5.23725 3.35466 5.22552 3.77239 5.25681 4.19457C5.28028 4.61675 5.31939 5.02671 5.37415 5.42445L5.45796 5.95273L5.5401 6.57266C5.65744 7.29148 5.73175 8.02585 5.76304 8.77577C5.80328 9.52569 5.59933 10.139 5.1512 10.6156C4.87629 10.8889 4.59747 11.0255 4.31474 11.0255C4.03201 11.0255 3.79621 10.9633 3.60735 10.8389C3.41849 10.7289 3.26539 10.5489 3.14805 10.2989C3.03742 10.049 3.04133 9.74845 3.15978 9.39737C3.19108 9.30294 3.19499 9.21684 3.17152 9.13907C3.15587 9.06907 3.12011 9.00686 3.06424 8.95242C3.02512 8.91353 2.97819 8.88187 2.92343 8.85743C2.86085 8.82632 2.80162 8.81077 2.74574 8.81077H2.66361L2.58147 8.84576C2.22833 8.97908 1.91822 8.99075 1.65113 8.88076C1.38405 8.77188 1.19519 8.62356 1.08455 8.43581C0.967213 8.24916 0.908543 8.02251 0.908543 7.75588C0.908543 7.48257 1.03426 7.21704 1.28571 6.95929C1.63884 6.58488 2.08641 6.3588 2.6284 6.28103C3.1704 6.20215 3.82638 6.19381 4.59636 6.25603L4.45555 5.38945C3.74816 5.33501 3.06088 5.35834 2.39373 5.45944C1.72545 5.56943 1.1516 5.86662 0.672188 6.35102C0.263176 6.76431 0.0547585 7.20926 0.0469359 7.68588C0.0312906 8.1625 0.137455 8.57301 0.365429 8.91742C0.58558 9.25294 0.864401 9.48681 1.20189 9.61902C1.53268 9.75234 1.87073 9.81511 2.21604 9.80733C2.19257 10.174 2.26353 10.5139 2.42893 10.8272C2.58538 11.1316 2.81671 11.3894 3.12291 11.6005C3.28048 11.7016 3.44978 11.7755 3.63082 11.8221C3.81186 11.8699 4.00798 11.8938 4.21919 11.8938C4.47063 11.8938 4.7299 11.8427 4.99699 11.7405C5.26519 11.6316 5.52054 11.4599 5.76304 11.2255C6.33745 10.6078 6.64421 9.86177 6.68332 8.98742C6.73026 8.11195 6.70288 7.28759 6.60118 6.51434Z" fill="#FFD007"/>
</svg>
