<svg width="78" height="80" viewBox="0 0 78 80" fill="none" xmlns="http://www.w3.org/2000/svg">
<path d="M14.3273 11.7096L14.3353 11.9724C14.5554 19.2081 15.9566 26.1148 18.4227 32.1156L18.6571 32.686L18.0917 32.4399C17.7704 32.3 17.4532 32.1573 17.1429 32.0109C17.1428 32.0108 17.1428 32.0108 17.1428 32.0108L17.2495 31.7847C14.1531 30.3249 10.1083 27.8238 8.42368 24.1973C6.80657 20.716 6.7342 17.3802 8.22517 15.0451L14.3273 11.7096ZM14.3273 11.7096L14.0653 11.7308C11.3474 11.9508 9.20462 13.045 8.01446 14.9106L14.3273 11.7096ZM3.9931 12.3453C1.55167 16.1698 1.52806 21.2668 3.87047 26.3116L3.87049 26.3116C6.1358 31.1885 11.0477 34.3555 14.7339 36.1471C17.3267 37.4072 19.7423 38.2088 21.254 38.6473L21.8777 38.8282L21.5363 38.2758C20.9405 37.3116 20.3737 36.2935 19.8373 35.2255L19.7925 35.1364L19.6988 35.1026C18.5274 34.6791 17.3974 34.2148 16.338 33.7146L16.3379 33.7145C12.8961 32.092 8.43365 29.2863 6.48718 25.096C4.54404 20.913 4.54684 16.839 6.4252 13.8973L6.42528 13.8972C7.94929 11.5077 10.629 10.081 14.0707 9.84249L14.3034 9.82637V9.59309V7.20044V6.93529L14.0387 6.95087C9.62169 7.21094 6.06858 9.09361 3.9931 12.3453ZM3.9931 12.3453L4.20382 12.4798M3.9931 12.3453L4.20382 12.4798M4.20382 12.4798C1.81974 16.2145 1.78082 21.2176 4.09722 26.2063C6.325 31.0024 11.1705 34.1372 14.8432 35.9222C17.2237 37.0792 19.4548 37.8475 20.9657 38.3015L13.8034 7.21698C9.56817 7.52834 6.18964 9.3686 4.20382 12.4798ZM63.4113 4.81108V5.04863L63.6486 5.06075C68.7817 5.32306 72.8874 7.53362 75.312 11.3318C78.0857 15.6799 78.1918 21.4228 75.5534 27.1048L75.7801 27.2101L75.5534 27.1048C73.56 31.398 69.6201 35.0152 63.8053 37.8417C59.4775 39.9454 55.6768 40.8176 55.265 40.9084L54.2913 41.1227L54.2029 41.1422L54.1474 41.2138C52.0869 43.874 49.7684 45.9797 47.2595 47.4535L47.3862 47.669L47.2595 47.4535C44.7069 48.9533 43.1273 51.7578 43.132 54.771L43.1375 58.2092L43.1379 58.4588H43.3875H50.2607C53.3573 58.4588 55.8675 60.9684 55.8675 64.0637V65.5204V65.7704H56.1175H59.3771C59.8978 65.7704 60.3197 66.1923 60.3197 66.7126V78.8078C60.3197 79.3281 59.8978 79.75 59.3771 79.75H31.4642C30.9436 79.75 30.5217 79.3281 30.5217 78.8078C30.5217 78.2875 30.9436 77.8656 31.4642 77.8656H58.1845H58.4345V77.6156V67.9046V67.6546H58.1845H19.531H19.281V67.9046V77.6156V77.8656H19.531H25.8989C26.4196 77.8656 26.8415 78.2875 26.8415 78.8078C26.8415 79.3281 26.4196 79.75 25.8989 79.75H18.3386C17.8179 79.75 17.396 79.3281 17.396 78.8078V66.7126C17.396 66.1923 17.8179 65.7704 18.3386 65.7704H21.5981H21.8481V65.5204V64.0637C21.8481 60.9684 24.3582 58.4588 27.4549 58.4588H34.328H34.5777L34.578 58.2092L34.5832 54.7706C34.5875 51.7575 33.0083 48.9533 30.4556 47.4538C27.9467 45.98 25.628 43.8743 23.5675 41.2139L23.512 41.1424L23.4236 41.1229L22.4509 40.9085L22.3971 41.1527L22.4509 40.9085C22.0401 40.818 18.2452 39.9491 13.9096 37.8417C8.09511 35.0154 4.15502 31.3982 2.16074 27.1051C-0.477979 21.4223 -0.371292 15.6789 2.40386 11.332L2.40387 11.332C4.82813 7.53393 8.9333 5.32337 14.066 5.06075L14.3032 5.04861V4.81108V1.19218C14.3032 0.6719 14.7252 0.25 15.2458 0.25H48.3182C48.8389 0.25 49.2608 0.671899 49.2608 1.19218C49.2608 1.71247 48.8389 2.13437 48.3182 2.13437H16.4384H16.1884V2.38437V9.94996C16.1884 17.9934 17.7108 25.6167 20.3709 31.9001C23.0297 38.1802 26.8337 43.1411 31.4106 45.8298C34.5337 47.6643 36.4735 51.0909 36.468 54.7735L36.4629 58.2085L36.4625 58.4588H36.7129H41.0025H41.2529L41.2525 58.2084L41.247 54.7741C41.2413 51.0914 43.1809 47.6643 46.3044 45.8293C50.8811 43.1404 54.685 38.1795 57.3437 31.8995C60.0038 25.6162 61.5262 17.993 61.5262 9.94981V2.38452V2.13452H61.2762H53.883C53.3624 2.13452 52.9405 1.71262 52.9405 1.19234C52.9405 0.672055 53.3624 0.250156 53.883 0.250156H62.4687C62.9894 0.250156 63.4113 0.672055 63.4113 1.19234V4.81108ZM53.7325 65.7702H53.9825V65.5202V64.0635C53.9825 62.0116 52.3131 60.3429 50.2607 60.3429H27.4551C25.4027 60.3429 23.7333 62.0116 23.7333 64.0635V65.5202V65.7702H23.9833H53.7325ZM63.6498 11.7306L63.3877 11.7094L63.3797 11.9722C63.1595 19.2078 61.7583 26.1141 59.2926 32.1147L59.0582 32.685L59.6236 32.4389C59.9437 32.2996 60.2607 32.1573 60.5715 32.0107C63.6745 30.5485 67.792 28.0162 69.5173 24.3023C71.155 20.777 71.2538 17.3439 69.7016 14.9105L69.7015 14.9104C68.5101 13.0452 66.367 11.9505 63.6498 11.7306ZM56.1786 38.2753L55.8371 38.8279L56.4609 38.6468C57.9736 38.2078 60.3913 37.4057 62.9808 36.1471C66.6671 34.3553 71.5789 31.1883 73.8436 26.3114C76.1859 21.2672 76.1629 16.1701 73.7223 12.345L73.5115 12.4795L73.7223 12.345C71.6468 9.09346 68.0932 7.21061 63.6758 6.95103L63.4112 6.93547V7.2006V9.59309V9.82638L63.6439 9.84249C67.0844 10.0807 69.7643 11.5075 71.2904 13.8971C73.1676 16.8397 73.1696 20.9136 71.2268 25.0958L71.4535 25.2012L71.2268 25.0958C69.2797 29.2879 64.8173 32.0929 61.3753 33.7148L61.3752 33.7149C60.311 34.2168 59.1816 34.6802 58.0168 35.1005L57.923 35.1343L57.8782 35.2235C57.3416 36.2921 56.7747 37.3107 56.1786 38.2753Z" fill="#FFD007" stroke="#0F102A" stroke-width="0.5"/>
</svg>
