<svg width="116" height="61" viewBox="0 0 116 61" fill="none" xmlns="http://www.w3.org/2000/svg">
<mask id="path-1-inside-1" fill="white">
<path d="M111.895 23.7662H111.233V15.7121C111.233 13.4675 109.379 11.619 107.128 11.619H103.817C103.288 11.619 102.89 11.7511 102.361 11.8831V9.50649C102.361 6.73377 100.11 4.48918 97.3288 4.48918H93.4886C92.6941 4.48918 91.8995 4.75325 91.105 5.14935C90.7078 2.24459 88.3242 0 85.411 0H80.7763C77.5982 0 75.0822 2.50866 75.0822 5.67749V23.7662H40.2557V5.67749C40.2557 2.50866 37.6073 0 34.4292 0H29.9269C27.0137 0 24.6301 2.24459 24.2329 5.01732C23.5708 4.62121 22.6438 4.35714 21.8493 4.35714H18.0091C15.2283 4.35714 12.9772 6.60173 12.9772 9.37446V11.619C12.5799 11.487 12.1826 11.355 11.653 11.355H8.34247C6.09132 11.355 4.23744 13.2035 4.23744 15.4481V23.5022C1.85388 23.7662 0 25.6147 0 27.8593V33.1407C0 35.3853 1.85388 37.2338 4.10502 37.2338V45.2879C4.10502 47.5325 5.9589 49.381 8.21004 49.381H11.5205C12.0502 49.381 12.4475 49.2489 12.8447 49.1169V51.4935C12.8447 54.2662 15.2283 56.5108 18.0091 56.5108H21.8493C22.6438 56.5108 23.4384 56.2468 24.2329 55.8507C24.4977 58.7554 27.0137 61 29.9269 61H34.4292C37.6073 61 40.1233 58.4913 40.1233 55.3225V37.2338H74.9498V55.1905C74.9498 58.3593 77.4658 60.868 80.6438 60.868H85.1461C88.0594 60.868 90.4429 58.6234 90.8402 55.8507C91.5023 56.2468 92.2968 56.5108 93.2237 56.5108H97.0639C99.8447 56.5108 102.096 54.2662 102.096 51.4935V49.2489C102.493 49.381 103.023 49.513 103.553 49.513H106.863C109.114 49.513 110.968 47.6645 110.968 45.4199V37.3658H111.63C113.881 37.3658 115.735 35.5173 115.735 33.1407V27.8593C116 25.4827 114.146 23.7662 111.895 23.7662ZM2.91324 33.0087V27.7273C2.91324 27.0671 3.44292 26.4069 4.23744 26.4069V34.329C3.44292 34.329 2.91324 33.6688 2.91324 33.0087ZM11.653 46.6082H8.34247C7.54795 46.6082 7.01826 46.0801 7.01826 45.2879V15.5801C7.01826 14.7879 7.54795 14.2597 8.34247 14.2597H11.653C12.4475 14.2597 12.9772 14.7879 12.9772 15.5801V45.2879C12.9772 45.9481 12.4475 46.6082 11.653 46.6082ZM21.9817 53.7381H18.1416C16.9498 53.7381 15.8904 52.6818 15.8904 51.4935V45.4199V15.5801V9.50649C15.8904 8.31818 16.9498 7.2619 18.1416 7.2619H21.9817C23.1735 7.2619 24.2329 8.31818 24.2329 9.50649V51.4935C24.2329 52.6818 23.1735 53.7381 21.9817 53.7381ZM37.4749 55.3225C37.4749 56.9069 36.1507 58.2273 34.5616 58.2273H30.0594C28.4703 58.2273 27.1461 56.9069 27.1461 55.1905V5.67749C27.1461 4.09307 28.4703 2.77273 30.0594 2.77273H34.4292C36.0183 2.77273 37.3425 4.09307 37.3425 5.80952V55.3225H37.4749ZM40.2557 34.5931V26.4069H75.0822V34.5931H40.2557ZM88.3242 55.3225C88.3242 56.9069 87 58.2273 85.411 58.2273H80.7763C79.1872 58.2273 77.863 56.9069 77.863 55.1905V5.67749C77.863 4.09307 79.1872 2.77273 80.7763 2.77273H85.2785C86.8676 2.77273 88.1918 4.09307 88.1918 5.80952V9.63853V51.4935V55.3225H88.3242ZM99.4475 51.4935C99.4475 52.6818 98.3881 53.7381 97.1963 53.7381H93.3562C92.1644 53.7381 91.105 52.6818 91.105 51.4935V9.50649C91.105 8.31818 92.1644 7.2619 93.3562 7.2619H97.1963C98.3881 7.2619 99.4475 8.31818 99.4475 9.50649V51.4935ZM108.32 45.2879C108.32 46.0801 107.79 46.6082 106.995 46.6082H103.685C102.89 46.6082 102.361 46.0801 102.361 45.2879V15.5801C102.361 14.7879 102.89 14.2597 103.685 14.2597H106.995C107.79 14.2597 108.32 14.7879 108.32 15.5801V45.2879ZM113.219 33.2727C113.219 34.0649 112.689 34.5931 111.895 34.5931H111.233V26.539H111.895C112.689 26.539 113.219 27.0671 113.219 27.8593V33.2727Z"/>
</mask>
<path d="M111.895 23.7662H111.233V15.7121C111.233 13.4675 109.379 11.619 107.128 11.619H103.817C103.288 11.619 102.89 11.7511 102.361 11.8831V9.50649C102.361 6.73377 100.11 4.48918 97.3288 4.48918H93.4886C92.6941 4.48918 91.8995 4.75325 91.105 5.14935C90.7078 2.24459 88.3242 0 85.411 0H80.7763C77.5982 0 75.0822 2.50866 75.0822 5.67749V23.7662H40.2557V5.67749C40.2557 2.50866 37.6073 0 34.4292 0H29.9269C27.0137 0 24.6301 2.24459 24.2329 5.01732C23.5708 4.62121 22.6438 4.35714 21.8493 4.35714H18.0091C15.2283 4.35714 12.9772 6.60173 12.9772 9.37446V11.619C12.5799 11.487 12.1826 11.355 11.653 11.355H8.34247C6.09132 11.355 4.23744 13.2035 4.23744 15.4481V23.5022C1.85388 23.7662 0 25.6147 0 27.8593V33.1407C0 35.3853 1.85388 37.2338 4.10502 37.2338V45.2879C4.10502 47.5325 5.9589 49.381 8.21004 49.381H11.5205C12.0502 49.381 12.4475 49.2489 12.8447 49.1169V51.4935C12.8447 54.2662 15.2283 56.5108 18.0091 56.5108H21.8493C22.6438 56.5108 23.4384 56.2468 24.2329 55.8507C24.4977 58.7554 27.0137 61 29.9269 61H34.4292C37.6073 61 40.1233 58.4913 40.1233 55.3225V37.2338H74.9498V55.1905C74.9498 58.3593 77.4658 60.868 80.6438 60.868H85.1461C88.0594 60.868 90.4429 58.6234 90.8402 55.8507C91.5023 56.2468 92.2968 56.5108 93.2237 56.5108H97.0639C99.8447 56.5108 102.096 54.2662 102.096 51.4935V49.2489C102.493 49.381 103.023 49.513 103.553 49.513H106.863C109.114 49.513 110.968 47.6645 110.968 45.4199V37.3658H111.63C113.881 37.3658 115.735 35.5173 115.735 33.1407V27.8593C116 25.4827 114.146 23.7662 111.895 23.7662ZM2.91324 33.0087V27.7273C2.91324 27.0671 3.44292 26.4069 4.23744 26.4069V34.329C3.44292 34.329 2.91324 33.6688 2.91324 33.0087ZM11.653 46.6082H8.34247C7.54795 46.6082 7.01826 46.0801 7.01826 45.2879V15.5801C7.01826 14.7879 7.54795 14.2597 8.34247 14.2597H11.653C12.4475 14.2597 12.9772 14.7879 12.9772 15.5801V45.2879C12.9772 45.9481 12.4475 46.6082 11.653 46.6082ZM21.9817 53.7381H18.1416C16.9498 53.7381 15.8904 52.6818 15.8904 51.4935V45.4199V15.5801V9.50649C15.8904 8.31818 16.9498 7.2619 18.1416 7.2619H21.9817C23.1735 7.2619 24.2329 8.31818 24.2329 9.50649V51.4935C24.2329 52.6818 23.1735 53.7381 21.9817 53.7381ZM37.4749 55.3225C37.4749 56.9069 36.1507 58.2273 34.5616 58.2273H30.0594C28.4703 58.2273 27.1461 56.9069 27.1461 55.1905V5.67749C27.1461 4.09307 28.4703 2.77273 30.0594 2.77273H34.4292C36.0183 2.77273 37.3425 4.09307 37.3425 5.80952V55.3225H37.4749ZM40.2557 34.5931V26.4069H75.0822V34.5931H40.2557ZM88.3242 55.3225C88.3242 56.9069 87 58.2273 85.411 58.2273H80.7763C79.1872 58.2273 77.863 56.9069 77.863 55.1905V5.67749C77.863 4.09307 79.1872 2.77273 80.7763 2.77273H85.2785C86.8676 2.77273 88.1918 4.09307 88.1918 5.80952V9.63853V51.4935V55.3225H88.3242ZM99.4475 51.4935C99.4475 52.6818 98.3881 53.7381 97.1963 53.7381H93.3562C92.1644 53.7381 91.105 52.6818 91.105 51.4935V9.50649C91.105 8.31818 92.1644 7.2619 93.3562 7.2619H97.1963C98.3881 7.2619 99.4475 8.31818 99.4475 9.50649V51.4935ZM108.32 45.2879C108.32 46.0801 107.79 46.6082 106.995 46.6082H103.685C102.89 46.6082 102.361 46.0801 102.361 45.2879V15.5801C102.361 14.7879 102.89 14.2597 103.685 14.2597H106.995C107.79 14.2597 108.32 14.7879 108.32 15.5801V45.2879ZM113.219 33.2727C113.219 34.0649 112.689 34.5931 111.895 34.5931H111.233V26.539H111.895C112.689 26.539 113.219 27.0671 113.219 27.8593V33.2727Z" fill="#FFD007" stroke="#0F102A" stroke-width="1.6" mask="url(#path-1-inside-1)"/>
</svg>
