<svg width="92" height="99" viewBox="0 0 92 99" fill="none" xmlns="http://www.w3.org/2000/svg">
<g clip-path="url(#clip0)">
<path d="M67.8988 87.1157L67.9071 87.0633L67.8684 87.027L64.6696 84.0281C64.4932 83.851 64.4087 83.5901 64.4949 83.3316C64.5865 83.0568 64.7575 82.9 65 82.9V82.9009L65.0135 82.899L69.4135 82.299L69.4658 82.2919L69.4895 82.2447L71.4895 78.2447L71.4898 78.2448L71.4929 78.2371C71.5737 78.0349 71.7791 77.925 72.0125 77.925C72.2444 77.925 72.4827 78.035 72.6123 78.2482L74.6106 82.2447L74.6342 82.2919L74.6865 82.299L79.0865 82.899L79.0864 82.9H79.1C79.3425 82.9 79.5135 83.0568 79.6051 83.3316C79.6914 83.5904 79.6066 83.8516 79.4298 84.0287C79.4296 84.0289 79.4295 84.0291 79.4293 84.0292L76.2304 87.1281L76.1931 87.1643L76.2013 87.2157L76.9 91.6075C76.8974 91.783 76.8068 92.0518 76.6293 92.2292C76.5632 92.2954 76.5081 92.3 76.3 92.3C76.2015 92.3 76.1396 92.2982 76.0707 92.2292L76.0603 92.2189L76.0474 92.2119L72.1474 90.1119L72.1 90.0864L72.0526 90.1119L68.1603 92.2078C67.8763 92.3006 67.6286 92.2872 67.4707 92.1292L67.4592 92.1178L67.4447 92.1105C67.3746 92.0755 67.3127 92 67.2679 91.8878C67.2243 91.7788 67.2009 91.6449 67.2 91.5077L67.8988 87.1157ZM70.1 83.4H70.0925L70.085 83.4011L66.785 83.9011L66.5788 83.9323L66.7323 84.0735L69.2307 86.3721C69.393 86.5358 69.3998 86.7849 69.4 86.9907L68.8017 90.1815L68.764 90.3829L68.946 90.2888L71.8447 88.7894C71.8449 88.7893 71.8451 88.7892 71.8453 88.7891C71.9285 88.7476 72.0373 88.725 72.15 88.725C72.2627 88.725 72.3715 88.7476 72.4547 88.7891C72.4549 88.7892 72.4551 88.7893 72.4553 88.7894L75.3541 90.2888L75.5361 90.3829L75.4983 90.1815L74.8983 86.9815L74.8992 86.9814L74.8949 86.9683C74.8506 86.8355 74.8528 86.7329 74.8824 86.6441C74.9126 86.5533 74.9748 86.4669 75.0686 86.3728L77.6663 84.0749L77.8265 83.9331L77.615 83.9011L74.315 83.4011L74.3075 83.4H74.3C74.0509 83.4 73.8793 83.2349 73.7894 83.0552L72.2894 80.0552L72.2 79.8763L72.1106 80.0552L70.6106 83.0552C70.5709 83.1346 70.4857 83.2226 70.382 83.2917C70.2772 83.3616 70.1719 83.4 70.1 83.4Z" fill="#FFD007" stroke="#0F102A" stroke-width="0.2"/>
<path d="M51.5 79.7999H9.3C8.94686 79.7999 8.6 79.5367 8.6 79.0999C8.6 78.6632 8.94686 78.3999 9.3 78.3999H51.5C51.7299 78.3999 51.9022 78.4685 52.0168 78.5831C52.1314 78.6978 52.2 78.87 52.2 79.0999C52.2 79.5367 51.8531 79.7999 51.5 79.7999Z" fill="#FFD007" stroke="#0F102A" stroke-width="0.2"/>
<path d="M44.2 85.6H9.3C8.94686 85.6 8.6 85.3367 8.6 84.9C8.6 84.4632 8.94686 84.2 9.3 84.2H44.2C44.43 84.2 44.6022 84.2686 44.7168 84.3832C44.8314 84.4978 44.9 84.67 44.9 84.9C44.9 85.3367 44.5531 85.6 44.2 85.6Z" fill="#FFD007" stroke="#0F102A" stroke-width="0.2"/>
<path d="M29.3 90.1H51.6C51.9531 90.1 52.3 90.3632 52.3 90.8C52.3 91.2368 51.9531 91.5 51.6 91.5H29.3C29.07 91.5 28.8978 91.4314 28.7832 91.3168C28.6686 91.2022 28.6 91.03 28.6 90.8C28.6 90.3632 28.9469 90.1 29.3 90.1Z" fill="#FFD007" stroke="#0F102A" stroke-width="0.2"/>
<path d="M91.4069 59.6364L91.4065 59.6366L91.4106 59.6447C91.5869 59.9973 91.4034 60.421 91.0757 60.503L91.0755 60.5022L91.0635 60.5069L68.8635 69.2069L68.8629 69.2071L64.8629 70.8071L64.9 71H84C84.4368 71 84.7 71.3468 84.7 71.7V98.2C84.7 98.6367 84.3531 98.9 84 98.9H60.2H0.8C0.569968 98.9 0.395525 98.8312 0.279767 98.726C0.164584 98.6213 0.1 98.4739 0.1 98.3V71.7C0.1 71.2632 0.446859 71 0.8 71H4.9H5.04663L4.9931 70.8635L2.9931 65.7635L2.99348 65.7633L2.98944 65.7553C2.90352 65.5834 2.90352 65.4165 2.98944 65.2447C3.03643 65.1507 3.0807 65.0857 3.13321 65.0332C3.18499 64.9814 3.24894 64.9376 3.34081 64.8914L7.13672 63.393L7.27381 63.3389L7.17286 63.2315L2.47286 58.2315L2.4729 58.2315L2.47071 58.2293C2.3882 58.1468 2.3 57.9717 2.3 57.8C2.3 57.6289 2.38749 57.4546 2.46971 57.3717C2.47005 57.3714 2.47038 57.371 2.47071 57.3707L45.7685 16.6728L45.7688 16.6725L63.0688 0.272549L63.0688 0.272575L63.0707 0.270686C63.3313 0.010105 63.7671 0.00973924 64.0282 0.269589C64.0286 0.269954 64.0289 0.27032 64.0293 0.270686L82.227 19.6684L82.2293 19.6707C82.3118 19.7532 82.4 19.9282 82.4 20.1C82.4 20.2711 82.3124 20.4455 82.2302 20.5284C82.2299 20.5287 82.2296 20.529 82.2293 20.5293L64.9321 36.9266L64.9312 36.9274L58.2321 43.1266L58.3316 43.2948L58.6316 43.1948L58.6317 43.195L58.6365 43.1931L80.8365 34.4931L80.8366 34.4935L80.8447 34.4894C81.0166 34.4035 81.1834 34.4035 81.3553 34.4894C81.4492 34.5364 81.5143 34.5807 81.5668 34.6332C81.6185 34.6849 81.6623 34.7489 81.7085 34.8406L91.4069 59.6364ZM63.5729 1.73149L63.5042 1.65845L63.4313 1.72727L47.2313 17.0273L47.1588 17.0958L47.2271 17.1685L64.4271 35.4685L64.4958 35.5415L64.5687 35.4727L80.7687 20.1727L80.8412 20.1042L80.7729 20.0315L63.5729 1.73149ZM3.93139 57.8272L3.85802 57.8964L3.92783 57.9692L8.62783 62.8692L8.67424 62.9176L8.73663 62.893L21.4366 57.893L21.4549 57.8859L21.469 57.8723L43.169 37.1723L43.169 37.1724L43.1707 37.1707C43.4317 36.9097 43.8683 36.9097 44.1293 37.1707C44.3899 37.4313 44.3902 37.8671 44.1304 38.1282C44.13 38.1285 44.1297 38.1289 44.1293 38.1293L25.0314 56.1272L25.1364 56.2931L36.1364 51.9931L36.2 51.9683V51.9C36.2 51.8826 36.2093 51.8542 36.2425 51.81C36.2747 51.7671 36.3188 51.7226 36.3696 51.6718C36.37 51.6714 36.3703 51.6711 36.3707 51.6707L52.4687 36.4727L52.4687 36.4727L52.4707 36.4707C52.7317 36.2097 53.1683 36.2097 53.4293 36.4707C53.6899 36.7313 53.6902 37.1672 53.4303 37.4283C53.43 37.4286 53.4296 37.4289 53.4293 37.4293L39.4314 50.6272L39.5366 50.793L54.5366 44.893L54.5546 44.886L54.5686 44.8727L63.3686 36.5727L63.4412 36.5042L63.3729 36.4315L55.5729 28.1315L55.5 28.2L55.5729 28.1315L46.1729 18.1315L46.1043 18.0585L46.0314 18.1272L3.93139 57.8272ZM59.4 97.6H59.5V97.5V72.4V72.3H59.4H1.5H1.4V72.4V97.5V97.6H1.5H59.4ZM83.4 72.4V72.3H83.3H60.9H60.8V72.4V97.5V97.6H60.9H83.3H83.4V97.5V72.4ZM61.2 70.9H61.2202L61.2389 70.8921L67.6389 68.1921L67.7291 68.1541L67.6929 68.0631L64.7931 60.7635L64.7929 60.7631L58.4931 44.6635L58.4562 44.5692L58.3624 44.6073L55.1633 45.907L55.1624 45.9073L21.9633 59.007L21.9631 59.007L4.56314 65.907L4.47151 65.9434L4.50652 66.0355L6.40652 71.0355L6.43102 71.1H6.5H24.3H24.3189L24.3364 71.0931L48.6364 61.5931L48.6366 61.5935L48.6447 61.5894C48.8188 61.5024 48.988 61.5036 49.1356 61.5669C49.2852 61.631 49.4192 61.762 49.5106 61.9447C49.5976 62.1188 49.5963 62.288 49.5331 62.4356C49.4694 62.5841 49.3399 62.7172 49.1592 62.8085L28.4636 70.9069L28.5 71.1H40.1H40.1188L40.1364 71.0931L57.5364 64.2931L57.5366 64.2935L57.5447 64.2894C57.7188 64.2024 57.888 64.2036 58.0356 64.2669C58.1852 64.331 58.3192 64.462 58.4106 64.6447C58.4976 64.8188 58.4963 64.988 58.4331 65.1356C58.3694 65.2841 58.2399 65.4172 58.0593 65.5085L44.2636 70.9069L44.3 71.1H60.2H61H61.1V71C61.1 70.9825 61.1097 70.9567 61.1332 70.9332C61.1567 70.9097 61.1825 70.9 61.2 70.9ZM69.0069 67.7366L69.0436 67.8297L69.1367 67.793L89.9367 59.593L90.0296 59.5564L89.9931 59.4634L80.7931 36.0634L80.7564 35.9702L80.6633 36.0069L59.8633 44.2069L59.7704 44.2436L59.8069 44.3366L64.4069 56.0366L69.0069 67.7366Z" fill="#FFD007" stroke="#0F102A" stroke-width="0.2"/>
<path d="M76.2327 48.274L76.2728 48.3105L76.3253 48.2967L80.5126 47.2C80.7883 47.2028 81.0549 47.2964 81.2293 47.4707C81.3878 47.6292 81.4008 47.8782 81.3067 48.1636L79.5088 52.159L79.4872 52.2068L79.5144 52.2518L81.8144 56.0518L81.8143 56.0518L81.8168 56.0555C82.0003 56.3308 81.9843 56.5743 81.8293 56.7293L81.8178 56.7408L81.8105 56.7553C81.7755 56.8254 81.7001 56.8872 81.5878 56.9321C81.4783 56.976 81.3434 56.9994 81.2055 57L76.8113 56.5006L76.7594 56.4947L76.7249 56.534L73.827 59.8315C73.6388 60.019 73.4635 60.1 73.3 60.1H73.2994H73.2988H73.2982H73.2977H73.2971H73.2965H73.2959H73.2954H73.2948H73.2942H73.2937H73.2931H73.2926H73.292H73.2914H73.2909H73.2903H73.2898H73.2893H73.2887H73.2882H73.2876H73.2871H73.2866H73.286H73.2855H73.285H73.2844H73.2839H73.2834H73.2829H73.2824H73.2818H73.2813H73.2808H73.2803H73.2798H73.2793H73.2788H73.2783H73.2778H73.2773H73.2768H73.2763H73.2758H73.2753H73.2748H73.2743H73.2738H73.2734H73.2729H73.2724H73.2719H73.2714H73.271H73.2705H73.27H73.2696H73.2691H73.2686H73.2682H73.2677H73.2672H73.2668H73.2663H73.2659H73.2654H73.265H73.2645H73.2641H73.2636H73.2632H73.2627H73.2623H73.2618H73.2614H73.261H73.2605H73.2601H73.2597H73.2592H73.2588H73.2584H73.258H73.2575H73.2571H73.2567H73.2563H73.2558H73.2554H73.255H73.2546H73.2542H73.2538H73.2534H73.253H73.2526H73.2521H73.2517H73.2513H73.2509H73.2505H73.2501H73.2497H73.2493H73.249H73.2486H73.2482H73.2478H73.2474H73.247H73.2466H73.2462H73.2458H73.2455H73.2451H73.2447H73.2443H73.2439H73.2436H73.2432H73.2428H73.2425H73.2421H73.2417H73.2413H73.241H73.2406H73.2402H73.2399H73.2395H73.2391H73.2388H73.2384H73.2381H73.2377H73.2374H73.237H73.2366H73.2363H73.2359H73.2356H73.2352H73.2349H73.2345H73.2342H73.2338H73.2335H73.2332H73.2328H73.2325H73.2321H73.2318H73.2314H73.2311H73.2308H73.2304H73.2301H73.2298H73.2294H73.2291H73.2288H73.2284H73.2281H73.2278H73.2274H73.2271H73.2268H73.2264H73.2261H73.2258H73.2255H73.2251H73.2248H73.2245H73.2242H73.2239H73.2235H73.2232H73.2229H73.2226H73.2223H73.2219H73.2216H73.2213H73.221H73.2207H73.2204H73.2201H73.2197H73.2194H73.2191H73.2188H73.2185H73.2182H73.2179H73.2176H73.2173H73.217H73.2166H73.2163H73.216H73.2157H73.2154H73.2151H73.2148H73.2145H73.2142H73.2139H73.2136H73.2133H73.213H73.2127H73.2124H73.2121H73.2118H73.2115H73.2112H73.2109H73.2106H73.2103H73.21H73.2097H73.2094H73.2091H73.2088H73.2085H73.2082H73.2079H73.2076H73.2073H73.207H73.2067H73.2064H73.2061H73.2058H73.2056H73.2053H73.205H73.2047H73.2044H73.2041H73.2038H73.2035H73.2032H73.2029H73.2026H73.2023H73.202H73.2017H73.2014H73.2011H73.2009H73.2006H73.2003H73.2H73.1997H73.1994H73.1991H73.1988H73.1985H73.1982H73.1979H73.1976H73.1973H73.197H73.1968H73.1965H73.1962H73.1959H73.1956H73.1953H73.195H73.1947H73.1944H73.1941H73.1938H73.1935H73.1932H73.1929H73.1926H73.1923H73.192H73.1917H73.1914H73.1911H73.1909H73.1906H73.1903H73.19H73.1897H73.1894H73.1891H73.1888H73.1885H73.1882H73.1879H73.1876H73.1873H73.187H73.1867H73.1864H73.1861H73.1858H73.1854H73.1851H73.1848H73.1845H73.1842H73.1839H73.1836H73.1833H73.183H73.1827H73.1824H73.1821H73.1818H73.1815H73.1811H73.1808H73.1805H73.1802H73.1799H73.1796H73.1793H73.179H73.1786H73.1783H73.178H73.1777H73.1774H73.1771H73.1767H73.1764H73.1761H73.1758H73.1755H73.1751H73.1748H73.1745H73.1742H73.1738H73.1735H73.1732H73.1729H73.1725H73.1722H73.1719H73.1715H73.1712H73.1709H73.1705H73.1702H73.1699H73.1695H73.1692H73.1689H73.1685H73.1682H73.1678H73.1675H73.1671H73.1668H73.1665H73.1661H73.1658H73.1654H73.1651H73.1647H73.1644H73.164H73.1637H73.1633H73.163H73.1626H73.1622H73.1619H73.1615H73.1612H73.1608H73.1604H73.1601H73.1597H73.1594H73.159H73.1586H73.1582H73.1579H73.1575H73.1571H73.1568H73.1564H73.156H73.1556H73.1553H73.1549H73.1545H73.1541H73.1537H73.1533H73.153H73.1526H73.1522H73.1518H73.1514H73.151H73.1506H73.1502H73.1498H73.1494H73.149H73.1486H73.1482H73.1478H73.1474H73.147H73.1466H73.1462H73.1458H73.1454H73.1449H73.1445H73.1441H73.1437H73.1433H73.1429H73.1424H73.142H73.1416H73.1411H73.1407H73.1403H73.1399H73.1394H73.139H73.1386H73.1381H73.1377H73.1372H73.1368H73.1363H73.1359H73.1354H73.135H73.1345H73.1341H73.1336H73.1332H73.1327H73.1323H73.1318H73.1313H73.1309H73.1304H73.1299H73.1295H73.129H73.1285H73.128H73.1276H73.1271H73.1266H73.1261H73.1256H73.1251H73.1247H73.1244C72.9552 60.0089 72.7851 59.8345 72.6966 59.5737L71.7979 55.2795L71.787 55.2278L71.7383 55.2076L67.6383 53.5076L67.6384 53.5074L67.6316 53.5051C67.3568 53.4135 67.2 53.2425 67.2 53C67.2 52.8714 67.2432 52.739 67.3107 52.6264C67.3789 52.5129 67.4662 52.4287 67.5447 52.3894L67.5448 52.3896L67.5501 52.3865L71.3501 50.1865L71.3949 50.1606L71.3996 50.109L71.7979 45.7276C71.8108 45.7012 71.8232 45.6748 71.8355 45.6484C71.872 45.5704 71.9082 45.4929 71.9582 45.418C72.0254 45.3171 72.1093 45.2356 72.2316 45.1949C72.519 45.0991 72.7699 45.1113 72.9293 45.2707L72.9292 45.2708L72.9327 45.274L76.2327 48.274ZM79.7879 55.5993L79.9923 55.624L79.8855 55.4481L78.1877 52.6518C78.1471 52.5689 78.125 52.4614 78.125 52.35C78.125 52.237 78.1478 52.128 78.1894 52.0447L78.1895 52.0447L78.1906 52.0423L79.5906 49.0423L79.6794 48.8521L79.4757 48.903L76.2877 49.7C75.9919 49.6999 75.8357 49.6943 75.6707 49.5293L75.6708 49.5292L75.6675 49.5263L73.2675 47.3263L73.1187 47.1898L73.1004 47.3909L72.8004 50.6909L72.8 50.6909V50.7C72.8 50.9491 72.6349 51.1207 72.4553 51.2105L72.4552 51.2105L72.4517 51.2124L69.5517 52.8124L69.3734 52.9108L69.5602 52.9917L72.5576 54.2906C72.646 54.3352 72.7341 54.4018 72.7991 54.4776C72.8656 54.5552 72.9 54.6328 72.9 54.7V54.7108L72.9023 54.7214L73.6023 57.9214L73.6445 58.1144L73.775 57.9661L75.975 55.4661L75.9836 55.4563L75.9894 55.4447C76.025 55.3736 76.1016 55.3115 76.2031 55.2664C76.301 55.2228 76.4095 55.201 76.4942 55.2L79.7879 55.5993Z" fill="#FFD007" stroke="#0F102A" stroke-width="0.2"/>
<path d="M53.4365 53.3931L53.4366 53.3935L53.4447 53.3895C53.6188 53.3024 53.788 53.3037 53.9356 53.3669C54.0852 53.431 54.2192 53.562 54.3105 53.7447C54.3976 53.9188 54.3963 54.0881 54.3331 54.2356C54.2694 54.3841 54.1399 54.5173 53.9592 54.6086L14.6635 70.0069L14.644 70.0145L14.6293 70.0293C14.5604 70.0982 14.4985 70.1 14.4 70.1C14.1407 70.1 13.8805 69.9254 13.7949 69.6684L13.7926 69.6617L13.7894 69.6553C13.7024 69.4812 13.7036 69.312 13.7669 69.1644C13.8305 69.0159 13.9601 68.8828 14.1408 68.7914L53.4365 53.3931Z" fill="#FFD007" stroke="#0F102A" stroke-width="0.2"/>
<path d="M67.4731 22.3037L67.4219 22.318L67.4051 22.3684L66.0051 26.5684C65.9592 26.7062 65.8934 26.8118 65.8011 26.8836C65.7097 26.9547 65.5827 27 65.4 27C65.1517 27 64.9806 26.8388 64.8781 26.7367L62.4839 23.0456L62.4551 23.0013L62.4023 23L58.0023 22.9L58.0023 22.9H58C57.7138 22.9 57.4739 22.8054 57.3949 22.5684C57.2991 22.281 57.3113 22.0301 57.4707 21.8707L57.4713 21.8713L57.4792 21.8611L60.1792 18.3611L60.2109 18.32L60.1955 18.2705L58.8955 14.0705L58.8955 14.0704L58.8949 14.0684C58.8085 13.8093 58.8936 13.5479 59.0707 13.3707C59.2475 13.1939 59.5084 13.1088 59.7671 13.1945L63.8656 14.6939L63.9144 14.7118L63.957 14.6822L67.5508 12.1865C67.7192 12.1054 67.9864 12.1009 68.2684 12.1949C68.5048 12.2737 68.5995 12.5126 68.6 12.7978L68.4001 17.1955L68.3977 17.2474L68.4389 17.2792L71.9389 19.9792L71.9466 19.9851L71.9553 19.9895C72.0338 20.0288 72.1191 20.1119 72.1731 20.2197C72.2262 20.3261 72.2451 20.4484 72.2051 20.5684L72.2 20.5838V20.6C72.2 20.8418 72.0441 21.0126 71.7707 21.1044L67.4731 22.3037ZM62.697 21.6L62.697 21.6H62.7C62.9492 21.6 63.1197 21.7613 63.3223 21.9637L65.1168 24.6555L65.2275 24.8216L65.2942 24.6335L66.3942 21.5335L66.3943 21.5335L66.3949 21.5316C66.4798 21.2769 66.6416 21.1911 66.8366 21.0935L69.9279 20.1961L70.1173 20.1411L69.961 20.0208L67.361 18.0208L67.3533 18.0149L67.3447 18.0106C67.2736 17.975 67.2115 17.8984 67.1664 17.7969C67.1219 17.6967 67.1 17.5855 67.1 17.5V14.1V13.9074L66.9424 14.0182L64.2425 15.9182L64.2354 15.9232L64.2293 15.9293C64.0665 16.0921 63.8156 16.096 63.6447 16.0106L63.6451 16.0099L63.6334 16.0058L60.5334 14.9058L60.3427 14.8381L60.4048 15.0307L61.4048 18.1307L61.4072 18.138L61.4106 18.1447C61.496 18.3156 61.492 18.5666 61.3293 18.7293L61.3287 18.7287L61.3207 18.7391L59.3207 21.3391L59.2015 21.4941L59.397 21.5L62.697 21.6Z" fill="#FFD007" stroke="#0F102A" stroke-width="0.2"/>
<path d="M14.8313 57.9272L14.8313 57.9272L14.8293 57.9292C14.7468 58.0117 14.5718 58.0999 14.4 58.0999C14.2324 58.0999 14.0592 58.0176 13.8598 57.918C13.6101 57.6562 13.6135 57.229 13.8698 56.9716L44.5687 27.9726L44.5687 27.9727L44.5707 27.9706C44.8317 27.7097 45.2684 27.7097 45.5293 27.9706C45.7899 28.2313 45.7902 28.6672 45.5302 28.9283L14.8313 57.9272Z" fill="#FFD007" stroke="#0F102A" stroke-width="0.2"/>
</g>
<defs>
<clipPath id="clip0">
<rect width="91.6" height="99" fill="white"/>
</clipPath>
</defs>
</svg>
