<?xml version="1.0" encoding="utf-8"?>
<!-- Generator: Adobe Illustrator 21.0.2, SVG Export Plug-In . SVG Version: 6.00 Build 0)  -->
<svg version="1.1" id="Слой_1" xmlns="http://www.w3.org/2000/svg" xmlns:xlink="http://www.w3.org/1999/xlink" x="0px" y="0px"
	 viewBox="0 0 80 80" style="enable-background:new 0 0 80 80;" xml:space="preserve">
<style type="text/css">
	.st0{fill:#FFD007;stroke:#0F102A;stroke-width:0.4;stroke-miterlimit:10;}
	.st1{fill:#FFD007;}
	.st2{fill:#0F102A;}
</style>
<path class="st0" d="M66.5,29.5c0.4-0.3,0.6-0.9,0.2-1.4c-0.3-0.4-0.9-0.5-1.4-0.2c-0.4,0.3-0.8,0.5-1.2,0.8c-2,1.1-4.3,1.7-6.5,1.7
	c-2.8,0-5.5-0.9-7.8-2.5c-0.2-0.1-0.4-0.2-0.6-0.2c-0.3,0-0.6,0.1-0.8,0.4c-0.3,0.4-0.2,1.1,0.2,1.4c2.6,1.9,5.7,2.9,8.9,2.9
	c2.6,0,5.2-0.7,7.5-2C65.6,30.2,66.1,29.8,66.5,29.5z"/>
<path class="st0" d="M45.5,17.4c0.6,0,1-0.4,1-1c0-1.6,1.3-2.9,2.9-2.9c1.6,0,2.9,1.3,2.9,2.9c0,0.6,0.4,1,1,1s1-0.4,1-1
	c0-2.7-2.2-4.9-4.9-4.9s-4.9,2.2-4.9,4.9C44.5,16.9,44.9,17.4,45.5,17.4z"/>
<path class="st0" d="M61.8,17.4c0.6,0,1-0.4,1-1c0-1.6,1.3-2.9,2.9-2.9c1.6,0,2.9,1.3,2.9,2.9c0,0.6,0.4,1,1,1s1-0.4,1-1
	c0-2.7-2.2-4.9-4.9-4.9s-4.9,2.2-4.9,4.9C60.8,16.9,61.2,17.4,61.8,17.4z"/>
<g>
	<path class="st1" d="M28.9,79.8c5.9,0,11.5-1.7,16.3-5.1c2.3,1.4,10.6,5.9,16.7-0.6c0.2-0.2,0.3-0.6,0.2-0.9
		c-0.1-0.3-0.3-0.6-0.6-0.7c-0.1,0-8.5-3.5-7.2-7.9c1.5-3.2,2.7-7.2,3.1-10.3c0-0.2,0.7-5.1-0.4-9.9c6.1,0.1,12-2.2,16.4-6.6
		c4.2-4.2,6.5-9.8,6.4-15.7c-0.1-5.9-2.4-11.4-6.7-15.6c-8.8-8.5-23-8.4-31.6,0.3c-4.7,4.7-6.8,10.8-6.4,16.9
		c-2-0.5-4.1-0.7-6.3-0.7C13.1,23,0.2,35.7,0.2,51.4S13.1,79.8,28.9,79.8z M42.9,8.2c7.9-7.9,20.8-8,28.8-0.3
		c3.9,3.8,6,8.8,6.1,14.2c0,5.4-2,10.4-5.8,14.3c-5.4,5.5-13.4,7.4-20.8,5.1c-0.4-0.1-0.8,0-1,0.3c-0.1,0.1-2.9,2.9-7.9,1.4
		c0.9-0.7,1.7-1.6,2-2.8c0.2-0.8,0.2-2.1-1-3.5c0,0,0-0.1-0.1-0.1c-0.1-0.1-0.3-0.3-0.4-0.4C35.1,28.4,35.2,16,42.9,8.2z M28.9,25
		c2.2,0,4.4,0.3,6.5,0.8c0.7,4.3,2.7,8.5,6,11.9c0.1,0.1,0.3,0.3,0.4,0.4c0.5,0.6,0.7,1.2,0.6,1.8c-0.3,1.3-2.1,2.3-2.7,2.6
		c-0.4,0.2-0.6,0.5-0.6,0.9c0,0.4,0.2,0.7,0.6,0.9c2.1,1,4,1.4,5.6,1.4c3.1,0,5.1-1.3,6-2c1.2,0.4,2.5,0.6,3.7,0.7
		c1.2,4.6,0.6,9.7,0.5,9.8c-0.3,2.9-1.4,6.7-2.9,9.7c0,0,0,0.1-0.1,0.1c-1.6,4.9,4.1,8.4,6.9,9.8c-5.8,4.7-13.3-0.8-13.6-1
		c-0.3-0.3-0.8-0.3-1.2,0c-4.6,3.3-10,5.1-15.7,5.1C14.2,77.8,2.2,66,2.2,51.4S14.2,25,28.9,25z"/>
	<path class="st2" d="M28.9,80C13,80,0,67.2,0,51.4c0-15.8,13-28.6,28.9-28.6c2,0,4,0.2,6,0.6c-0.3-6.2,2-12.3,6.5-16.8
		c8.7-8.8,23-8.9,31.9-0.3c4.3,4.2,6.7,9.8,6.7,15.7c0.1,6-2.2,11.6-6.5,15.8c-4.3,4.3-10,6.7-16,6.7c-0.1,0-0.2,0-0.3,0
		c1,4.8,0.4,9.5,0.4,9.7c-0.3,3.1-1.5,7.1-3.1,10.3c-1.2,4.2,7,7.6,7.1,7.6c0.4,0.1,0.6,0.5,0.7,0.8c0.1,0.4,0,0.8-0.3,1.1
		C56,80.8,47.8,76.6,45.2,75C40.4,78.3,34.8,80,28.9,80z M28.9,23.2c-15.7,0-28.5,12.7-28.5,28.2c0,15.6,12.8,28.2,28.5,28.2
		c5.8,0,11.5-1.7,16.2-5l0.1-0.1l0.1,0.1c2.3,1.5,10.5,5.8,16.4-0.6c0.2-0.2,0.3-0.5,0.2-0.7c-0.1-0.3-0.2-0.5-0.5-0.6
		c-0.1,0-8.7-3.5-7.3-8.2c1.5-3.2,2.7-7.2,3-10.2c0-0.2,0.7-5.1-0.4-9.8l-0.1-0.2l0.3,0c0.2,0,0.4,0,0.5,0c6,0,11.5-2.3,15.7-6.6
		c4.1-4.2,6.4-9.7,6.3-15.6c-0.1-5.9-2.4-11.3-6.6-15.4C64.3-1.8,50.2-1.7,41.7,7c-4.4,4.4-6.7,10.5-6.3,16.7l0,0.3l-0.3-0.1
		C33,23.4,30.9,23.2,28.9,23.2z M28.9,78C14.1,78,2,66.1,2,51.4s12.1-26.6,26.9-26.6c2.2,0,4.4,0.3,6.5,0.8l0.1,0l0,0.1
		c0.7,4.4,2.8,8.5,5.9,11.8c0.1,0.1,0.3,0.3,0.4,0.4c0.6,0.7,0.8,1.3,0.6,2c-0.4,1.6-2.8,2.7-2.9,2.7c-0.3,0.1-0.5,0.4-0.5,0.7
		c0,0.3,0.2,0.6,0.5,0.7c1.9,0.9,3.8,1.4,5.5,1.4c3,0,4.9-1.3,5.8-2l0.1-0.1l0.1,0c1.2,0.3,2.4,0.6,3.7,0.7l0.1,0l0,0.1
		c1.2,4.7,0.5,9.8,0.5,9.9c-0.3,2.9-1.4,6.8-2.9,9.7c0,0,0,0.1,0,0.1c-1.5,4.8,4.3,8.3,6.8,9.6l0.3,0.1l-0.2,0.2
		c-5.9,4.8-13.5-0.8-13.8-1c-0.3-0.2-0.7-0.2-0.9,0C40.1,76.2,34.6,78,28.9,78z M28.9,25.2c-14.6,0-26.5,11.8-26.5,26.2
		s11.9,26.2,26.5,26.2c5.7,0,11.1-1.7,15.6-5c0.4-0.3,1-0.3,1.4,0c0.3,0.2,7.5,5.4,13.1,1.2c-2.8-1.4-8.3-5-6.7-9.9
		c0-0.1,0-0.1,0.1-0.2c1.5-3,2.6-6.7,2.9-9.6c0-0.1,0.7-5-0.5-9.6c-1.2-0.2-2.4-0.4-3.5-0.7c-1,0.8-3,2-6,2c-1.8,0-3.7-0.5-5.7-1.4
		c-0.4-0.2-0.7-0.6-0.7-1.1c0-0.5,0.3-0.9,0.7-1.1c0.6-0.3,2.3-1.3,2.6-2.4c0.1-0.5-0.1-1-0.5-1.6c-0.1-0.1-0.3-0.3-0.4-0.4
		c-3.2-3.3-5.3-7.4-6-11.8C33.1,25.4,31,25.2,28.9,25.2z M45.2,43.8c-0.9,0-1.9-0.1-3-0.5l-0.4-0.1l0.3-0.2c1.1-0.8,1.7-1.7,2-2.7
		c0.2-0.8,0.2-2-1-3.4c0,0,0,0-0.1-0.1c-0.1-0.1-0.3-0.3-0.4-0.4c-7.7-8-7.7-20.4,0.2-28.3v0c7.9-8,21-8.1,29.1-0.3
		c3.9,3.8,6.1,8.9,6.1,14.3c0,5.4-2,10.5-5.9,14.4c-5.5,5.5-13.5,7.5-21,5.1c-0.3-0.1-0.6,0-0.8,0.2C50.2,42,48.5,43.8,45.2,43.8z
		 M42.7,43c4.7,1.3,7.3-1.3,7.4-1.4c0.3-0.3,0.8-0.4,1.2-0.3c7.3,2.3,15.2,0.4,20.6-5c3.8-3.8,5.8-8.8,5.8-14.1c0-5.3-2.2-10.3-6-14
		c-7.9-7.7-20.7-7.6-28.5,0.3l-0.1-0.1l0.1,0.1c-7.7,7.7-7.8,19.9-0.2,27.8c0.1,0.1,0.3,0.3,0.4,0.4c0,0,0.1,0.1,0.1,0.1
		c1.2,1.5,1.2,2.8,1,3.7C44.2,41.3,43.6,42.2,42.7,43z"/>
</g>
<path class="st0" d="M37.2,67.6c0.1,0,0.7,0.1,1.6,0.1c1.6,0,3.9-0.4,4.8-2.3l0.8-1.4c1.1-1.8,0.5-4.2-1.3-5.4l-3.8-2.5
	c-1.3-0.9-3-0.9-4.3-0.2l-3.2,1.5c-0.1,0.1-0.3,0.1-0.4,0l-0.6-0.3c-2.1-1-5.2-2.6-7.5-7.7c-0.1-0.1-0.1-0.3,0.1-0.5l1.4-2.8
	c0.8-1.3,0.8-2.8,0.1-4.1l-2.5-4.4c-1.1-1.9-3.4-2.6-5.3-1.6c-2.8,1.4-4.2,3.7-4,6.4C13,43.9,12.9,65.5,37.2,67.6z M15.1,42.4
	c-0.2-2,0.8-3.5,2.9-4.5c0.3-0.1,0.6-0.2,0.9-0.2c0.7,0,1.4,0.4,1.8,1l2.5,4.4c0.4,0.6,0.4,1.4-0.1,2.1l-1.4,2.8
	c-0.4,0.7-0.5,1.5-0.1,2.3c2.6,5.7,6.2,7.5,8.4,8.6l0.5,0.3c0.8,0.4,1.6,0.4,2.3,0l3.2-1.5c0.7-0.4,1.6-0.4,2.2,0.1l3.8,2.5
	c0.9,0.6,1.2,1.8,0.6,2.7l-0.9,1.5c-0.8,1.7-4.2,1.2-4.4,1.1C14.3,63.6,15,43.4,15.1,42.5C15.1,42.5,15.1,42.4,15.1,42.4z"/>
</svg>
