<svg width="1920" height="343" viewBox="0 0 1920 343" fill="none" xmlns="http://www.w3.org/2000/svg">
<path d="M1920.5 1L1889 11L1842.6 10L1829.66 16.2012L1815.89 17.668L1801.47 15.7981L1789.96 27.795L1776.12 28.4486L1765.57 38.5088L1751.03 38.4707L1739.43 45.7236L1727.07 51.1425L1715.49 59.4903L1700.86 56.404L1688.95 66.6026L1674.87 61.1503L1661.22 62.9678L1647.63 65.5079L1634.01 68.0503L1621 72.427L1609.73 82.3966L1595.65 81.5856L1582.64 85.2563L1569.99 86.3153L1557.96 92.7382L1544.52 87.9204L1533.3 96.3564L1522.13 102.355L1508.93 103.097L1498.22 110.421L1488 118.573L1473.8 119.1L1463.89 129.743L1451.96 136.96L1436.92 133.859L1426.16 145.663L1413.67 150.922L1400.11 152.334L1387.13 156.129L1375.17 162.692L1361.8 167.742L1355.89 183.939L1345.84 194.528L1334.93 204.763L1324.83 216.462L1310.01 219.562L1296.55 226.586L1282.23 218.63L1267.64 217.27L1252.41 219.052L1238.26 215.999L1224.49 218.081L1210.72 210.969L1196.87 217.251L1183.12 214.675L1169.45 212.982L1155.6 212.223L1142.07 209.099L1130.37 199.814L1115.41 200.751L1103.76 192.403L1091.25 186.121L1079.82 177.864L1066.19 173.416L1057.29 160.746L1044.42 154.624L1031.58 148.446L1021.65 137.628L1011.34 127.36L1000.36 118.042L985.035 116.329L973.983 107.242L961.142 101.613L949.661 92.8408L936.366 93.3703L925.41 83.3315L912.617 81.5141L899.847 80.4551L887.101 80.2953L874.331 83.9468L861.8 79.8731L849.388 78.3181L836.284 80.5076L823.705 71.523L812.152 61.3602L800.457 50.842L784.966 48.4951L774.392 55.5883L763.006 60.8474L753.244 69.5648L739.137 72.3888L729.733 81.7764L720.973 93.7948L705.602 96.1418L698.25 109.961L684.239 114.6L676.84 128.047L664.022 134.506L656.599 147.564L642.588 153.016L633.852 164.465L623.254 173.96L615.091 185.942L607.668 198.469L601.223 210.647L594.253 222.522L580.887 227.8L574.92 241.352L564.179 249.788L550.335 250.981L538.257 257.017L526.036 249.18L511.763 254.792L501.8 243.408L487.156 245.369L478.916 231.535L465.266 230.402L452.484 227.454L441.505 219.779L430.171 211.804L416.411 213.921L404.584 205.433L390.814 212.033L378.078 210.02L365.559 203.773L352.698 202.58L339.551 204.25L326.647 202.75L313.93 200.033L301.184 193.064L287.681 190.095L274.133 186.994L260.39 184.592L246.324 184.609L232.571 184.327L219.006 177.323L205.451 182.918L191.779 179.068L178.274 182.846L164.628 183.562L151.044 181.516L137.677 178.692L123.292 179.839L111.885 170.186L100.189 162.9L87.0801 158.433L73.7136 154.287L64.9299 140.716L50.3031 139.956L37.2826 136.445L24.2788 132.917L11.8479 126.07L-1.23706 129.597L-14.0332 132.44L-26.7791 134.451L-39.549 136.409L-52.8202 128.3L-65.4706 135.748L-78.5341 137.418L-91.3779 133.482L-105.372 133.924L-118.09 126.628L-130.74 120.822L-143.434 115.668L-158.347 117.452L-170.214 109.441L-183.023 104.306L-196.389 100.936L-209.161 95.6409L-221.592 88.5453L-236.63 92.7287L-249.368 86.8686L-261.363 78.082L-274.311 73.8293L-289.449 76.6342L-300.391 66.3116L-314.518 65.868L-322.634 54.911L-331 46.2746" stroke="#1E1E1E" stroke-width="2"/>
<path d="M2007.34 336.817L1999.92 336.46L1974.57 332.293L1948.86 332.107L1923.75 327.298L1898.83 321.555L1872.93 321.894L1847.61 318.524L1823.64 308.533L1797.25 310.512L1771.85 307.636L1747.45 299.927L1723.37 295.1L1698.38 291.63L1679.62 274.793L1657.99 264.664L1633.07 259.55L1612.83 246.814L1592.02 234.958L1569.32 226.052L1549.68 211.98L1520.29 207.983L1491.6 204.138L1463.77 196.143L1440.19 186.505L1422.26 170.027L1401.26 157.493L1380.4 144.454L1356.12 137.966L1330.87 137.289L1306.6 144.587L1282.51 149.212L1257.62 150.669L1232.87 153.462L1210.19 163.914L1185.99 169.28L1161.83 175.581L1136.39 180.829L1112.11 188.857L1088.2 197.884L1063.32 205.693L1036.26 205.643L1016.83 189.365L993.413 198.428L970.809 208.808L947.179 217.363L922.069 221.418L897.34 223.366L871.753 226.515L846.738 218.644L820.387 217.69L794.609 214.286L768.902 209.342L744.389 212.424L719.995 212.018L695.815 215.357L671.589 217.814L646.669 216.815L622.657 221.167L597.929 220.915L574.514 229.789L549.619 225.234L525.463 226.011L501.05 228.501L476.773 228.485L454.394 217.917L429.742 221.473L406.384 224.301L380.811 228.833L361.537 245.025L337.386 253.9L318.305 269.515L298.186 284.214L275.272 295.446L250.04 301.814L224.262 303.961L197.051 308.311L169.602 304.297L142.189 307.5L114.792 306.737L86.8773 306.431L63.1779 316.714L37.5689 318.948L11.8646 321.438L-10.6223 334.394L-35.9233 338.339L-48.5739 341.137" stroke="#1E1E1E" stroke-width="2"/>
</svg>
