<svg width="1847" height="316" viewBox="0 0 1847 316" fill="none" xmlns="http://www.w3.org/2000/svg">
<path d="M2178.61 134.233L2157.97 130.179L2142.91 117.173L2121.09 110.888L2099.27 104.532L2082.42 93.4461L2064.95 82.8873L2046.31 73.347L2020.34 71.5916L2001.58 62.2635L1979.83 56.4845L1960.33 47.4833L1937.78 48.027L1919.18 37.7021L1897.51 35.856L1875.84 34.7684L1854.21 34.6038L1832.54 38.3365L1811.32 34.1721L1790.24 32.5789L1768.04 34.8233L1746.66 25.605L1727.09 15.1726L1707.25 4.35871L1680.97 1.97363L1663.05 9.25529L1643.71 14.6527L1627.15 23.5801L1603.23 26.497L1587.26 36.1327L1572.44 48.4659L1546.35 50.8749L1533.89 65.0565L1510.12 69.8266L1497.56 83.61L1475.79 90.2571L1463.19 103.659L1439.47 109.238L1424.62 121.01L1406.62 130.753L1392.8 143.053L1380.25 155.913L1369.29 168.409L1357.48 180.597L1334.8 185.997L1324.68 199.906L1306.47 208.564L1282.96 209.811L1262.45 216.013L1241.78 207.956L1217.53 213.716L1200.63 202.029L1175.81 204.039L1161.82 189.841L1138.65 188.663L1116.97 185.636L1098.36 177.766L1079.12 169.561L1055.77 171.753L1035.7 163.023L1012.36 169.816L990.754 167.751L969.511 161.34L947.695 160.126L925.401 161.845L903.514 160.307L881.936 157.516L860.311 150.361L837.444 147.299L814.435 144.131L791.139 141.667L767.27 141.687L743.95 141.396L720.941 134.188L697.955 139.945L674.754 135.998L651.84 139.874L628.687 140.618L605.654 138.517L582.978 135.617L558.584 136.795L539.251 126.887L519.415 119.408L497.17 114.824L474.518 110.569L459.624 96.642L434.8 95.8621L412.712 92.2583L390.648 88.6353L369.569 81.5898L347.371 85.2295L325.65 88.1488L304.032 90.2119L282.369 92.2225L259.86 83.8913L238.378 91.5523L216.226 93.272L194.438 89.2173L170.701 89.6943L149.099 82.1765L127.617 76.2138L106.088 70.9261L80.7866 72.7531L60.6555 64.5294L38.9349 59.2584L16.2594 55.8001L1 51.5" stroke="#1E1E1E" stroke-width="2"/>
<path d="M2157.97 130.179L2178.61 134.233L2020.34 147.299L1768.04 95.8621L1572.44 185.636L1262.45 315.5L711.807 251.5L16.2594 199.906L2 52L16.2594 55.8001L38.9349 59.2584L60.6555 64.5294L80.7866 72.7531L106.088 70.9261L127.617 76.2138L149.099 82.1765L170.701 89.6943L194.438 89.2173L216.226 93.272L238.378 91.5523L259.86 83.8913L282.369 92.2225L304.032 90.2119L325.65 88.1488L347.371 85.2295L369.569 81.5898L390.648 88.6353L412.712 92.2583L434.8 95.8621L459.624 96.642L474.518 110.569L497.17 114.824L519.415 119.408L539.251 126.887L558.584 136.795L582.978 135.617L605.654 138.517L628.687 140.618L651.84 139.874L674.754 135.998L697.955 139.945L720.941 134.188L743.95 141.396L767.27 141.687L791.139 141.667L814.435 144.131L837.444 147.299L860.311 150.361L881.936 157.516L903.514 160.307L925.401 161.845L947.695 160.126L969.511 161.34L990.754 167.751L1012.36 169.816L1035.7 163.023L1055.77 171.753L1079.12 169.561L1098.36 177.766L1116.97 185.636L1138.65 188.663L1161.82 189.841L1175.81 204.039L1200.63 202.029L1217.53 213.716L1241.78 207.956L1262.45 216.013L1282.96 209.811L1306.47 208.564L1324.68 199.906L1334.8 185.997L1357.48 180.597L1369.29 168.409L1380.25 155.913L1392.8 143.053L1406.62 130.753L1424.62 121.01L1439.47 109.238L1463.19 103.659L1475.79 90.2571L1497.56 83.61L1510.12 69.8266L1533.89 65.0565L1546.35 50.8749L1572.44 48.4659L1587.26 36.1327L1603.23 26.497L1627.15 23.5801L1643.71 14.6527L1663.05 9.25529L1680.97 1.97363L1707.25 4.35871L1727.09 15.1726L1746.66 25.605L1768.04 34.8233L1790.24 32.5789L1811.32 34.1721L1832.54 38.3365L1854.21 34.6038L1875.84 34.7684L1897.51 35.856L1919.18 37.7021L1937.78 48.027L1960.33 47.4833L1979.83 56.4845L2001.58 62.2635L2020.34 71.5916L2046.31 73.347L2064.95 82.8873L2082.42 93.4461L2099.27 104.532L2121.09 110.888L2142.91 117.173L2157.97 130.179Z" fill="#0E0E0E"/>
</svg>
