<svg width="1920" height="251" viewBox="0 0 1920 251" fill="none" xmlns="http://www.w3.org/2000/svg">
<path d="M1947.31 3.2975L1942.47 4.89545L1927.6 2L1914.66 8.20121L1900.89 9.66801L1886.47 7.79812L1874.96 19.795L1861.12 20.4486L1850.57 30.5088L1836.03 30.4707L1824.43 37.7236L1812.07 43.1425L1800.49 51.4903L1785.86 48.404L1773.95 58.6026L1759.87 53.1503L1746.22 54.9678L1732.63 57.5079L1719.01 60.0503L1706 64.427L1694.73 74.3966L1680.65 73.5856L1667.64 77.2563L1654.99 78.3153L1642.96 84.7382L1629.52 79.9204L1618.3 88.3564L1607.13 94.3549L1593.93 95.0966L1583.22 102.421L1573 110.573L1558.8 111.1L1548.89 121.743L1536.96 128.96L1521.92 125.859L1511.16 137.663L1498.67 142.922L1485.11 144.334L1472.13 148.129L1460.17 154.692L1446.8 159.742L1440.89 175.939L1430.84 186.528L1419.93 196.763L1409.83 208.462L1395.01 211.562L1381.55 218.586L1367.23 210.63L1352.64 209.27L1337.41 211.052L1323.26 207.999L1309.49 210.081L1295.72 202.969L1281.87 209.251L1268.12 206.675L1254.45 204.982L1240.6 204.223L1227.07 201.099L1215.37 191.814L1200.41 192.751L1188.76 184.403L1176.25 178.121L1164.82 169.864L1151.19 165.416L1142.29 152.746L1129.42 146.624L1116.58 140.446L1106.65 129.628L1096.34 119.36L1085.36 110.042L1070.03 108.329L1058.98 99.2419L1046.14 93.6131L1034.66 84.8408L1021.37 85.3703L1010.41 75.3315L997.617 73.5141L984.847 72.4551L972.101 72.2953L959.331 75.9468L946.8 71.8731L934.388 70.3181L921.284 72.5076L908.705 63.523L897.152 53.3602L885.457 42.842L869.966 40.4951L859.392 47.5883L848.006 52.8474L838.244 61.5648L824.137 64.3888L814.733 73.7764L805.973 85.7948L790.602 88.1418L783.25 101.961L769.239 106.6L761.84 120.047L749.022 126.506L741.599 139.564L727.588 145.016L718.852 156.465L708.254 165.96L700.091 177.942L692.668 190.469L686.223 202.647L679.253 214.522L665.887 219.8L659.92 233.352L649.179 241.788L635.335 242.981L623.257 249.017L611.036 241.18L596.763 246.792L586.8 235.408L572.156 237.369L563.916 223.535L550.266 222.402L537.484 219.454L526.505 211.779L515.171 203.804L501.411 205.921L489.584 197.433L475.814 204.033L463.078 202.02L450.559 195.773L437.698 194.58L424.551 196.25L411.647 194.75L398.93 192.033L386.184 185.064L372.681 182.095L359.133 178.994L345.39 176.592L331.324 176.609L317.571 176.327L304.006 169.323L290.451 174.918L276.779 171.068L263.274 174.846L249.628 175.562L236.044 173.516L222.677 170.692L208.292 171.839L196.885 162.186L185.189 154.9L172.08 150.433L158.714 146.287L149.93 132.716L135.303 131.956L122.283 128.445L109.279 124.917L96.8479 118.07L83.7629 121.597L70.9668 124.44L58.2209 126.451L45.451 128.409L32.1798 120.3L19.5294 127.748L6.46588 129.418L-6.37791 125.482L-20.3722 125.924L-33.0895 118.628L-45.74 112.822L-58.4336 107.668L-73.3469 109.452L-85.2144 101.441L-98.0225 96.3059L-111.389 92.9358L-124.161 87.6409L-136.592 80.5453L-151.63 84.7287L-164.368 78.8686L-176.363 70.082L-189.311 65.8293L-204.449 68.6342L-215.391 58.3116L-229.518 57.868L-237.634 46.911L-246 38.2746" stroke="#232323" stroke-width="2"/>
</svg>
