<svg width="1920" height="341" viewBox="0 0 1920 341" fill="none" xmlns="http://www.w3.org/2000/svg">
<path d="M2092.34 200.817L2084.92 200.46L2059.57 196.293L2033.86 196.107L2008.75 191.298L1983.83 185.555L1957.93 185.894L1932.61 182.524L1908.64 172.533L1882.25 174.512L1856.85 171.636L1832.45 163.927L1808.37 159.1L1783.38 155.63L1764.62 138.793L1742.99 128.664L1718.07 123.55L1697.83 110.814L1677.02 98.9579L1654.32 90.052L1634.68 75.9801L1605.29 71.9827L1576.6 68.138L1548.77 60.1432L1525.19 50.5051L1507.26 34.0266L1486.26 21.493L1465.4 8.45389L1441.12 1.96649L1415.87 1.28906L1391.6 8.58746L1367.51 13.2121L1342.62 14.6694L1317.87 17.4623L1295.19 27.9137L1270.99 33.2801L1246.83 39.5815L1221.39 44.8286L1197.11 52.8568L1173.2 61.8843L1148.32 69.6931L1121.26 69.643L1101.83 53.3648L1078.41 62.4281L1055.81 72.808L1032.18 81.3632L1007.07 85.4178L982.34 87.3665L956.753 90.5147L931.738 82.644L905.387 81.69L879.609 78.2865L853.902 73.3422L829.389 76.4237L804.995 76.0182L780.815 79.3574L756.589 81.814L731.669 80.8146L707.657 85.1674L682.929 84.9146L659.514 93.7895L634.619 89.234L610.463 90.0115L586.05 92.5015L561.773 92.4848L539.394 81.9166L514.742 85.4727L491.384 88.3014L465.811 92.833L446.537 109.025L422.386 117.9L403.305 133.515L383.186 148.214L360.272 159.446L335.04 165.814L309.262 167.961L282.051 172.311L254.602 168.297L227.189 171.5L199.792 170.737L171.877 170.431L148.178 180.714L122.569 182.948L96.8646 185.438L74.3777 198.394L49.0767 202.339L-3.5 196" stroke="#232323" stroke-width="2"/>
<path d="M2336.61 257.233L2315.97 253.179L2300.91 240.173L2279.09 233.888L2257.27 227.532L2240.42 216.446L2222.95 205.887L2204.31 196.347L2178.34 194.592L2159.58 185.263L2137.83 179.484L2118.33 170.483L2095.78 171.027L2077.18 160.702L2055.51 158.856L2033.84 157.768L2012.21 157.604L1990.54 161.336L1969.32 157.172L1948.24 155.579L1926.04 157.823L1904.66 148.605L1885.09 138.173L1865.25 127.359L1838.97 124.974L1821.05 132.255L1801.71 137.653L1785.15 146.58L1761.23 149.497L1745.26 159.133L1730.44 171.466L1704.35 173.875L1691.89 188.056L1668.12 192.827L1655.56 206.61L1633.79 213.257L1621.19 226.659L1597.47 232.238L1582.62 244.01L1564.62 253.753L1550.8 266.053L1538.25 278.913L1527.29 291.409L1515.48 303.597L1492.8 308.996L1482.68 322.906L1464.47 331.564L1440.96 332.811L1420.45 339.013L1399.78 330.956L1375.53 336.716L1358.63 325.029L1333.81 327.039L1319.82 312.841L1296.65 311.663L1274.97 308.636L1256.36 300.765L1237.12 292.561L1213.77 294.753L1193.7 286.023L1170.36 292.816L1148.75 290.751L1127.51 284.34L1105.69 283.125L1083.4 284.845L1061.51 283.307L1039.94 280.516L1018.31 273.361L995.444 270.299L972.435 267.131L949.139 264.667L925.27 264.687L901.95 264.396L878.941 257.188L855.955 262.945L832.754 258.998L809.84 262.874L786.687 263.618L763.654 261.517L740.978 258.616L716.584 259.795L697.251 249.887L677.415 242.408L655.17 237.823L632.518 233.568L617.624 219.642L592.8 218.862L570.712 215.258L548.648 211.635L527.569 204.59L505.371 208.229L483.65 211.149L462.032 213.212L440.369 215.222L417.86 206.891L396.378 214.552L374.226 216.272L352.438 212.217L328.701 212.694L307.099 205.176L285.617 199.214L264.088 193.926L238.787 195.753L218.655 187.529L196.935 182.258L174.259 178.8L160 175.5" stroke="#232323" stroke-width="2"/>
</svg>
