<?xml version="1.0" encoding="utf-8"?><!DOCTYPE svg PUBLIC "-//W3C//DTD SVG 1.1//EN" "http://www.w3.org/Graphics/SVG/1.1/DTD/svg11.dtd"><svg viewBox="0 0 612.08 612.08" xmlns="http://www.w3.org/2000/svg" xmlns:xlink="http://www.w3.org/1999/xlink"><style>:root>svg{display:none}:root>svg:target{display:block}</style><svg viewBox="0 0 24 24" id="arrowback" xmlns="http://www.w3.org/2000/svg"><defs><style>.acls-1{fill:#fff;opacity:0}.acls-2{fill:#41b5ec}</style></defs><g id="aLayer_2" data-name="Layer 2"><g id="aarrow-back"><g id="aarrow-back-2" data-name="arrow-back"><path class="acls-1" transform="rotate(90 12 12)" d="M0 0h24v24H0z"/><path class="acls-2" d="M19 11H7.14l3.63-4.36a1 1 0 10-1.54-1.28l-5 6a1.19 1.19 0 00-.09.15c0 .05 0 .08-.07.13A1 1 0 004 12a1 1 0 00.07.36c0 .05 0 .08.07.13a1.19 1.19 0 00.09.15l5 6A1 1 0 0010 19a1 1 0 00.64-.23 1 1 0 00.13-1.41L7.14 13H19a1 1 0 000-2z" fill="#41b5ec"/></g></g></g></svg><svg viewBox="0 0 612.08 612.08" id="search" xmlns="http://www.w3.org/2000/svg"><path d="M237.927 0C106.555 0 .035 106.52.035 237.893s106.52 237.893 237.893 237.893c50.518 0 97.368-15.757 135.879-42.597l.028-.028 176.432 176.433c3.274 3.274 8.48 3.358 11.839 0l47.551-47.551c3.274-3.274 3.106-8.703-.028-11.838L433.223 373.8c26.84-38.539 42.597-85.39 42.597-135.907C475.82 106.52 369.3 0 237.927 0zm0 419.811c-100.475 0-181.918-81.443-181.918-181.918S137.453 55.975 237.927 55.975s181.918 81.443 181.918 181.918-81.443 181.918-181.918 181.918z" fill="#aab5b7"/></svg></svg>