<svg width="26" height="20" viewBox="0 0 26 20" fill="none" xmlns="http://www.w3.org/2000/svg">
<path d="M25.0074 10.3205C25.023 10.3004 25.0409 10.2821 25.0551 10.2608C25.0868 10.2136 25.1123 10.1625 25.1369 10.1106C25.1441 10.0951 25.1539 10.0813 25.1605 10.0658C25.1878 10.0003 25.2087 9.93154 25.2237 9.86053C25.2245 9.85668 25.2261 9.85334 25.2269 9.84949C25.242 9.7752 25.25 9.69808 25.25 9.61909C25.25 9.5401 25.242 9.46298 25.2269 9.38869C25.2261 9.38484 25.2245 9.3815 25.2237 9.37765C25.2087 9.30664 25.1878 9.23784 25.1605 9.17237C25.1539 9.15692 25.1441 9.14306 25.1369 9.12761C25.1123 9.07567 25.0868 9.02458 25.0551 8.97733C25.0409 8.95606 25.023 8.93784 25.0074 8.91764C24.9776 8.87894 24.948 8.84057 24.9137 8.80628C24.9097 8.80244 24.9069 8.79746 24.9029 8.79355L16.1203 0.306197C15.6783 -0.12151 14.983 -0.0982542 14.5686 0.357856C14.154 0.81374 14.1763 1.52985 14.6188 1.95727L21.376 8.48744H1.09783C0.491552 8.48744 0 8.99414 0 9.61909C0 10.244 0.491552 10.7507 1.09783 10.7507H21.376L14.6188 17.2809C14.1763 17.7083 14.1541 18.4244 14.5687 18.8803C14.7848 19.1182 15.0769 19.2381 15.3698 19.2381C15.6389 19.2381 15.9085 19.1367 16.1203 18.932L24.9029 10.4446C24.9069 10.4408 24.9098 10.4358 24.9138 10.4319C24.9481 10.3977 24.9776 10.3592 25.0074 10.3205Z" fill="black"/>
</svg>
