<svg width="95" height="51" viewBox="0 0 95 51" fill="none" xmlns="http://www.w3.org/2000/svg">
<path fill-rule="evenodd" clip-rule="evenodd" d="M95 38.0338V38.3795H4.04089V38.3806H0V0.0113331H0.171905V0H94.5736V0.00339992H95V38.0338ZM90.958 3.65379H4.04089V34.7268H90.958V3.65379ZM28.2987 14.291H14.9161V16.9656H24.2182V20.7599H14.9161V24.0499H28.9128V27.8442H10.8696V10.4967H28.2987V14.291ZM46.153 19.6924L53.4567 10.4967H57.7849V27.8442H53.7383V16.0544L46.1282 25.6366L38.5881 16.0658V27.8442H34.5415V10.4967H38.881L46.153 19.6924ZM70.7773 23.8221L66.8008 27.8442H61.3745L68.1059 21.143L70.7773 23.8221ZM70.1869 19.0645L61.6674 10.4967H67.0915L72.9114 16.3956L78.7211 10.4967H84.1395L76.8007 17.8655L76.7996 17.8643L72.9317 21.7436L72.8944 21.7822L72.8492 21.7369L70.1858 19.0656L70.1869 19.0645ZM84.4369 27.8442H79.0083L75.0183 23.838L77.7089 21.1385L84.4369 27.8442ZM4.51137 45.2768H0.619762V47.6907H4.1178V48.1112H0.619762V50.5784H4.55435V51H0.16625V44.8552H4.51137V45.2768ZM12.2663 48.4886L14.7171 44.8552H15.1446V51H14.6911V45.6633L12.2742 49.1992H12.2403L9.82345 45.6633V51H9.3869V44.8552H9.81441L12.2663 48.4886ZM23.0918 44.8121L25.9361 51H25.4385L24.6627 49.2785H21.0595L20.2825 51H19.8109L22.6552 44.8121H23.0918ZM24.4704 48.8671L22.8645 45.3119L21.2506 48.8671H24.4704ZM31.117 51H30.6635V44.8552H31.117V51ZM36.8227 50.5784H40.4078V51H36.3692V44.8552H36.8227V50.5784ZM48.0236 48.4886L50.4744 44.8552H50.9019V51H50.4484V45.6633L48.0315 49.1992H47.9976L45.5808 45.6633V51H45.1442V44.8552H45.5717L48.0236 48.4886ZM58.8491 44.8121L61.6935 51H61.1958L60.42 49.2785H56.8168L56.0398 51H55.5693L58.4137 44.8121H58.8491ZM60.2277 48.8671L58.6229 45.3119L57.0079 48.8671H60.2277ZM69.8499 45.2768H67.7214V51H67.2668V45.2768H65.1383V44.8552H69.8499V45.2768ZM78.8873 45.4615C79.1746 45.7505 79.3499 46.163 79.3499 46.6198C79.3499 47.6465 78.591 48.2347 77.5607 48.3753L79.5761 51H79.0004L77.0552 48.4546H75.0568V51H74.6033V44.8552H77.1683C77.9192 44.8552 78.5209 45.0921 78.8873 45.4615ZM75.0568 45.2768V48.0421H77.1162C78.1364 48.0421 78.8964 47.523 78.8964 46.6198C78.8964 45.7947 78.2506 45.2768 77.1423 45.2768H75.0568ZM84.8011 51H84.3476V44.8552H84.8011V51ZM89.6777 44.8552H90.2183L92.3038 47.5593L94.3802 44.8552H94.9118L92.5741 47.8573L95 51H94.4583L92.2857 48.1645L90.1222 51H89.5907L92.0245 47.8664L89.6777 44.8552Z" fill="white"/>
</svg>
