<?xml version="1.0" encoding="iso-8859-1"?><!DOCTYPE svg PUBLIC "-//W3C//DTD SVG 1.1//EN" "http://www.w3.org/Graphics/SVG/1.1/DTD/svg11.dtd"><svg viewBox="0 0 284.929 284.929" xmlns="http://www.w3.org/2000/svg" xmlns:xlink="http://www.w3.org/1999/xlink"><style>:root>svg{display:none}:root>svg:target{display:block}</style><svg viewBox="0 0 284.929 284.929" id="arrow" xmlns="http://www.w3.org/2000/svg"><path d="M282.082 76.511l-14.274-14.273c-1.902-1.906-4.093-2.856-6.57-2.856-2.471 0-4.661.95-6.563 2.856L142.466 174.441 30.262 62.241c-1.903-1.906-4.093-2.856-6.567-2.856-2.475 0-4.665.95-6.567 2.856L2.856 76.515C.95 78.417 0 80.607 0 83.082c0 2.473.953 4.663 2.856 6.565l133.043 133.046c1.902 1.903 4.093 2.854 6.567 2.854s4.661-.951 6.562-2.854L282.082 89.647c1.902-1.903 2.847-4.093 2.847-6.565 0-2.475-.945-4.665-2.847-6.571z"/></svg><svg fill="none" viewBox="0 0 17 15" id="burger" xmlns="http://www.w3.org/2000/svg"><path fill-rule="evenodd" clip-rule="evenodd" d="M12.773 11.163h3.943v3.72h-3.943v-3.72zm-5.915 0h3.943v3.72H6.858v-3.72zm-5.915 0h3.943v3.72H.943v-3.72zm11.83-5.582h3.943v3.721h-3.943v-3.72zm-5.915 0h3.943v3.721H6.858v-3.72zm-5.915 0h3.943v3.721H.943v-3.72zM12.773 0h3.943v3.72h-3.943V0zM6.858 0h3.943v3.72H6.858V0zM.943 0h3.943v3.72H.943V0z" fill="#fff"/></svg><svg fill="none" viewBox="0 0 12 12" id="close" xmlns="http://www.w3.org/2000/svg"><path d="M7.409 6l4.295-4.287a1.003 1.003 0 00-1.418-1.42L6 4.59 1.714.294A1.003 1.003 0 10.296 1.713L4.59 5.999.296 10.286a1 1 0 000 1.418 1 1 0 001.418 0L6 7.408l4.286 4.296a.998.998 0 001.418 0 1 1 0 000-1.418L7.41 5.999z" fill="#8F8F8F"/></svg><svg fill="none" viewBox="0 0 25 24" id="star" xmlns="http://www.w3.org/2000/svg"><path d="M8.298 7.245L11.527.636a1.125 1.125 0 012.026 0l3.228 6.61L24 8.311c.925.137 1.295 1.287.624 1.947L19.402 15.4l1.233 7.263c.158.933-.81 1.644-1.64 1.203l-6.456-3.43-6.455 3.43c-.83.44-1.798-.27-1.64-1.203L5.677 15.4.454 10.26c-.67-.66-.301-1.811.625-1.948l7.22-1.067z" fill="#FC0"/></svg></svg>